<svg width="20" height="20" viewBox="0 0 20 20" fill="none" xmlns="http://www.w3.org/2000/svg">
<path d="M7.58925 4.53984C8.08759 3.0815 10.1026 3.03734 10.6934 4.40734L10.7434 4.54067L11.4159 6.50734C11.57 6.95837 11.8191 7.3711 12.1463 7.71769C12.4735 8.06428 12.8712 8.33668 13.3126 8.5165L13.4934 8.584L15.4601 9.25567C16.9184 9.754 16.9626 11.769 15.5934 12.3598L15.4601 12.4098L13.4934 13.0823C13.0422 13.2364 12.6293 13.4854 12.2826 13.8126C11.9359 14.1397 11.6633 14.5375 11.4834 14.979L11.4159 15.159L10.7443 17.1265C10.2459 18.5848 8.23092 18.629 7.64092 17.2598L7.58925 17.1265L6.91759 15.1598C6.76357 14.7087 6.51456 14.2958 6.18737 13.949C5.86018 13.6023 5.46241 13.3298 5.02092 13.1498L4.84092 13.0823L2.87425 12.4107C1.41509 11.9123 1.37092 9.89734 2.74092 9.30734L2.87425 9.25567L4.84092 8.584C5.29195 8.42988 5.70468 8.18083 6.05127 7.85365C6.39787 7.52646 6.67026 7.12875 6.85009 6.68734L6.91759 6.50734L7.58925 4.53984ZM15.8334 1.6665C15.9893 1.6665 16.1421 1.71024 16.2744 1.79273C16.4067 1.87522 16.5132 1.99317 16.5818 2.13317L16.6218 2.23067L16.9134 3.08567L17.7693 3.37734C17.9255 3.43042 18.0625 3.52868 18.1628 3.65968C18.2631 3.79068 18.3223 3.94852 18.3328 4.11319C18.3434 4.27786 18.3048 4.44195 18.2219 4.58466C18.1391 4.72737 18.0158 4.84229 17.8676 4.91484L17.7693 4.95484L16.9143 5.2465L16.6226 6.10234C16.5694 6.25853 16.4711 6.39542 16.34 6.49566C16.209 6.59591 16.0511 6.655 15.8865 6.66544C15.7218 6.67588 15.5577 6.63721 15.4151 6.55432C15.2724 6.47143 15.1576 6.34806 15.0851 6.19984L15.0451 6.10234L14.7534 5.24734L13.8976 4.95567C13.7414 4.90259 13.6044 4.80432 13.5041 4.67332C13.4037 4.54233 13.3446 4.38449 13.334 4.21982C13.3235 4.05515 13.3621 3.89106 13.4449 3.74835C13.5277 3.60563 13.6511 3.49072 13.7993 3.41817L13.8976 3.37817L14.7526 3.0865L15.0443 2.23067C15.1004 2.06603 15.2068 1.92309 15.3483 1.82192C15.4898 1.72074 15.6595 1.6664 15.8334 1.6665Z" fill="#09332C"/>
</svg>
