<svg width="46" height="46" viewBox="0 0 46 46" fill="none" xmlns="http://www.w3.org/2000/svg">
<path d="M39.4414 14.9401C37.764 12.0139 35.1774 10.3752 31.7535 10.0679C29.9404 9.90618 28.2496 10.3707 26.6117 10.8208C25.3404 11.1703 24.1392 11.5 23 11.5C21.8608 11.5 20.6641 11.1694 19.4009 10.8199C17.7585 10.3707 16.0605 9.8981 14.2411 10.0688C10.9717 10.3752 8.35547 12.0552 6.66641 14.9275C5.10492 17.5878 4.3125 21.2714 4.3125 25.875C4.3125 29.5047 5.66016 34.005 7.90625 37.9141C9.05805 39.9131 12.1289 44.5625 15.737 44.5625C18.5015 44.5625 19.9732 43.7144 21.0477 43.0954C21.7934 42.6659 22.2435 42.4063 22.9964 42.4063C23.7493 42.4063 24.1994 42.6659 24.9451 43.0954C26.0232 43.7144 27.4922 44.5625 30.2594 44.5625C33.8684 44.5625 36.9384 39.9122 38.0902 37.9141C40.3425 34.0059 41.6839 29.5056 41.6839 25.875C41.6875 21.1519 40.9526 17.5752 39.4414 14.9401ZM19.4063 31.625C18.2158 31.625 17.25 29.6943 17.25 27.3125C17.25 24.9308 18.2158 23 19.4063 23C20.5967 23 21.5625 24.9308 21.5625 27.3125C21.5625 29.6943 20.5967 31.625 19.4063 31.625ZM26.5938 31.625C25.4033 31.625 24.4375 29.6943 24.4375 27.3125C24.4375 24.9308 25.4033 23 26.5938 23C27.7842 23 28.75 24.9308 28.75 27.3125C28.75 29.6943 27.7842 31.625 26.5938 31.625Z" fill="#FFA74F"/>
<path d="M23.8176 10.0562C24.9999 9.89899 27.219 9.35274 29.1031 7.46961C30.5084 6.06097 31.3951 4.21786 31.6187 2.24071C31.6315 2.13518 31.6207 2.02812 31.5872 1.92726C31.5536 1.82639 31.4981 1.73422 31.4246 1.6574C31.3511 1.58057 31.2615 1.521 31.1623 1.48298C31.063 1.44495 30.9565 1.42942 30.8505 1.4375C29.7086 1.52286 27.5479 1.96489 25.574 3.93965C24.1237 5.36486 23.2138 7.24979 23 9.27188C22.9889 9.38053 23.0027 9.49028 23.0404 9.59279C23.0781 9.6953 23.1386 9.78788 23.2174 9.86349C23.2963 9.9391 23.3913 9.99575 23.4953 10.0291C23.5992 10.0625 23.7095 10.0718 23.8176 10.0562Z" fill="#FFA74F"/>
</svg>
