<svg width="28" height="28" viewBox="0 0 28 28" fill="none" xmlns="http://www.w3.org/2000/svg">
<path d="M17.5 2.33325C17.7974 2.33358 18.0834 2.44744 18.2996 2.65158C18.5158 2.85571 18.6459 3.1347 18.6634 3.43155C18.6808 3.72839 18.5842 4.02069 18.3934 4.24872C18.2025 4.47675 17.9318 4.6233 17.6365 4.65842L17.5 4.66659C16.6915 4.66659 15.9483 5.47625 15.5272 6.47725C16.2469 6.11097 17.0336 5.89503 17.8395 5.84259L18.1487 5.83325C21.6277 5.83325 24.5 9.39508 24.5 13.2066C24.5 17.3448 23.793 20.0456 21.6732 23.2143C19.6992 25.8404 16.8992 26.4261 14.1948 24.6539C14.1399 24.6189 14.0766 24.5993 14.0115 24.5972C13.9464 24.5952 13.882 24.6107 13.825 24.6423C11.1008 26.4249 8.30083 25.8404 6.28833 23.1606C4.20817 20.0479 3.5 17.3459 3.5 13.2066L3.50467 12.9476C3.63067 9.23642 6.45167 5.83325 9.85133 5.83325C10.948 5.83325 12.012 6.17275 12.9873 6.75725C13.4762 4.48225 15.1083 2.33325 17.5 2.33325ZM9.29367 9.51292C7.707 10.5139 7 11.9163 7 13.9999C7 14.3093 7.12292 14.6061 7.34171 14.8249C7.5605 15.0437 7.85725 15.1666 8.16667 15.1666C8.47609 15.1666 8.77283 15.0437 8.99162 14.8249C9.21042 14.6061 9.33333 14.3093 9.33333 13.9999C9.33333 12.6874 9.66 12.0423 10.5397 11.4869C10.8014 11.3217 10.9868 11.0592 11.0551 10.7573C11.1234 10.4554 11.0689 10.1387 10.9037 9.87692C10.7384 9.61515 10.476 9.42974 10.1741 9.36148C9.87212 9.29321 9.55544 9.34769 9.29367 9.51292Z" fill="#FFFFF9"/>
</svg>
