<svg width="22" height="22" viewBox="0 0 22 22" fill="none" xmlns="http://www.w3.org/2000/svg">
<path d="M13.0929 3.20921L5.96764 10.5187C5.8425 10.6471 5.77246 10.8193 5.77246 10.9986C5.77246 11.1779 5.8425 11.3501 5.96764 11.4785L13.0929 18.7907C13.1512 18.8506 13.2209 18.8982 13.2979 18.9307C13.3749 18.9632 13.4576 18.9799 13.5411 18.9799C13.6247 18.9799 13.7074 18.9632 13.7844 18.9307C13.8614 18.8982 13.9311 18.8506 13.9894 18.7907C14.1093 18.6679 14.1765 18.5031 14.1765 18.3315C14.1765 18.1598 14.1093 17.995 13.9894 17.8722L7.28902 10.9986L13.9894 4.12633C14.1089 4.00361 14.1758 3.83908 14.1758 3.66777C14.1758 3.49646 14.1089 3.33192 13.9894 3.20921C13.9311 3.14933 13.8614 3.10175 13.7844 3.06925C13.7074 3.03676 13.6247 3.02002 13.5411 3.02002C13.4576 3.02002 13.3749 3.03676 13.2979 3.06925C13.2209 3.10175 13.1512 3.14933 13.0929 3.20921Z" fill="#FFFCF8"/>
</svg>
