<svg width="28" height="28" viewBox="0 0 28 28" fill="none" xmlns="http://www.w3.org/2000/svg">
<path opacity="0.2" d="M26.2498 13.5625C26.2502 14.6485 25.9137 15.7078 25.2869 16.5946C24.6601 17.4813 23.7737 18.1519 22.7498 18.5139V19.25C22.7498 20.4103 22.2889 21.5231 21.4684 22.3436C20.6479 23.1641 19.5351 23.625 18.3748 23.625C17.2145 23.625 16.1017 23.1641 15.2812 22.3436C14.4608 21.5231 13.9998 20.4103 13.9998 19.25C13.9998 20.4103 13.5389 21.5231 12.7184 22.3436C11.8979 23.1641 10.7851 23.625 9.62482 23.625C8.46449 23.625 7.3517 23.1641 6.53122 22.3436C5.71075 21.5231 5.24982 20.4103 5.24982 19.25V18.5139C4.22509 18.1527 3.33767 17.4825 2.70995 16.5956C2.08222 15.7088 1.74512 14.649 1.74512 13.5625C1.74512 12.476 2.08222 11.4162 2.70995 10.5294C3.33767 9.64253 4.22509 8.9723 5.24982 8.61109V7.875C5.24982 6.71468 5.71075 5.60188 6.53122 4.78141C7.3517 3.96094 8.46449 3.5 9.62482 3.5C10.7851 3.5 11.8979 3.96094 12.7184 4.78141C13.5389 5.60188 13.9998 6.71468 13.9998 7.875C13.9998 6.71468 14.4608 5.60188 15.2812 4.78141C16.1017 3.96094 17.2145 3.5 18.3748 3.5C19.5351 3.5 20.6479 3.96094 21.4684 4.78141C22.2889 5.60188 22.7498 6.71468 22.7498 7.875V8.61109C23.7737 8.97308 24.6601 9.64365 25.2869 10.5304C25.9137 11.4172 26.2502 12.4765 26.2498 13.5625Z" fill="white"/>
<path d="M27.1248 13.5624C27.1237 12.4034 26.7943 11.2684 26.1749 10.2888C25.5555 9.30919 24.6714 8.52499 23.6248 8.02697V7.87494C23.6238 6.74752 23.2599 5.65038 22.587 4.74584C21.914 3.84131 20.9677 3.17744 19.8881 2.85247C18.8086 2.52749 17.6531 2.55868 16.5926 2.94141C15.5321 3.32414 14.623 4.03808 13.9998 4.9776C13.3766 4.03808 12.4675 3.32414 11.4071 2.94141C10.3466 2.55868 9.19111 2.52749 8.11155 2.85247C7.03198 3.17744 6.08571 3.84131 5.41274 4.74584C4.73977 5.65038 4.37585 6.74752 4.37484 7.87494V8.02697C3.3274 8.52363 2.4424 9.30733 1.8227 10.287C1.20299 11.2667 0.874023 12.4021 0.874023 13.5613C0.874023 14.7206 1.20299 15.856 1.8227 16.8357C2.4424 17.8154 3.3274 18.5991 4.37484 19.0957V19.2499C4.37585 20.3774 4.73977 21.4745 5.41274 22.379C6.08571 23.2836 7.03198 23.9474 8.11155 24.2724C9.19111 24.5974 10.3466 24.5662 11.4071 24.1835C12.4675 23.8007 13.3766 23.0868 13.9998 22.1473C14.623 23.0868 15.5321 23.8007 16.5926 24.1835C17.6531 24.5662 18.8086 24.5974 19.8881 24.2724C20.9677 23.9474 21.914 23.2836 22.587 22.379C23.2599 21.4745 23.6238 20.3774 23.6248 19.2499V19.0957C24.6712 18.5981 25.5553 17.8143 26.1747 16.835C26.7941 15.8558 27.1235 14.7211 27.1248 13.5624ZM9.62484 22.7499C8.76182 22.7498 7.92926 22.4308 7.28709 21.8543C6.64491 21.2777 6.2384 20.4842 6.14562 19.6262C6.42859 19.6665 6.71402 19.687 6.99984 19.6874H7.87484C8.10691 19.6874 8.32947 19.5953 8.49356 19.4312C8.65766 19.2671 8.74984 19.0445 8.74984 18.8124C8.74984 18.5804 8.65766 18.3578 8.49356 18.1937C8.32947 18.0296 8.10691 17.9374 7.87484 17.9374H6.99984C5.96686 17.9386 4.96677 17.5743 4.17663 16.9089C3.38649 16.2435 2.85728 15.32 2.68268 14.3019C2.50808 13.2838 2.69936 12.2367 3.22266 11.3461C3.74596 10.4555 4.56751 9.77875 5.54187 9.43572C5.71236 9.37536 5.85995 9.26366 5.96435 9.11597C6.06874 8.96829 6.12481 8.79189 6.12484 8.61103V7.87494C6.12484 6.94668 6.49359 6.05644 7.14997 5.40007C7.80635 4.74369 8.69659 4.37494 9.62484 4.37494C10.5531 4.37494 11.4433 4.74369 12.0997 5.40007C12.7561 6.05644 13.1248 6.94668 13.1248 7.87494V15.3409C12.164 14.4767 10.9171 13.999 9.62484 13.9999C9.39278 13.9999 9.17022 14.0921 9.00612 14.2562C8.84203 14.4203 8.74984 14.6429 8.74984 14.8749C8.74984 15.107 8.84203 15.3296 9.00612 15.4937C9.17022 15.6578 9.39278 15.7499 9.62484 15.7499C10.5531 15.7499 11.4433 16.1187 12.0997 16.7751C12.7561 17.4314 13.1248 18.3217 13.1248 19.2499C13.1248 20.1782 12.7561 21.0684 12.0997 21.7248C11.4433 22.3812 10.5531 22.7499 9.62484 22.7499ZM20.9998 17.9374H20.1248C19.8928 17.9374 19.6702 18.0296 19.5061 18.1937C19.342 18.3578 19.2498 18.5804 19.2498 18.8124C19.2498 19.0445 19.342 19.2671 19.5061 19.4312C19.6702 19.5953 19.8928 19.6874 20.1248 19.6874H20.9998C21.2857 19.687 21.5711 19.6665 21.8541 19.6262C21.7814 20.2985 21.5155 20.9353 21.0885 21.4597C20.6616 21.9841 20.0919 22.3736 19.4483 22.5811C18.8047 22.7886 18.1148 22.8052 17.462 22.6289C16.8092 22.4527 16.2214 22.0911 15.7697 21.5878C15.318 21.0846 15.0218 20.4613 14.9168 19.7933C14.8118 19.1253 14.9026 18.4411 15.1782 17.8236C15.4537 17.2061 15.9023 16.6817 16.4696 16.3136C17.0369 15.9456 17.6986 15.7498 18.3748 15.7499C18.6069 15.7499 18.8295 15.6578 18.9936 15.4937C19.1577 15.3296 19.2498 15.107 19.2498 14.8749C19.2498 14.6429 19.1577 14.4203 18.9936 14.2562C18.8295 14.0921 18.6069 13.9999 18.3748 13.9999C17.0825 13.999 15.8357 14.4767 14.8748 15.3409V7.87494C14.8748 6.94668 15.2436 6.05644 15.9 5.40007C16.5563 4.74369 17.4466 4.37494 18.3748 4.37494C19.3031 4.37494 20.1933 4.74369 20.8497 5.40007C21.5061 6.05644 21.8748 6.94668 21.8748 7.87494V8.61103C21.8749 8.79189 21.9309 8.96829 22.0353 9.11597C22.1397 9.26366 22.2873 9.37536 22.4578 9.43572C23.4322 9.77875 24.2537 10.4555 24.777 11.3461C25.3003 12.2367 25.4916 13.2838 25.317 14.3019C25.1424 15.32 24.6132 16.2435 23.8231 16.9089C23.0329 17.5743 22.0328 17.9386 20.9998 17.9374ZM22.7498 12.2499C22.7498 12.482 22.6577 12.7046 22.4936 12.8687C22.3295 13.0328 22.1069 13.1249 21.8748 13.1249H21.4373C20.3931 13.1249 19.3915 12.7101 18.6531 11.9717C17.9147 11.2332 17.4998 10.2317 17.4998 9.18744V8.74994C17.4998 8.51787 17.592 8.29532 17.7561 8.13122C17.9202 7.96713 18.1428 7.87494 18.3748 7.87494C18.6069 7.87494 18.8295 7.96713 18.9936 8.13122C19.1577 8.29532 19.2498 8.51787 19.2498 8.74994V9.18744C19.2498 9.7676 19.4803 10.324 19.8905 10.7342C20.3008 11.1445 20.8572 11.3749 21.4373 11.3749H21.8748C22.1069 11.3749 22.3295 11.4671 22.4936 11.6312C22.6577 11.7953 22.7498 12.0179 22.7498 12.2499ZM6.56234 13.1249H6.12484C5.89278 13.1249 5.67022 13.0328 5.50612 12.8687C5.34203 12.7046 5.24984 12.482 5.24984 12.2499C5.24984 12.0179 5.34203 11.7953 5.50612 11.6312C5.67022 11.4671 5.89278 11.3749 6.12484 11.3749H6.56234C7.1425 11.3749 7.6989 11.1445 8.10914 10.7342C8.51938 10.324 8.74984 9.7676 8.74984 9.18744V8.74994C8.74984 8.51787 8.84203 8.29532 9.00612 8.13122C9.17022 7.96713 9.39278 7.87494 9.62484 7.87494C9.85691 7.87494 10.0795 7.96713 10.2436 8.13122C10.4077 8.29532 10.4998 8.51787 10.4998 8.74994V9.18744C10.4998 10.2317 10.085 11.2332 9.34658 11.9717C8.60815 12.7101 7.60663 13.1249 6.56234 13.1249Z" fill="white"/>
</svg>
