<svg width="30" height="30" viewBox="0 0 30 30" fill="none" xmlns="http://www.w3.org/2000/svg">
<path d="M15.7218 2.82425C15.6398 2.81995 15.5581 2.83729 15.4849 2.87451C15.4117 2.91174 15.3495 2.96755 15.3047 3.03636C14.0976 4.86097 14.0625 6.53792 14.0625 6.56253C14.063 6.70204 14.0947 6.83968 14.1552 6.96539C14.2157 7.0911 14.3035 7.20173 14.4122 7.2892C14.5209 7.37667 14.6477 7.43877 14.7835 7.47099C14.9192 7.50321 15.0604 7.50472 15.1968 7.47542C15.4097 7.42443 15.599 7.3026 15.7336 7.12991C15.8681 6.95723 15.94 6.74394 15.9375 6.52503C15.9419 6.3968 15.9727 6.27085 16.0278 6.15499C16.083 6.03912 16.1613 5.93581 16.258 5.85144C16.3546 5.76707 16.4676 5.70344 16.5898 5.6645C16.7121 5.62556 16.8411 5.61212 16.9687 5.62503C17.204 5.65235 17.4207 5.76622 17.5766 5.94448C17.7326 6.12275 17.8167 6.35266 17.8125 6.58948C17.8083 7.33541 17.5079 8.04911 16.9775 8.57359C16.4471 9.09807 15.7301 9.39036 14.9841 9.38616C14.2382 9.38197 13.5245 9.08163 13 8.55122C12.4756 8.0208 12.1833 7.30377 12.1875 6.55784C12.1875 6.48402 12.198 5.29456 12.825 3.74534C12.8567 3.66607 12.8662 3.57962 12.8524 3.49535C12.8386 3.41107 12.8021 3.33216 12.7467 3.26714C12.6913 3.20212 12.6193 3.15347 12.5383 3.12642C12.4572 3.09938 12.3704 3.09498 12.2871 3.1137C9.5248 3.74821 7.06942 5.32417 5.34216 7.57124C3.6149 9.8183 2.72343 12.5964 2.82067 15.4289C3.04684 21.8813 8.34723 27.0703 14.8031 27.1758C17.9878 27.2246 21.065 26.0247 23.3761 23.833C25.6872 21.6414 27.0485 18.632 27.1686 15.4492C27.2887 12.2664 26.158 9.16309 24.0186 6.8035C21.8792 4.44391 18.9012 3.01557 15.7218 2.82425ZM9.37496 14.9895C9.37496 14.7114 9.45744 14.4395 9.61196 14.2082C9.76648 13.977 9.98611 13.7967 10.2431 13.6903C10.5 13.5838 10.7828 13.556 11.0556 13.6103C11.3283 13.6645 11.5789 13.7984 11.7756 13.9951C11.9723 14.1918 12.1062 14.4424 12.1604 14.7151C12.2147 14.9879 12.1869 15.2707 12.0804 15.5276C11.974 15.7846 11.7937 16.0042 11.5625 16.1587C11.3312 16.3133 11.0593 16.3957 10.7812 16.3957C10.4083 16.3957 10.0506 16.2476 9.78685 15.9839C9.52312 15.7201 9.37496 15.3624 9.37496 14.9895ZM18.7816 21.4078C17.6471 22.1151 16.3369 22.49 15 22.49C13.663 22.49 12.3529 22.1151 11.2183 21.4078C11.0079 21.2751 10.8588 21.0643 10.8039 20.8216C10.749 20.579 10.7926 20.3245 10.9254 20.1141C11.0581 19.9037 11.2689 19.7546 11.5116 19.6997C11.7542 19.6447 12.0087 19.6884 12.2191 19.8211C13.0541 20.3393 14.0172 20.6139 15 20.6139C15.9827 20.6139 16.9458 20.3393 17.7808 19.8211C17.885 19.7554 18.0011 19.7109 18.1225 19.69C18.2439 19.6692 18.3682 19.6725 18.4884 19.6997C18.6085 19.7269 18.7221 19.7775 18.8227 19.8486C18.9233 19.9197 19.0089 20.0099 19.0746 20.1141C19.1403 20.2183 19.1848 20.3344 19.2057 20.4558C19.2265 20.5772 19.2232 20.7015 19.196 20.8216C19.1688 20.9418 19.1182 21.0554 19.0471 21.156C18.976 21.2565 18.8858 21.3421 18.7816 21.4078ZM19.2187 16.3957C18.9406 16.3957 18.6687 16.3133 18.4374 16.1587C18.2062 16.0042 18.0259 15.7846 17.9195 15.5276C17.8131 15.2707 17.7852 14.9879 17.8395 14.7151C17.8937 14.4424 18.0277 14.1918 18.2243 13.9951C18.421 13.7984 18.6716 13.6645 18.9444 13.6103C19.2172 13.556 19.4999 13.5838 19.7569 13.6903C20.0138 13.7967 20.2334 13.977 20.388 14.2082C20.5425 14.4395 20.625 14.7114 20.625 14.9895C20.625 15.3624 20.4768 15.7201 20.2131 15.9839C19.9494 16.2476 19.5917 16.3957 19.2187 16.3957Z" fill="#FFA74F"/>
</svg>
