<svg width="48" height="48" viewBox="0 0 48 48" fill="none" xmlns="http://www.w3.org/2000/svg">
<g clip-path="url(#clip0_739_628)">
<path d="M23.8084 1.3595C10.9615 1.3595 0.552734 11.443 0.552734 23.8885C0.552734 36.3339 10.9615 46.4174 23.8084 46.4174C36.6554 46.4174 47.0642 36.3339 47.0642 23.8885C47.0642 11.443 36.6554 1.3595 23.8084 1.3595ZM23.8084 42.057C13.4653 42.057 5.05384 33.9084 5.05384 23.8885C5.05384 13.8685 13.4653 5.71994 23.8084 5.71994C34.1516 5.71994 42.5631 13.8685 42.5631 23.8885C42.5631 33.9084 34.1516 42.057 23.8084 42.057Z" fill="#09332C"/>
<rect x="10.2061" y="17.3066" width="11.4085" height="4.38787" rx="2.19394" fill="#09332C"/>
<rect x="26.0029" y="17.3066" width="11.4085" height="4.38787" rx="2.19394" fill="#09332C"/>
<rect x="18.1045" y="30.4702" width="11.4085" height="4.38787" rx="2.19394" fill="#09332C"/>
</g>
<defs>
<clipPath id="clip0_739_628">
<rect width="46.5114" height="46.5114" fill="white" transform="translate(0.552734 0.63269)"/>
</clipPath>
</defs>
</svg>
