<svg width="105" height="91" viewBox="0 0 105 91" fill="none" xmlns="http://www.w3.org/2000/svg">
<path d="M55.7411 -4.00084L86.2153 7.42699C87.8753 8.04924 89.3058 9.16339 90.3156 10.6205C91.3254 12.0776 91.8663 13.8082 91.8661 15.581V38.9286C91.8662 46.2051 89.8401 53.3379 86.0147 59.5277C82.1894 65.7175 76.7159 70.7198 70.2076 73.974L55.6061 81.2703C54.6992 81.724 53.699 81.9601 52.685 81.9601C51.6709 81.9601 50.6708 81.724 49.7638 81.2703L35.1623 73.9696C28.654 70.7154 23.1806 65.7131 19.3552 59.5233C15.5298 53.3335 13.5037 46.2007 13.5038 38.9243V15.5854C13.5027 13.8118 14.0433 12.0802 15.0531 10.6223C16.0629 9.16432 17.4939 8.0495 19.1546 7.42699L49.6288 -4.00084C51.5993 -4.73947 53.7706 -4.73947 55.7411 -4.00084ZM52.685 21.271C51.6187 21.2711 50.5895 21.6626 49.7927 22.3712C48.9958 23.0797 48.4867 24.0561 48.362 25.1151L48.3315 25.6244V34.3314H39.6246C38.515 34.3326 37.4477 34.7575 36.6409 35.5192C35.834 36.2809 35.3485 37.322 35.2834 38.4297C35.2184 39.5374 35.5788 40.6281 36.291 41.479C37.0032 42.3299 38.0134 42.8768 39.1152 43.0078L39.6246 43.0383H48.3315V51.7452C48.3327 52.8548 48.7576 53.9221 49.5193 54.7289C50.2811 55.5358 51.3221 56.0213 52.4298 56.0863C53.5375 56.1514 54.6283 55.791 55.4792 55.0788C56.3301 54.3666 56.8769 53.3564 57.008 52.2545L57.0384 51.7452V43.0383H65.7453C66.855 43.037 67.9222 42.6122 68.7291 41.8504C69.5359 41.0887 70.0215 40.0477 70.0865 38.94C70.1515 37.8323 69.7911 36.7415 69.0789 35.8906C68.3668 35.0397 67.3565 34.4929 66.2547 34.3618L65.7453 34.3314H57.0384V25.6244C57.0384 24.4698 56.5798 23.3625 55.7633 22.5461C54.9469 21.7297 53.8396 21.271 52.685 21.271Z" fill="#FFFFF9" fill-opacity="0.2"/>
</svg>
