<svg width="99" height="120" viewBox="0 0 99 120" fill="none" xmlns="http://www.w3.org/2000/svg">
<path d="M98.1216 63.2269C104.337 60.8408 104.613 54.9442 103.361 51.4595L97.6343 36.5415C95.2138 30.3104 89.3516 30.0503 85.8669 31.3024L77.3981 34.5818L68.4865 30.6141C61.9491 27.7035 56.6324 29.4591 52.9439 32.5581L30.8653 41.0333L24.7376 54.7963L21.2223 56.1171C14.9912 58.5376 14.7311 64.3998 15.9832 67.8845L21.7096 82.8024C22.7404 85.4877 24.4296 87.0644 26.3221 87.9069C28.765 88.9946 31.5376 88.786 33.477 88.0416L46.9185 82.8534L59.2708 88.353C65.12 90.9572 69.7029 88.6275 72.3627 85.524C76.7103 86.2228 80.161 84.2136 82.308 81.7064C88.254 82.7045 92.5015 78.5351 94.0794 74.9912L98.6751 64.6689L96.6451 63.7651L98.1216 63.2269ZM87.1979 71.9273C86.5085 73.4757 85.0122 75.077 82.2252 73.8362L78.7845 72.3043L77.2526 75.745C76.5632 77.2933 75.0669 78.8947 72.2799 77.6538L68.8392 76.1219L67.3073 79.5626C66.6179 81.111 65.1216 82.7123 62.3346 81.4715L47.1609 74.7157L30.8506 80.9767C29.3397 81.4996 28.9808 80.6389 28.7708 80.0919L23.0481 65.2581C22.5252 63.7472 23.3859 63.3883 23.9328 63.1783L30.3629 60.6815L36.4906 46.9185L46.4359 43.1009L44.0001 48.5717C42.1465 52.735 42.157 60.1194 49.7266 63.4897C57.2963 66.8599 62.791 61.9265 64.6446 57.7632L88.7298 68.4866L87.1979 71.9273ZM95.4111 56.1657L86.9422 59.4451L60.827 47.8179L57.7631 54.6993C57.0738 56.2477 55.5775 57.849 52.7905 56.6082C50.0035 55.3673 50.1923 53.1838 50.8816 51.6355L55.4774 41.3133C56.1821 39.7305 59.1262 34.6922 65.4227 37.4956L77.1556 42.7195L88.4933 38.3673C90.0042 37.8444 90.3631 38.7051 90.5731 39.2521L96.2958 54.0859C96.8187 55.5968 95.958 55.9557 95.4111 56.1657Z" fill="#09312A" fill-opacity="0.2"/>
</svg>
