<svg width="17" height="17" viewBox="0 0 17 17" fill="none" xmlns="http://www.w3.org/2000/svg">
<path fill-rule="evenodd" clip-rule="evenodd" d="M2.96826 3.65616C2.96826 3.1273 3.17835 2.62011 3.5523 2.24615C3.92626 1.8722 4.43345 1.66211 4.96231 1.66211H11.6091C12.138 1.66211 12.6452 1.8722 13.0191 2.24615C13.3931 2.62011 13.6032 3.1273 13.6032 3.65616V14.3097C13.6032 15.1206 12.6859 15.5925 12.0266 15.1213L8.28572 12.4492L4.54489 15.1213C3.88486 15.5932 2.96826 15.1213 2.96826 14.3104V3.65616ZM4.96231 2.99147C4.78602 2.99147 4.61696 3.0615 4.49231 3.18616C4.36766 3.31081 4.29763 3.47987 4.29763 3.65616V13.6643L7.70612 11.2295C7.87523 11.1087 8.07788 11.0438 8.28572 11.0438C8.49356 11.0438 8.69621 11.1087 8.86532 11.2295L12.2738 13.6643V3.65616C12.2738 3.47987 12.2038 3.31081 12.0791 3.18616C11.9545 3.0615 11.7854 2.99147 11.6091 2.99147H4.96231Z" fill="#09332C"/>
</svg>
