<svg width="52" height="52" viewBox="0 0 52 52" fill="none" xmlns="http://www.w3.org/2000/svg">
<path d="M9.37403 22.0038C7.41598 21.9706 5.57005 23.5604 5.77667 25.7559C6.20988 30.3535 8.2047 34.6641 11.4291 37.97C12.6445 39.2213 14.0154 40.3117 15.5081 41.2145C15.7679 41.371 15.8703 41.604 15.8652 41.779L15.8544 42.4164C15.8455 42.8968 15.9314 43.3742 16.1073 43.8213C16.2832 44.2685 16.5455 44.6765 16.8794 45.022C17.2132 45.3676 17.612 45.6438 18.0528 45.835C18.4936 46.0262 18.9678 46.1285 19.4482 46.1361L32.0089 46.3487C34.0191 46.3828 35.6922 44.7859 35.7264 42.7653L35.7422 41.83L35.747 41.7947L35.7535 41.7802C35.7778 41.7448 35.8124 41.7177 35.8527 41.7027C37.4718 40.8264 38.965 39.7352 40.2916 38.4586C43.6256 35.2643 45.7651 31.0245 46.3542 26.445C46.635 24.2557 44.844 22.6043 42.8859 22.5711L9.37403 22.0038ZM13.8434 9.57763C14.2577 9.58465 14.6523 9.75597 14.9403 10.0539C15.2283 10.3519 15.3862 10.752 15.3792 11.1664L15.3086 15.3324C15.3016 15.7468 15.1303 16.1414 14.8324 16.4294C14.5344 16.7174 14.1343 16.8753 13.7199 16.8683C13.3056 16.8612 12.911 16.6899 12.623 16.392C12.3349 16.094 12.1771 15.6939 12.1841 15.2795L12.2546 11.1135C12.2616 10.6991 12.433 10.3045 12.7309 10.0165C13.0289 9.72849 13.429 9.57062 13.8434 9.57763ZM38.8398 10.0008C39.2541 10.0078 39.6487 10.1792 39.9367 10.4771C40.2247 10.7751 40.3826 11.1752 40.3756 11.5896L40.3051 15.7556C40.2981 16.17 40.1267 16.5645 39.8288 16.8526C39.5308 17.1406 39.1307 17.2985 38.7163 17.2914C38.302 17.2844 37.9074 17.1131 37.6194 16.8152C37.3314 16.5172 37.1735 16.1171 37.1805 15.7027L37.251 11.5367C37.2581 11.1223 37.4294 10.7277 37.7273 10.4397C38.0253 10.1517 38.4254 9.99381 38.8398 10.0008ZM26.4121 5.62316C26.8264 5.63018 27.221 5.8015 27.509 6.09944C27.7971 6.39739 27.9549 6.79755 27.9479 7.21189L27.8069 15.544C27.7998 15.9584 27.6285 16.353 27.3306 16.641C27.0326 16.929 26.6325 17.0869 26.2181 17.0799C25.8038 17.0728 25.4092 16.9015 25.1212 16.6036C24.8332 16.3056 24.6753 15.9055 24.6823 15.4911L24.8234 7.15899C24.8304 6.74465 25.0017 6.35006 25.2997 6.06204C25.5976 5.77402 25.9978 5.61615 26.4121 5.62316Z" fill="#FFA74F"/>
</svg>
