<svg width="41" height="43" viewBox="0 0 41 43" fill="none" xmlns="http://www.w3.org/2000/svg">
<path d="M2.48791 26.8531C5.18997 29.1953 8.39489 30.8842 11.8545 31.7889C15.314 32.6936 18.9354 32.7899 22.4382 32.0703L23.1534 31.8124C24.498 31.3245 25.6071 30.3444 26.2566 29.07C26.9061 27.7957 27.0475 26.3223 26.6522 24.9478C26.2569 23.5732 25.3544 22.4 24.1272 21.6653C22.9 20.9307 21.4396 20.6895 20.0414 20.9904C15.1925 22.0383 10.8674 18.9101 8.14497 16.1918C8.02987 16.0658 7.89052 15.9644 7.73527 15.8937C7.58003 15.8229 7.41209 15.7842 7.24152 15.7799C7.07095 15.7756 6.90127 15.8057 6.74265 15.8686C6.58404 15.9315 6.43975 16.0257 6.31843 16.1457C6.19713 16.2657 6.10129 16.4089 6.03669 16.5668C5.97208 16.7247 5.94003 16.8941 5.94245 17.0647C5.94488 17.2353 5.98173 17.4036 6.0508 17.5597C6.11987 17.7157 6.21974 17.8561 6.34441 17.9726C9.55043 21.235 14.5499 24.8385 20.5947 23.521C21.3766 23.3829 22.1817 23.5492 22.8449 23.9858C23.5081 24.4224 23.9791 25.0963 24.1613 25.8691C24.3435 26.642 24.2231 27.4552 23.8248 28.1421C23.4264 28.829 22.7804 29.3374 22.0191 29.5632C7.60553 32.6771 -2.09963 19.3112 -5.80186 13.2282L19.5498 4.08652C20.3136 4.32522 21.0412 4.66715 21.7124 5.10282C23.9867 6.97688 22.7908 10.9824 20.1301 13.2171C22.6649 13.5933 25.0405 14.6823 26.98 16.3572C28.9195 18.032 30.3429 20.2237 31.0844 22.6766C31.8258 25.1296 31.8547 27.7427 31.1677 30.2115C30.4807 32.6802 29.1061 34.9028 27.2041 36.6202L28.8319 41.1342L6.37299 49.2328C2.9341 39.6961 5.75764 37.5644 4.16127 31.0453C3.77121 29.5867 3.2095 28.1794 2.48791 26.8531Z" fill="#FFA74F"/>
</svg>
