<svg width="53" height="47" viewBox="0 0 53 47" fill="none" xmlns="http://www.w3.org/2000/svg">
<path d="M25.8412 17.5688C22.7366 16.2212 19.5123 16.539 15.9843 18.5382C13.9633 19.6891 12.0752 21.8516 10.5605 23.5917C9.87823 24.3759 9.10314 25.265 8.76913 25.496C8.43512 25.727 7.33638 26.1339 6.37026 26.4897C4.2002 27.2931 1.49895 28.2922 -0.288277 29.7937C-3.29719 32.3203 -4.69126 35.2077 -4.55246 38.6212C-4.41365 42.0348 -2.76672 45.9422 0.640613 50.8689C4.17962 55.986 9.72364 58.7313 12.7127 59.9119C16.398 61.369 21.1077 62.3903 23.2746 60.8917C24.8252 59.8192 25.7062 58.3174 26.48 56.991C27.6078 55.0555 28.6356 54.2213 28.6356 54.2213C28.6356 54.2213 29.5542 53.586 31.8866 53.2209C33.4138 52.9819 35.1404 52.6852 36.7688 51.559C38.9883 50.024 39.6988 45.2503 39.6236 41.2953C39.5627 38.1032 38.931 31.9814 35.3781 26.8443C31.913 21.8341 28.887 18.8866 25.8412 17.5688ZM18.3653 46.5109C17.2589 47.2761 15.1201 46.1024 13.5892 43.8887C12.0582 41.6751 11.7147 39.2597 12.8212 38.4945C13.9276 37.7293 16.0663 38.903 17.5973 41.1167C19.1283 43.3303 19.4717 45.7457 18.3653 46.5109ZM25.0456 41.8908C23.9392 42.656 21.8004 41.4823 20.2694 39.2686C18.7385 37.0549 18.395 34.6396 19.5015 33.8744C20.6079 33.1092 22.7466 34.2829 24.2776 36.4965C25.8086 38.7102 26.152 41.1256 25.0456 41.8908Z" fill="#09312A"/>
<path d="M11.8114 17.8071C12.584 13.5768 10.3277 10.6142 10.3254 10.6109C10.3231 10.6075 7.12137 12.3627 6.30947 16.804C5.49758 21.2454 7.85016 24.1562 7.85016 24.1562C7.85016 24.1562 11.0376 22.0394 11.8114 17.8071Z" fill="#09312A"/>
</svg>
