<svg width="45" height="43" viewBox="0 0 45 43" fill="none" xmlns="http://www.w3.org/2000/svg">
<path d="M16.0853 27.3444C16.1719 26.9816 16.399 26.6681 16.7167 26.4727C17.0344 26.2774 17.4167 26.2163 17.7795 26.3028C18.1423 26.3893 18.5246 26.3282 18.8423 26.1328C19.16 25.9375 19.3871 25.6239 19.4736 25.2612C19.5601 24.8984 19.499 24.5161 19.3036 24.1984C19.1083 23.8806 18.7947 23.6535 18.432 23.567C17.3436 23.3074 16.1967 23.4908 15.2436 24.0769C14.2904 24.6629 13.6092 25.6036 13.3496 26.6919C13.263 27.0547 13.3242 27.437 13.5195 27.7547C13.7149 28.0724 14.0284 28.2995 14.3912 28.3861C14.754 28.4726 15.1363 28.4115 15.454 28.2161C15.7717 28.0208 15.9988 27.7072 16.0853 27.3444ZM24.1917 9.52002C18.5068 8.16414 12.7977 10.3203 8.95016 14.5474C8.32322 15.2364 7.48579 15.7653 6.53916 16.1217C2.49543 17.6477 -0.775726 21.2605 -1.89366 25.9477C-3.61015 33.1446 0.363964 40.4612 7.26356 42.1068C7.8557 42.248 8.44673 42.3427 9.03665 42.3909C10.6899 42.5264 12.2638 43.1571 13.5532 44.2006C15.3619 45.6976 17.5514 46.6619 19.8768 46.9857C22.2022 47.3095 24.5719 46.9801 26.7208 46.0344C28.8698 45.0886 30.7132 43.5637 32.0452 41.6302C33.3771 39.6967 34.1449 37.4308 34.2628 35.0859C34.2877 34.4053 34.4321 33.7345 34.6892 33.1039C35.0898 32.1572 35.4133 31.1671 35.6598 30.1336C37.8583 20.9159 32.8732 11.5906 24.1917 9.52002ZM26.4637 30.3016C26.1923 31.4393 25.6996 32.5124 25.0135 33.4596C24.3275 34.4068 23.4616 35.2097 22.4652 35.8223C21.4689 36.4349 20.3617 36.8452 19.2068 37.0299C18.0519 37.2146 16.8719 37.17 15.7342 36.8986C14.5965 36.6273 13.5234 36.1345 12.5762 35.4485C11.629 34.7624 10.8261 33.8965 10.2135 32.9002C9.60095 31.9039 9.1906 30.7966 9.00592 29.6417C8.82124 28.4868 8.86584 27.3068 9.13718 26.1692C9.68518 23.8715 11.1235 21.8857 13.1356 20.6485C15.1478 19.4113 17.569 19.0241 19.8667 19.5721C22.1643 20.1201 24.1501 21.5584 25.3873 23.5706C26.6245 25.5827 27.0117 28.004 26.4637 30.3016Z" fill="#F0531C"/>
</svg>
