<svg width="37" height="37" viewBox="0 0 37 37" fill="none" xmlns="http://www.w3.org/2000/svg">
<path d="M3.11487 13.8593C3.10849 17.942 4.72423 21.86 7.60663 24.7514C10.489 27.6428 14.402 29.2708 18.4847 29.2772C22.5674 29.2836 26.4855 27.6678 29.3769 24.7854C32.2683 21.903 33.8963 17.9901 33.9027 13.9073" stroke="#FFFFF9" stroke-width="2" stroke-linecap="round" stroke-linejoin="round"/>
<path d="M33.9027 13.9073C29.8199 13.901 25.9019 15.5167 23.0105 18.3991C20.1191 21.2815 18.4911 25.1945 18.4847 29.2772C18.4879 27.2556 18.0928 25.2533 17.3221 23.3844C16.5514 21.5155 15.4202 19.8167 13.993 18.385C12.5657 16.9533 10.8705 15.8168 9.00403 15.0402C7.13756 14.2637 5.13642 13.8624 3.11487 13.8593" stroke="#FFFFF9" stroke-width="2" stroke-linecap="round" stroke-linejoin="round"/>
<path d="M23.1055 17.739C23.2158 15.5971 22.8634 13.4565 22.0723 11.463C21.2811 9.46951 20.0698 7.66982 18.5208 6.18642C16.9671 7.66497 15.7502 9.46087 14.9528 11.4519C14.1554 13.4429 13.7963 15.5824 13.9 17.7246" stroke="#FFFFF9" stroke-width="2" stroke-linecap="round" stroke-linejoin="round"/>
</svg>
