<svg width="115" height="120" viewBox="0 0 115 120" fill="none" xmlns="http://www.w3.org/2000/svg">
<path d="M33.1951 41.962C40.1361 54.7473 51.8717 64.2516 65.8202 68.3841C79.7687 72.5166 94.7876 70.9389 107.573 63.9979C120.358 57.057 129.862 45.3214 133.995 31.3729C138.127 17.4244 136.55 2.40552 129.609 -10.3797" stroke="#FFFFF9" stroke-opacity="0.2" stroke-width="2" stroke-linecap="round" stroke-linejoin="round"/>
<path d="M129.609 -10.3797C116.823 -3.43876 107.319 8.29681 103.187 22.2453C99.0541 36.1938 100.632 51.2127 107.573 63.9979C104.136 57.6673 99.4859 52.0757 93.8881 47.5421C88.2903 43.0086 81.8543 39.6221 74.9477 37.5759C68.0411 35.5297 60.7991 34.8638 53.6352 35.6164C46.4713 36.369 39.5257 38.5252 33.1951 41.962" stroke="#FFFFF9" stroke-opacity="0.2" stroke-width="2" stroke-linecap="round" stroke-linejoin="round"/>
<path d="M102.358 20.0177C99.0516 13.1278 94.2994 7.03111 88.4251 2.14249C82.5509 -2.74613 75.6924 -6.31193 68.3164 -8.31225C65.9761 -1.03705 65.2304 6.65694 66.1302 14.2462C67.03 21.8354 69.5541 29.1417 73.5308 35.6679" stroke="#FFFFF9" stroke-opacity="0.2" stroke-width="2" stroke-linecap="round" stroke-linejoin="round"/>
</svg>
