<svg width="29" height="29" viewBox="0 0 29 29" fill="none" xmlns="http://www.w3.org/2000/svg">
<path d="M25.375 24.1666V7.24996C25.375 5.91717 24.2911 4.83329 22.9583 4.83329H20.5417V2.41663H18.125V4.83329H10.875V2.41663H8.45833V4.83329H6.04167C4.70887 4.83329 3.625 5.91717 3.625 7.24996V24.1666C3.625 25.4994 4.70887 26.5833 6.04167 26.5833H22.9583C24.2911 26.5833 25.375 25.4994 25.375 24.1666ZM10.875 21.75H8.45833V19.3333H10.875V21.75ZM10.875 16.9166H8.45833V14.5H10.875V16.9166ZM15.7083 21.75H13.2917V19.3333H15.7083V21.75ZM15.7083 16.9166H13.2917V14.5H15.7083V16.9166ZM20.5417 21.75H18.125V19.3333H20.5417V21.75ZM20.5417 16.9166H18.125V14.5H20.5417V16.9166ZM22.9583 10.875H6.04167V8.45829H22.9583V10.875Z" fill="#F0531C"/>
</svg>
