a<svg width="25" height="25" viewBox="0 0 25 25" fill="none" xmlns="http://www.w3.org/2000/svg">
<path d="M12.5 9.375C10.8062 9.375 9.375 10.8062 9.375 12.5C9.375 14.1937 10.8062 15.625 12.5 15.625C14.1937 15.625 15.625 14.1937 15.625 12.5C15.625 10.8062 14.1937 9.375 12.5 9.375Z" fill="#09332C"/>
<path d="M20.8333 5.20825H18.1395L15.3197 2.38846C15.1244 2.1931 14.8595 2.08331 14.5833 2.08325H10.4166C10.1403 2.08331 9.87543 2.1931 9.68013 2.38846L6.86033 5.20825H4.16659C3.01763 5.20825 2.08325 6.14263 2.08325 7.29158V18.7499C2.08325 19.8989 3.01763 20.8333 4.16659 20.8333H20.8333C21.9822 20.8333 22.9166 19.8989 22.9166 18.7499V7.29158C22.9166 6.14263 21.9822 5.20825 20.8333 5.20825ZM12.4999 17.7083C9.677 17.7083 7.29158 15.3228 7.29158 12.4999C7.29158 9.677 9.677 7.29158 12.4999 7.29158C15.3228 7.29158 17.7083 9.677 17.7083 12.4999C17.7083 15.3228 15.3228 17.7083 12.4999 17.7083Z" fill="#09332C"/>
</svg>
