<svg width="33" height="33" viewBox="0 0 33 33" fill="none" xmlns="http://www.w3.org/2000/svg">
<path d="M10.6633 18.3975V27.7888C10.6633 28.3503 10.4402 28.8889 10.0431 29.2861C9.64602 29.6832 9.10742 29.9063 8.54583 29.9063H6.05708C5.77785 29.9081 5.50102 29.8546 5.24252 29.749C4.98402 29.6434 4.74897 29.4877 4.55088 29.2909C4.35279 29.0941 4.19559 28.8601 4.08832 28.6023C3.98104 28.3445 3.92582 28.068 3.92583 27.7888V18.3975C3.924 18.1171 3.97788 17.8392 4.08434 17.5798C4.1908 17.3204 4.34771 17.0847 4.54598 16.8864C4.74425 16.6881 4.97993 16.5312 5.23933 16.4248C5.49873 16.3183 5.77669 16.2644 6.05708 16.2663H8.54583C8.82506 16.2662 9.10154 16.3215 9.35935 16.4287C9.61715 16.536 9.8512 16.6932 10.048 16.8913C10.2448 17.0894 10.4005 17.3244 10.5061 17.5829C10.6117 17.8414 10.6651 18.1183 10.6633 18.3975ZM19.8758 5.225V27.7888C19.8758 28.068 19.8206 28.3445 19.7133 28.6023C19.6061 28.8601 19.4489 29.0941 19.2508 29.2909C19.0527 29.4877 18.8176 29.6434 18.5591 29.749C18.3006 29.8546 18.0238 29.9081 17.7446 29.9063H15.2558C14.693 29.9063 14.1529 29.6836 13.7536 29.2869C13.3544 28.8902 13.1282 28.3516 13.1246 27.7888V5.225C13.1282 4.66087 13.3539 4.12087 13.7528 3.72196C14.1517 3.32305 14.6917 3.09735 15.2558 3.09375H17.7446C18.3098 3.09375 18.8519 3.31829 19.2516 3.71798C19.6513 4.11767 19.8758 4.65976 19.8758 5.225ZM29.0746 12.3475V27.7888C29.0746 28.3503 28.8515 28.8889 28.4544 29.2861C28.0573 29.6832 27.5187 29.9063 26.9571 29.9063H24.4683C24.1891 29.9081 23.9123 29.8546 23.6538 29.749C23.3953 29.6434 23.1602 29.4877 22.9621 29.2909C22.764 29.0941 22.6068 28.8601 22.4996 28.6023C22.3923 28.3445 22.3371 28.068 22.3371 27.7888V12.3475C22.3371 12.0676 22.3922 11.7905 22.4993 11.5319C22.6064 11.2733 22.7634 11.0384 22.9613 10.8405C23.1592 10.6426 23.3942 10.4856 23.6527 10.3785C23.9113 10.2714 24.1884 10.2163 24.4683 10.2163H27.0121C27.5653 10.2341 28.0899 10.4665 28.4748 10.8643C28.8598 11.262 29.0749 11.794 29.0746 12.3475Z" fill="#F0531C"/>
</svg>
