<svg width="23" height="23" viewBox="0 0 23 23" fill="none" xmlns="http://www.w3.org/2000/svg">
<path d="M11.5 1.4375C9.44708 1.4378 7.44334 2.06602 5.75771 3.23785C4.07207 4.40969 2.78519 6.06907 2.06976 7.99332C1.35433 9.91757 1.24458 12.0146 1.75524 14.003C2.26591 15.9914 3.37254 17.7761 4.92665 19.1175C6.48076 20.4589 8.40797 21.2928 10.4497 21.5074C12.4914 21.722 14.5498 21.3069 16.3489 20.318C18.1479 19.329 19.6014 17.8134 20.5143 15.9746C21.4272 14.1359 21.7559 12.0618 21.4561 10.0309C21.4385 9.90956 21.3901 9.79477 21.3156 9.69743C21.2411 9.60008 21.1429 9.52342 21.0304 9.47473C20.9178 9.42603 20.7947 9.40693 20.6728 9.41923C20.5508 9.43153 20.434 9.47483 20.3335 9.545C19.9393 9.82017 19.4825 9.99213 19.0048 10.0452C18.5271 10.0982 18.0437 10.0306 17.5988 9.84856C17.1539 9.66653 16.7618 9.37586 16.4583 9.00315C16.1548 8.63044 15.9496 8.18758 15.8614 7.71507C15.8347 7.57218 15.7654 7.44073 15.6624 7.33808C15.5595 7.23542 15.4279 7.16638 15.285 7.14007C14.812 7.05212 14.3686 6.84689 13.9955 6.54319C13.6224 6.23948 13.3315 5.84701 13.1494 5.40172C12.9673 4.95643 12.8999 4.47257 12.9533 3.99446C13.0067 3.51635 13.1792 3.05928 13.455 2.66513C13.5249 2.56462 13.5679 2.44795 13.58 2.32617C13.5921 2.20438 13.5729 2.08152 13.5243 1.96923C13.4756 1.85693 13.3991 1.75893 13.3019 1.68449C13.2048 1.61005 13.0902 1.56165 12.9691 1.54388C12.4827 1.47258 11.9917 1.43703 11.5 1.4375ZM11.5 12.5781C11.2141 12.5781 10.9399 12.4645 10.7377 12.2624C10.5355 12.0602 10.4219 11.7859 10.4219 11.5C10.4219 11.2141 10.5355 10.9398 10.7377 10.7377C10.9399 10.5355 11.2141 10.4219 11.5 10.4219C11.786 10.4219 12.0602 10.5355 12.2624 10.7377C12.4646 10.9398 12.5781 11.2141 12.5781 11.5C12.5781 11.7859 12.4646 12.0602 12.2624 12.2624C12.0602 12.4645 11.786 12.5781 11.5 12.5781ZM8.62502 15.4531C8.62502 15.7391 8.51143 16.0133 8.30924 16.2155C8.10706 16.4177 7.83283 16.5313 7.54689 16.5313C7.26096 16.5313 6.98673 16.4177 6.78454 16.2155C6.58236 16.0133 6.46877 15.7391 6.46877 15.4531C6.46877 15.1672 6.58236 14.893 6.78454 14.6908C6.98673 14.4886 7.26096 14.375 7.54689 14.375C7.83283 14.375 8.10706 14.4886 8.30924 14.6908C8.51143 14.893 8.62502 15.1672 8.62502 15.4531ZM6.82814 10.0625C6.68656 10.0625 6.54637 10.0346 6.41556 9.98044C6.28476 9.92626 6.16591 9.84684 6.06579 9.74673C5.96568 9.64662 5.88627 9.52776 5.83209 9.39696C5.7779 9.26616 5.75002 9.12596 5.75002 8.98438C5.75002 8.8428 5.7779 8.7026 5.83209 8.5718C5.88627 8.441 5.96568 8.32214 6.06579 8.22203C6.16591 8.12192 6.28476 8.0425 6.41556 7.98832C6.54637 7.93414 6.68656 7.90625 6.82814 7.90625C7.11408 7.90625 7.38831 8.01984 7.59049 8.22203C7.79268 8.42422 7.90627 8.69844 7.90627 8.98438C7.90627 9.27032 7.79268 9.54454 7.59049 9.74673C7.38831 9.94892 7.11408 10.0625 6.82814 10.0625ZM15.0938 16.1719C15.0938 16.4578 14.9802 16.732 14.778 16.9342C14.5758 17.1364 14.3016 17.25 14.0156 17.25C13.7297 17.25 13.4555 17.1364 13.2533 16.9342C13.0511 16.732 12.9375 16.4578 12.9375 16.1719C12.9375 15.8859 13.0511 15.6117 13.2533 15.4095C13.4555 15.2073 13.7297 15.0938 14.0156 15.0938C14.3016 15.0938 14.5758 15.2073 14.778 15.4095C14.9802 15.6117 15.0938 15.8859 15.0938 16.1719Z" fill="#09332C"/>
</svg>
