<svg width="27" height="27" viewBox="0 0 27 27" fill="none" xmlns="http://www.w3.org/2000/svg">
<path fill-rule="evenodd" clip-rule="evenodd" d="M13.5002 3.375C11.5562 3.375 9.84395 4.3605 8.8337 5.85787C7.56012 5.4324 6.16968 5.53028 4.96826 6.12999C3.76684 6.7297 2.85287 7.7821 2.42739 9.05569C2.00192 10.3293 2.0998 11.7197 2.69951 12.9211C3.29921 14.1225 4.35162 15.0365 5.6252 15.462V20.25C5.6252 21.1451 5.98078 22.0036 6.61372 22.6365C7.24665 23.2694 8.1051 23.625 9.0002 23.625H18.0002C18.8953 23.625 19.7538 23.2694 20.3867 22.6365C21.0196 22.0036 21.3752 21.1451 21.3752 20.25V15.462C22.6283 15.0204 23.6576 14.1041 24.2412 12.9105C24.8248 11.717 24.916 10.3419 24.495 9.08175C24.074 7.82161 23.1747 6.77741 21.9908 6.17433C20.807 5.57124 19.4336 5.45759 18.1667 5.85787C17.6518 5.09337 16.957 4.4671 16.1433 4.03415C15.3296 3.6012 14.4219 3.37485 13.5002 3.375ZM7.8752 20.25V19.125H19.1252V20.25C19.1252 20.5484 19.0067 20.8345 18.7957 21.0455C18.5847 21.2565 18.2986 21.375 18.0002 21.375H9.0002C8.70184 21.375 8.41569 21.2565 8.20471 21.0455C7.99373 20.8345 7.8752 20.5484 7.8752 20.25Z" fill="#09332C"/>
</svg>
