<svg width="17" height="12" viewBox="0 0 17 12" fill="none" xmlns="http://www.w3.org/2000/svg">
<path fill-rule="evenodd" clip-rule="evenodd" d="M1.15137 1.18865C1.21847 0.793255 1.56366 0.518555 1.95857 0.518555H2.02906C2.04539 0.518537 2.06155 0.521833 2.07656 0.528243C2.09158 0.534653 2.10514 0.544043 2.11643 0.555845C2.12771 0.567647 2.13648 0.581616 2.14221 0.596907C2.14794 0.612197 2.1505 0.62849 2.14975 0.644801L2.04233 3.00317C2.04054 3.04276 2.04657 3.08232 2.06006 3.11959C2.07356 3.15685 2.09427 3.19109 2.121 3.22035C2.14773 3.24962 2.17996 3.27333 2.21585 3.29013C2.25175 3.30694 2.2906 3.31651 2.33019 3.3183C2.36978 3.32009 2.40934 3.31407 2.44661 3.30057C2.48387 3.28708 2.51811 3.26637 2.54737 3.23964C2.57664 3.21291 2.60035 3.18068 2.61715 3.14479C2.63396 3.10889 2.64353 3.07004 2.64532 3.03045L2.75419 0.633939C2.75556 0.602858 2.76888 0.573506 2.79136 0.552008C2.81385 0.530509 2.84377 0.518525 2.87488 0.518555H3.5025C3.53361 0.518525 3.56353 0.530509 3.58602 0.552008C3.6085 0.573506 3.62182 0.602858 3.62319 0.633939L3.73206 3.03045C3.73571 3.11041 3.77097 3.18565 3.83009 3.23961C3.88921 3.29357 3.96735 3.32183 4.04731 3.31818C4.12727 3.31453 4.20251 3.27927 4.25647 3.22015C4.31043 3.16103 4.33869 3.08289 4.33505 3.00293L4.22787 0.644801C4.22712 0.62849 4.22968 0.612197 4.23541 0.596907C4.24114 0.581616 4.24991 0.567647 4.2612 0.555845C4.27248 0.544043 4.28604 0.534653 4.30106 0.528243C4.31607 0.521833 4.33224 0.518537 4.34856 0.518555H4.41857C4.81348 0.518555 5.15866 0.793014 5.22577 1.18841C5.33753 1.84837 5.49395 3.0022 5.4814 4.23618C5.4744 4.92173 5.01552 5.538 4.29546 5.69924C4.19021 5.72306 4.08014 5.74446 3.96524 5.76345L4.40988 9.99838C4.4765 10.6327 4.08159 11.2703 3.42404 11.3617C3.34614 11.3737 3.2675 11.3801 3.18869 11.3811C3.10996 11.3801 3.0314 11.3736 2.95358 11.3617C2.29603 11.27 1.90112 10.6327 1.96774 9.99838L2.41238 5.76369C2.30179 5.74549 2.19175 5.72408 2.0824 5.69948C1.3621 5.53824 0.90322 4.92197 0.89622 4.23643C0.883667 3.00245 1.03985 1.84861 1.15137 1.18865ZM11.1545 0.723494C8.28827 0.723494 5.96466 3.0471 5.96466 5.91336C5.96466 8.77961 8.28827 11.1032 11.1545 11.1032C11.2506 11.1032 11.3427 11.0651 11.4106 10.9972C11.4785 10.9293 11.5166 10.8372 11.5166 10.7411V9.15231C11.3964 9.16538 11.2755 9.17199 11.1545 9.1721C9.35473 9.1721 7.89577 7.71315 7.89577 5.91336C7.89577 4.11356 9.35473 2.6546 11.1545 2.6546C11.277 2.6546 11.3977 2.6612 11.5166 2.6744V1.08558C11.5166 0.989547 11.4785 0.897449 11.4106 0.829546C11.3427 0.761642 11.2506 0.723494 11.1545 0.723494ZM11.1545 8.44794C11.2776 8.44794 11.3983 8.43941 11.5166 8.42235V3.40436C11.3966 3.38758 11.2757 3.37903 11.1545 3.37877C9.75471 3.37877 8.61994 4.51354 8.61994 5.91336C8.61994 7.31317 9.75471 8.44794 11.1545 8.44794Z" fill="white"/>
<path fill-rule="evenodd" clip-rule="evenodd" d="M10.9791 0.723633C13.8453 0.723633 16.1689 3.04724 16.1689 5.91349C16.1689 8.77975 13.8453 11.1034 10.9791 11.1034C10.8831 11.1034 10.791 11.0652 10.7231 10.9973C10.6551 10.9294 10.617 10.8373 10.617 10.7413V9.15245C10.7373 9.16552 10.8581 9.17213 10.9791 9.17224C12.7789 9.17224 14.2378 7.71329 14.2378 5.91349C14.2378 4.1137 12.7789 2.65474 10.9791 2.65474C10.8566 2.65474 10.7359 2.66134 10.617 2.67454V1.08572C10.617 0.989686 10.6551 0.897588 10.7231 0.829685C10.791 0.761781 10.8831 0.723633 10.9791 0.723633ZM10.9791 8.44808C10.856 8.44808 10.7353 8.43955 10.617 8.42249V3.4045C10.737 3.38772 10.8579 3.37917 10.9791 3.37891C12.3789 3.37891 13.5137 4.51368 13.5137 5.91349C13.5137 7.31331 12.3789 8.44808 10.9791 8.44808Z" fill="white"/>
</svg>
