<svg width="27" height="27" viewBox="0 0 27 27" fill="none" xmlns="http://www.w3.org/2000/svg">
<path d="M21.51 11.25C20.3466 13.3273 18.7206 15.109 16.7581 16.4571C14.7955 17.8051 12.549 18.6833 10.1925 19.0238H9.68626C8.73393 19.0219 7.81785 18.6584 7.12323 18.007C6.4286 17.3555 6.00726 16.4646 5.94439 15.5143C5.88151 14.5641 6.1818 13.6254 6.78453 12.8881C7.38727 12.1508 8.24748 11.6698 9.19126 11.5425C12.465 11.1038 14.4675 8.1675 15.5588 5.85C15.6024 5.74512 15.6668 5.65013 15.748 5.57073C15.8293 5.49133 15.9257 5.42915 16.0316 5.38793C16.1375 5.34671 16.2506 5.32729 16.3641 5.33084C16.4776 5.33439 16.5893 5.36083 16.6924 5.40858C16.7955 5.45633 16.8879 5.52441 16.964 5.60873C17.0401 5.69305 17.0984 5.79187 17.1355 5.89928C17.1725 6.00668 17.1874 6.12046 17.1794 6.23378C17.1714 6.3471 17.1405 6.45763 17.0888 6.55875C15.8175 9.32625 13.5 12.7125 9.41626 13.2525C8.8953 13.3426 8.42857 13.6286 8.11179 14.0519C7.79501 14.4752 7.65219 15.0036 7.71263 15.5288C7.77306 16.0541 8.03217 16.5363 8.43681 16.8765C8.84145 17.2168 9.36095 17.3893 9.88876 17.3587C19.62 16.0538 22.68 5.49 23.625 0.84375H5.68126C5.25678 1.16577 4.87828 1.54427 4.55626 1.96875C3.55501 3.65625 5.20876 5.895 7.38001 6.69375C5.87732 7.50191 4.63531 8.72057 3.79879 10.2077C2.96226 11.6947 2.56569 13.389 2.65531 15.0929C2.74492 16.7967 3.31703 18.44 4.30494 19.8311C5.29284 21.2223 6.65583 22.3039 8.23501 22.95V26.145H24.1313C24.1313 19.395 21.8813 18.6975 21.4088 14.2537C21.3236 13.252 21.3576 12.2437 21.51 11.25Z" fill="#FFFFF9"/>
</svg>
