<svg width="39" height="39" viewBox="0 0 39 39" fill="none" xmlns="http://www.w3.org/2000/svg">
<path d="M8.06846 16.397C9.71652 19.3397 12.0198 21.8635 14.7999 23.7731C17.58 25.6827 20.7623 26.9268 24.1004 27.409H24.8175C26.1666 27.4063 27.4643 26.8915 28.4482 25.9687C29.4322 25.0458 30.0291 23.7838 30.1181 22.4377C30.2072 21.0916 29.7818 19.7619 28.928 18.7175C28.0742 17.673 26.8557 16.9917 25.5187 16.8113C20.8813 16.1898 18.0446 12.0304 16.4988 8.74755C16.4369 8.59898 16.3458 8.46442 16.2307 8.35194C16.1156 8.23947 15.9789 8.15139 15.829 8.093C15.679 8.03461 15.5188 8.0071 15.358 8.01213C15.1971 8.01716 15.0389 8.05462 14.8929 8.12226C14.7469 8.1899 14.616 8.28633 14.5082 8.40578C14.4003 8.52522 14.3177 8.66521 14.2653 8.81736C14.2129 8.9695 14.1917 9.13067 14.2031 9.2912C14.2144 9.45172 14.2581 9.6083 14.3314 9.75154C16.1322 13.6719 19.4151 18.4687 25.2 19.2337C25.938 19.3613 26.5991 19.7665 27.0479 20.3661C27.4966 20.9657 27.6989 21.7142 27.6133 22.4582C27.5277 23.2023 27.1607 23.8853 26.5875 24.3673C26.0143 24.8493 25.2784 25.0937 24.5307 25.0504C10.7458 23.2018 6.41108 8.23759 5.07243 1.65588H30.4909C31.0922 2.11204 31.6283 2.64821 32.0845 3.24952C33.5028 5.63997 31.1602 8.8113 28.0845 9.94278C30.2131 11.0876 31.9725 12.8139 33.1575 14.9204C34.3425 17.027 34.9043 19.427 34.7773 21.8406C34.6504 24.2543 33.8399 26.5821 32.4405 28.5527C31.0411 30.5234 29.1103 32.0556 26.8733 32.9708V37.4967H4.3553C4.3553 27.9349 7.54256 26.9468 8.21189 20.652C8.33249 19.233 8.28435 17.8047 8.06846 16.397Z" fill="#09332C"/>
</svg>
