<svg width="42" height="41" viewBox="0 0 42 41" fill="none" xmlns="http://www.w3.org/2000/svg">
<path d="M34.3171 6.78284H7.37465C5.5173 6.78284 4.00684 8.2933 4.00684 10.1506V30.3575C4.00684 32.2148 5.5173 33.7253 7.37465 33.7253H34.3171C36.1745 33.7253 37.6849 32.2148 37.6849 30.3575V10.1506C37.6849 8.2933 36.1745 6.78284 34.3171 6.78284ZM11.5844 11.8346C12.2543 11.8346 12.8968 12.1007 13.3705 12.5744C13.8441 13.048 14.1103 13.6905 14.1103 14.3604C14.1103 15.0303 13.8441 15.6728 13.3705 16.1465C12.8968 16.6201 12.2543 16.8863 11.5844 16.8863C10.9145 16.8863 10.272 16.6201 9.79836 16.1465C9.32467 15.6728 9.05855 15.0303 9.05855 14.3604C9.05855 13.6905 9.32467 13.048 9.79836 12.5744C10.272 12.1007 10.9145 11.8346 11.5844 11.8346ZM20.8459 28.6736H9.05855L15.7942 20.2541L18.32 23.6219L23.3717 16.8863L32.6332 28.6736H20.8459Z" fill="#F0531C"/>
</svg>
