<svg width="65" height="65" viewBox="0 0 65 65" fill="none" xmlns="http://www.w3.org/2000/svg">
<path d="M53.9921 11.2498H11.0028C8.03924 11.2498 5.62915 13.6598 5.62915 16.6234V48.8654C5.62915 51.8289 8.03924 54.239 11.0028 54.239H53.9921C56.9557 54.239 59.3657 51.8289 59.3657 48.8654V16.6234C59.3657 13.6598 56.9557 11.2498 53.9921 11.2498ZM17.7199 19.3102C18.7888 19.3102 19.8139 19.7349 20.5697 20.4907C21.3255 21.2465 21.7501 22.2716 21.7501 23.3405C21.7501 24.4094 21.3255 25.4345 20.5697 26.1903C19.8139 26.9461 18.7888 27.3707 17.7199 27.3707C16.651 27.3707 15.6259 26.9461 14.8701 26.1903C14.1143 25.4345 13.6896 24.4094 13.6896 23.3405C13.6896 22.2716 14.1143 21.2465 14.8701 20.4907C15.6259 19.7349 16.651 19.3102 17.7199 19.3102ZM32.4974 46.1785H13.6896L24.437 32.7444L28.4672 38.1181L36.5277 27.3707L51.3053 46.1785H32.4974Z" fill="#09332C"/>
</svg>
