<svg width="24" height="24" viewBox="0 0 24 24" fill="none" xmlns="http://www.w3.org/2000/svg">
<path d="M11.25 13V22H7.25C6.8232 22 6.40059 21.916 6.00628 21.7526C5.61197 21.5893 5.25369 21.3499 4.9519 21.0481C4.65011 20.7463 4.41072 20.3881 4.24739 19.9938C4.08406 19.5995 4 19.1768 4 18.75V13H11.25ZM20 13V18.75C20 19.1768 19.9159 19.5995 19.7526 19.9938C19.5893 20.3881 19.3499 20.7463 19.0481 21.0481C18.7463 21.3499 18.388 21.5893 17.9937 21.7526C17.5994 21.916 17.1768 22 16.75 22H12.75V13H20ZM14.5 2.00004C15.0832 1.99992 15.6556 2.15671 16.1573 2.45397C16.659 2.75123 17.0715 3.178 17.3515 3.68954C17.6315 4.20108 17.7687 4.77853 17.7488 5.36135C17.7288 5.94416 17.5524 6.51087 17.238 7.00204L19.75 7.00004C20.44 7.00004 21 7.46604 21 8.04204V10.958C21 11.534 20.44 12 19.75 12L12.75 11.999V7.00004H11.25V11.999L4.25 12C3.56 12 3 11.534 3 10.958V8.04204C3 7.46604 3.56 7.00004 4.25 7.00004L6.762 7.00204C6.31583 6.3053 6.15218 5.46462 6.30441 4.65139C6.45665 3.83816 6.91331 3.11361 7.58129 2.62543C8.24928 2.13726 9.0783 1.92222 9.89935 2.02416C10.7204 2.1261 11.4717 2.53734 12 3.17404C12.3045 2.80623 12.6865 2.51026 13.1186 2.30731C13.5508 2.10435 14.0225 1.99943 14.5 2.00004ZM9.5 3.50004C9.04848 3.50024 8.61452 3.67495 8.28881 3.98765C7.96311 4.30036 7.77086 4.72684 7.75227 5.17798C7.73368 5.62911 7.89017 6.06997 8.18904 6.40841C8.48792 6.74686 8.90603 6.95668 9.356 6.99404L9.5 7.00004H11.25V5.25004L11.244 5.10604C11.2079 4.66834 11.0085 4.26023 10.6854 3.96272C10.3623 3.66521 9.93919 3.50006 9.5 3.50004ZM14.5 3.50004C14.0359 3.50004 13.5908 3.68441 13.2626 4.0126C12.9344 4.34079 12.75 4.78591 12.75 5.25004V7.00004H14.5C14.9641 7.00004 15.4092 6.81567 15.7374 6.48748C16.0656 6.15929 16.25 5.71417 16.25 5.25004C16.25 4.78591 16.0656 4.34079 15.7374 4.0126C15.4092 3.68441 14.9641 3.50004 14.5 3.50004Z" fill="#F0531C"/>
</svg>
