<svg width="23" height="23" viewBox="0 0 23 23" fill="none" xmlns="http://www.w3.org/2000/svg">
<path d="M11.5 23C16.2639 23 20.125 20.125 20.125 15.0938C20.125 12.9375 19.4062 9.34375 16.5312 6.46875C16.8906 8.625 14.7344 9.34375 14.7344 9.34375C15.8125 5.75 12.9375 0.71875 8.625 0C9.13819 2.875 9.34375 5.75 5.75 8.625C3.95312 10.0625 2.875 12.5479 2.875 15.0938C2.875 20.125 6.73613 23 11.5 23ZM11.5 21.5625C9.11806 21.5625 7.1875 20.125 7.1875 17.6094C7.1875 16.5312 7.54688 14.7344 8.98438 13.2969C8.80469 14.375 10.0625 15.0938 10.0625 15.0938C9.52344 13.2969 10.7812 10.4219 12.9375 10.0625C12.6802 11.5 12.5781 12.9375 14.375 14.375C15.2734 15.0938 15.8125 16.3358 15.8125 17.6094C15.8125 20.125 13.8819 21.5625 11.5 21.5625Z" fill="#09312A"/>
</svg>
