<svg width="19" height="19" viewBox="0 0 19 19" fill="none" xmlns="http://www.w3.org/2000/svg">
<g clip-path="url(#clip0_744_512)">
<path d="M9.31216 18.4215C12.9361 18.4215 15.8733 16.2345 15.8733 12.4071C15.8733 10.7668 15.3266 8.03299 13.1395 5.84593C13.4129 7.48623 11.7726 8.03299 11.7726 8.03299C12.5927 5.29917 10.4057 1.47181 7.1251 0.925049C7.51549 3.11211 7.67186 5.29917 4.93804 7.48623C3.57112 8.57976 2.75098 10.4705 2.75098 12.4071C2.75098 16.2345 5.6882 18.4215 9.31216 18.4215ZM9.31216 17.328C7.50018 17.328 6.03157 16.2345 6.03157 14.3208C6.03157 13.5006 6.30495 12.1337 7.39848 11.0402C7.26179 11.8603 8.21863 12.4071 8.21863 12.4071C7.80855 11.0402 8.76539 8.85314 10.4057 8.57976C10.2099 9.67329 10.1323 10.7668 11.4992 11.8603C12.1827 12.4071 12.5927 13.3519 12.5927 14.3208C12.5927 16.2345 11.1241 17.328 9.31216 17.328Z" fill="#FFA74F"/>
</g>
<defs>
<clipPath id="clip0_744_512">
<rect width="17.4965" height="17.4965" fill="white" transform="translate(0.564453 0.925049)"/>
</clipPath>
</defs>
</svg>
