<svg width="17" height="17" viewBox="0 0 17 17" fill="none" xmlns="http://www.w3.org/2000/svg">
<path fill-rule="evenodd" clip-rule="evenodd" d="M12.6673 1.41675C12.8665 1.41673 13.0635 1.45873 13.2453 1.53999C13.4272 1.62125 13.5899 1.73995 13.7228 1.88834C13.8556 2.03674 13.9557 2.21148 14.0165 2.40118C14.0773 2.59088 14.0974 2.79126 14.0755 2.98925L12.8161 14.3226C12.7777 14.6692 12.6128 14.9895 12.353 15.2222C12.0932 15.4548 11.7566 15.5834 11.4079 15.5834H5.59246C5.24371 15.5834 4.9072 15.4548 4.64737 15.2222C4.38754 14.9895 4.22266 14.6692 4.1843 14.3226L2.92559 2.98925C2.90368 2.79132 2.92375 2.591 2.98449 2.40135C3.04522 2.2117 3.14525 2.03699 3.27806 1.88861C3.41087 1.74023 3.57347 1.62151 3.75525 1.54021C3.93703 1.4589 4.13391 1.41683 4.33305 1.41675H12.6673ZM9.20851 10.6251C9.02065 10.6251 8.84048 10.6997 8.70764 10.8325C8.5748 10.9654 8.50017 11.1456 8.50017 11.3334C8.50017 11.5213 8.5748 11.7014 8.70764 11.8343C8.84048 11.9671 9.02065 12.0417 9.20851 12.0417C9.39637 12.0417 9.57654 11.9671 9.70937 11.8343C9.84221 11.7014 9.91684 11.5213 9.91684 11.3334C9.91684 11.1456 9.84221 10.9654 9.70937 10.8325C9.57654 10.6997 9.39637 10.6251 9.20851 10.6251ZM7.08351 8.50008C6.89564 8.50008 6.71548 8.57471 6.58264 8.70755C6.4498 8.84038 6.37517 9.02055 6.37517 9.20841C6.37517 9.39628 6.4498 9.57644 6.58264 9.70928C6.71548 9.84212 6.89564 9.91675 7.08351 9.91675C7.27137 9.91675 7.45154 9.84212 7.58437 9.70928C7.71721 9.57644 7.79184 9.39628 7.79184 9.20841C7.79184 9.02055 7.71721 8.84038 7.58437 8.70755C7.45154 8.57471 7.27137 8.50008 7.08351 8.50008ZM12.6673 2.83341H4.33305L4.63409 5.54137L4.76655 5.518C4.95071 5.48683 5.16392 5.46133 5.40405 5.44716C6.20305 5.39971 7.29034 5.48754 8.54197 5.98054L8.77926 6.07829C9.83609 6.53162 10.7378 6.62512 11.3866 6.60316L12.2536 6.555L12.6673 2.83341Z" fill="#F0531C"/>
</svg>
