<svg width="26" height="26" viewBox="0 0 26 26" fill="none" xmlns="http://www.w3.org/2000/svg">
<path d="M12.8004 22.9226V18.9271M6.31808 10.1262L5.85993 11.8352C5.49571 13.1957 5.68663 14.6451 6.39071 15.8649C7.0948 17.0847 8.25442 17.9749 9.61467 18.34C10.6766 18.6255 11.7385 18.91 12.8004 19.1934V15.5282C12.7157 14.4335 12.2935 13.3921 11.592 12.5474C10.8905 11.7028 9.94427 11.0966 8.88375 10.8124L6.31808 10.1262Z" stroke="#09312A" stroke-width="2.04571" stroke-linecap="round" stroke-linejoin="round"/>
<path d="M14.644 11.8951C15.621 10.9169 16.1701 9.59107 16.1709 8.20853C16.1717 7.52378 16.0372 6.84561 15.7752 6.21297C15.5132 5.58032 15.1288 5.00566 14.644 4.52198L12.8008 2.67871L10.9575 4.52198C9.9805 5.5002 9.43141 6.826 9.43066 8.20853C9.43141 9.59107 9.9805 10.9169 10.9575 11.8951" stroke="#09312A" stroke-width="2.04571" stroke-linecap="round" stroke-linejoin="round"/>
<path d="M19.2832 10.1262L19.7414 11.8352C20.1056 13.1959 19.9145 14.6454 19.2102 15.8652C18.5059 17.085 17.346 17.9751 15.9856 18.34L12.7998 19.1934V15.5282C12.8846 14.4334 13.307 13.3918 14.0087 12.5472C14.7104 11.7026 15.6568 11.0964 16.7176 10.8124L19.2832 10.1262Z" stroke="#09312A" stroke-width="2.04571" stroke-linecap="round" stroke-linejoin="round"/>
</svg>
