<svg width="438" height="366" viewBox="0 0 438 366" fill="none" xmlns="http://www.w3.org/2000/svg">
<path d="M49.0245 -158.476C402.422 428.518 331.347 -255.407 656.194 297.354" stroke="#F0531C" stroke-width="26.6756" stroke-linecap="round"/>
<path d="M50.3552 -149.725L57.1584 -153.87L57.7704 -152.866L55.7853 -148.15L55.4793 -148.652L60.5526 -148.3L61.1646 -147.295L54.3615 -143.15L53.7105 -144.218L59.2443 -147.59L59.3796 -147.122L54.3094 -147.551L54.2426 -147.661L56.2191 -152.309L56.5456 -152.019L51.0118 -148.647L50.3552 -149.725ZM56.1216 -140.015C55.8954 -140.386 55.7791 -140.762 55.7728 -141.142C55.7726 -141.526 55.8735 -141.888 56.0753 -142.228C56.287 -142.566 56.5907 -142.855 56.9864 -143.096L60.0364 -144.955L60.6651 -143.923L57.7065 -142.12C57.4812 -141.983 57.3112 -141.816 57.1964 -141.621C57.0815 -141.426 57.0255 -141.217 57.0283 -140.993C57.0371 -140.773 57.1064 -140.556 57.2363 -140.343C57.3698 -140.124 57.5354 -139.962 57.7329 -139.857C57.9305 -139.752 58.1454 -139.708 58.3776 -139.724C58.6135 -139.734 58.8501 -139.811 59.0875 -139.956L62.0006 -141.731L62.6238 -140.708L57.6835 -137.698L57.0881 -138.675L58.0561 -139.265L57.995 -139.078C57.6201 -139.008 57.2689 -139.057 56.9413 -139.224C56.6137 -139.392 56.3405 -139.656 56.1216 -140.015ZM58.4218 -136.496L65.3052 -140.756L65.9411 -139.728L59.0577 -135.468L58.4218 -136.496ZM60.6039 -132.727C60.3976 -133.06 60.2732 -133.39 60.2307 -133.715C60.1981 -134.039 60.2417 -134.334 60.3615 -134.601C60.4874 -134.872 60.6928 -135.096 60.9776 -135.272C61.2444 -135.437 61.5194 -135.528 61.8029 -135.544C62.0901 -135.554 62.3833 -135.48 62.6827 -135.321C62.982 -135.163 63.2783 -134.914 63.5715 -134.576L64.9115 -133.041L64.1023 -132.54L62.9043 -133.886C62.687 -134.129 62.4752 -134.275 62.2692 -134.323C62.0691 -134.376 61.8721 -134.342 61.6782 -134.222C61.4902 -134.105 61.3788 -133.94 61.3439 -133.725C61.3188 -133.509 61.3756 -133.288 61.5145 -133.064C61.6871 -132.785 61.8978 -132.58 62.1466 -132.449C62.3991 -132.312 62.6611 -132.248 62.9324 -132.256C63.2098 -132.269 63.4727 -132.352 63.7213 -132.506L64.9851 -133.288C65.2276 -133.438 65.3683 -133.651 65.4073 -133.927C65.4561 -134.2 65.3885 -134.485 65.2047 -134.782C65.0358 -135.055 64.8149 -135.249 64.5418 -135.365C64.2786 -135.479 64.0048 -135.515 63.7205 -135.473L63.6188 -136.592C63.9175 -136.652 64.2216 -136.634 64.531 -136.541C64.8465 -136.451 65.1402 -136.302 65.4121 -136.093C65.6877 -135.878 65.9212 -135.616 66.1126 -135.306C66.3527 -134.918 66.492 -134.531 66.5304 -134.144C66.5725 -133.751 66.5139 -133.392 66.3546 -133.067C66.205 -132.739 65.9606 -132.471 65.6211 -132.261L62.3115 -130.212L61.7036 -131.194L62.5947 -131.745L62.6969 -131.519C62.4255 -131.511 62.1608 -131.552 61.9028 -131.644C61.6485 -131.73 61.4107 -131.863 61.1893 -132.045C60.9717 -132.221 60.7765 -132.448 60.6039 -132.727ZM63.0551 -129.011L67.9741 -132.055L68.6101 -131.028L63.6911 -127.983L63.0551 -129.011ZM68.6469 -132.472L69.8289 -133.204L70.4649 -132.176L69.2829 -131.444L68.6469 -132.472ZM66.7323 -122.861C66.4371 -123.332 66.2839 -123.825 66.2728 -124.34C66.2715 -124.852 66.396 -125.338 66.6464 -125.798C66.9006 -126.251 67.2694 -126.63 67.7527 -126.932C68.236 -127.235 68.7391 -127.399 69.262 -127.424C69.7849 -127.448 70.2735 -127.346 70.7279 -127.118C71.1823 -126.889 71.5552 -126.543 71.8466 -126.077C72.0927 -125.685 72.2317 -125.288 72.2639 -124.888C72.2961 -124.487 72.2281 -124.112 72.0599 -123.763L71.7278 -123.77L74.7001 -125.632L75.336 -124.617L68.476 -120.319L67.8686 -121.289L68.8654 -121.913L68.7489 -121.676C68.3469 -121.66 67.969 -121.76 67.6151 -121.975C67.2612 -122.191 66.9669 -122.486 66.7323 -122.861ZM67.7462 -123.357C67.9241 -123.073 68.1526 -122.863 68.4316 -122.727C68.7143 -122.584 69.0163 -122.525 69.3374 -122.55C69.6684 -122.572 69.9879 -122.68 70.296 -122.873C70.6041 -123.066 70.8374 -123.304 70.9958 -123.589C71.1579 -123.867 71.2366 -124.164 71.2317 -124.481C71.2306 -124.791 71.1411 -125.089 70.9633 -125.373C70.7854 -125.657 70.5551 -125.87 70.2723 -126.012C69.9895 -126.155 69.6876 -126.214 69.3664 -126.189C69.0453 -126.165 68.7307 -126.056 68.4226 -125.863C68.1145 -125.67 67.8763 -125.432 67.7081 -125.15C67.5459 -124.872 67.4654 -124.578 67.4664 -124.267C67.4713 -123.951 67.5646 -123.647 67.7462 -123.357ZM70.0401 -117.59C69.8313 -117.922 69.7045 -118.25 69.6597 -118.576C69.6247 -118.899 69.6661 -119.195 69.784 -119.463C69.9078 -119.734 70.1115 -119.959 70.3951 -120.138C70.6606 -120.305 70.935 -120.398 71.2184 -120.416C71.5055 -120.428 71.7993 -120.356 72.0997 -120.2C72.4002 -120.043 72.6983 -119.797 72.9941 -119.461L74.3453 -117.936L73.5398 -117.429L72.3319 -118.767C72.1128 -119.008 71.9 -119.152 71.6936 -119.199C71.4932 -119.249 71.2964 -119.214 71.1033 -119.093C70.9163 -118.975 70.8061 -118.809 70.7727 -118.594C70.7492 -118.377 70.8077 -118.157 70.9482 -117.934C71.1228 -117.656 71.335 -117.453 71.5848 -117.324C71.8384 -117.188 72.1008 -117.126 72.372 -117.137C72.6493 -117.151 72.9116 -117.236 73.159 -117.392L74.4171 -118.183C74.6584 -118.335 74.7976 -118.549 74.8345 -118.825C74.8813 -119.099 74.8117 -119.383 74.6256 -119.679C74.4548 -119.951 74.2324 -120.143 73.9585 -120.257C73.6944 -120.369 73.4204 -120.403 73.1364 -120.359L73.0265 -121.478C73.3248 -121.539 73.629 -121.524 73.9391 -121.433C74.2552 -121.345 74.55 -121.198 74.8234 -120.991C75.1006 -120.778 75.3361 -120.518 75.5297 -120.21C75.7727 -119.824 75.9148 -119.437 75.956 -119.051C76.001 -118.658 75.9451 -118.298 75.7881 -117.972C75.641 -117.644 75.3985 -117.373 75.0606 -117.161L71.7661 -115.088L71.1511 -116.065L72.0381 -116.623L72.1419 -116.398C71.8706 -116.387 71.6056 -116.427 71.3469 -116.517C71.092 -116.601 70.8532 -116.733 70.6305 -116.913C70.4116 -117.086 70.2148 -117.312 70.0401 -117.59ZM72.5193 -113.892L77.4122 -116.979L78.0284 -116.002L77.0426 -115.38L77.1302 -115.562C77.5183 -115.655 77.8577 -115.625 78.1485 -115.471C78.4453 -115.321 78.7003 -115.077 78.9133 -114.74L79.1015 -114.441L78.17 -113.854L77.9018 -114.279C77.6888 -114.616 77.4103 -114.824 77.0661 -114.902C76.7318 -114.978 76.3717 -114.894 75.9858 -114.65L73.164 -112.87L72.5193 -113.892ZM74.5902 -110.618L79.4628 -113.737L80.1142 -112.719L75.2416 -109.6L74.5902 -110.618ZM80.1293 -114.163L81.3002 -114.913L81.9516 -113.895L80.7807 -113.145L80.1293 -114.163ZM77.0742 -106.737L83.7842 -111.031L84.4644 -109.969L80.8257 -107.64L80.7551 -107.988L86.2283 -107.213L87.0757 -105.889L82.2146 -106.561L83.0057 -106.991L80.4349 -101.486L79.6336 -102.738L81.4483 -106.667L79.6909 -106.913L77.7544 -105.674L77.0742 -106.737ZM81.6588 -99.3594C81.4457 -99.6885 81.3146 -100.016 81.2656 -100.341C81.2264 -100.663 81.264 -100.959 81.3783 -101.229C81.4987 -101.502 81.6995 -101.73 81.9807 -101.912C82.244 -102.082 82.5172 -102.179 82.8003 -102.2C83.0872 -102.216 83.3819 -102.148 83.6844 -101.996C83.9869 -101.843 84.2881 -101.601 84.5882 -101.269L85.9591 -99.7615L85.1602 -99.2442L83.9351 -100.566C83.7129 -100.804 83.4983 -100.945 83.2912 -100.99C83.0902 -101.038 82.8939 -101 82.7024 -100.876C82.5169 -100.756 82.4089 -100.588 82.3783 -100.373C82.3576 -100.156 82.4189 -99.9365 82.5623 -99.7151C82.7405 -99.4398 82.9553 -99.2392 83.2067 -99.1132C83.462 -98.9813 83.7252 -98.9224 83.9963 -98.9365C84.2734 -98.9546 84.5346 -99.043 84.78 -99.2019L86.0277 -100.01C86.267 -100.165 86.4034 -100.38 86.4368 -100.657C86.48 -100.931 86.4067 -101.215 86.2168 -101.508C86.0425 -101.777 85.8176 -101.967 85.5423 -102.078C85.2768 -102.186 85.0023 -102.216 84.7189 -102.169L84.5945 -103.286C84.892 -103.351 85.1963 -103.34 85.5076 -103.253C85.8248 -103.169 86.1215 -103.026 86.3976 -102.823C86.6775 -102.613 86.9163 -102.356 87.1139 -102.051C87.3619 -101.668 87.509 -101.283 87.5552 -100.897C87.6053 -100.505 87.554 -100.144 87.4013 -99.8163C87.2585 -99.486 87.0195 -99.2123 86.6844 -98.9954L83.417 -96.8799L82.7894 -97.8493L83.669 -98.4189L83.7758 -98.195C83.5047 -98.1808 83.2392 -98.217 82.9794 -98.3036C82.7234 -98.3841 82.4829 -98.5129 82.2578 -98.6899C82.0367 -98.861 81.837 -99.0841 81.6588 -99.3594ZM84.1865 -95.6951L89.0338 -98.8529L89.6642 -97.8852L88.6159 -97.2023L88.6954 -97.4328C89.0901 -97.5453 89.4586 -97.5216 89.801 -97.3618C90.1434 -97.2019 90.4274 -96.9488 90.6531 -96.6024C90.906 -96.2141 91.0253 -95.8025 91.0108 -95.3677C91.0061 -94.9307 90.8667 -94.5506 90.5923 -94.2272L90.3787 -94.4964C90.8603 -94.606 91.2921 -94.5767 91.6739 -94.4086C92.0596 -94.2344 92.377 -93.9562 92.626 -93.5739C92.8439 -93.2394 92.9628 -92.8872 92.9826 -92.5172C93.0063 -92.1413 92.9333 -91.7832 92.7636 -91.4429C92.5939 -91.1026 92.3328 -90.8177 91.9804 -90.5881L88.8445 -88.5451L88.1849 -89.5576L91.0431 -91.4196C91.288 -91.5792 91.4649 -91.7582 91.5738 -91.9568C91.6925 -92.1532 91.7461 -92.3583 91.7345 -92.572C91.7328 -92.7836 91.6658 -92.9909 91.5335 -93.194C91.4012 -93.3971 91.2366 -93.5452 91.0399 -93.6382C90.8491 -93.7351 90.6379 -93.772 90.4063 -93.7487C90.1748 -93.7255 89.9395 -93.636 89.7006 -93.4804L86.8424 -91.6184L86.1886 -92.6219L89.0468 -94.4839C89.2917 -94.6434 89.4686 -94.8225 89.5775 -95.021C89.6962 -95.2175 89.7498 -95.4226 89.7382 -95.6362C89.7365 -95.8478 89.6676 -96.0582 89.5314 -96.2672C89.3991 -96.4703 89.2345 -96.6184 89.0378 -96.7114C88.847 -96.8084 88.6358 -96.8452 88.4042 -96.8219C88.1765 -96.7927 87.9432 -96.7003 87.7043 -96.5446L84.8461 -94.6826L84.1865 -95.6951ZM90.5895 -85.6741C90.3491 -86.0364 90.2184 -86.4074 90.1975 -86.7871C90.1825 -87.1707 90.2693 -87.5363 90.4579 -87.8839C90.6564 -88.2295 90.9487 -88.5304 91.3348 -88.7866L94.3109 -90.7612L94.979 -89.7543L92.092 -87.8388C91.8722 -87.693 91.7087 -87.5203 91.6015 -87.3208C91.4943 -87.1214 91.4464 -86.9099 91.4578 -86.6865C91.4751 -86.467 91.5527 -86.2533 91.6907 -86.0453C91.8326 -85.8315 92.0042 -85.6759 92.2057 -85.5786C92.4072 -85.4813 92.6236 -85.4452 92.855 -85.4704C93.0903 -85.4896 93.3238 -85.5761 93.5555 -85.7298L96.3979 -87.6158L97.0601 -86.6178L92.2395 -83.4194L91.6069 -84.3728L92.5514 -84.9995L92.4976 -84.8098C92.1257 -84.7256 91.7729 -84.761 91.4391 -84.9159C91.1053 -85.0709 90.8221 -85.3236 90.5895 -85.6741ZM91.8812 -81.1163L92.3712 -81.4414C92.5488 -81.2769 92.7414 -81.1865 92.949 -81.1703C93.1506 -81.1501 93.3752 -81.2049 93.6226 -81.3349L93.3093 -81.8071L94.4676 -82.5757L95.1475 -81.551L94.3901 -81.0485C93.9149 -80.7332 93.4647 -80.5799 93.0397 -80.5888C92.6146 -80.5976 92.2284 -80.7734 91.8812 -81.1163ZM97.6227 -75.1212C97.2922 -75.612 97.101 -76.1192 97.0491 -76.643C97.0012 -77.1608 97.084 -77.6505 97.2974 -78.1122C97.5147 -78.568 97.854 -78.9512 98.3152 -79.2618L102.635 -82.1706L103.34 -81.124L99.0644 -78.245C98.7746 -78.0499 98.5592 -77.8146 98.4182 -77.5391C98.2811 -77.2577 98.2241 -76.9658 98.2472 -76.6634C98.2744 -76.355 98.3855 -76.056 98.5806 -75.7663C98.7797 -75.4706 99.015 -75.2552 99.2865 -75.12C99.562 -74.9789 99.8539 -74.922 100.162 -74.9491C100.475 -74.9703 100.776 -75.0785 101.065 -75.2736L105.341 -78.1526L106.039 -77.1148L101.72 -74.206C101.259 -73.8954 100.776 -73.7251 100.272 -73.6951C99.7678 -73.665 99.2829 -73.7725 98.8171 -74.0175C98.3553 -74.2566 97.9572 -74.6245 97.6227 -75.1212ZM100.25 -71.4514L105.042 -74.6924L105.689 -73.7357L104.75 -73.1007L104.797 -73.2998C105.178 -73.3853 105.533 -73.3501 105.862 -73.1941C106.197 -73.0421 106.481 -72.7949 106.712 -72.4524C106.952 -72.0981 107.087 -71.7332 107.117 -71.3577C107.147 -70.9822 107.078 -70.6258 106.911 -70.2886C106.743 -69.9514 106.482 -69.6629 106.127 -69.4233L103.036 -67.3325L102.365 -68.3246L105.191 -70.2356C105.433 -70.3994 105.607 -70.5815 105.712 -70.7819C105.823 -70.9863 105.867 -71.2011 105.844 -71.4263C105.831 -71.6497 105.754 -71.8647 105.614 -72.0714C105.475 -72.2781 105.302 -72.4321 105.095 -72.5336C104.899 -72.6331 104.685 -72.6693 104.454 -72.642C104.223 -72.6148 103.989 -72.5213 103.753 -72.3615L100.927 -70.4505L100.25 -71.4514ZM105.129 -64.1658C104.786 -64.6652 104.661 -65.1499 104.753 -65.6198C104.845 -66.0898 105.147 -66.5004 105.658 -66.8517L107.967 -68.4387L107.391 -69.2759L108.29 -69.8937L108.381 -69.7615C108.534 -69.5383 108.718 -69.4094 108.932 -69.3749C109.146 -69.3403 109.365 -69.3998 109.588 -69.5532L109.958 -69.8076L110.643 -68.8118L109.55 -68.0607L110.295 -66.9768L109.396 -66.359L108.651 -67.4429L106.386 -65.8862C106.222 -65.7731 106.099 -65.6498 106.018 -65.5161C105.943 -65.3865 105.913 -65.2408 105.929 -65.0789C105.951 -64.921 106.027 -64.748 106.156 -64.56C106.188 -64.513 106.228 -64.4622 106.274 -64.4075C106.32 -64.3528 106.364 -64.301 106.407 -64.2521L105.552 -63.6646C105.483 -63.7388 105.409 -63.8218 105.329 -63.9136C105.248 -64.0054 105.182 -64.0894 105.129 -64.1658ZM107.287 -60.9219C107.04 -61.2798 106.903 -61.6484 106.875 -62.0277C106.853 -62.4109 106.933 -62.778 107.115 -63.129C107.308 -63.4781 107.594 -63.7842 107.976 -64.0474L110.916 -66.0756L111.602 -65.081L108.75 -63.1135C108.533 -62.9637 108.373 -62.7881 108.269 -62.5867C108.165 -62.3854 108.121 -62.1731 108.137 -61.9499C108.158 -61.7307 108.24 -61.5184 108.381 -61.3131C108.527 -61.1018 108.701 -60.9494 108.905 -60.8557C109.108 -60.762 109.325 -60.7299 109.556 -60.7593C109.791 -60.7828 110.023 -60.8735 110.252 -61.0314L113.059 -62.9685L113.739 -61.9827L108.978 -58.6975L108.328 -59.6393L109.261 -60.2829L109.21 -60.0923C108.84 -60.0014 108.487 -60.0304 108.15 -60.1793C107.814 -60.3281 107.526 -60.5757 107.287 -60.9219ZM109.782 -57.5383L116.421 -62.1703L117.112 -61.1793L112.666 -58.077L112.493 -58.5302L116.607 -57.8669L117.469 -56.6304L114.318 -57.0916L112.78 -53.2411L111.985 -54.3812L113.339 -57.8036L113.828 -57.2711L111.358 -57.634L112.236 -57.7772L110.473 -56.5473L109.782 -57.5383ZM114.4 -50.9401L120.912 -55.5295L121.639 -54.4981L118.108 -52.0093L118.022 -52.3542L123.524 -51.8234L124.43 -50.5385L119.544 -50.9933L120.315 -51.4583L117.992 -45.8442L117.136 -47.0592L118.773 -51.0653L117.007 -51.2331L115.127 -49.9087L114.4 -50.9401ZM118.471 -45.1761L123.167 -48.5556L123.873 -47.5748L119.177 -44.1954L118.471 -45.1761ZM123.809 -49.0178L124.937 -49.8299L125.643 -48.8492L124.515 -48.0371L123.809 -49.0178ZM121.412 -40.9803C121.058 -41.4721 120.922 -41.954 121.004 -42.4258C121.086 -42.8977 121.379 -43.3147 121.882 -43.677L124.156 -45.3137L123.563 -46.1382L124.448 -46.7754L124.542 -46.6452C124.7 -46.4253 124.887 -46.3004 125.101 -46.2705C125.316 -46.2406 125.533 -46.3048 125.753 -46.4631L126.118 -46.7254L126.824 -45.7447L125.747 -44.9701L126.516 -43.9026L125.63 -43.2654L124.862 -44.3329L122.632 -42.7275C122.47 -42.6109 122.349 -42.4849 122.271 -42.3496C122.199 -42.2184 122.172 -42.072 122.192 -41.9105C122.217 -41.7531 122.297 -41.5818 122.43 -41.3967C122.463 -41.3504 122.504 -41.3004 122.551 -41.2467C122.599 -41.193 122.644 -41.1422 122.687 -41.0943L121.845 -40.4884C121.775 -40.561 121.699 -40.6424 121.617 -40.7324C121.535 -40.8225 121.466 -40.9051 121.412 -40.9803ZM123.417 -38.0962C123.187 -38.4138 123.039 -38.7336 122.973 -39.0556C122.917 -39.376 122.94 -39.6736 123.04 -39.9486C123.146 -40.2277 123.335 -40.4655 123.606 -40.6619C123.86 -40.8458 124.128 -40.9561 124.409 -40.9927C124.695 -41.0234 124.993 -40.9706 125.303 -40.8342C125.613 -40.6977 125.926 -40.4713 126.243 -40.1551L127.691 -38.7209L126.92 -38.1629L125.628 -39.419C125.393 -39.6455 125.172 -39.7754 124.963 -39.8089C124.759 -39.8466 124.565 -39.7986 124.38 -39.6648C124.201 -39.5353 124.102 -39.3623 124.083 -39.1458C124.073 -38.9278 124.146 -38.712 124.301 -38.4983C124.493 -38.2326 124.718 -38.0434 124.976 -37.9307C125.237 -37.8122 125.503 -37.767 125.773 -37.7952C126.049 -37.8276 126.305 -37.9295 126.542 -38.1009L127.746 -38.9724C127.977 -39.1396 128.102 -39.362 128.121 -39.6398C128.15 -39.9159 128.062 -40.1955 127.857 -40.4785C127.669 -40.7383 127.435 -40.9163 127.154 -41.0123C126.883 -41.1068 126.608 -41.1229 126.327 -41.0606L126.145 -42.1696C126.439 -42.2501 126.743 -42.2549 127.058 -42.184C127.38 -42.1172 127.683 -41.9894 127.97 -41.8006C128.26 -41.606 128.512 -41.3615 128.725 -41.0669C128.993 -40.6973 129.159 -40.3209 129.226 -39.9376C129.296 -39.5485 129.263 -39.1862 129.128 -38.8505C129.002 -38.5132 128.778 -38.2276 128.455 -37.9935L125.301 -35.7113L124.624 -36.6468L125.473 -37.2613L125.591 -37.0432C125.322 -37.015 125.055 -37.0374 124.791 -37.1103C124.531 -37.1775 124.284 -37.2936 124.05 -37.4587C123.82 -37.6181 123.609 -37.8306 123.417 -38.0962ZM143.546 -11.2798C143.239 -11.6737 143.028 -12.0965 142.912 -12.5479C142.801 -13.0038 142.784 -13.4505 142.859 -13.8882C142.934 -14.3258 143.097 -14.7322 143.347 -15.1073L144.358 -14.5386C144.087 -14.0848 143.962 -13.6306 143.981 -13.176C144 -12.7215 144.159 -12.3028 144.456 -11.9201C144.631 -11.6949 144.818 -11.5242 145.017 -11.4078C145.222 -11.2958 145.423 -11.2451 145.623 -11.2557C145.827 -11.2607 146.013 -11.3288 146.182 -11.46C146.413 -11.6394 146.545 -11.8463 146.58 -12.0808C146.614 -12.3152 146.572 -12.5897 146.454 -12.9043L145.907 -14.375C145.686 -14.9616 145.628 -15.4946 145.734 -15.9741C145.845 -16.458 146.104 -16.8575 146.509 -17.1725C146.864 -17.4482 147.241 -17.6016 147.641 -17.6327C148.047 -17.6682 148.444 -17.5931 148.832 -17.4073C149.225 -17.2158 149.574 -16.9231 149.88 -16.5291C150.174 -16.152 150.373 -15.7562 150.479 -15.3416C150.59 -14.9314 150.615 -14.5269 150.555 -14.128C150.499 -13.7235 150.359 -13.3524 150.134 -13.0148L149.127 -13.56C149.363 -13.942 149.468 -14.3352 149.443 -14.7398C149.422 -15.1387 149.278 -15.5098 149.011 -15.8532C148.849 -16.0614 148.67 -16.2159 148.475 -16.3166C148.284 -16.4217 148.087 -16.4668 147.882 -16.4518C147.687 -16.4356 147.502 -16.3597 147.327 -16.2241C147.125 -16.0666 146.995 -15.8619 146.938 -15.6099C146.881 -15.3579 146.916 -15.0691 147.043 -14.7433L147.55 -13.3766C147.787 -12.7576 147.861 -12.2098 147.771 -11.7334C147.686 -11.2614 147.433 -10.8613 147.011 -10.5332C146.662 -10.2619 146.28 -10.1141 145.865 -10.0899C145.455 -10.06 145.047 -10.1442 144.64 -10.3425C144.238 -10.5452 143.874 -10.8576 143.546 -11.2798ZM147.702 -5.98426C147.344 -6.43683 147.128 -6.92102 147.056 -7.43685C146.994 -7.95151 147.064 -8.4483 147.267 -8.92723C147.475 -9.41058 147.803 -9.82937 148.25 -10.1836C148.708 -10.5467 149.19 -10.7699 149.697 -10.8533C150.209 -10.9311 150.698 -10.8821 151.165 -10.7062C151.637 -10.5348 152.041 -10.2368 152.378 -9.81218C152.648 -9.47136 152.831 -9.12036 152.926 -8.75919C153.021 -8.39802 153.038 -8.04334 152.978 -7.69513C152.923 -7.35135 152.801 -7.02792 152.614 -6.72484C152.431 -6.41616 152.192 -6.14449 151.896 -5.90982C151.823 -5.85226 151.745 -5.79528 151.663 -5.73888C151.58 -5.68248 151.499 -5.6361 151.418 -5.59973L148.556 -9.21188L149.31 -9.80962L151.747 -6.73384L151.045 -6.9141C151.363 -7.07519 151.591 -7.28735 151.728 -7.55059C151.875 -7.81266 151.935 -8.08739 151.907 -8.37477C151.889 -8.66098 151.781 -8.9298 151.582 -9.18123C151.382 -9.43266 151.141 -9.60523 150.858 -9.69894C150.58 -9.79709 150.281 -9.80626 149.963 -9.72645C149.649 -9.65107 149.337 -9.47159 149.025 -9.188C148.695 -8.97242 148.46 -8.71798 148.32 -8.4247C148.184 -8.12583 148.133 -7.82212 148.169 -7.51355C148.209 -7.1994 148.335 -6.90823 148.547 -6.64004C148.764 -6.36626 149.009 -6.1831 149.283 -6.09054C149.561 -5.9924 149.842 -5.96494 150.126 -6.00816L150.36 -4.93825C150.077 -4.8594 149.773 -4.84632 149.449 -4.89903C149.136 -4.95058 148.824 -5.0678 148.516 -5.2507C148.217 -5.43244 147.946 -5.67696 147.702 -5.98426ZM150.194 -3.05687L156.493 -8.14156L157.252 -7.20133L154.573 -5.03849L154.568 -5.2823C154.941 -5.39973 155.298 -5.39462 155.639 -5.26698C155.986 -5.14381 156.289 -4.92136 156.549 -4.59963C156.817 -4.2668 156.982 -3.9146 157.044 -3.543C157.106 -3.17141 157.068 -2.81051 156.929 -2.4603C156.79 -2.11009 156.557 -1.80289 156.23 -1.53869L153.318 0.812217L152.565 -0.119693L155.22 -2.26238C155.447 -2.44597 155.602 -2.64484 155.686 -2.85898C155.78 -3.07204 155.808 -3.28704 155.77 -3.50398C155.738 -3.7254 155.644 -3.93319 155.487 -4.12733C155.335 -4.31593 155.151 -4.45207 154.937 -4.53574C154.733 -4.61834 154.515 -4.63909 154.282 -4.59799C154.054 -4.55133 153.829 -4.43845 153.607 -4.25933L150.953 -2.11664L150.194 -3.05687ZM155.129 3.23944C154.881 2.93565 154.715 2.62495 154.63 2.30733C154.556 1.99073 154.561 1.69229 154.645 1.41201C154.735 1.12722 154.909 0.878915 155.169 0.667082C155.412 0.46877 155.673 0.343212 155.952 0.290409C156.235 0.24313 156.536 0.278635 156.853 0.396925C157.17 0.515215 157.496 0.723051 157.831 1.02043L159.359 2.36846L158.621 2.97015L157.259 1.79088C157.012 1.57838 156.783 1.46146 156.572 1.44012C156.367 1.41427 156.176 1.47346 156 1.61768C155.828 1.7574 155.739 1.93585 155.733 2.15303C155.736 2.37123 155.821 2.58251 155.988 2.78688C156.195 3.04096 156.43 3.21682 156.694 3.31448C156.962 3.41765 157.23 3.44735 157.498 3.40356C157.772 3.35526 158.022 3.23872 158.248 3.05393L159.4 2.1142C159.621 1.93392 159.733 1.70459 159.735 1.42621C159.748 1.14885 159.644 0.87484 159.424 0.604192C159.221 0.355639 158.976 0.191549 158.691 0.111923C158.415 0.0333126 158.139 0.0332014 157.862 0.111589L157.616 -0.984962C157.905 -1.08239 158.208 -1.10482 158.527 -1.05224C158.852 -1.00416 159.162 -0.894154 159.459 -0.72222C159.76 -0.544763 160.026 -0.315188 160.256 -0.0334937C160.544 0.320005 160.733 0.686163 160.821 1.06498C160.914 1.44932 160.902 1.81296 160.786 2.1559C160.681 2.49985 160.473 2.79803 160.164 3.05042L157.148 5.51129L156.418 4.6165L157.23 3.95396L157.36 4.16479C157.092 4.20858 156.825 4.20171 156.557 4.14418C156.294 4.09217 156.04 3.99052 155.797 3.83922C155.559 3.69344 155.336 3.49352 155.129 3.23944ZM159.539 8.47902C159.15 8.0144 158.979 7.5438 159.026 7.06723C159.074 6.59065 159.335 6.15329 159.811 5.75514L161.959 3.95661L161.307 3.17769L162.143 2.4775L162.246 2.60048C162.42 2.8082 162.615 2.9191 162.831 2.93321C163.048 2.94732 163.26 2.86742 163.468 2.69352L163.812 2.4052L164.588 3.33171L163.571 4.18292L164.415 5.19142L163.579 5.89161L162.735 4.88311L160.627 6.64732C160.474 6.77546 160.364 6.9099 160.296 7.05062C160.233 7.18677 160.217 7.33467 160.249 7.49433C160.286 7.64942 160.377 7.81442 160.524 7.98934C160.56 8.03307 160.604 8.07997 160.655 8.13006C160.707 8.18014 160.756 8.22749 160.802 8.27211L160.007 8.93798C159.932 8.87061 159.85 8.79504 159.761 8.71127C159.673 8.6275 159.599 8.55008 159.539 8.47902ZM163.876 13.7065C163.584 13.3647 163.389 12.9926 163.29 12.5902C163.195 12.1933 163.216 11.8056 163.352 11.4271L163.613 11.3872L162.718 12.1502L161.969 11.2713L168.129 6.02004L168.913 6.93964L166.244 9.21497L166.331 8.88812C166.719 8.83815 167.099 8.88867 167.471 9.0397C167.844 9.19073 168.178 9.43986 168.474 9.78708C168.83 10.2048 169.049 10.6647 169.13 11.1668C169.216 11.6743 169.166 12.171 168.981 12.6568C168.8 13.1481 168.493 13.5787 168.059 13.9487C167.625 14.3187 167.151 14.554 166.637 14.6547C166.128 14.7608 165.629 14.7362 165.141 14.581C164.658 14.4212 164.237 14.1296 163.876 13.7065ZM164.654 12.8886C164.876 13.149 165.135 13.3264 165.431 13.4207C165.727 13.5151 166.032 13.5268 166.346 13.4557C166.67 13.3855 166.971 13.2324 167.247 12.9966C167.524 12.7607 167.72 12.4906 167.835 12.1863C167.955 11.8873 167.992 11.5843 167.945 11.2772C167.899 10.9701 167.765 10.6864 167.543 10.4259C167.326 10.1709 167.067 9.99356 166.766 9.89376C166.47 9.79939 166.163 9.78501 165.844 9.85064C165.53 9.9217 165.235 10.0752 164.958 10.311C164.681 10.5469 164.48 10.8166 164.355 11.1201C164.24 11.4245 164.205 11.7302 164.252 12.0373C164.303 12.3498 164.437 12.6336 164.654 12.8886ZM168.306 18.8526C167.927 18.4168 167.69 17.9429 167.595 17.4309C167.509 16.9196 167.557 16.4202 167.737 15.9325C167.923 15.4402 168.231 15.0069 168.662 14.6327C169.103 14.2492 169.575 14.0043 170.078 13.8979C170.585 13.7969 171.076 13.8236 171.55 13.978C172.03 14.1278 172.447 14.4071 172.803 14.816C173.088 15.1442 173.286 15.4865 173.398 15.8429C173.51 16.1994 173.543 16.5529 173.498 16.9035C173.459 17.2495 173.353 17.5781 173.179 17.8894C173.011 18.206 172.784 18.4883 172.499 18.7362C172.429 18.797 172.354 18.8575 172.274 18.9176C172.194 18.9777 172.114 19.0277 172.036 19.0677L169.012 15.5895L169.738 14.9581L172.313 17.9198L171.603 17.7717C171.914 17.5963 172.131 17.374 172.256 17.1048C172.391 16.8363 172.438 16.5591 172.398 16.2733C172.367 15.9882 172.247 15.7246 172.036 15.4825C171.826 15.2404 171.577 15.079 171.289 14.9982C171.007 14.9128 170.709 14.9173 170.394 15.0115C170.084 15.101 169.78 15.2945 169.482 15.592C169.162 15.8224 168.939 16.0872 168.812 16.3866C168.69 16.6914 168.653 16.9971 168.703 17.3037C168.757 17.6157 168.896 17.9008 169.12 18.1591C169.35 18.4227 169.603 18.5945 169.88 18.6746C170.162 18.76 170.444 18.7746 170.726 18.7185L171.008 19.7767C170.729 19.8683 170.427 19.8952 170.101 19.8573C169.785 19.82 169.469 19.7171 169.152 19.5484C168.845 19.3805 168.564 19.1485 168.306 18.8526ZM170.93 21.6625L175.253 17.8181L176.02 18.6811L175.149 19.4557L175.206 19.262C175.574 19.1068 175.913 19.0813 176.225 19.1854C176.543 19.2848 176.834 19.4837 177.099 19.782L177.334 20.0457L176.511 20.7776L176.177 20.4021C175.912 20.1037 175.603 19.9443 175.251 19.9236C174.908 19.9036 174.567 20.0452 174.226 20.3483L171.733 22.5655L170.93 21.6625ZM174.844 26.2291C174.448 25.7896 174.208 25.3051 174.125 24.7758C174.046 24.2518 174.13 23.759 174.376 23.2973L175.324 23.6948C175.186 24.0309 175.136 24.364 175.174 24.694C175.217 25.0294 175.351 25.3216 175.575 25.5705C175.766 25.7823 175.969 25.9115 176.183 25.958C176.398 26.0044 176.587 25.9537 176.752 25.8058C176.858 25.7103 176.916 25.6048 176.927 25.4893C176.943 25.369 176.932 25.2448 176.893 25.1165C176.859 24.9936 176.812 24.8776 176.752 24.7685L176.335 23.9215C176.106 23.4553 176.015 23.0341 176.06 22.6579C176.114 22.2822 176.285 21.9654 176.571 21.7077C176.83 21.4739 177.115 21.3372 177.425 21.2978C177.74 21.2536 178.056 21.3003 178.372 21.4378C178.688 21.5754 178.977 21.7898 179.239 22.0811C179.592 22.473 179.81 22.9108 179.89 23.3945C179.977 23.8735 179.905 24.3316 179.675 24.7689L178.727 24.3713C178.857 24.1005 178.899 23.8175 178.854 23.5224C178.814 23.2326 178.691 22.9738 178.485 22.7461C178.309 22.5501 178.12 22.4369 177.92 22.4063C177.725 22.3709 177.553 22.42 177.405 22.5536C177.305 22.6443 177.244 22.7472 177.223 22.8622C177.207 22.9724 177.216 23.089 177.25 23.2119C177.289 23.33 177.336 23.446 177.391 23.5599L177.814 24.4451C178.033 24.8906 178.12 25.3065 178.075 25.6928C178.035 26.0744 177.867 26.3988 177.57 26.666C177.316 26.8951 177.029 27.0291 176.709 27.068C176.399 27.1074 176.081 27.0581 175.755 26.92C175.434 26.7771 175.131 26.5468 174.844 26.2291ZM178.253 29.9772C177.988 29.6885 177.804 29.388 177.701 29.0759C177.609 28.7642 177.596 28.466 177.664 28.1813C177.736 27.8917 177.896 27.6336 178.143 27.4069C178.374 27.1947 178.627 27.0541 178.903 26.9851C179.183 26.9213 179.485 26.9391 179.808 27.0386C180.132 27.1381 180.47 27.3265 180.821 27.6038L182.425 28.86L181.725 29.5039L180.295 28.4064C180.036 28.2087 179.801 28.1054 179.589 28.0964C179.383 28.0827 179.196 28.1529 179.028 28.3072C178.865 28.4568 178.787 28.6401 178.793 28.8573C178.809 29.0749 178.906 29.2809 179.084 29.4751C179.306 29.7166 179.552 29.8784 179.821 29.9605C180.095 30.0478 180.364 30.0617 180.629 30.0023C180.899 29.9381 181.142 29.8071 181.357 29.6094L182.451 28.6038C182.661 28.4109 182.76 28.1754 182.746 27.8974C182.743 27.6197 182.623 27.3523 182.387 27.095C182.17 26.8588 181.916 26.7093 181.626 26.6465C181.346 26.5842 181.071 26.6002 180.799 26.6947L180.489 25.6144C180.772 25.5003 181.074 25.4601 181.395 25.4939C181.722 25.5229 182.038 25.6145 182.345 25.7688C182.656 25.9283 182.934 26.1419 183.18 26.4097C183.489 26.7457 183.698 27.1002 183.809 27.4732C183.924 27.8514 183.934 28.2151 183.838 28.5643C183.753 28.9138 183.563 29.2236 183.269 29.4937L180.402 32.1269L179.621 31.2764L180.393 30.5675L180.536 30.7703C180.271 30.8297 180.003 30.8385 179.732 30.7968C179.466 30.7603 179.208 30.6736 178.956 30.5368C178.71 30.4053 178.475 30.2187 178.253 29.9772ZM181.368 33.158L185.551 29.1617L186.349 29.9967L185.444 30.861L185.48 30.6198C185.847 30.4365 186.214 30.392 186.58 30.486C186.946 30.5801 187.272 30.7766 187.557 31.0756C187.877 31.4106 188.07 31.7932 188.136 32.2233C188.212 32.6536 188.145 33.053 187.935 33.4213L187.675 33.196C188.128 32.9996 188.558 32.9489 188.964 33.0439C189.376 33.1441 189.739 33.3591 190.054 33.689C190.33 33.9776 190.511 34.302 190.599 34.662C190.692 35.0271 190.686 35.3925 190.582 35.7583C190.477 36.124 190.273 36.4521 189.969 36.7426L187.263 39.3281L186.428 38.4544L188.895 36.0979C189.106 35.896 189.247 35.6875 189.317 35.4723C189.398 35.2573 189.413 35.0458 189.362 34.838C189.322 34.6303 189.218 34.4388 189.05 34.2636C188.883 34.0883 188.694 33.9731 188.483 33.9179C188.278 33.8577 188.063 33.8604 187.84 33.9259C187.617 33.9914 187.402 34.1226 187.196 34.3196L184.729 36.676L183.902 35.81L186.368 33.4536C186.58 33.2517 186.721 33.0431 186.791 32.8279C186.872 32.613 186.887 32.4015 186.836 32.1936C186.795 31.986 186.689 31.7919 186.516 31.6115C186.349 31.4363 186.16 31.321 185.949 31.2658C185.744 31.2056 185.53 31.2083 185.306 31.2738C185.088 31.3445 184.876 31.4783 184.669 31.6753L182.203 34.0317L181.368 33.158ZM189.288 41.5797C189.013 41.3004 188.819 41.0065 188.705 40.6982C188.602 40.3899 188.579 40.0923 188.636 39.8054C188.699 39.5135 188.85 39.2499 189.088 39.0148C189.312 38.7947 189.56 38.6453 189.833 38.5667C190.111 38.4931 190.413 38.5004 190.74 38.5886C191.067 38.6767 191.411 38.8532 191.772 39.118L193.419 40.3175L192.741 40.9854L191.274 39.9385C191.009 39.75 190.77 39.655 190.558 39.6534C190.351 39.6468 190.167 39.7236 190.004 39.8837C189.847 40.0388 189.775 40.2247 189.788 40.4416C189.812 40.6586 189.916 40.861 190.101 41.0489C190.332 41.2825 190.583 41.4356 190.854 41.5082C191.131 41.5859 191.401 41.5904 191.663 41.5218C191.931 41.4482 192.169 41.3088 192.377 41.1037L193.436 40.0606C193.639 39.8604 193.729 39.6217 193.706 39.3442C193.693 39.0669 193.564 38.8038 193.319 38.5549C193.094 38.3264 192.835 38.1858 192.543 38.1332C192.261 38.0807 191.986 38.1064 191.718 38.2102L191.371 37.1415C191.649 37.0175 191.949 36.9668 192.272 36.9894C192.599 37.007 192.919 37.0875 193.23 37.231C193.547 37.3795 193.833 37.5833 194.088 37.8423C194.408 38.1673 194.63 38.5143 194.753 38.8832C194.881 39.2572 194.904 39.6204 194.82 39.9726C194.747 40.3249 194.568 40.6412 194.284 40.9214L191.511 43.6531L190.701 42.8303L191.447 42.0949L191.597 42.2926C191.334 42.3612 191.067 42.3794 190.795 42.3471C190.528 42.3199 190.266 42.2423 190.01 42.1144C189.759 41.9915 189.519 41.8133 189.288 41.5797ZM191.633 45.9906L192.045 45.5704C192.253 45.6943 192.46 45.7426 192.666 45.7153C192.868 45.6931 193.076 45.5926 193.291 45.414L192.886 45.0174L193.859 44.0244L194.737 44.885L194.101 45.5342C193.702 45.9416 193.294 46.1853 192.876 46.2652C192.458 46.3451 192.044 46.2535 191.633 45.9906ZM198.119 50.1876C197.682 49.7678 197.462 49.3184 197.457 48.8395C197.453 48.3606 197.665 47.8976 198.095 47.4503L200.036 45.4299L199.303 44.7261L200.059 43.9395L200.175 44.0507C200.37 44.2383 200.576 44.3275 200.792 44.3181C201.009 44.3087 201.211 44.2063 201.399 44.011L201.71 43.6871L202.581 44.5242L201.663 45.4805L202.611 46.3917L201.856 47.1782L200.907 46.267L199.003 48.2489C198.865 48.3928 198.77 48.5384 198.717 48.6857C198.67 48.8278 198.67 48.9766 198.718 49.1319C198.772 49.2821 198.881 49.4362 199.045 49.5942C199.087 49.6337 199.135 49.6756 199.192 49.7199C199.248 49.7641 199.302 49.8059 199.353 49.8452L198.634 50.5932C198.552 50.5343 198.463 50.4681 198.366 50.3944C198.268 50.3207 198.186 50.2518 198.119 50.1876ZM200.912 52.9055C200.594 52.6086 200.381 52.2779 200.273 51.9134C200.17 51.5437 200.169 51.1679 200.272 50.7861C200.385 50.404 200.6 50.0436 200.916 49.705L203.355 47.095L204.238 47.9198L201.872 50.4517C201.692 50.6445 201.573 50.8503 201.515 51.0691C201.457 51.288 201.459 51.5048 201.522 51.7195C201.59 51.9291 201.715 52.119 201.897 52.2893C202.085 52.4645 202.288 52.5761 202.506 52.6242C202.725 52.6722 202.944 52.6572 203.163 52.5791C203.387 52.5059 203.595 52.3677 203.784 52.1645L206.113 49.6717L206.988 50.4893L203.039 54.7169L202.203 53.9358L202.977 53.1075L202.968 53.3045C202.626 53.4725 202.275 53.5198 201.914 53.4463C201.553 53.3729 201.219 53.1926 200.912 52.9055ZM204.083 55.6662L207.919 51.3361L208.783 52.102L207.954 53.0385L207.969 52.7951C208.32 52.582 208.682 52.5071 209.054 52.5705C209.427 52.6338 209.768 52.8026 210.077 53.0768C210.424 53.3841 210.648 53.7493 210.749 54.1724C210.861 54.595 210.827 54.9985 210.648 55.383L210.371 55.1801C210.806 54.9467 211.23 54.8605 211.643 54.9214C212.061 54.987 212.441 55.1711 212.782 55.4737C213.081 55.7384 213.289 56.0466 213.406 56.398C213.529 56.7542 213.553 57.1189 213.48 57.492C213.407 57.8651 213.231 58.209 212.952 58.5239L210.47 61.3252L209.565 60.5238L211.827 57.9706C212.021 57.7519 212.144 57.5323 212.197 57.312C212.259 57.0911 212.256 56.8791 212.188 56.6762C212.131 56.4726 212.011 56.2905 211.83 56.1297C211.648 55.969 211.45 55.8698 211.236 55.8323C211.026 55.7894 210.813 55.8099 210.596 55.8937C210.379 55.9775 210.176 56.1262 209.986 56.3396L207.724 58.8928L206.828 58.0985L209.09 55.5453C209.284 55.3266 209.407 55.107 209.459 54.8867C209.522 54.6658 209.519 54.4538 209.451 54.2509C209.393 54.0473 209.271 53.8628 209.084 53.6973C208.903 53.5366 208.705 53.4375 208.491 53.3999C208.281 53.357 208.068 53.3775 207.851 53.4613C207.639 53.5499 207.438 53.7009 207.249 53.9143L204.987 56.4675L204.083 55.6662ZM213.734 64.2529C213.39 63.9642 213.136 63.6297 212.971 63.2494C212.812 62.8737 212.768 62.4879 212.84 62.092L213.09 62.0094L212.334 62.9105L211.45 62.1681L216.653 55.9671L217.579 56.7438L215.324 59.4306L215.355 59.0939C215.73 58.9802 216.113 58.9669 216.505 59.054C216.898 59.1412 217.269 59.3314 217.618 59.6246C218.039 59.9775 218.331 60.3947 218.494 60.8763C218.663 61.3625 218.697 61.8605 218.595 62.3704C218.498 62.8849 218.266 63.3605 217.9 63.7974C217.533 64.2343 217.105 64.545 216.615 64.7296C216.13 64.9187 215.635 64.9772 215.127 64.9052C214.625 64.8278 214.16 64.6103 213.734 64.2529ZM214.366 63.3172C214.628 63.5371 214.913 63.6691 215.22 63.713C215.528 63.757 215.831 63.7178 216.129 63.5956C216.437 63.4725 216.707 63.2717 216.941 62.9932C217.175 62.7147 217.323 62.4158 217.386 62.0966C217.455 61.7819 217.441 61.477 217.344 61.1818C217.248 60.8867 217.068 60.6291 216.806 60.4091C216.55 60.1938 216.265 60.0618 215.952 60.0133C215.644 59.9693 215.339 60.0062 215.035 60.1238C214.738 60.246 214.472 60.4464 214.238 60.7249C214.004 61.0034 213.851 61.3027 213.778 61.6229C213.714 61.9421 213.731 62.2493 213.828 62.5445C213.93 62.8442 214.109 63.1018 214.366 63.3172ZM218.481 68.1462C218.141 67.875 217.903 67.562 217.767 67.207C217.635 66.8465 217.605 66.4719 217.678 66.0832C217.761 65.6934 217.947 65.3174 218.236 64.9551L220.463 62.163L221.408 62.9165L219.248 65.625C219.083 65.8312 218.98 66.0457 218.94 66.2684C218.899 66.4912 218.918 66.7071 218.997 66.9163C219.081 67.1199 219.22 67.2996 219.416 67.4551C219.616 67.6152 219.827 67.7106 220.049 67.7415C220.27 67.7723 220.488 67.7403 220.7 67.6454C220.918 67.5549 221.114 67.4009 221.287 67.1836L223.414 64.5168L224.351 65.2637L220.743 69.7863L219.849 69.0728L220.556 68.1867L220.562 68.3837C220.234 68.5779 219.888 68.6524 219.522 68.6073C219.157 68.5622 218.81 68.4085 218.481 68.1462ZM221.857 70.6519L226.744 64.1987L227.707 64.9282L225.628 67.6732L225.565 67.4376C225.899 67.2339 226.246 67.1528 226.608 67.1944C226.974 67.2303 227.322 67.3731 227.652 67.6228C227.993 67.881 228.238 68.183 228.388 68.5287C228.537 68.8745 228.587 69.234 228.537 69.6073C228.486 69.9807 228.334 70.335 228.08 70.6703L225.821 73.6539L224.866 72.9308L226.925 70.2115C227.102 69.9785 227.205 69.748 227.235 69.52C227.274 69.2906 227.249 69.0752 227.161 68.8737C227.076 68.6666 226.934 68.4877 226.735 68.3371C226.542 68.1907 226.331 68.1028 226.104 68.0732C225.886 68.0422 225.669 68.0747 225.453 68.1707C225.243 68.2709 225.052 68.4347 224.88 68.662L222.82 71.3814L221.857 70.6519ZM230.831 77.3982C230.462 77.1412 230.179 76.8307 229.981 76.4666C229.789 76.1065 229.711 75.7261 229.747 75.3254L229.99 75.2208L229.317 76.1855L228.37 75.5247L233.001 68.8859L233.992 69.5773L231.985 72.4538L231.987 72.1157C232.35 71.9691 232.73 71.9218 233.129 71.9737C233.527 72.0257 233.913 72.1822 234.288 72.4432C234.738 72.7573 235.066 73.147 235.272 73.6121C235.483 74.0813 235.561 74.5744 235.504 75.0914C235.454 75.6124 235.265 76.1068 234.939 76.5745C234.613 77.0422 234.214 77.3898 233.742 77.6171C233.276 77.8485 232.788 77.9509 232.276 77.9242C231.768 77.8917 231.287 77.7164 230.831 77.3982ZM231.377 76.4101C231.657 76.6059 231.953 76.712 232.263 76.7285C232.573 76.7449 232.871 76.679 233.157 76.5308C233.453 76.3809 233.705 76.1568 233.913 75.8586C234.121 75.5604 234.242 75.2496 234.277 74.926C234.317 74.6064 234.276 74.304 234.153 74.0186C234.031 73.7332 233.829 73.4926 233.549 73.2968C233.274 73.1051 232.979 72.9989 232.663 72.9784C232.352 72.9619 232.051 73.0258 231.76 73.1699C231.474 73.3181 231.227 73.5413 231.019 73.8395C230.811 74.1376 230.684 74.4494 230.64 74.7748C230.605 75.0984 230.649 75.4029 230.772 75.6883C230.9 75.9778 231.102 76.2184 231.377 76.4101ZM236.469 81.1859C235.984 80.8723 235.625 80.4827 235.391 80.0173C235.167 79.5498 235.074 79.0567 235.112 78.5381C235.155 78.0135 235.331 77.5118 235.64 77.0329C235.958 76.5421 236.343 76.1759 236.797 75.9343C237.256 75.6966 237.735 75.5861 238.234 75.603C238.736 75.6138 239.215 75.7664 239.67 76.0606C240.035 76.2968 240.32 76.5707 240.526 76.8823C240.732 77.1938 240.862 77.5242 240.917 77.8735C240.975 78.2167 240.964 78.5619 240.884 78.9091C240.809 79.2601 240.67 79.5943 240.464 79.9115C240.414 79.9893 240.359 80.0682 240.299 80.1481C240.238 80.2281 240.176 80.2981 240.112 80.3583L236.242 77.8551L236.765 77.047L240.06 79.1786L239.337 79.2331C239.586 78.9785 239.734 78.7045 239.779 78.4113C239.834 78.1159 239.803 77.8365 239.685 77.5732C239.576 77.3077 239.387 77.0879 239.118 76.9136C238.848 76.7394 238.565 76.6533 238.266 76.6555C237.971 76.6517 237.686 76.7387 237.409 76.9165C237.137 77.0884 236.898 77.3586 236.694 77.7273C236.451 78.0371 236.31 78.3535 236.271 78.6763C236.238 79.0031 236.288 79.3069 236.42 79.5878C236.559 79.8726 236.771 80.108 237.059 80.2938C237.352 80.4836 237.643 80.5784 237.932 80.5784C238.226 80.5822 238.501 80.5181 238.757 80.386L239.321 81.3244C239.078 81.4899 238.795 81.5996 238.472 81.6535C238.158 81.7053 237.826 81.6941 237.475 81.6199C237.133 81.5435 236.798 81.3988 236.469 81.1859ZM239.773 83.1504L242.8 78.2204L243.784 78.8246L243.174 79.8179L243.172 79.6162C243.48 79.3613 243.797 79.2387 244.126 79.2481C244.459 79.2515 244.795 79.3577 245.135 79.5666L245.436 79.7512L244.86 80.6898L244.432 80.4268C244.091 80.218 243.75 80.1546 243.406 80.2366C243.073 80.3164 242.787 80.5507 242.548 80.9395L240.803 83.7827L239.773 83.1504ZM244.88 86.3296C244.366 86.0363 243.986 85.6515 243.741 85.175C243.502 84.702 243.427 84.2078 243.516 83.6922L244.542 83.7726C244.515 84.1352 244.572 84.4672 244.712 84.7686C244.858 85.0736 245.076 85.3091 245.367 85.4752C245.615 85.6166 245.848 85.6757 246.067 85.6526C246.285 85.6295 246.449 85.5219 246.558 85.33C246.629 85.2062 246.652 85.0877 246.626 84.9745C246.604 84.8551 246.554 84.7407 246.477 84.6311C246.406 84.525 246.325 84.4295 246.234 84.3447L245.572 83.6713C245.209 83.3001 244.99 82.9288 244.915 82.5575C244.849 82.1835 244.912 81.8293 245.103 81.495C245.276 81.1916 245.503 80.9726 245.785 80.838C246.071 80.6973 246.385 80.6427 246.728 80.6744C247.071 80.706 247.413 80.819 247.754 81.0134C248.212 81.2749 248.555 81.6227 248.784 82.0567C249.016 82.4845 249.091 82.9421 249.01 83.4294L247.985 83.349C248.023 83.051 247.975 82.7689 247.84 82.5029C247.71 82.2403 247.513 82.0331 247.246 81.8811C247.017 81.7504 246.803 81.7018 246.603 81.7356C246.407 81.7631 246.259 81.8635 246.16 82.0369C246.093 82.1545 246.067 82.2712 246.083 82.3871C246.103 82.4967 246.148 82.6046 246.219 82.7106C246.293 82.8105 246.374 82.906 246.462 82.997L247.141 83.7049C247.489 84.0593 247.702 84.427 247.78 84.8081C247.861 85.183 247.803 85.5438 247.605 85.8905C247.436 86.1877 247.205 86.4049 246.913 86.5421C246.631 86.6767 246.314 86.7294 245.961 86.7004C245.612 86.6653 245.251 86.5417 244.88 86.3296ZM249.328 88.7607C248.98 88.5796 248.705 88.3598 248.502 88.1013C248.309 87.8398 248.195 87.5637 248.162 87.273C248.132 86.9759 248.194 86.6788 248.349 86.3817C248.494 86.1035 248.684 85.885 248.919 85.7263C249.161 85.5709 249.451 85.4849 249.789 85.4682C250.128 85.4515 250.509 85.5136 250.934 85.6546L252.87 86.2895L252.431 87.1335L250.713 86.5884C250.402 86.4908 250.146 86.4737 249.944 86.5374C249.745 86.5946 249.593 86.7244 249.488 86.9267C249.386 87.1227 249.374 87.3218 249.454 87.524C249.543 87.7232 249.705 87.8837 249.939 88.0056C250.229 88.1571 250.515 88.2257 250.796 88.2112C251.083 88.2 251.341 88.1214 251.57 87.9754C251.802 87.823 251.986 87.6172 252.121 87.358L252.808 86.0397C252.939 85.7868 252.952 85.532 252.844 85.2751C252.746 85.0152 252.543 84.8045 252.233 84.6431C251.948 84.4949 251.659 84.4407 251.365 84.4804C251.081 84.5171 250.827 84.6261 250.604 84.8074L249.945 83.8972C250.171 83.6937 250.442 83.5531 250.755 83.4754C251.072 83.3914 251.401 83.3698 251.742 83.4105C252.088 83.4546 252.423 83.5606 252.746 83.7286C253.15 83.9394 253.468 84.2013 253.699 84.5145C253.936 84.8309 254.069 85.1695 254.098 85.5303C254.137 85.8881 254.064 86.244 253.879 86.598L252.081 90.0501L251.057 89.5165L251.541 88.5871L251.744 88.7292C251.515 88.8752 251.266 88.9747 250.998 89.0276C250.735 89.0839 250.463 89.0905 250.18 89.0475C249.903 89.0078 249.619 88.9122 249.328 88.7607ZM253.35 90.6676L255.737 85.3977L256.789 85.8741L256.273 87.0138L256.216 86.7767C256.488 86.4695 256.811 86.2912 257.186 86.2417C257.56 86.1922 257.936 86.2527 258.313 86.4233C258.735 86.6144 259.057 86.8972 259.278 87.2715C259.51 87.6423 259.597 88.0378 259.539 88.4579L259.215 88.346C259.562 87.9945 259.941 87.7868 260.353 87.7231C260.772 87.6624 261.19 87.7261 261.605 87.9143C261.969 88.079 262.259 88.3119 262.474 88.6131C262.697 88.9172 262.828 89.2584 262.868 89.6365C262.908 90.0146 262.841 90.3953 262.668 90.7784L261.124 94.1878L260.023 93.6893L261.43 90.5819C261.551 90.3157 261.603 90.0696 261.588 89.8436C261.583 89.6141 261.518 89.4124 261.393 89.2385C261.278 89.0611 261.109 88.9224 260.889 88.8224C260.668 88.7224 260.45 88.6862 260.234 88.7136C260.021 88.7346 259.823 88.8171 259.64 88.9614C259.457 89.1056 259.307 89.3076 259.19 89.5673L257.782 92.6748L256.691 92.1807L258.099 89.0733C258.219 88.807 258.272 88.5609 258.257 88.335C258.251 88.1055 258.186 87.9038 258.061 87.7299C257.946 87.5525 257.775 87.4123 257.547 87.3094C257.327 87.2094 257.108 87.1731 256.892 87.2005C256.679 87.2215 256.482 87.3041 256.299 87.4483C256.123 87.5954 255.976 87.7989 255.858 88.0587L254.451 91.1661L253.35 90.6676ZM263.889 95.416C263.523 95.2765 263.224 95.0903 262.992 94.8572C262.77 94.62 262.625 94.359 262.558 94.0741C262.493 93.7826 262.521 93.4803 262.64 93.1671C262.751 92.8739 262.915 92.6348 263.13 92.4498C263.352 92.2673 263.63 92.1481 263.964 92.0921C264.298 92.0362 264.684 92.0535 265.123 92.144L267.12 92.5492L266.781 93.4387L265.012 93.0972C264.692 93.0364 264.435 93.0494 264.242 93.136C264.051 93.2161 263.915 93.3627 263.834 93.5759C263.756 93.7824 263.768 93.9815 263.87 94.1731C263.982 94.3605 264.161 94.5011 264.408 94.5949C264.714 94.7116 265.006 94.7463 265.283 94.6993C265.567 94.6548 265.814 94.5467 266.025 94.375C266.237 94.1966 266.396 93.9708 266.5 93.6976L267.028 92.3084C267.13 92.0419 267.112 91.7873 266.976 91.5447C266.848 91.2979 266.621 91.1125 266.295 90.9882C265.995 90.8741 265.701 90.8539 265.414 90.9276C265.136 90.9972 264.897 91.135 264.696 91.341L263.935 90.5137C264.137 90.2853 264.389 90.1142 264.691 90.0005C264.997 89.8801 265.321 89.8204 265.664 89.8212C266.013 89.8246 266.358 89.8909 266.698 90.0202C267.124 90.1824 267.47 90.4056 267.736 90.6898C268.008 90.9765 268.18 91.2973 268.25 91.6522C268.331 92.0031 268.3 92.365 268.158 92.7382L266.773 96.3761L265.694 95.9654L266.067 94.9859L266.285 95.1034C266.075 95.2751 265.839 95.4029 265.579 95.4867C265.325 95.5731 265.054 95.6114 264.768 95.6017C264.489 95.5945 264.196 95.5326 263.889 95.416ZM303.1 102.372L302.57 94.4229L303.744 94.3446L307.007 98.2851L306.42 98.3242L309.078 93.9886L310.252 93.9103L310.782 101.859L309.534 101.943L309.103 95.4767L309.581 95.5734L306.856 99.8706L306.728 99.8791L303.52 95.9777L303.928 95.8219L304.359 102.288L303.1 102.372ZM314.36 101.541C313.93 101.602 313.538 101.561 313.187 101.416C312.834 101.265 312.541 101.03 312.308 100.71C312.081 100.382 311.935 99.989 311.87 99.5303L311.366 95.9944L312.562 95.8239L313.051 99.2539C313.088 99.515 313.174 99.7368 313.308 99.9193C313.442 100.102 313.612 100.236 313.819 100.322C314.025 100.4 314.251 100.422 314.498 100.387C314.752 100.351 314.966 100.263 315.141 100.122C315.315 99.9824 315.441 99.8025 315.518 99.5827C315.601 99.3619 315.624 99.1139 315.584 98.8387L315.103 95.4616L316.289 95.2926L317.105 101.02L315.972 101.181L315.812 100.059L315.961 100.189C315.877 100.561 315.693 100.865 315.41 101.099C315.126 101.334 314.777 101.481 314.36 101.541ZM318.496 100.795L317.053 92.8294L318.242 92.614L319.685 100.579L318.496 100.795ZM322.788 100.045C322.405 100.131 322.053 100.14 321.731 100.074C321.415 99.9984 321.15 99.8605 320.937 99.6599C320.723 99.4523 320.579 99.185 320.505 98.8581C320.437 98.552 320.441 98.2624 320.519 97.9893C320.603 97.7147 320.769 97.4619 321.017 97.231C321.265 97.0001 321.597 96.8015 322.012 96.6352L323.901 95.8718L324.11 96.8005L322.445 97.4915C322.145 97.6174 321.938 97.7697 321.825 97.9485C321.71 98.1204 321.677 98.3177 321.727 98.5402C321.776 98.7559 321.895 98.9153 322.087 99.0186C322.283 99.1133 322.51 99.1318 322.767 99.0741C323.087 99.0024 323.35 98.8704 323.555 98.6782C323.768 98.4845 323.914 98.2581 323.995 97.9989C324.074 97.7327 324.082 97.457 324.018 97.1718L323.692 95.7215C323.63 95.4432 323.475 95.2405 323.227 95.1134C322.985 94.9778 322.693 94.9482 322.353 95.0246C322.04 95.0948 321.783 95.2399 321.584 95.4599C321.391 95.6714 321.267 95.9183 321.214 96.2006L320.123 95.9302C320.165 95.6285 320.28 95.3468 320.47 95.0851C320.658 94.8164 320.896 94.5879 321.182 94.3994C321.476 94.2094 321.8 94.0746 322.155 93.9951C322.6 93.8952 323.012 93.8906 323.39 93.9811C323.775 94.07 324.095 94.243 324.35 94.5C324.61 94.7485 324.784 95.0675 324.871 95.4571L325.723 99.2552L324.596 99.5079L324.367 98.4853L324.614 98.4628C324.533 98.722 324.407 98.9584 324.236 99.1722C324.072 99.3844 323.868 99.5653 323.624 99.715C323.386 99.8632 323.108 99.9731 322.788 100.045ZM327.095 98.9222L325.634 93.3248L326.803 93.0195L328.265 98.6169L327.095 98.9222ZM325.434 92.5592L325.082 91.2141L326.252 90.9088L326.603 92.2538L325.434 92.5592ZM334.016 97.0637C333.485 97.2281 332.969 97.2497 332.469 97.1284C331.973 96.9981 331.536 96.7531 331.156 96.3931C330.782 96.031 330.511 95.5775 330.343 95.0327C330.174 94.4879 330.145 93.9596 330.255 93.4479C330.365 92.9362 330.589 92.49 330.927 92.1095C331.264 91.7289 331.695 91.4575 332.22 91.2952C332.662 91.1582 333.081 91.1255 333.476 91.1972C333.872 91.2689 334.217 91.4308 334.511 91.6829L334.42 92.0023L333.383 88.6517L334.527 88.2976L336.92 96.0306L335.827 96.3689L335.479 95.2452L335.678 95.4186C335.591 95.8113 335.398 96.151 335.098 96.4377C334.799 96.7244 334.438 96.933 334.016 97.0637ZM333.796 95.9563C334.117 95.8573 334.378 95.6904 334.582 95.4558C334.792 95.2191 334.927 94.9424 334.985 94.6257C335.049 94.3001 335.027 93.9636 334.919 93.6163C334.812 93.269 334.641 92.9823 334.407 92.7563C334.179 92.5281 333.912 92.3758 333.605 92.2992C333.304 92.2206 332.994 92.2308 332.674 92.3299C332.354 92.4289 332.089 92.5968 331.878 92.8336C331.668 93.0703 331.534 93.347 331.475 93.6637C331.416 93.9803 331.441 94.3123 331.548 94.6596C331.656 95.007 331.824 95.2981 332.054 95.5331C332.281 95.7612 332.545 95.9146 332.845 95.9933C333.152 96.0698 333.47 96.0575 333.796 95.9563ZM339.937 95.1409C339.567 95.27 339.218 95.3198 338.891 95.2905C338.568 95.2521 338.289 95.1454 338.055 94.9705C337.818 94.7889 337.644 94.5399 337.534 94.2235C337.431 93.9273 337.402 93.6391 337.448 93.3589C337.5 93.0764 337.636 92.8062 337.856 92.5485C338.076 92.2907 338.382 92.0554 338.776 91.8426L340.565 90.8677L340.879 91.7664L339.305 92.6436C339.021 92.8031 338.832 92.9781 338.74 93.1687C338.646 93.3527 338.636 93.5523 338.711 93.7677C338.784 93.9764 338.921 94.1211 339.123 94.2017C339.329 94.2733 339.557 94.2657 339.806 94.1789C340.116 94.0709 340.361 93.9097 340.543 93.6953C340.732 93.4785 340.852 93.2368 340.902 92.97C340.95 92.6966 340.926 92.4219 340.83 92.1459L340.341 90.7423C340.247 90.4731 340.069 90.2895 339.809 90.1916C339.553 90.0846 339.26 90.0886 338.93 90.2036C338.627 90.3092 338.389 90.4827 338.216 90.7241C338.048 90.9563 337.954 91.2158 337.933 91.5024L336.818 91.3587C336.825 91.0543 336.908 90.7612 337.067 90.4794C337.223 90.1909 337.432 89.9367 337.695 89.7166C337.965 89.4943 338.272 89.3232 338.615 89.2035C339.046 89.0533 339.454 89.0015 339.84 89.0481C340.233 89.0923 340.571 89.2275 340.854 89.4536C341.141 89.6706 341.35 89.9676 341.482 90.3445L342.763 94.02L341.672 94.4002L341.327 93.4106L341.57 93.36C341.52 93.6267 341.422 93.876 341.276 94.108C341.137 94.3376 340.955 94.5408 340.73 94.7175C340.511 94.8918 340.247 95.0329 339.937 95.1409ZM344.09 93.5353L342.025 88.1313L343.103 87.7191L343.519 88.8079L343.358 88.6862C343.343 88.2875 343.44 87.9606 343.648 87.7057C343.853 87.444 344.142 87.242 344.515 87.0995L344.845 86.9735L345.238 88.0024L344.768 88.1818C344.395 88.3243 344.137 88.5566 343.993 88.8787C343.853 89.1917 343.865 89.5613 344.027 89.9874L345.218 93.104L344.09 93.5353ZM347.709 92.1523L345.644 86.7483L346.772 86.317L348.837 91.721L347.709 92.1523ZM345.361 86.0092L344.865 84.7106L345.994 84.2792L346.49 85.5778L345.361 86.0092ZM351.993 90.4551L348.964 83.0864L350.132 82.6068L351.774 86.6027L351.418 86.61L353.158 81.363L354.612 80.7656L353.083 85.4287L352.801 84.5735L357.759 88.0855L356.384 88.6504L352.842 86.1637L352.286 87.8489L353.16 89.9755L351.993 90.4551ZM360.066 87.2508C359.705 87.4033 359.36 87.4754 359.031 87.4671C358.707 87.4494 358.422 87.3608 358.176 87.2013C357.928 87.0352 357.739 86.7978 357.609 86.4891C357.487 86.2001 357.44 85.9144 357.467 85.6318C357.502 85.3465 357.62 85.0682 357.823 84.7969C358.026 84.5256 358.317 84.2711 358.696 84.0336L360.419 82.9463L360.79 83.8231L359.275 84.7991C359.001 84.9764 358.825 85.1632 358.745 85.3593C358.663 85.5489 358.666 85.7488 358.755 85.9589C358.841 86.1625 358.987 86.2981 359.193 86.3657C359.404 86.424 359.63 86.4018 359.873 86.2992C360.175 86.1717 360.41 85.9951 360.578 85.7695C360.753 85.5411 360.857 85.2922 360.89 85.0227C360.92 84.7468 360.879 84.4741 360.765 84.2049L360.187 82.8355C360.076 82.5728 359.887 82.4009 359.621 82.3199C359.359 82.2296 359.066 82.2523 358.745 82.3882C358.449 82.5129 358.223 82.7013 358.066 82.9532C357.913 83.1957 357.835 83.4607 357.833 83.748L356.711 83.676C356.699 83.3717 356.763 83.0739 356.903 82.7826C357.04 82.4847 357.233 82.2176 357.482 81.9811C357.737 81.7419 358.032 81.5516 358.367 81.4102C358.787 81.2328 359.191 81.155 359.58 81.1767C359.974 81.1957 360.32 81.309 360.617 81.5165C360.917 81.7147 361.145 81.9977 361.3 82.3655L362.814 85.9515L361.75 86.4007L361.342 85.4352L361.582 85.3691C361.548 85.6385 361.466 85.8936 361.336 86.1344C361.212 86.3725 361.043 86.5868 360.83 86.7776C360.623 86.9655 360.368 87.1233 360.066 87.2508ZM364.115 85.4013L361.859 80.0743L362.922 79.6238L363.41 80.7759L363.197 80.657C363.156 80.2487 363.244 79.8901 363.462 79.5812C363.679 79.2723 363.978 79.0372 364.359 78.8759C364.786 78.6952 365.212 78.6502 365.637 78.7409C366.067 78.8223 366.416 79.0264 366.686 79.3533L366.384 79.5163C366.361 79.0229 366.465 78.603 366.698 78.2567C366.937 77.9077 367.267 77.6441 367.687 77.4662C368.055 77.3105 368.422 77.2554 368.79 77.301C369.164 77.3437 369.504 77.4786 369.809 77.7054C370.114 77.9323 370.349 78.2394 370.513 78.6267L371.973 82.073L370.86 82.5443L369.53 79.4033C369.416 79.1341 369.27 78.9285 369.094 78.7864C368.922 78.635 368.729 78.5462 368.517 78.52C368.308 78.4845 368.092 78.514 367.869 78.6085C367.646 78.7031 367.471 78.839 367.345 79.0163C367.216 79.1871 367.143 79.3885 367.125 79.6206C367.107 79.8526 367.154 80.0999 367.265 80.3625L368.595 83.5036L367.493 83.9707L366.162 80.8296C366.048 80.5605 365.903 80.3549 365.727 80.2128C365.554 80.0614 365.362 79.9725 365.149 79.9464C364.941 79.9109 364.721 79.9418 364.492 80.0391C364.269 80.1336 364.094 80.2695 363.968 80.4469C363.839 80.6176 363.765 80.819 363.747 81.0511C363.736 81.2804 363.786 81.5263 363.897 81.7889L365.228 84.93L364.115 85.4013ZM375.123 80.9071C374.721 81.0728 374.332 81.1292 373.955 81.0762C373.576 81.0166 373.234 80.8606 372.93 80.6083C372.629 80.3467 372.391 80.0016 372.214 79.5732L370.853 76.2711L371.97 75.8106L373.291 79.0139C373.391 79.2578 373.529 79.4516 373.704 79.5954C373.879 79.7392 374.077 79.8272 374.298 79.8593C374.517 79.8848 374.742 79.85 374.972 79.7549C375.21 79.6571 375.395 79.5188 375.53 79.34C375.664 79.1612 375.742 78.9559 375.762 78.724C375.789 78.4894 375.749 78.2436 375.643 77.9865L374.343 74.8327L375.45 74.3763L377.655 79.725L376.597 80.161L376.165 79.113L376.341 79.2025C376.351 79.5837 376.248 79.923 376.032 80.2205C375.815 80.518 375.512 80.7469 375.123 80.9071ZM379.834 80.5375L379.616 79.9916C379.813 79.8511 379.94 79.6809 379.999 79.481C380.059 79.2876 380.051 79.0566 379.974 78.788L379.448 78.9988L378.931 77.7085L380.072 77.2509L380.411 78.0946C380.623 78.624 380.681 79.0959 380.586 79.5103C380.491 79.9248 380.241 80.2671 379.834 80.5375ZM386.934 76.3103C386.378 76.5123 385.839 76.5751 385.318 76.4988C384.804 76.42 384.349 76.2212 383.953 75.9025C383.563 75.5814 383.273 75.1595 383.084 74.6368L381.306 69.7419L382.492 69.3112L384.251 74.1558C384.371 74.4842 384.547 74.7501 384.78 74.9536C385.02 75.1547 385.289 75.2806 385.588 75.3313C385.894 75.3795 386.211 75.344 386.539 75.2248C386.874 75.1031 387.14 74.9269 387.337 74.6961C387.541 74.4629 387.667 74.1935 387.715 73.8878C387.77 73.5796 387.738 73.2613 387.618 72.933L385.859 68.0884L387.035 67.6613L388.813 72.5562C389.002 73.0788 389.051 73.5883 388.958 74.0847C388.865 74.581 388.644 75.0256 388.293 75.4183C387.95 75.8085 387.497 76.1059 386.934 76.3103ZM391.137 74.6707L389.333 69.1741L390.43 68.8139L390.784 69.8909L390.605 69.792C390.627 69.4021 390.758 69.0702 390.998 68.7963C391.236 68.5156 391.552 68.3108 391.945 68.1818C392.351 68.0484 392.739 68.0187 393.108 68.0925C393.478 68.1664 393.802 68.3302 394.08 68.5839C394.358 68.8377 394.564 69.1678 394.698 69.5742L395.861 73.1201L394.723 73.4936L393.66 70.2525C393.569 69.9748 393.441 69.7578 393.277 69.6015C393.111 69.4384 392.917 69.3372 392.694 69.2978C392.475 69.2495 392.247 69.2642 392.01 69.342C391.773 69.4198 391.578 69.544 391.424 69.7147C391.274 69.8763 391.181 70.072 391.144 70.3018C391.106 70.5315 391.132 70.7819 391.221 71.0528L392.285 74.2939L391.137 74.6707ZM399.521 72.1156C398.938 72.2824 398.439 72.2475 398.022 72.0108C397.606 71.774 397.312 71.3576 397.142 70.7613L396.37 68.0679L395.394 68.3476L395.093 67.299L395.248 67.2549C395.508 67.1803 395.689 67.047 395.789 66.855C395.89 66.663 395.903 66.4368 395.829 66.1764L395.705 65.7446L396.867 65.4119L397.232 66.6866L398.496 66.3245L398.797 67.3731L397.532 67.7352L398.289 70.3772C398.344 70.5691 398.422 70.7248 398.523 70.8442C398.621 70.9567 398.75 71.0311 398.909 71.0672C399.066 71.0965 399.254 71.0797 399.473 71.0169C399.528 71.0012 399.588 70.9801 399.655 70.9536C399.722 70.9272 399.785 70.9017 399.845 70.8771L400.13 71.8743C400.038 71.9155 399.936 71.9596 399.823 72.0067C399.711 72.0538 399.61 72.0901 399.521 72.1156ZM403.306 71.213C402.884 71.3159 402.49 71.3127 402.126 71.2034C401.76 71.0871 401.446 70.8812 401.183 70.5857C400.925 70.2816 400.742 69.9044 400.632 69.4542L399.786 65.9842L400.96 65.6981L401.781 69.0642C401.843 69.3205 401.95 69.5329 402.101 69.7016C402.252 69.8702 402.435 69.9871 402.649 70.0523C402.861 70.1107 403.089 70.1103 403.331 70.0512C403.58 69.9904 403.785 69.8819 403.945 69.7255C404.105 69.5691 404.213 69.3778 404.268 69.1516C404.329 68.9237 404.327 68.6747 404.262 68.4046L403.454 65.0904L404.618 64.8068L405.987 70.4275L404.876 70.6984L404.607 69.5971L404.767 69.7122C404.72 70.0906 404.567 70.4104 404.308 70.6717C404.049 70.933 403.715 71.1134 403.306 71.213ZM407.366 70.1316L405.885 62.1731L407.073 61.9522L408.065 67.2823L407.581 67.2527L409.882 63.7791L411.365 63.5033L409.644 66.1836L412.517 69.1733L411.151 69.4276L408.592 66.7819L409.279 66.5562L407.929 68.6563L408.161 67.7974L408.554 69.9106L407.366 70.1316ZM415.304 68.7955L414.497 60.8699L415.752 60.742L416.19 65.0399L415.847 64.9459L419.008 60.4105L420.572 60.2512L417.779 64.2869L417.752 63.3868L421.506 68.1638L420.028 68.3144L417.339 64.9229L416.327 66.3804L416.56 68.6676L415.304 68.7955ZM422.325 68.1155L422.024 62.3382L423.231 62.2753L423.532 68.0527L422.325 68.1155ZM421.983 61.548L421.91 60.1597L423.117 60.0968L423.189 61.4851L421.983 61.548ZM427.446 68.0477C426.84 68.0538 426.368 67.8875 426.029 67.5487C425.691 67.2099 425.518 66.7304 425.512 66.1102L425.484 63.3087L424.468 63.3189L424.457 62.2282L424.617 62.2266C424.888 62.2239 425.098 62.1434 425.246 61.985C425.394 61.8267 425.467 61.6121 425.464 61.3412L425.459 60.8921L426.668 60.8799L426.681 62.2058L427.996 62.1926L428.007 63.2832L426.692 63.2965L426.72 66.0446C426.722 66.2442 426.756 66.4149 426.821 66.5569C426.887 66.6916 426.991 66.7975 427.134 66.8745C427.278 66.9444 427.463 66.9781 427.692 66.9758C427.749 66.9753 427.813 66.971 427.884 66.9632C427.955 66.9554 428.023 66.9475 428.087 66.9398L428.097 67.977C427.998 67.9922 427.887 68.0076 427.766 68.0231C427.645 68.0386 427.538 68.0468 427.446 68.0477ZM430.948 68.2132C430.556 68.1951 430.214 68.1116 429.921 67.9625C429.635 67.8066 429.416 67.6038 429.264 67.3541C429.111 67.0973 429.043 66.8016 429.058 66.4669C429.073 66.1535 429.153 65.8753 429.3 65.6323C429.454 65.3897 429.681 65.1896 429.981 65.0321C430.281 64.8747 430.653 64.7705 431.098 64.7197L433.121 64.4811L433.078 65.4318L431.29 65.6598C430.967 65.702 430.727 65.7945 430.571 65.9371C430.415 66.0726 430.331 66.2544 430.321 66.4822C430.311 66.703 430.384 66.8884 430.541 67.0384C430.706 67.1815 430.92 67.2592 431.184 67.2714C431.511 67.2865 431.799 67.2284 432.048 67.0971C432.304 66.9662 432.505 66.7863 432.651 66.5575C432.797 66.3217 432.877 66.0577 432.891 65.7657L432.959 64.2809C432.972 63.9961 432.876 63.7597 432.671 63.5718C432.473 63.3772 432.199 63.2718 431.851 63.2557C431.53 63.2409 431.245 63.3134 430.995 63.4732C430.752 63.6261 430.568 63.8317 430.442 64.0899L429.461 63.5416C429.581 63.2617 429.767 63.0205 430.019 62.818C430.271 62.6084 430.56 62.4504 430.886 62.3441C431.219 62.2382 431.568 62.1936 431.931 62.2103C432.387 62.2313 432.785 62.3353 433.126 62.5223C433.474 62.7097 433.737 62.9609 433.916 63.276C434.101 63.5842 434.185 63.9378 434.166 64.3366L433.987 68.2249L432.834 68.1717L432.882 67.1248L433.126 67.1682C432.98 67.397 432.796 67.5919 432.574 67.753C432.36 67.9143 432.115 68.0351 431.841 68.1152C431.573 68.1956 431.275 68.2283 430.948 68.2132ZM468.531 77.8446C468.08 77.6329 467.699 77.3524 467.391 77.0031C467.085 76.6473 466.866 76.2574 466.734 75.8334C466.602 75.4094 466.562 74.9735 466.615 74.5257L467.774 74.5727C467.739 75.0998 467.834 75.5614 468.058 75.9575C468.281 76.3537 468.613 76.6546 469.052 76.8603C469.31 76.9813 469.554 77.0484 469.784 77.0617C470.017 77.0685 470.22 77.0219 470.393 76.9218C470.572 76.8247 470.707 76.6794 470.798 76.4857C470.922 76.221 470.946 75.9764 470.87 75.7519C470.794 75.5274 470.632 75.3019 470.384 75.0755L469.228 74.0142C468.764 73.5923 468.471 73.1437 468.347 72.6685C468.226 72.1868 468.275 71.7136 468.493 71.2488C468.683 70.8421 468.95 70.5339 469.292 70.3243C469.637 70.1082 470.025 69.9946 470.455 69.9837C470.892 69.9757 471.336 70.0776 471.788 70.2894C472.221 70.492 472.578 70.754 472.861 71.0753C473.146 71.3901 473.353 71.7389 473.48 72.1215C473.615 72.5072 473.658 72.9015 473.611 73.3045L472.467 73.2763C472.503 72.8289 472.418 72.4308 472.212 72.0821C472.012 71.7363 471.715 71.4712 471.321 71.2867C471.082 71.1748 470.852 71.1185 470.632 71.1177C470.415 71.1105 470.219 71.1601 470.043 71.2667C469.877 71.3698 469.747 71.5214 469.653 71.7215C469.544 71.9539 469.521 72.1953 469.585 72.4456C469.649 72.6959 469.811 72.9373 470.072 73.1699L471.145 74.1567C471.638 74.6002 471.953 75.0546 472.089 75.52C472.228 75.9788 472.184 76.4504 471.957 76.9345C471.77 77.3348 471.497 77.6399 471.139 77.85C470.787 78.063 470.385 78.1737 469.932 78.1821C469.483 78.184 469.016 78.0715 468.531 77.8446ZM474.544 80.8496C474.034 80.5789 473.642 80.2218 473.369 79.7782C473.106 79.3317 472.971 78.8485 472.964 78.3285C472.961 77.8022 473.093 77.2872 473.361 76.7834C473.635 76.2671 473.987 75.869 474.418 75.5893C474.855 75.3129 475.323 75.1617 475.821 75.1355C476.323 75.1031 476.813 75.2139 477.291 75.4679C477.675 75.6718 477.984 75.92 478.216 76.2127C478.448 76.5054 478.606 76.8233 478.69 77.1666C478.777 77.5036 478.796 77.8485 478.746 78.2013C478.702 78.5574 478.592 78.9023 478.415 79.236C478.371 79.3179 478.323 79.4012 478.27 79.4861C478.217 79.5709 478.161 79.646 478.102 79.7116L474.031 77.5508L474.482 76.7007L477.948 78.5406L477.233 78.6572C477.46 78.382 477.583 78.0964 477.603 77.8003C477.633 77.5013 477.577 77.2257 477.436 76.9735C477.306 76.7184 477.098 76.5156 476.815 76.3652C476.532 76.2148 476.241 76.1535 475.944 76.1814C475.65 76.2029 475.373 76.3142 475.113 76.5151C474.857 76.7098 474.642 76.9996 474.47 77.3845C474.255 77.7141 474.142 78.0414 474.131 78.3664C474.126 78.6948 474.201 78.9932 474.358 79.2617C474.52 79.5335 474.752 79.7497 475.055 79.9101C475.363 80.0739 475.661 80.1433 475.949 80.1184C476.243 80.0969 476.511 80.0093 476.754 79.8558L477.397 80.7421C477.17 80.9279 476.897 81.0615 476.579 81.1431C476.271 81.2217 475.939 81.2392 475.583 81.1954C475.236 81.1487 474.89 81.0334 474.544 80.8496ZM477.98 82.5667L482.115 75.6077L483.154 76.225L481.395 79.1851L481.306 78.9581C481.614 78.7183 481.951 78.5989 482.315 78.5998C482.683 78.5946 483.045 78.6976 483.4 78.9088C483.768 79.1273 484.045 79.4 484.233 79.7268C484.42 80.0537 484.509 80.4054 484.501 80.782C484.493 81.1586 484.381 81.5277 484.167 81.8893L482.255 85.1068L481.225 84.495L482.968 81.5625C483.117 81.3112 483.194 81.0706 483.197 80.8408C483.211 80.6084 483.163 80.3971 483.052 80.2068C482.945 80.0105 482.784 79.8485 482.569 79.7211C482.361 79.5973 482.142 79.5334 481.912 79.5295C481.692 79.5231 481.48 79.5796 481.276 79.6991C481.079 79.8222 480.907 80.0063 480.761 80.2515L479.019 83.184L477.98 82.5667ZM484.738 86.8372C484.408 86.6244 484.155 86.38 483.977 86.1037C483.808 85.8254 483.721 85.5399 483.715 85.2474C483.713 84.9488 483.802 84.6588 483.984 84.3773C484.154 84.1138 484.364 83.914 484.613 83.7779C484.868 83.6457 485.165 83.587 485.503 83.6018C485.842 83.6167 486.216 83.7141 486.626 83.894L488.494 84.7062L487.978 85.5057L486.319 84.8031C486.018 84.677 485.765 84.6362 485.558 84.6807C485.354 84.7193 485.191 84.8343 485.067 85.026C484.947 85.2116 484.918 85.4088 484.978 85.6175C485.048 85.8241 485.194 85.999 485.416 86.1421C485.691 86.32 485.969 86.4148 486.25 86.4266C486.537 86.4422 486.801 86.3879 487.043 86.2638C487.288 86.1336 487.49 85.9458 487.649 85.7003L488.455 84.4517C488.61 84.2121 488.646 83.9595 488.563 83.6937C488.49 83.4259 488.306 83.1972 488.013 83.0077C487.743 82.8336 487.46 82.7527 487.164 82.7649C486.877 82.775 486.615 82.8599 486.376 83.0196L485.804 82.0521C486.049 81.8706 486.331 81.7557 486.65 81.7076C486.974 81.6534 487.303 81.6625 487.638 81.7347C487.98 81.8108 488.303 81.9475 488.608 82.1448C488.992 82.3923 489.284 82.6827 489.484 83.0159C489.691 83.353 489.792 83.7026 489.787 84.0645C489.792 84.4243 489.687 84.7719 489.47 85.1073L487.358 88.377L486.388 87.7504L486.957 86.8701L487.146 87.0305C486.905 87.1546 486.648 87.2306 486.375 87.2582C486.109 87.2898 485.836 87.271 485.559 87.2019C485.287 87.1367 485.013 87.0151 484.738 86.8372ZM490.471 90.5741C489.972 90.2308 489.681 89.8232 489.599 89.3514C489.516 88.8796 489.651 88.3881 490.003 87.8771L491.59 85.5686L490.753 84.993L491.371 84.0942L491.503 84.1851C491.726 84.3386 491.944 84.3932 492.156 84.3488C492.369 84.3044 492.551 84.1706 492.705 83.9473L492.959 83.5773L493.955 84.262L493.204 85.3545L494.288 86.0998L493.669 86.9986L492.586 86.2533L491.028 88.5177C490.915 88.6822 490.845 88.8414 490.817 88.9952C490.793 89.1432 490.818 89.2898 490.891 89.4352C490.968 89.5748 491.1 89.7092 491.288 89.8384C491.335 89.8707 491.39 89.9042 491.453 89.9387C491.516 89.9732 491.576 90.0057 491.632 90.0362L491.045 90.8909C490.954 90.8461 490.855 90.7952 490.747 90.7383C490.639 90.6814 490.547 90.6266 490.471 90.5741ZM495.921 94.6188C495.561 94.3502 495.288 94.0308 495.102 93.6606C494.921 93.2946 494.855 92.9119 494.904 92.5126L495.15 92.4157L494.447 93.3585L493.521 92.6679L498.362 86.1798L499.33 86.9024L497.233 89.7136L497.245 89.3757C497.612 89.2407 497.994 89.2056 498.391 89.2702C498.787 89.3348 499.168 89.5035 499.534 89.7763C499.974 90.1046 500.289 90.5044 500.48 90.9759C500.677 91.4516 500.739 91.9469 500.666 92.4618C500.599 92.981 500.395 93.4691 500.053 93.9262C499.712 94.3833 499.303 94.718 498.824 94.9302C498.351 95.1467 497.86 95.2335 497.349 95.1905C496.843 95.1419 496.367 94.9513 495.921 94.6188ZM496.498 93.6485C496.773 93.8532 497.064 93.9686 497.374 93.9949C497.683 94.0213 497.983 93.9649 498.274 93.8259C498.574 93.6854 498.833 93.4695 499.051 93.1781C499.268 92.8866 499.399 92.5798 499.444 92.2574C499.495 91.9394 499.463 91.6357 499.35 91.3466C499.236 91.0574 499.043 90.8105 498.768 90.6059C498.5 90.4055 498.208 90.2901 497.893 90.2595C497.583 90.2332 497.28 90.2874 496.984 90.4222C496.694 90.5612 496.44 90.7764 496.222 91.0678C496.005 91.3592 495.869 91.6668 495.814 91.9906C495.769 92.313 495.803 92.6187 495.917 92.9079C496.036 93.2013 496.23 93.4482 496.498 93.6485ZM501.292 98.7636C500.84 98.4035 500.521 97.9804 500.335 97.4941C500.158 97.0067 500.114 96.5068 500.204 95.9946C500.298 95.4767 500.523 94.9949 500.878 94.5491C501.243 94.0921 501.663 93.7658 502.138 93.5703C502.618 93.3793 503.106 93.3168 503.6 93.3829C504.099 93.4434 504.56 93.6426 504.984 93.9805C505.324 94.2517 505.581 94.5525 505.755 94.8829C505.929 95.2133 506.026 95.555 506.045 95.9079C506.069 96.2552 506.024 96.5976 505.91 96.9351C505.801 97.2771 505.629 97.5958 505.394 97.8911C505.336 97.9636 505.273 98.0366 505.205 98.1102C505.137 98.1837 505.068 98.2473 504.998 98.3008L501.395 95.4268L501.996 94.6744L505.064 97.1217L504.339 97.1044C504.612 96.8757 504.786 96.6177 504.86 96.3304C504.945 96.0419 504.941 95.7608 504.849 95.487C504.767 95.2122 504.601 94.9747 504.35 94.7746C504.1 94.5746 503.826 94.4609 503.528 94.4334C503.235 94.4005 502.943 94.4588 502.65 94.6084C502.362 94.7524 502.098 94.9977 501.858 95.3443C501.586 95.6286 501.414 95.9294 501.343 96.2468C501.278 96.5687 501.297 96.8759 501.401 97.1686C501.511 97.4657 501.699 97.721 501.967 97.9344C502.24 98.1522 502.52 98.2754 502.807 98.3039C503.1 98.3369 503.38 98.3003 503.647 98.1942L504.116 99.1839C503.858 99.3245 503.565 99.4056 503.238 99.4273C502.921 99.4477 502.591 99.4037 502.249 99.295C501.917 99.1853 501.598 99.0081 501.292 98.7636ZM504.362 101.074L508.094 96.6538L508.977 97.3988L508.225 98.2894L508.254 98.0897C508.595 97.8838 508.928 97.8102 509.252 97.8688C509.58 97.9221 509.897 98.0774 510.202 98.335L510.471 98.5626L509.761 99.4042L509.377 99.08C509.072 98.8225 508.743 98.7085 508.392 98.7382C508.05 98.7671 507.732 98.9558 507.438 99.3044L505.286 101.854L504.362 101.074ZM508.847 105.08C508.4 104.692 508.103 104.24 507.956 103.725C507.814 103.215 507.837 102.715 508.024 102.227L509.014 102.506C508.918 102.856 508.909 103.193 508.987 103.516C509.071 103.844 509.239 104.117 509.492 104.337C509.708 104.524 509.925 104.627 510.143 104.647C510.362 104.667 510.544 104.594 510.689 104.427C510.782 104.319 510.827 104.207 510.824 104.091C510.826 103.97 510.799 103.848 510.745 103.726C510.697 103.608 510.636 103.498 510.563 103.397L510.045 102.608C509.761 102.173 509.619 101.766 509.618 101.387C509.626 101.007 509.757 100.672 510.009 100.382C510.238 100.118 510.504 99.9474 510.807 99.8705C511.114 99.7882 511.433 99.796 511.764 99.8939C512.094 99.9919 512.407 100.169 512.703 100.426C513.102 100.772 513.37 101.18 513.51 101.651C513.654 102.116 513.638 102.579 513.464 103.041L512.474 102.762C512.57 102.477 512.578 102.191 512.497 101.904C512.421 101.621 512.268 101.379 512.036 101.179C511.837 101.006 511.636 100.916 511.434 100.91C511.236 100.899 511.071 100.969 510.94 101.119C510.852 101.222 510.804 101.331 510.797 101.448C510.795 101.559 510.818 101.674 510.867 101.792C510.92 101.904 510.981 102.014 511.049 102.12L511.577 102.947C511.849 103.362 511.986 103.764 511.988 104.153C511.995 104.537 511.868 104.879 511.606 105.181C511.382 105.439 511.113 105.607 510.8 105.685C510.497 105.762 510.176 105.752 509.835 105.655C509.5 105.552 509.17 105.36 508.847 105.08ZM512.636 108.437C512.346 108.174 512.135 107.891 512.004 107.59C511.883 107.288 511.843 106.992 511.884 106.703C511.93 106.408 512.065 106.136 512.29 105.888C512.501 105.655 512.74 105.492 513.008 105.398C513.281 105.308 513.583 105.299 513.915 105.368C514.246 105.437 514.6 105.594 514.975 105.838L516.688 106.941L516.049 107.647L514.525 106.685C514.249 106.512 514.006 106.431 513.794 106.441C513.587 106.447 513.407 106.534 513.254 106.703C513.106 106.867 513.045 107.056 513.071 107.272C513.107 107.487 513.222 107.684 513.418 107.861C513.661 108.081 513.92 108.219 514.195 108.276C514.476 108.338 514.746 108.327 515.004 108.244C515.267 108.155 515.497 108.002 515.693 107.786L516.691 106.684C516.882 106.472 516.958 106.229 516.919 105.953C516.89 105.677 516.747 105.422 516.488 105.187C516.25 104.972 515.984 104.846 515.689 104.811C515.405 104.774 515.132 104.815 514.87 104.934L514.462 103.887C514.733 103.748 515.03 103.68 515.353 103.684C515.681 103.683 516.005 103.745 516.324 103.871C516.648 104.001 516.945 104.188 517.215 104.432C517.553 104.738 517.794 105.072 517.938 105.433C518.088 105.799 518.131 106.161 518.068 106.517C518.015 106.873 517.854 107.199 517.586 107.495L514.974 110.38L514.118 109.605L514.821 108.828L514.982 109.017C514.723 109.101 514.458 109.134 514.184 109.117C513.916 109.105 513.651 109.043 513.388 108.93C513.13 108.821 512.879 108.657 512.636 108.437ZM516.008 111.341L520 107.154L520.836 107.95L519.973 108.856L519.997 108.614C520.355 108.413 520.719 108.352 521.089 108.428C521.459 108.505 521.794 108.686 522.093 108.972C522.429 109.291 522.639 109.664 522.725 110.091C522.821 110.517 522.773 110.919 522.58 111.297L522.31 111.084C522.754 110.867 523.181 110.796 523.591 110.872C524.006 110.953 524.379 111.15 524.709 111.465C524.998 111.741 525.195 112.056 525.299 112.412C525.409 112.772 525.42 113.137 525.333 113.508C525.246 113.878 525.058 114.215 524.768 114.52L522.186 117.229L521.311 116.395L523.664 113.926C523.866 113.714 523.997 113.499 524.057 113.281C524.128 113.063 524.133 112.851 524.072 112.645C524.022 112.44 523.909 112.253 523.734 112.086C523.558 111.919 523.364 111.813 523.151 111.767C522.943 111.717 522.729 111.73 522.509 111.805C522.289 111.881 522.081 112.023 521.884 112.229L519.53 114.698L518.663 113.872L521.017 111.403C521.219 111.191 521.35 110.976 521.41 110.758C521.48 110.539 521.485 110.327 521.425 110.122C521.375 109.917 521.259 109.728 521.078 109.556C520.903 109.388 520.709 109.282 520.496 109.237C520.288 109.186 520.074 109.199 519.854 109.275C519.639 109.356 519.433 109.499 519.237 109.706L516.883 112.175L516.008 111.341ZM524.241 119.451C523.964 119.173 523.768 118.881 523.653 118.573C523.547 118.265 523.522 117.968 523.578 117.681C523.639 117.388 523.788 117.124 524.026 116.887C524.248 116.666 524.495 116.515 524.767 116.435C525.045 116.36 525.347 116.365 525.675 116.451C526.002 116.538 526.347 116.712 526.71 116.975L528.364 118.164L527.69 118.836L526.217 117.798C525.95 117.611 525.711 117.518 525.499 117.517C525.292 117.512 525.108 117.59 524.947 117.751C524.79 117.907 524.719 118.093 524.734 118.31C524.759 118.527 524.865 118.729 525.051 118.915C525.282 119.148 525.534 119.299 525.806 119.37C526.084 119.446 526.353 119.449 526.615 119.379C526.883 119.304 527.12 119.163 527.327 118.957L528.379 117.907C528.581 117.706 528.67 117.467 528.645 117.189C528.631 116.912 528.5 116.65 528.253 116.402C528.027 116.175 527.767 116.036 527.475 115.985C527.193 115.934 526.918 115.962 526.651 116.067L526.297 115C526.574 114.875 526.874 114.822 527.197 114.843C527.525 114.859 527.845 114.937 528.157 115.079C528.474 115.226 528.761 115.428 529.018 115.685C529.34 116.008 529.564 116.354 529.689 116.722C529.82 117.095 529.845 117.458 529.763 117.811C529.692 118.164 529.515 118.481 529.233 118.763L526.476 121.511L525.661 120.693L526.403 119.953L526.554 120.15C526.292 120.22 526.024 120.24 525.752 120.209C525.485 120.184 525.223 120.108 524.966 119.981C524.714 119.86 524.473 119.683 524.241 119.451ZM526.559 123.837L526.98 123.426C527.185 123.554 527.392 123.607 527.599 123.585C527.8 123.567 528.011 123.471 528.23 123.298L527.834 122.892L528.829 121.921L529.688 122.801L529.037 123.436C528.629 123.834 528.215 124.069 527.796 124.139C527.377 124.21 526.964 124.109 526.559 123.837ZM532.879 128.245C532.462 127.806 532.261 127.347 532.278 126.869C532.295 126.39 532.528 125.937 532.977 125.509L535.007 123.578L534.306 122.842L535.096 122.09L535.207 122.206C535.394 122.402 535.595 122.501 535.812 122.501C536.029 122.501 536.236 122.408 536.432 122.221L536.757 121.912L537.59 122.787L536.63 123.701L537.536 124.654L536.746 125.406L535.84 124.453L533.849 126.348C533.704 126.485 533.603 126.627 533.544 126.771C533.49 126.911 533.483 127.06 533.525 127.217C533.572 127.37 533.674 127.528 533.831 127.694C533.87 127.735 533.917 127.779 533.971 127.826C534.026 127.872 534.077 127.917 534.127 127.958L533.376 128.673C533.296 128.611 533.21 128.541 533.116 128.463C533.022 128.385 532.943 128.312 532.879 128.245ZM535.48 131.143C535.186 130.823 534.999 130.477 534.919 130.105C534.845 129.729 534.873 129.354 535.005 128.981C535.147 128.609 535.389 128.266 535.73 127.953L538.362 125.538L539.179 126.428L536.626 128.771C536.432 128.949 536.297 129.145 536.223 129.359C536.148 129.573 536.134 129.789 536.18 130.008C536.231 130.222 536.341 130.421 536.51 130.605C536.683 130.794 536.877 130.921 537.091 130.985C537.306 131.05 537.525 131.052 537.75 130.991C537.979 130.935 538.196 130.813 538.401 130.625L540.914 128.319L541.724 129.201L537.462 133.113L536.688 132.27L537.523 131.503L537.5 131.699C537.146 131.84 536.792 131.861 536.438 131.76C536.084 131.659 535.765 131.453 535.48 131.143ZM538.408 134.159L542.727 130.31L543.496 131.173L542.562 132.005L542.606 131.765C542.979 131.595 543.347 131.563 543.709 131.67C544.072 131.776 544.391 131.984 544.666 132.293C544.974 132.639 545.154 133.028 545.204 133.46C545.265 133.892 545.185 134.289 544.962 134.65L544.71 134.416C545.17 134.235 545.601 134.2 546.004 134.309C546.411 134.423 546.767 134.65 547.07 134.991C547.336 135.289 547.506 135.62 547.581 135.982C547.661 136.351 547.643 136.716 547.526 137.077C547.409 137.439 547.194 137.76 546.88 138.04L544.086 140.53L543.282 139.628L545.828 137.358C546.047 137.164 546.195 136.96 546.273 136.748C546.36 136.536 546.383 136.325 546.339 136.115C546.306 135.906 546.208 135.711 546.047 135.531C545.886 135.35 545.701 135.228 545.493 135.165C545.289 135.098 545.075 135.093 544.85 135.151C544.624 135.209 544.405 135.332 544.192 135.522L541.645 137.792L540.849 136.898L543.395 134.628C543.613 134.434 543.762 134.23 543.839 134.017C543.927 133.805 543.95 133.595 543.906 133.385C543.873 133.176 543.773 132.978 543.607 132.792C543.446 132.611 543.261 132.49 543.052 132.427C542.849 132.36 542.635 132.355 542.409 132.413C542.189 132.476 541.972 132.602 541.759 132.792L539.212 135.061L538.408 134.159ZM546.849 143.934C546.557 143.593 546.36 143.222 546.26 142.82C546.164 142.423 546.184 142.035 546.319 141.656L546.58 141.616L545.687 142.381L544.936 141.504L551.082 136.237L551.868 137.154L549.205 139.437L549.291 139.11C549.679 139.059 550.06 139.108 550.432 139.258C550.805 139.408 551.14 139.656 551.437 140.003C551.794 140.42 552.014 140.879 552.097 141.381C552.184 141.888 552.136 142.385 551.951 142.871C551.772 143.363 551.466 143.794 551.033 144.166C550.6 144.537 550.126 144.773 549.613 144.875C549.104 144.983 548.605 144.96 548.117 144.806C547.634 144.647 547.211 144.357 546.849 143.934ZM547.625 143.114C547.848 143.374 548.107 143.551 548.403 143.645C548.7 143.738 549.005 143.749 549.318 143.677C549.642 143.606 549.943 143.452 550.219 143.216C550.495 142.979 550.69 142.708 550.804 142.404C550.924 142.105 550.959 141.801 550.912 141.494C550.865 141.187 550.73 140.904 550.508 140.644C550.29 140.39 550.03 140.213 549.729 140.114C549.433 140.02 549.126 140.007 548.807 140.073C548.493 140.145 548.198 140.3 547.922 140.536C547.646 140.773 547.446 141.043 547.321 141.347C547.207 141.651 547.173 141.957 547.22 142.264C547.272 142.577 547.407 142.86 547.625 143.114ZM550.816 148.615C550.537 148.282 550.366 147.927 550.303 147.552C550.246 147.173 550.292 146.8 550.441 146.433C550.601 146.068 550.858 145.737 551.213 145.44L553.954 143.149L554.729 144.076L552.07 146.298C551.868 146.467 551.725 146.657 551.64 146.867C551.556 147.077 551.531 147.292 551.567 147.513C551.609 147.73 551.709 147.933 551.869 148.125C552.034 148.322 552.222 148.457 552.433 148.532C552.644 148.606 552.863 148.618 553.09 148.568C553.322 148.523 553.544 148.411 553.758 148.233L556.375 146.045L557.143 146.964L552.704 150.674L551.97 149.796L552.84 149.069L552.808 149.264C552.447 149.389 552.093 149.392 551.744 149.275C551.395 149.158 551.086 148.938 550.816 148.615ZM553.604 151.761L559.861 146.625L560.628 147.559L557.966 149.743L557.96 149.499C558.331 149.379 558.688 149.381 559.031 149.506C559.378 149.626 559.683 149.846 559.946 150.166C560.217 150.496 560.385 150.847 560.45 151.218C560.515 151.589 560.479 151.951 560.343 152.302C560.208 152.653 559.977 152.962 559.652 153.229L556.759 155.604L555.999 154.678L558.636 152.514C558.862 152.328 559.016 152.128 559.098 151.914C559.19 151.7 559.216 151.484 559.176 151.268C559.142 151.047 559.046 150.84 558.888 150.647C558.734 150.46 558.55 150.325 558.335 150.243C558.13 150.162 557.912 150.143 557.68 150.186C557.452 150.235 557.228 150.349 557.008 150.53L554.371 152.695L553.604 151.761ZM560.572 160.561C560.292 160.21 560.109 159.831 560.023 159.426C559.941 159.026 559.974 158.639 560.122 158.265L560.384 158.234L559.465 158.968L558.745 158.065L565.071 153.015L565.825 153.959L563.084 156.147L563.181 155.824C563.57 155.786 563.949 155.849 564.316 156.012C564.683 156.175 565.009 156.434 565.294 156.791C565.637 157.22 565.84 157.687 565.906 158.191C565.975 158.701 565.91 159.196 565.709 159.675C565.512 160.161 565.191 160.581 564.746 160.937C564.3 161.293 563.819 161.513 563.302 161.597C562.79 161.687 562.292 161.646 561.809 161.475C561.332 161.3 560.919 160.995 560.572 160.561ZM561.377 159.768C561.59 160.035 561.843 160.221 562.136 160.325C562.429 160.429 562.733 160.45 563.049 160.389C563.376 160.329 563.681 160.186 563.965 159.959C564.249 159.732 564.454 159.469 564.579 159.168C564.708 158.873 564.755 158.572 564.718 158.263C564.682 157.955 564.557 157.667 564.343 157.4C564.134 157.138 563.881 156.952 563.584 156.843C563.291 156.739 562.984 156.715 562.664 156.77C562.348 156.831 562.047 156.975 561.763 157.202C561.479 157.428 561.27 157.692 561.135 157.991C561.01 158.291 560.965 158.596 561.002 158.904C561.043 159.218 561.168 159.506 561.377 159.768ZM564.781 165.886C564.426 165.431 564.213 164.946 564.144 164.429C564.085 163.914 564.158 163.418 564.364 162.94C564.575 162.458 564.905 162.042 565.354 161.69C565.815 161.33 566.299 161.11 566.806 161.029C567.318 160.955 567.807 161.007 568.273 161.185C568.744 161.36 569.146 161.66 569.48 162.087C569.748 162.429 569.929 162.781 570.022 163.143C570.115 163.505 570.13 163.86 570.067 164.208C570.01 164.551 569.887 164.874 569.698 165.176C569.513 165.483 569.272 165.753 568.974 165.986C568.901 166.043 568.823 166.1 568.74 166.156C568.657 166.212 568.575 166.257 568.495 166.293L565.655 162.664L566.412 162.071L568.831 165.161L568.13 164.977C568.449 164.818 568.678 164.607 568.816 164.344C568.965 164.083 569.026 163.809 569.001 163.521C568.985 163.235 568.878 162.966 568.68 162.713C568.483 162.46 568.242 162.286 567.959 162.191C567.682 162.091 567.384 162.08 567.065 162.158C566.751 162.231 566.437 162.409 566.124 162.69C565.793 162.904 565.556 163.157 565.414 163.449C565.276 163.747 565.224 164.051 565.257 164.36C565.295 164.674 565.419 164.966 565.63 165.235C565.845 165.511 566.09 165.695 566.362 165.789C566.64 165.889 566.921 165.918 567.205 165.877L567.432 166.948C567.149 167.025 566.845 167.037 566.522 166.982C566.208 166.928 565.898 166.809 565.59 166.625C565.293 166.441 565.023 166.195 564.781 165.886ZM567.244 168.837L571.838 165.32L572.54 166.238L571.614 166.946L571.685 166.757C572.063 166.629 572.404 166.629 572.708 166.756C573.017 166.878 573.293 167.098 573.535 167.415L573.75 167.695L572.875 168.364L572.57 167.965C572.327 167.648 572.031 167.467 571.681 167.42C571.341 167.375 570.99 167.491 570.628 167.769L567.979 169.797L567.244 168.837ZM570.791 173.694C570.433 173.223 570.234 172.721 570.194 172.186C570.159 171.657 570.283 171.173 570.567 170.733L571.479 171.208C571.313 171.532 571.236 171.859 571.247 172.191C571.262 172.529 571.371 172.831 571.574 173.098C571.747 173.325 571.938 173.47 572.148 173.535C572.358 173.599 572.551 173.564 572.727 173.43C572.84 173.343 572.907 173.243 572.928 173.129C572.954 173.01 572.953 172.886 572.925 172.755C572.902 172.629 572.864 172.51 572.814 172.396L572.467 171.518C572.278 171.034 572.222 170.607 572.298 170.236C572.383 169.866 572.579 169.564 572.886 169.331C573.164 169.119 573.459 169.007 573.771 168.993C574.089 168.975 574.399 169.048 574.703 169.211C575.006 169.374 575.277 169.612 575.514 169.924C575.834 170.343 576.014 170.798 576.054 171.286C576.101 171.771 575.991 172.221 575.726 172.638L574.814 172.164C574.966 171.904 575.032 171.626 575.011 171.328C574.995 171.036 574.894 170.768 574.708 170.524C574.548 170.314 574.37 170.186 574.173 170.139C573.981 170.087 573.806 170.122 573.647 170.243C573.54 170.325 573.47 170.422 573.44 170.535C573.415 170.644 573.414 170.761 573.438 170.886C573.467 171.007 573.505 171.127 573.55 171.245L573.899 172.162C574.08 172.624 574.132 173.045 574.055 173.427C573.984 173.804 573.789 174.113 573.472 174.355C573.199 174.562 572.902 174.672 572.58 174.684C572.268 174.698 571.955 174.622 571.642 174.458C571.334 174.289 571.05 174.034 570.791 173.694ZM573.84 177.738C573.605 177.424 573.453 177.106 573.383 176.785C573.322 176.466 573.34 176.168 573.436 175.891C573.538 175.611 573.724 175.37 573.992 175.17C574.244 174.983 574.51 174.869 574.791 174.828C575.076 174.793 575.375 174.842 575.687 174.974C575.998 175.106 576.315 175.328 576.636 175.639L578.104 177.053L577.341 177.622L576.031 176.384C575.794 176.161 575.57 176.034 575.361 176.004C575.157 175.969 574.964 176.02 574.781 176.156C574.604 176.288 574.507 176.463 574.491 176.679C574.484 176.897 574.56 177.112 574.718 177.324C574.914 177.586 575.141 177.772 575.401 177.882C575.664 177.996 575.931 178.038 576.2 178.006C576.475 177.969 576.73 177.864 576.964 177.689L578.156 176.8C578.385 176.63 578.506 176.406 578.521 176.128C578.546 175.851 578.455 175.573 578.246 175.293C578.054 175.036 577.817 174.861 577.535 174.769C577.263 174.679 576.987 174.666 576.707 174.733L576.509 173.626C576.802 173.542 577.106 173.533 577.423 173.599C577.745 173.661 578.05 173.785 578.339 173.969C578.632 174.16 578.888 174.401 579.105 174.692C579.378 175.058 579.55 175.432 579.622 175.814C579.698 176.202 579.67 176.565 579.539 176.903C579.419 177.242 579.198 177.53 578.878 177.769L575.758 180.096L575.068 179.17L575.908 178.544L576.029 178.76C575.76 178.792 575.492 178.774 575.227 178.704C574.966 178.641 574.718 178.528 574.482 178.367C574.25 178.211 574.036 178.001 573.84 177.738ZM576.598 181.232L581.263 177.811L581.946 178.743L580.937 179.482L581.004 179.248C581.392 179.114 581.761 179.117 582.112 179.258C582.463 179.398 582.76 179.635 583.005 179.969C583.279 180.343 583.42 180.747 583.43 181.182C583.449 181.618 583.331 182.006 583.075 182.344L582.847 182.087C583.322 181.951 583.754 181.956 584.145 182.103C584.54 182.255 584.872 182.516 585.142 182.884C585.378 183.206 585.516 183.551 585.556 183.919C585.601 184.293 585.547 184.655 585.397 185.004C585.246 185.353 585.001 185.652 584.662 185.901L581.644 188.114L580.929 187.139L583.68 185.122C583.916 184.949 584.083 184.761 584.18 184.556C584.288 184.354 584.33 184.146 584.307 183.933C584.294 183.722 584.215 183.519 584.072 183.323C583.929 183.128 583.756 182.989 583.555 182.907C583.359 182.821 583.146 182.796 582.916 182.832C582.686 182.868 582.456 182.97 582.226 183.139L579.475 185.156L578.767 184.19L581.518 182.173C581.753 182 581.92 181.811 582.018 181.607C582.126 181.404 582.168 181.197 582.144 180.984C582.131 180.773 582.051 180.567 581.903 180.365C581.76 180.17 581.587 180.031 581.386 179.949C581.19 179.863 580.977 179.838 580.747 179.874C580.521 179.916 580.293 180.021 580.063 180.189L577.313 182.206L576.598 181.232ZM583.316 190.638C583.086 190.321 582.938 190.001 582.873 189.679C582.817 189.358 582.839 189.061 582.939 188.786C583.046 188.507 583.234 188.269 583.506 188.073C583.76 187.889 584.028 187.779 584.31 187.742C584.595 187.712 584.893 187.765 585.203 187.901C585.513 188.038 585.826 188.264 586.143 188.581L587.59 190.016L586.818 190.573L585.527 189.316C585.293 189.09 585.071 188.96 584.862 188.926C584.659 188.888 584.465 188.936 584.28 189.07C584.101 189.2 584.002 189.373 583.982 189.589C583.973 189.807 584.045 190.023 584.2 190.237C584.392 190.502 584.617 190.692 584.874 190.805C585.136 190.923 585.402 190.968 585.672 190.94C585.948 190.908 586.204 190.806 586.441 190.635L587.645 189.764C587.876 189.597 588.002 189.375 588.021 189.097C588.05 188.821 587.962 188.541 587.757 188.258C587.569 187.998 587.335 187.82 587.054 187.724C586.784 187.629 586.508 187.613 586.227 187.675L586.046 186.566C586.339 186.486 586.644 186.481 586.959 186.552C587.28 186.619 587.584 186.747 587.87 186.936C588.16 187.131 588.412 187.375 588.625 187.67C588.893 188.04 589.059 188.416 589.125 188.8C589.195 189.189 589.163 189.551 589.027 189.887C588.901 190.224 588.677 190.509 588.353 190.743L585.199 193.024L584.522 192.088L585.372 191.474L585.49 191.692C585.22 191.72 584.953 191.698 584.689 191.625C584.429 191.558 584.182 191.441 583.948 191.276C583.719 191.117 583.508 190.904 583.316 190.638ZM608.273 226.651L614.929 222.274L615.575 223.257L613.754 228.038L613.431 227.547L618.513 227.724L619.16 228.707L612.503 233.084L611.816 232.039L617.23 228.478L617.382 228.942L612.3 228.688L612.229 228.58L614.044 223.867L614.38 224.145L608.966 227.706L608.273 226.651ZM614.354 236.167C614.118 235.802 613.991 235.429 613.974 235.049C613.964 234.666 614.054 234.301 614.247 233.956C614.449 233.612 614.745 233.314 615.134 233.063L618.131 231.121L618.788 232.135L615.88 234.018C615.659 234.162 615.494 234.333 615.384 234.531C615.275 234.729 615.225 234.94 615.234 235.164C615.248 235.383 615.324 235.598 615.459 235.807C615.599 236.023 615.769 236.18 615.969 236.28C616.17 236.379 616.386 236.418 616.617 236.395C616.853 236.378 617.087 236.294 617.321 236.143L620.184 234.289L620.835 235.294L615.98 238.439L615.357 237.479L616.309 236.863L616.253 237.052C615.88 237.132 615.528 237.093 615.195 236.934C614.863 236.775 614.583 236.52 614.354 236.167ZM616.747 239.623L623.54 235.222L624.197 236.236L617.404 240.637L616.747 239.623ZM618.991 243.355C618.78 243.025 618.651 242.697 618.605 242.371C618.568 242.048 618.607 241.752 618.723 241.484C618.845 241.211 619.048 240.985 619.33 240.805C619.595 240.636 619.868 240.542 620.152 240.522C620.439 240.508 620.733 240.578 621.034 240.732C621.336 240.887 621.635 241.131 621.933 241.465L623.294 242.982L622.492 243.494L621.276 242.164C621.055 241.924 620.841 241.782 620.635 241.736C620.434 241.686 620.237 241.723 620.045 241.846C619.859 241.965 619.749 242.131 619.717 242.346C619.695 242.563 619.755 242.783 619.897 243.006C620.073 243.282 620.287 243.484 620.537 243.612C620.792 243.745 621.055 243.806 621.326 243.794C621.603 243.778 621.865 243.691 622.111 243.534L623.364 242.734C623.605 242.581 623.743 242.366 623.778 242.09C623.823 241.816 623.751 241.532 623.564 241.237C623.391 240.967 623.167 240.775 622.893 240.663C622.628 240.553 622.354 240.521 622.07 240.566L621.953 239.449C622.251 239.385 622.555 239.398 622.866 239.488C623.183 239.573 623.478 239.719 623.753 239.924C624.032 240.135 624.269 240.394 624.464 240.701C624.71 241.085 624.854 241.471 624.898 241.857C624.945 242.25 624.892 242.61 624.737 242.937C624.592 243.266 624.351 243.538 624.014 243.753L620.733 245.846L620.112 244.873L620.995 244.309L621.1 244.534C620.829 244.546 620.564 244.508 620.305 244.42C620.049 244.338 619.81 244.207 619.586 244.029C619.366 243.856 619.168 243.632 618.991 243.355ZM621.492 247.038L626.374 243.935L627.022 244.955L622.14 248.058L621.492 247.038ZM627.042 243.511L628.216 242.765L628.864 243.785L627.69 244.531L627.042 243.511ZM625.213 253.16C624.917 252.69 624.763 252.197 624.75 251.683C624.748 251.17 624.871 250.684 625.121 250.224C625.374 249.77 625.742 249.39 626.224 249.087C626.707 248.783 627.21 248.618 627.733 248.592C628.255 248.566 628.744 248.667 629.199 248.894C629.654 249.122 630.028 249.468 630.32 249.932C630.567 250.324 630.707 250.721 630.74 251.121C630.773 251.521 630.706 251.897 630.539 252.246L630.207 252.241L633.175 250.372L633.813 251.385L626.963 255.698L626.353 254.73L627.348 254.103L627.232 254.341C626.831 254.358 626.452 254.259 626.098 254.044C625.744 253.829 625.449 253.534 625.213 253.16ZM626.226 252.662C626.405 252.945 626.633 253.155 626.913 253.291C627.196 253.433 627.498 253.491 627.819 253.466C628.15 253.443 628.469 253.334 628.777 253.141C629.085 252.947 629.317 252.708 629.475 252.423C629.637 252.145 629.715 251.847 629.709 251.53C629.707 251.22 629.617 250.923 629.439 250.639C629.26 250.356 629.029 250.143 628.746 250.001C628.463 249.859 628.161 249.801 627.84 249.826C627.519 249.851 627.204 249.961 626.897 250.154C626.589 250.348 626.351 250.586 626.184 250.869C626.022 251.147 625.942 251.442 625.944 251.752C625.95 252.069 626.044 252.372 626.226 252.662ZM628.52 258.431C628.312 258.099 628.187 257.769 628.143 257.444C628.109 257.12 628.152 256.825 628.271 256.557C628.396 256.286 628.6 256.062 628.885 255.885C629.151 255.719 629.426 255.627 629.709 255.61C629.996 255.599 630.29 255.672 630.589 255.829C630.889 255.987 631.186 256.234 631.481 256.572L632.826 258.102L632.019 258.606L630.816 257.264C630.598 257.022 630.386 256.877 630.179 256.829C629.979 256.777 629.782 256.812 629.589 256.933C629.401 257.05 629.29 257.215 629.256 257.43C629.232 257.647 629.289 257.867 629.429 258.091C629.603 258.369 629.814 258.573 630.063 258.704C630.316 258.84 630.578 258.903 630.85 258.894C631.127 258.88 631.39 258.796 631.638 258.641L632.899 257.855C633.141 257.704 633.281 257.491 633.319 257.215C633.367 256.941 633.298 256.656 633.113 256.36C632.944 256.088 632.722 255.894 632.448 255.779C632.185 255.666 631.911 255.631 631.627 255.674L631.521 254.555C631.82 254.495 632.124 254.511 632.434 254.604C632.749 254.692 633.044 254.841 633.316 255.049C633.593 255.263 633.827 255.524 634.019 255.833C634.261 256.22 634.401 256.607 634.441 256.994C634.485 257.387 634.427 257.746 634.269 258.071C634.121 258.399 633.877 258.669 633.538 258.88L630.236 260.94L629.624 259.96L630.514 259.406L630.617 259.631C630.345 259.641 630.08 259.6 629.822 259.509C629.568 259.424 629.329 259.292 629.107 259.111C628.889 258.936 628.693 258.709 628.52 258.431ZM630.983 262.139L635.893 259.079L636.504 260.06L635.515 260.676L635.603 260.495C635.992 260.404 636.331 260.436 636.621 260.591C636.917 260.743 637.171 260.988 637.382 261.327L637.568 261.626L636.634 262.209L636.368 261.782C636.157 261.443 635.879 261.234 635.536 261.154C635.202 261.077 634.841 261.159 634.454 261.4L631.622 263.165L630.983 262.139ZM633.028 265.43L637.961 262.408L638.592 263.438L633.659 266.46L633.028 265.43ZM638.635 261.994L639.821 261.268L640.452 262.298L639.267 263.025L638.635 261.994ZM635.435 269.359L642.228 265.197L642.887 266.273L639.204 268.53L639.14 268.18L644.597 269.063L645.418 270.404L640.571 269.636L641.37 269.222L638.692 274.675L637.916 273.408L639.807 269.515L638.055 269.234L636.094 270.435L635.435 269.359ZM639.852 276.837C639.649 276.502 639.528 276.171 639.488 275.845C639.459 275.521 639.505 275.226 639.628 274.96C639.756 274.691 639.964 274.469 640.25 274.295C640.518 274.133 640.794 274.045 641.078 274.031C641.365 274.024 641.658 274.101 641.956 274.262C642.253 274.424 642.547 274.675 642.837 275.016L644.162 276.564L643.348 277.057L642.163 275.699C641.948 275.455 641.738 275.307 641.532 275.256C641.333 275.202 641.136 275.234 640.94 275.352C640.751 275.467 640.638 275.631 640.601 275.845C640.574 276.062 640.629 276.283 640.766 276.509C640.936 276.789 641.144 276.996 641.392 277.129C641.643 277.269 641.904 277.336 642.176 277.33C642.453 277.32 642.717 277.239 642.967 277.088L644.238 276.318C644.482 276.17 644.625 275.958 644.667 275.683C644.718 275.41 644.653 275.124 644.472 274.826C644.306 274.551 644.087 274.355 643.815 274.236C643.553 274.12 643.279 274.081 642.995 274.12L642.904 273C643.203 272.944 643.507 272.964 643.815 273.061C644.13 273.153 644.422 273.306 644.692 273.517C644.966 273.735 645.197 273.999 645.385 274.31C645.622 274.7 645.757 275.089 645.792 275.477C645.83 275.87 645.768 276.229 645.606 276.552C645.453 276.878 645.206 277.144 644.864 277.351L641.535 279.368L640.937 278.38L641.833 277.837L641.933 278.064C641.662 278.07 641.398 278.026 641.14 277.932C640.887 277.844 640.65 277.708 640.431 277.524C640.215 277.347 640.022 277.118 639.852 276.837ZM642.266 280.577L647.222 277.593L647.817 278.582L646.746 279.227L646.833 279C647.232 278.901 647.599 278.938 647.936 279.11C648.272 279.282 648.547 279.545 648.76 279.899C648.999 280.296 649.104 280.711 649.074 281.146C649.054 281.582 648.901 281.957 648.616 282.27L648.412 281.994C648.897 281.901 649.327 281.946 649.703 282.127C650.082 282.315 650.39 282.604 650.625 282.995C650.831 283.337 650.937 283.693 650.944 284.064C650.955 284.44 650.869 284.796 650.687 285.13C650.506 285.464 650.235 285.739 649.874 285.956L646.668 287.887L646.045 286.852L648.967 285.092C649.217 284.941 649.401 284.769 649.516 284.574C649.642 284.382 649.703 284.179 649.699 283.965C649.705 283.754 649.645 283.544 649.52 283.336C649.395 283.129 649.236 282.975 649.042 282.875C648.855 282.771 648.645 282.727 648.413 282.742C648.181 282.757 647.942 282.838 647.698 282.985L644.776 284.745L644.158 283.719L647.08 281.959C647.331 281.809 647.514 281.636 647.63 281.441C647.755 281.249 647.816 281.046 647.812 280.832C647.818 280.621 647.756 280.408 647.627 280.194C647.502 279.987 647.343 279.833 647.15 279.733C646.963 279.629 646.753 279.585 646.521 279.6C646.292 279.621 646.056 279.705 645.811 279.853L642.889 281.612L642.266 280.577ZM648.274 290.838C648.052 290.464 647.94 290.087 647.938 289.707C647.943 289.323 648.048 288.962 648.254 288.625C648.47 288.289 648.777 288.004 649.175 287.767L652.247 285.945L652.864 286.985L649.884 288.752C649.657 288.887 649.485 289.051 649.368 289.245C649.251 289.438 649.192 289.647 649.192 289.871C649.198 290.091 649.265 290.308 649.392 290.523C649.523 290.744 649.687 290.908 649.883 291.015C650.079 291.123 650.294 291.17 650.526 291.156C650.762 291.149 651 291.074 651.239 290.932L654.173 289.192L654.784 290.222L649.808 293.173L649.224 292.189L650.199 291.611L650.136 291.798C649.76 291.863 649.41 291.81 649.084 291.638C648.758 291.467 648.488 291.2 648.274 290.838Z" fill="white"/>
<rect x="276.023" y="85.7853" width="16.804" height="16.804" transform="rotate(9.09468 276.023 85.7853)" stroke="#F0531C" stroke-width="0.305527"/>
<path d="M277.949 94.8029L281.338 96.3573C281.378 96.3763 281.413 96.4052 281.439 96.4414C281.466 96.4775 281.482 96.5197 281.488 96.564L281.906 100.269C281.913 100.325 281.938 100.378 281.977 100.419C282.017 100.46 282.068 100.486 282.124 100.495C282.18 100.504 282.237 100.495 282.287 100.468C282.337 100.442 282.377 100.4 282.401 100.348L283.956 96.9591C283.975 96.9187 284.004 96.8838 284.04 96.8576C284.076 96.8315 284.118 96.8149 284.163 96.8094L287.868 96.3907C287.924 96.3839 287.976 96.359 288.017 96.3198C288.058 96.2805 288.085 96.229 288.094 96.1731C288.103 96.1171 288.093 96.0598 288.067 96.0098C288.04 95.9597 287.998 95.9197 287.947 95.8957L284.558 94.3413C284.517 94.3223 284.482 94.2934 284.456 94.2572C284.43 94.2211 284.413 94.1789 284.408 94.1346L283.989 90.4295C283.982 90.3732 283.958 90.3207 283.918 90.2799C283.879 90.2391 283.828 90.2121 283.772 90.2032C283.716 90.1942 283.658 90.2037 283.608 90.2303C283.558 90.2568 283.518 90.2989 283.494 90.3502L281.94 93.7395C281.921 93.7799 281.892 93.8148 281.856 93.8409C281.82 93.8671 281.777 93.8837 281.733 93.8891L278.028 94.3079C277.972 94.3147 277.919 94.3396 277.878 94.3788C277.838 94.4181 277.811 94.4696 277.802 94.5255C277.793 94.5814 277.802 94.6388 277.829 94.6888C277.855 94.7389 277.897 94.7789 277.949 94.8029Z" fill="white" stroke="white" stroke-width="0.143216" stroke-linecap="round" stroke-linejoin="round"/>
<rect x="439.047" y="55.2329" width="16.804" height="16.804" transform="rotate(9.09468 439.047 55.2329)" stroke="#F0531C" stroke-width="0.305527"/>
</svg>
