<svg width="26" height="26" viewBox="0 0 26 26" fill="none" xmlns="http://www.w3.org/2000/svg">
<path d="M18.9653 15.028C19.1883 14.1562 19.6882 13.3804 20.3899 12.8171C21.6628 11.768 22.3244 10.3822 22.3749 8.65964C22.3244 7.13601 21.7999 5.86241 20.8012 4.83885C19.7783 3.83943 18.5051 3.31486 16.9814 3.26514C15.2582 3.31486 13.872 3.97652 12.8229 5.25012C12.2241 5.97464 11.4875 6.44913 10.6131 6.67359C9.61436 6.87319 8.66538 7.18573 7.76612 7.61121C6.86685 8.03527 6.10539 8.5467 5.48174 9.1455C3.9581 10.7451 3.19629 12.5809 3.19629 14.6529C3.19629 16.7264 3.9581 18.5618 5.48174 20.1593C7.07995 21.6822 8.91541 22.4437 10.9881 22.4437C13.0601 22.4437 14.8952 21.6819 16.4934 20.1583C17.0929 19.5346 17.6175 18.7731 18.0671 17.8739C18.4912 16.9746 18.791 16.0381 18.9664 15.0642V15.0269L18.9653 15.028Z" stroke="#09332C" stroke-width="2.21619" stroke-linecap="round" stroke-linejoin="round"/>
<path d="M11.582 10.7616C10.5783 10.881 9.67056 11.3349 8.85867 12.1233C8.07021 12.9352 7.61632 13.843 7.49699 14.8467C7.3535 15.8269 7.61632 16.663 8.28544 17.3548C8.978 18.0239 9.81404 18.2867 10.7936 18.1433C11.7973 18.0239 12.705 17.57 13.5169 16.7816C14.3054 15.9697 14.7593 15.0619 14.8786 14.0582C15.0221 13.078 14.7593 12.2419 14.0902 11.5501C13.3976 10.881 12.5616 10.6182 11.582 10.7616Z" stroke="#09332C" stroke-width="2.21619" stroke-linecap="round" stroke-linejoin="round"/>
</svg>
