<svg width="135" height="150" viewBox="0 0 77 78" fill="none" xmlns="http://www.w3.org/2000/svg">
<path d="M0.941579 62.067C1.32151 62.3809 1.71797 62.6287 2.13094 62.8104C2.56043 62.9921 3.07252 63.0829 3.6672 63.0829C4.67486 63.0829 5.17868 62.7608 5.17868 62.1166C5.17868 61.8357 5.02175 61.6127 4.70789 61.4475C4.41055 61.2824 4.03888 61.1254 3.59287 60.9768C3.16337 60.8281 2.72562 60.6464 2.27961 60.4316C1.8336 60.2169 1.45367 59.9361 1.13981 59.5892C0.842465 59.2258 0.693795 58.7384 0.693795 58.1272C0.693795 57.45 0.858984 56.9048 1.18936 56.4919C1.53626 56.0624 1.98227 55.7485 2.5274 55.5503C3.08904 55.3521 3.68372 55.253 4.31144 55.253C5.08783 55.253 5.73207 55.3768 6.24415 55.6246C6.67365 55.8063 6.95447 56.0293 7.08662 56.2936C7.21877 56.5414 7.21877 56.8966 7.08662 57.3591L7.01228 57.6317C6.96273 57.7638 6.89665 57.8299 6.81406 57.8299C6.7645 57.8299 6.7232 57.8216 6.69016 57.8051C6.65713 57.7721 6.60757 57.7473 6.54149 57.7308C5.7651 57.3509 5.00523 57.1609 4.26188 57.1609C3.9315 57.1609 3.65068 57.227 3.41942 57.3591C3.18815 57.4913 3.07252 57.6978 3.07252 57.9786C3.07252 58.2594 3.22119 58.4907 3.51853 58.6724C3.83239 58.8376 4.20407 58.9945 4.63356 59.1432C5.07957 59.2918 5.52558 59.4735 5.97159 59.6883C6.4176 59.903 6.78928 60.1839 7.08662 60.5307C7.40048 60.8776 7.55741 61.3402 7.55741 61.9183C7.55741 62.8434 7.22703 63.595 6.56627 64.1732C5.90551 64.7348 5.03001 65.0156 3.93976 65.0156C3.24597 65.0156 2.63477 64.9 2.10616 64.6687C1.59408 64.421 1.18936 64.0988 0.892022 63.7024C0.594681 63.3059 0.446011 62.893 0.446011 62.4635C0.446011 62.1331 0.545124 61.9679 0.743352 61.9679C0.809427 61.9679 0.875503 62.0009 0.941579 62.067ZM11.23 60.952C11.3126 61.6127 11.6017 62.1166 12.0973 62.4635C12.5928 62.8104 13.2206 62.9838 13.9804 62.9838C14.6081 62.9838 15.1285 62.9177 15.5415 62.7856C15.9544 62.6534 16.3674 62.4717 16.7804 62.2405C16.9291 62.1413 17.0612 62.0918 17.1768 62.0918C17.3585 62.0918 17.4494 62.2074 17.4494 62.4387C17.4494 62.7856 17.3173 63.1573 17.0529 63.5537C16.8052 63.9502 16.4087 64.2971 15.8636 64.5944C15.3185 64.8752 14.5916 65.0156 13.6831 65.0156C12.7911 65.0156 11.9734 64.8339 11.23 64.4705C10.5032 64.0906 9.92503 63.5372 9.49554 62.8104C9.06605 62.067 8.8513 61.1585 8.8513 60.0847C8.8513 59.1432 9.03301 58.309 9.39643 57.5821C9.77636 56.8553 10.305 56.2854 10.9822 55.8724C11.676 55.4594 12.4855 55.253 13.4105 55.253C14.4017 55.253 15.2028 55.4594 15.814 55.8724C16.4417 56.2689 16.896 56.7892 17.1768 57.4335C17.4742 58.0777 17.6229 58.7632 17.6229 59.4901C17.6229 59.7378 17.6146 59.9608 17.5981 60.1591C17.5981 60.3408 17.5898 60.4977 17.5733 60.6299C17.5568 60.8446 17.4164 60.952 17.1521 60.952H11.23ZM11.23 59.2423H15.2441C15.2772 58.9615 15.2441 58.6724 15.145 58.375C15.0624 58.0612 14.8807 57.7969 14.5999 57.5821C14.3191 57.3674 13.9226 57.26 13.4105 57.26C12.7828 57.26 12.279 57.4417 11.899 57.8051C11.5356 58.152 11.3126 58.6311 11.23 59.2423ZM21.884 56.4423C22.1648 56.0624 22.5282 55.765 22.9742 55.5503C23.4202 55.319 23.9488 55.2034 24.56 55.2034C25.6833 55.2034 26.5836 55.5586 27.2609 56.2689C27.9547 56.9627 28.3016 57.9868 28.3016 59.3414V64.4953C28.3016 64.677 28.2107 64.7679 28.029 64.7679H26.1954C26.0137 64.7679 25.9228 64.677 25.9228 64.4953V59.6387C25.9228 58.8293 25.7329 58.2594 25.3529 57.929C24.973 57.5821 24.5022 57.4087 23.9406 57.4087C23.3459 57.4087 22.8503 57.5821 22.4539 57.929C22.0739 58.2759 21.884 58.8706 21.884 59.7131V64.4953C21.884 64.677 21.8014 64.7679 21.6362 64.7679H19.8274C19.6456 64.7679 19.5548 64.677 19.5548 64.4953V51.2884C19.5548 51.0902 19.6456 50.9911 19.8274 50.9911H19.9512C20.579 50.9911 21.058 51.1563 21.3884 51.4866C21.7188 51.8005 21.884 52.3291 21.884 53.0725V56.4423ZM37.3788 63.6033C37.0484 64.0493 36.6272 64.3962 36.1151 64.644C35.603 64.8752 35.0579 64.9909 34.4797 64.9909C33.5546 64.9909 32.77 64.7679 32.1258 64.3218C31.498 63.8758 31.019 63.2811 30.6886 62.5378C30.3747 61.7944 30.2178 60.9768 30.2178 60.0847C30.2178 59.1597 30.3913 58.3337 30.7382 57.6069C31.0851 56.8635 31.5806 56.2771 32.2249 55.8476C32.8856 55.4181 33.6538 55.2034 34.5293 55.2034C35.2561 55.2034 35.8673 55.3355 36.3629 55.5999C36.8749 55.8642 37.2797 56.178 37.577 56.5414C37.7091 56.1615 37.9239 55.8889 38.2212 55.7237C38.5351 55.542 38.9068 55.4512 39.3363 55.4512H39.4602C39.6419 55.4512 39.7327 55.5503 39.7327 55.7485V64.4953C39.7327 64.677 39.6419 64.7679 39.4602 64.7679H37.6266C37.4614 64.7679 37.3788 64.677 37.3788 64.4953V63.6033ZM35 62.7608C35.3139 62.7608 35.6525 62.6947 36.016 62.5626C36.3959 62.4139 36.718 62.1496 36.9823 61.7697C37.2466 61.3897 37.3788 60.8281 37.3788 60.0847C37.3788 59.3414 37.2466 58.788 36.9823 58.4246C36.718 58.0447 36.4042 57.7969 36.0407 57.6812C35.6773 57.5491 35.3387 57.483 35.0248 57.483C34.6944 57.483 34.3393 57.5573 33.9594 57.706C33.5959 57.8547 33.2821 58.119 33.0178 58.4989C32.77 58.8789 32.6461 59.4075 32.6461 60.0847C32.6461 60.7951 32.7783 61.3484 33.0426 61.7449C33.3234 62.1248 33.6455 62.3891 34.0089 62.5378C34.3723 62.6865 34.7027 62.7608 35 62.7608ZM43.1246 57.6069H41.4893C41.3076 57.6069 41.2167 57.5078 41.2167 57.3096V55.7485C41.2167 55.5503 41.3076 55.4512 41.4893 55.4512H43.1246V52.453C43.1246 52.2713 43.2072 52.1804 43.3724 52.1804H43.4963C44.1406 52.1804 44.6279 52.3456 44.9582 52.676C45.3051 53.0064 45.4786 53.535 45.4786 54.2618V55.4512H47.4856C47.6343 55.4512 47.7086 55.5503 47.7086 55.7485V57.3096C47.7086 57.5078 47.6343 57.6069 47.4856 57.6069H45.4786V64.4953C45.4786 64.677 45.396 64.7679 45.2308 64.7679H43.3724C43.2072 64.7679 43.1246 64.677 43.1246 64.4953V57.6069ZM51.2529 60.952C51.3355 61.6127 51.6246 62.1166 52.1202 62.4635C52.6157 62.8104 53.2435 62.9838 54.0033 62.9838C54.631 62.9838 55.1514 62.9177 55.5644 62.7856C55.9773 62.6534 56.3903 62.4717 56.8033 62.2405C56.952 62.1413 57.0841 62.0918 57.1997 62.0918C57.3814 62.0918 57.4723 62.2074 57.4723 62.4387C57.4723 62.7856 57.3401 63.1573 57.0758 63.5537C56.8281 63.9502 56.4316 64.2971 55.8865 64.5944C55.3414 64.8752 54.6145 65.0156 53.706 65.0156C52.814 65.0156 51.9963 64.8339 51.2529 64.4705C50.5261 64.0906 49.9479 63.5372 49.5184 62.8104C49.0889 62.067 48.8742 61.1585 48.8742 60.0847C48.8742 59.1432 49.0559 58.309 49.4193 57.5821C49.7993 56.8553 50.3279 56.2854 51.0051 55.8724C51.6989 55.4594 52.5084 55.253 53.4334 55.253C54.4246 55.253 55.2257 55.4594 55.8369 55.8724C56.4646 56.2689 56.9189 56.7892 57.1997 57.4335C57.4971 58.0777 57.6457 58.7632 57.6457 59.4901C57.6457 59.7378 57.6375 59.9608 57.621 60.1591C57.621 60.3408 57.6127 60.4977 57.5962 60.6299C57.5797 60.8446 57.4393 60.952 57.175 60.952H51.2529ZM51.2529 59.2423H55.267C55.3001 58.9615 55.267 58.6724 55.1679 58.375C55.0853 58.0612 54.9036 57.7969 54.6228 57.5821C54.342 57.3674 53.9455 57.26 53.4334 57.26C52.8057 57.26 52.3019 57.4417 51.9219 57.8051C51.5585 58.152 51.3355 58.6311 51.2529 59.2423ZM61.8325 56.814C62.1133 56.2854 62.452 55.9302 62.8484 55.7485C63.2449 55.5503 63.7818 55.4512 64.459 55.4512H64.7316C64.8968 55.4512 64.9794 55.5503 64.9794 55.7485V57.4335C64.9794 57.6317 64.8968 57.7308 64.7316 57.7308H64.0874C63.1788 57.7308 62.5841 57.9621 62.3033 58.4246C62.039 58.8706 61.9069 59.5314 61.9069 60.4069V64.4953C61.9069 64.677 61.8243 64.7679 61.6591 64.7679H59.8007C59.652 64.7679 59.5777 64.677 59.5777 64.4953V55.7485C59.5777 55.5503 59.652 55.4512 59.8007 55.4512H59.9246C60.9983 55.4512 61.6343 55.9055 61.8325 56.814ZM73.3607 63.6033C73.0303 64.0493 72.6091 64.3962 72.097 64.644C71.5849 64.8752 71.0398 64.9909 70.4616 64.9909C69.5365 64.9909 68.7519 64.7679 68.1076 64.3218C67.4799 63.8758 67.0009 63.2811 66.6705 62.5378C66.3566 61.7944 66.1997 60.9768 66.1997 60.0847C66.1997 59.1597 66.3732 58.3337 66.7201 57.6069C67.067 56.8635 67.5625 56.2771 68.2068 55.8476C68.8675 55.4181 69.6356 55.2034 70.5112 55.2034C71.238 55.2034 71.8492 55.3355 72.3448 55.5999C72.8568 55.8642 73.2616 56.178 73.5589 56.5414C73.691 56.1615 73.9058 55.8889 74.2031 55.7237C74.517 55.542 74.8887 55.4512 75.3182 55.4512H75.4421C75.6238 55.4512 75.7146 55.5503 75.7146 55.7485V64.4953C75.7146 64.677 75.6238 64.7679 75.4421 64.7679H73.6085C73.4433 64.7679 73.3607 64.677 73.3607 64.4953V63.6033ZM70.9819 62.7608C71.2958 62.7608 71.6344 62.6947 71.9979 62.5626C72.3778 62.4139 72.6999 62.1496 72.9642 61.7697C73.2285 61.3897 73.3607 60.8281 73.3607 60.0847C73.3607 59.3414 73.2285 58.788 72.9642 58.4246C72.6999 58.0447 72.3861 57.7969 72.0226 57.6812C71.6592 57.5491 71.3206 57.483 71.0067 57.483C70.6763 57.483 70.3212 57.5573 69.9412 57.706C69.5778 57.8547 69.264 58.119 68.9997 58.4989C68.7519 58.8789 68.628 59.4075 68.628 60.0847C68.628 60.7951 68.7601 61.3484 69.0244 61.7449C69.3053 62.1248 69.6274 62.3891 69.9908 62.5378C70.3542 62.6865 70.6846 62.7608 70.9819 62.7608Z" fill="#09312A"/>
<g clip-path="url(#clip0_137_2)">
<rect x="18.106" width="41.2973" height="40.7679" rx="20.3839" fill="#105D50"/>
<circle cx="38.7547" cy="31.3859" r="20.2357" fill="#0B4239"/>
<circle cx="38.7545" cy="40.4713" r="17.7578" fill="#09312A"/>
<path d="M33.4511 36.9229C32.5085 35.6055 32.5085 34.0837 32.5085 32.5733C34.4051 33.709 36.2903 34.8446 37.2443 36.1734L37.619 36.8094V34.22C35.9155 33.1979 34.3029 32.1531 33.4511 30.9606C32.5085 29.6432 32.5085 28.1214 32.5085 26.611C34.4051 27.7467 36.2903 28.8823 37.2443 30.2111L37.619 30.8698V28.2577C35.9155 27.2356 34.3029 26.1908 33.4511 24.9983C32.5085 23.6809 32.5085 22.1591 32.5085 20.6487C34.4051 21.7844 36.2903 22.92 37.2443 24.2488C37.3578 24.4078 37.46 24.5781 37.5509 24.7598C37.3578 24.0557 37.2329 23.397 37.2215 22.7156C37.2102 21.0007 37.9597 19.2404 38.7093 17.4801C39.4929 19.1609 40.2765 20.8531 40.2879 22.568C40.2992 23.2835 40.1743 24.0103 39.9699 24.7258C40.0607 24.5668 40.1516 24.4078 40.2652 24.2488C41.2191 22.92 43.1043 21.7844 45.0009 20.6487C45.0009 22.1591 45.0009 23.6809 44.0583 24.9983C43.2066 26.1908 41.5939 27.2356 39.8904 28.2577V30.8698L40.2652 30.2111C41.2191 28.8823 43.1043 27.7467 45.0009 26.611C45.0009 28.1214 45.0009 29.6432 44.0583 30.9606C43.2066 32.1531 41.5939 33.1979 39.8904 34.22V36.8094L40.2652 36.1734C41.2191 34.8446 43.1043 33.709 45.0009 32.5733C45.0009 34.0837 45.0009 35.6055 44.0583 36.9229C43.2066 38.1154 41.5939 39.1602 39.8904 40.1823V42.2265H37.619V40.1823C35.9155 39.1602 34.3029 38.1154 33.4511 36.9229Z" fill="#FFFCF8"/>
</g>
<defs>
<clipPath id="clip0_137_2">
<rect x="18.106" width="41.2973" height="40.7679" rx="20.3839" fill="white"/>
</clipPath>
</defs>
</svg>
