<svg width="16" height="16" viewBox="0 0 16 16" fill="none" xmlns="http://www.w3.org/2000/svg">
<path fill-rule="evenodd" clip-rule="evenodd" d="M10.8191 7.92367C10.8191 7.80148 10.7706 7.68429 10.6842 7.59789C10.5978 7.51149 10.4806 7.46295 10.3584 7.46295H3.61784L4.82245 6.43095C4.86843 6.39159 4.90621 6.34355 4.93362 6.28958C4.96104 6.23562 4.97756 6.17678 4.98224 6.11643C4.98691 6.05608 4.97966 5.9954 4.96089 5.93785C4.94211 5.88031 4.91219 5.82702 4.87282 5.78104C4.83345 5.73506 4.78542 5.69728 4.73145 5.66986C4.67748 5.64245 4.61865 5.62593 4.5583 5.62125C4.49795 5.61657 4.43727 5.62383 4.37972 5.6426C4.32217 5.66138 4.26889 5.6913 4.22291 5.73067L2.07291 7.57352C2.02233 7.61678 1.98172 7.67047 1.95388 7.73092C1.92604 7.79136 1.91162 7.85712 1.91162 7.92367C1.91162 7.99022 1.92604 8.05597 1.95388 8.11642C1.98172 8.17686 2.02233 8.23056 2.07291 8.27381L4.22291 10.1167C4.31577 10.1962 4.43641 10.2355 4.5583 10.2261C4.68018 10.2166 4.79332 10.1592 4.87282 10.0663C4.95233 9.97343 4.99168 9.85279 4.98224 9.73091C4.97279 9.60902 4.91531 9.49589 4.82245 9.41638L3.61845 8.38438H10.3584C10.4806 8.38438 10.5978 8.33584 10.6842 8.24944C10.7706 8.16304 10.8191 8.04586 10.8191 7.92367Z" fill="white"/>
<path d="M6.67334 5.4666C6.67334 5.89783 6.67334 6.11344 6.77715 6.26885C6.82187 6.33568 6.87926 6.39307 6.94608 6.43778C7.1015 6.5416 7.31711 6.5416 7.74834 6.5416H10.3591C10.7256 6.5416 11.0772 6.68722 11.3364 6.94642C11.5956 7.20562 11.7412 7.55717 11.7412 7.92374C11.7412 8.29031 11.5956 8.64186 11.3364 8.90106C11.0772 9.16026 10.7256 9.30588 10.3591 9.30588H7.74834C7.31711 9.30588 7.1015 9.30588 6.94608 9.40908C6.8792 9.45398 6.8218 9.51158 6.77715 9.57863C6.67334 9.73404 6.67334 9.94965 6.67334 10.3809C6.67334 12.1181 6.67334 12.9873 7.2133 13.5266C7.75264 14.0666 8.62124 14.0666 10.3584 14.0666H10.9727C12.7112 14.0666 13.5791 14.0666 14.1191 13.5266C14.6591 12.9873 14.6591 12.1181 14.6591 10.3809V5.4666C14.6591 3.7294 14.6591 2.86018 14.1191 2.32084C13.5791 1.7815 12.7105 1.78088 10.9733 1.78088H10.3591C8.62124 1.78088 7.75264 1.78088 7.2133 2.32084C6.67334 2.86018 6.67334 3.7294 6.67334 5.4666Z" fill="white"/>
</svg>
