<svg width="48" height="48" viewBox="0 0 48 48" fill="none" xmlns="http://www.w3.org/2000/svg">
<g clip-path="url(#clip0_236_30)">
<rect width="47.9754" height="47.3603" rx="23.6801" fill="#105D50"/>
<circle cx="23.9877" cy="36.4613" r="23.5079" fill="#0B4239"/>
<circle cx="23.9876" cy="47.0158" r="20.6294" fill="#09312A"/>
<path d="M17.8265 42.8937C16.7315 41.3633 16.7315 39.5954 16.7315 37.8407C18.9348 39.16 21.1248 40.4793 22.2331 42.0229L22.6685 42.7618V39.7537C20.6895 38.5663 18.816 37.3525 17.8265 35.9672C16.7315 34.4368 16.7315 32.6689 16.7315 30.9142C18.9348 32.2336 21.1248 33.5529 22.2331 35.0965L22.6685 35.8617V32.8273C20.6895 31.6399 18.816 30.4261 17.8265 29.0408C16.7315 27.5104 16.7315 25.7425 16.7315 23.9878C18.9348 25.3071 21.1248 26.6264 22.2331 28.17C22.365 28.3548 22.4838 28.5526 22.5893 28.7637C22.365 27.9458 22.2199 27.1806 22.2067 26.389C22.1935 24.3968 23.0643 22.3518 23.935 20.3069C24.8453 22.2595 25.7557 24.2253 25.7689 26.2174C25.7821 27.0486 25.6369 27.893 25.3995 28.7242C25.505 28.5395 25.6105 28.3548 25.7425 28.17C26.8507 26.6264 29.0408 25.3071 31.2441 23.9878C31.2441 25.7425 31.2441 27.5104 30.149 29.0408C29.1595 30.4261 27.2861 31.6399 25.3071 32.8273V35.8617L25.7425 35.0965C26.8507 33.5529 29.0408 32.2336 31.2441 30.9142C31.2441 32.6689 31.2441 34.4368 30.149 35.9672C29.1595 37.3525 27.2861 38.5663 25.3071 39.7537V42.7618L25.7425 42.0229C26.8507 40.4793 29.0408 39.16 31.2441 37.8407C31.2441 39.5954 31.2441 41.3633 30.149 42.8937C29.1595 44.279 27.2861 45.4928 25.3071 46.6801V49.0549H22.6685V46.6801C20.6895 45.4928 18.816 44.279 17.8265 42.8937Z" fill="#FFFCF8"/>
</g>
<defs>
<clipPath id="clip0_236_30">
<rect width="47.9754" height="47.3603" rx="23.6801" fill="white"/>
</clipPath>
</defs>
</svg>
