<svg width="30" height="30" viewBox="0 0 30 30" fill="none" xmlns="http://www.w3.org/2000/svg">
<path d="M11.872 7.24129C13.647 4.86129 16.3158 4.16629 18.7708 4.83504C21.4208 5.55629 23.7508 7.83254 24.5245 11.0025C24.5645 11.165 24.5991 11.3275 24.6283 11.49C23.5113 11.092 22.2964 11.0614 21.1608 11.4025C19.552 10.2125 17.5595 10.0125 15.7883 10.665C13.5695 11.4838 11.837 13.56 11.4358 16.1725C10.9233 19.5175 12.9608 22.5225 15.842 25.0775L16.327 25.4975C15.9358 25.525 15.5383 25.4638 15.1583 25.3825C14.963 25.3405 14.7688 25.2939 14.5758 25.2425L13.9045 25.055C7.93702 23.3763 3.94202 20.75 2.79577 16.825C1.88077 13.6925 2.76077 10.5563 4.69577 8.60629C6.48827 6.80004 9.14577 6.06754 11.872 7.24129ZM13.907 16.5513C14.442 13.0613 18.4783 11.3413 20.5508 14.3363C20.5706 14.3641 20.6007 14.383 20.6344 14.3889C20.668 14.3947 20.7027 14.3871 20.7308 14.3675C23.702 12.2625 26.9058 15.2588 26.2145 18.7213C25.8145 20.7296 23.952 22.3963 20.627 23.7213L20.0833 23.9338L19.7545 24.0688C19.4708 24.18 19.1708 24.2688 18.8995 24.2213C18.6295 24.1738 18.3783 23.9863 18.1495 23.7863L17.762 23.4363C14.8703 20.948 13.5854 18.653 13.907 16.5513Z" fill="#09332C"/>
</svg>
