<svg width="32" height="32" viewBox="0 0 32 32" fill="none" xmlns="http://www.w3.org/2000/svg">
<path fill-rule="evenodd" clip-rule="evenodd" d="M13.7101 6.92093C13.5788 6.42601 13.4028 5.94403 13.1843 5.48093C11.5866 2.08893 8.07805 0.388361 5.34434 1.6775C2.61062 2.96665 1.68719 6.75636 3.28719 10.1438C3.51119 10.6192 3.77024 11.0596 4.06434 11.4649C2.83234 12.5392 2.08262 14.2535 2.17176 16.1598C2.25405 16.1552 2.33786 16.1529 2.42319 16.1529H11.3603C10.779 14.2347 9.79744 12.4616 8.48034 10.9506C8.23422 10.6624 8.11268 10.2882 8.14247 9.91032C8.17227 9.53246 8.35094 9.18191 8.63919 8.93579C8.92745 8.68967 9.30166 8.56814 9.67952 8.59793C10.0574 8.62772 10.4079 8.8064 10.6541 9.09465C12.2492 10.9358 13.4336 13.0958 14.1283 15.4306C14.3917 14.0206 14.9722 12.6889 15.826 11.5362C16.6797 10.3835 17.7843 9.43996 19.0563 8.77693C17.5615 7.15408 15.3283 6.65122 13.7101 6.92093ZM23.5135 10.6306C27.2758 10.6306 29.4975 12.6101 29.7695 16.1598L29.5775 16.1552H17.2575C17.5295 12.6078 19.7512 10.6306 23.5135 10.6306ZM0.327192 20.6169C-1.01681 27.1632 3.54319 30.7541 16.0003 30.7541C28.4575 30.7541 33.0175 27.1655 31.6712 20.6238C31.4701 19.6524 30.5695 19.0147 29.5798 19.0147H2.42319C1.43119 19.0147 0.530621 19.6524 0.329478 20.6238" fill="#F0531C"/>
</svg>
