<svg width="48" height="48" viewBox="0 0 48 48" fill="none" xmlns="http://www.w3.org/2000/svg">
<g clip-path="url(#clip0_739_633)">
<path d="M24.1805 1.3595C11.3336 1.3595 0.924805 11.443 0.924805 23.8885C0.924805 36.3339 11.3336 46.4174 24.1805 46.4174C37.0274 46.4174 47.4362 36.3339 47.4362 23.8885C47.4362 11.443 37.0274 1.3595 24.1805 1.3595ZM24.1805 42.057C13.8374 42.057 5.42591 33.9084 5.42591 23.8885C5.42591 13.8685 13.8374 5.71994 24.1805 5.71994C34.5237 5.71994 42.9351 13.8685 42.9351 23.8885C42.9351 33.9084 34.5237 42.057 24.1805 42.057ZM24.1805 28.9757C21.0297 28.9757 18.0665 30.3201 16.041 32.6639C15.2439 33.5905 15.3752 34.9622 16.3317 35.7343C17.2882 36.5065 18.7042 36.3884 19.5012 35.4618C21.8268 32.7638 26.5342 32.7638 28.8598 35.4618C29.6194 36.343 31.0353 36.5429 32.0293 35.7343C32.9858 34.9622 33.1077 33.5905 32.32 32.6639C30.2945 30.3201 27.3313 28.9757 24.1805 28.9757ZM19.6794 22.435C20.6453 22.435 21.5455 21.8263 21.8362 20.8816C22.1925 19.7279 21.5174 18.5106 20.3264 18.1654L12.8246 15.9852C11.6243 15.6309 10.3771 16.294 10.0208 17.4477C9.66445 18.6014 10.3396 19.8187 11.5305 20.1639L14.1749 20.9361C13.8842 21.3812 13.6779 21.8808 13.6779 22.4441C13.6779 24.052 15.0189 25.351 16.6787 25.351C18.3385 25.351 19.6794 24.0429 19.6794 22.435ZM38.3402 17.4477C37.9839 16.294 36.7367 15.64 35.5364 15.9852L28.0346 18.1654C26.8437 18.5106 26.1685 19.7279 26.5248 20.8816C26.8155 21.8263 27.7158 22.435 28.6816 22.435C28.6816 24.0429 30.0226 25.342 31.6824 25.342C33.3421 25.342 34.6831 24.0429 34.6831 22.435C34.6831 21.8718 34.4768 21.3721 34.1861 20.927L36.8305 20.1548C38.0214 19.8187 38.6966 18.6014 38.3402 17.4477Z" fill="#09332C"/>
</g>
<defs>
<clipPath id="clip0_739_633">
<rect width="46.5114" height="46.5114" fill="white" transform="translate(0.924805 0.63269)"/>
</clipPath>
</defs>
</svg>
