<svg width="39" height="39" viewBox="0 0 39 39" fill="none" xmlns="http://www.w3.org/2000/svg">
<path d="M33.4263 5.55747C32.694 4.82156 31.8227 4.23859 30.863 3.84245C29.9034 3.44632 28.8745 3.24492 27.8363 3.24997H11.1963C9.1031 3.25426 7.09683 4.0877 5.6167 5.56784C4.13656 7.04798 3.30312 9.05424 3.29883 11.1475V27.8362C3.3031 29.931 4.13602 31.9389 5.6157 33.4216C7.09537 34.9044 9.10161 35.7414 11.1963 35.75H21.5151C22.1163 35.7451 22.7127 35.6232 23.2701 35.3925L23.5301 35.2625L23.6601 35.1812C24.0653 34.986 24.4336 34.7221 24.7488 34.4012L34.4988 24.6512C34.8287 24.3262 35.1033 23.946 35.3113 23.53L35.4413 23.2537C35.4478 23.1887 35.5437 23.0587 35.5372 22.9937C35.7111 22.5127 35.703 22.074 35.6997 21.5637V11.2612C35.7243 10.2063 35.5354 9.15724 35.1445 8.1771C34.7535 7.19696 34.1702 6.30592 33.4263 5.55747ZM16.1526 27.3975H11.1313C10.8081 27.3975 10.4981 27.2691 10.2695 27.0405C10.041 26.8119 9.91258 26.502 9.91258 26.1787C9.91258 25.8555 10.041 25.5455 10.2695 25.3169C10.4981 25.0884 10.8081 24.96 11.1313 24.96H16.1526C16.4758 24.96 16.7858 25.0884 17.0144 25.3169C17.2429 25.5455 17.3713 25.8555 17.3713 26.1787C17.3713 26.502 17.2429 26.8119 17.0144 27.0405C16.7858 27.2691 16.4758 27.3975 16.1526 27.3975ZM17.7776 20.7187H11.0826C10.7593 20.7187 10.4494 20.5903 10.2208 20.3618C9.99223 20.1332 9.86383 19.8232 9.86383 19.5C9.86383 19.1767 9.99223 18.8667 10.2208 18.6382C10.4494 18.4096 10.7593 18.2812 11.0826 18.2812H17.7776C18.1008 18.2812 18.4108 18.4096 18.6394 18.6382C18.8679 18.8667 18.9963 19.1767 18.9963 19.5C18.9963 19.8232 18.8679 20.1332 18.6394 20.3618C18.4108 20.5903 18.1008 20.7187 17.7776 20.7187ZM11.0826 14.0237C10.7593 14.0237 10.4494 13.8953 10.2208 13.6668C9.99223 13.4382 9.86383 13.1282 9.86383 12.805C9.86383 12.4817 9.99223 12.1717 10.2208 11.9432C10.4494 11.7146 10.7593 11.5862 11.0826 11.5862H26.1138C26.4371 11.5862 26.7471 11.7146 26.9756 11.9432C27.2042 12.1717 27.3326 12.4817 27.3326 12.805C27.3326 13.1282 27.2042 13.4382 26.9756 13.6668C26.7471 13.8953 26.4371 14.0237 26.1138 14.0237H11.0826ZM23.7088 31.8987L23.1563 27.43C23.0953 26.8818 23.1563 26.3268 23.3351 25.805C23.5124 25.258 23.819 24.7619 24.2288 24.3587C24.6388 23.9457 25.1396 23.6341 25.6913 23.4487C26.2385 23.2576 26.8227 23.1964 27.3976 23.27L31.8663 23.8225L23.7088 31.8987Z" fill="#F0531C"/>
</svg>
