<svg width="10" height="10" viewBox="0 0 10 10" fill="none" xmlns="http://www.w3.org/2000/svg">
<path fill-rule="evenodd" clip-rule="evenodd" d="M2.91667 2.91665C2.91675 2.52247 3.02865 2.1364 3.23939 1.80328C3.45013 1.47017 3.75104 1.20367 4.10719 1.03474C4.46334 0.865819 4.8601 0.801399 5.2514 0.848966C5.6427 0.896533 6.01248 1.05413 6.31778 1.30347C6.62308 1.5528 6.85139 1.88363 6.97618 2.25753C7.10097 2.63144 7.11712 3.03307 7.02276 3.41579C6.9284 3.79851 6.7274 4.14661 6.4431 4.41965C6.15881 4.69269 5.80288 4.87948 5.41667 4.95832V7.08332C5.41667 7.19382 5.37277 7.2998 5.29463 7.37794C5.21649 7.45608 5.11051 7.49998 5 7.49998C4.88949 7.49998 4.78351 7.45608 4.70537 7.37794C4.62723 7.2998 4.58333 7.19382 4.58333 7.08332V4.95832C4.11276 4.86226 3.68984 4.60657 3.38612 4.23453C3.08241 3.86248 2.91657 3.39692 2.91667 2.91665ZM3.95375 6.70832C3.96204 6.76243 3.95958 6.81766 3.94651 6.87082C3.93345 6.92399 3.91003 6.97406 3.87761 7.01818C3.84518 7.06229 3.80438 7.09958 3.75753 7.12792C3.71068 7.15625 3.65871 7.17508 3.60458 7.18332C3.07208 7.26457 2.64917 7.38707 2.37125 7.5229C2.23167 7.59123 2.14875 7.65332 2.10583 7.69873L2.09708 7.70832C2.11083 7.72457 2.13458 7.74832 2.17625 7.77873C2.29292 7.86498 2.48833 7.95998 2.76708 8.04707C3.32 8.21998 4.10958 8.33332 5 8.33332C5.89042 8.33332 6.68 8.21998 7.23292 8.04707C7.51208 7.95998 7.70708 7.86498 7.82375 7.77873C7.86542 7.74832 7.88917 7.72457 7.90292 7.70832L7.89417 7.69873C7.85125 7.65332 7.76833 7.59123 7.62875 7.5229C7.35083 7.38707 6.92792 7.26457 6.39542 7.18332C6.34069 7.17581 6.28801 7.1575 6.24043 7.12944C6.19285 7.10139 6.15132 7.06416 6.11826 7.01991C6.0852 6.97566 6.06127 6.92528 6.04786 6.8717C6.03444 6.81812 6.03182 6.76241 6.04013 6.7078C6.04844 6.6532 6.06753 6.60079 6.09628 6.55363C6.12503 6.50647 6.16288 6.46549 6.20761 6.43309C6.25234 6.40068 6.30306 6.3775 6.35684 6.36487C6.41061 6.35225 6.46636 6.35045 6.52083 6.35957C7.09917 6.44707 7.61333 6.58748 7.99542 6.77457C8.18583 6.8679 8.36375 6.9829 8.49875 7.1254C8.63625 7.26998 8.75 7.46707 8.75 7.70832C8.75 8.04623 8.53167 8.29165 8.31917 8.44873C8.09833 8.61207 7.80542 8.74123 7.48167 8.84248C6.8275 9.04665 5.95083 9.16665 5 9.16665C4.04917 9.16665 3.17208 9.04665 2.51875 8.84248C2.19458 8.74123 1.90208 8.61207 1.68125 8.44873C1.46833 8.29165 1.25 8.04623 1.25 7.70832C1.25 7.46665 1.36375 7.26998 1.50125 7.12498C1.63667 6.98248 1.81417 6.8679 2.00458 6.77498C2.38667 6.58748 2.90125 6.44748 3.47875 6.35957C3.53287 6.35128 3.58809 6.35374 3.64126 6.3668C3.69443 6.37987 3.7445 6.40328 3.78861 6.43571C3.83273 6.46814 3.87002 6.50894 3.89835 6.55579C3.92669 6.60263 3.94551 6.65419 3.95375 6.70832Z" fill="white"/>
</svg>
