<svg width="27" height="27" viewBox="0 0 27 27" fill="none" xmlns="http://www.w3.org/2000/svg">
<path d="M22.3081 6.70617C21.8955 6.29331 21.3814 5.99636 20.8177 5.84518C20.6971 5.39959 20.4851 4.98398 20.1951 4.62483C19.9051 4.26567 19.5435 3.97086 19.1333 3.75915C18.7231 3.54744 18.2733 3.42348 17.8126 3.39517C17.3519 3.36686 16.8903 3.43482 16.4572 3.59472C16.0242 3.75461 15.6292 4.00294 15.2974 4.32389C14.9656 4.64484 14.7043 5.03137 14.5302 5.45885C14.356 5.88634 14.2727 6.34542 14.2858 6.80685C14.2988 7.26828 14.4077 7.72194 14.6057 8.13894L13.7104 9.0365L13.6727 9.03096C12.6455 8.90131 11.5052 8.97777 10.3827 9.19939C8.16655 9.63819 5.78526 10.692 4.28601 12.1912C2.77235 13.7049 2.14738 15.4912 2.30695 17.2785C2.4643 19.0326 3.36407 20.6715 4.67827 21.9846C5.99247 23.2977 7.63024 24.1997 9.38435 24.3559C11.1717 24.5166 12.958 23.8905 14.4727 22.3769C15.9709 20.8776 17.0258 18.4985 17.4646 16.2801C17.6862 15.1587 17.7616 14.0174 17.633 12.9913L17.6275 12.9536L18.5239 12.0561C19.2314 12.3925 20.0349 12.4683 20.7929 12.2702C21.5508 12.0722 22.2145 11.6128 22.6669 10.9732C23.1193 10.3337 23.3314 9.55491 23.2657 8.77427C23.2001 7.99362 22.8609 7.26122 22.3081 6.70617Z" fill="#09312A"/>
</svg>
