<svg width="22" height="22" viewBox="0 0 22 22" fill="none" xmlns="http://www.w3.org/2000/svg">
<path d="M18.7913 10.0833H17.4163V6.41663C17.4163 5.9304 17.2232 5.46408 16.8794 5.12026C16.5356 4.77645 16.0692 4.58329 15.583 4.58329H11.9163V3.20829C11.9163 2.6005 11.6749 2.01761 11.2451 1.58784C10.8154 1.15807 10.2325 0.916626 9.62467 0.916626C9.01689 0.916626 8.43399 1.15807 8.00422 1.58784C7.57445 2.01761 7.33301 2.6005 7.33301 3.20829V4.58329H3.66634C3.18011 4.58329 2.7138 4.77645 2.36998 5.12026C2.02616 5.46408 1.83301 5.9304 1.83301 6.41663V9.89996H3.20801C4.58301 9.89996 5.68301 11 5.68301 12.375C5.68301 13.75 4.58301 14.85 3.20801 14.85H1.83301V18.3333C1.83301 18.8195 2.02616 19.2858 2.36998 19.6297C2.7138 19.9735 3.18011 20.1666 3.66634 20.1666H7.14967V18.7916C7.14967 17.4166 8.24967 16.3166 9.62467 16.3166C10.9997 16.3166 12.0997 17.4166 12.0997 18.7916V20.1666H15.583C16.0692 20.1666 16.5356 19.9735 16.8794 19.6297C17.2232 19.2858 17.4163 18.8195 17.4163 18.3333V14.6666H18.7913C19.3991 14.6666 19.982 14.4252 20.4118 13.9954C20.8416 13.5656 21.083 12.9827 21.083 12.375C21.083 11.7672 20.8416 11.1843 20.4118 10.7545C19.982 10.3247 19.3991 10.0833 18.7913 10.0833Z" fill="#09332C"/>
</svg>
