<svg width="104" height="118" viewBox="0 0 104 118" fill="none" xmlns="http://www.w3.org/2000/svg">
<g opacity="0.2">
<path d="M0.801971 49.5405C0.801971 34.3343 13.1183 22.0179 28.3245 22.0179H30.1593C34.2189 22.0179 37.4987 25.2977 37.4987 29.3573C37.4987 33.4169 34.2189 36.6966 30.1593 36.6966H28.3245C21.2374 36.6966 15.4806 42.4534 15.4806 49.5405V51.3753H30.1593C38.2555 51.3753 44.838 57.9578 44.838 66.054V80.7326C44.838 88.8288 38.2555 95.4113 30.1593 95.4113H15.4806C7.38444 95.4113 0.801971 88.8288 0.801971 80.7326V49.5405ZM59.5167 49.5405C59.5167 34.3343 71.833 22.0179 87.0392 22.0179H88.874C92.9336 22.0179 96.2133 25.2977 96.2133 29.3573C96.2133 33.4169 92.9336 36.6966 88.874 36.6966H87.0392C79.9521 36.6966 74.1953 42.4534 74.1953 49.5405V51.3753H88.874C96.9702 51.3753 103.553 57.9578 103.553 66.054V80.7326C103.553 88.8288 96.9702 95.4113 88.874 95.4113H74.1953C66.0991 95.4113 59.5167 88.8288 59.5167 80.7326V49.5405Z" fill="#FFFFF9"/>
</g>
</svg>
