<svg width="52" height="42" viewBox="0 0 52 42" fill="none" xmlns="http://www.w3.org/2000/svg">
<path d="M13.2169 43.7997C12.2605 43.3817 11.5876 42.6764 11.1984 41.6839C10.8091 40.6915 10.8188 39.706 11.2275 38.7275L12.7162 35.1756L10.9772 34.4155L12.4658 30.8635L14.2048 31.6237L16.4378 26.2958L14.6987 25.5356L16.1874 21.9837L17.9264 22.7438L20.1593 17.4159L18.4203 16.6558L19.909 13.1039L21.648 13.864L23.1366 10.3121C23.546 9.33528 24.2372 8.64838 25.2101 8.25136C26.1831 7.85434 27.1475 7.86402 28.1033 8.2804L48.9715 17.402C49.9279 17.8201 50.6011 18.5262 50.991 19.5203C51.3809 20.5145 51.3709 21.4991 50.9609 22.4742L39.0518 50.8897C38.6424 51.8664 37.9516 52.5542 36.9793 52.9529C36.007 53.3516 35.0422 53.3411 34.0851 52.9213L13.2169 43.7997ZM23.0251 37.5804L25.6336 38.7206L28.6109 31.6167C29.4513 31.7389 30.2511 31.5898 31.0103 31.1694C31.7694 30.7489 32.3168 30.1385 32.6522 29.3382L35.6853 22.1011L33.9463 21.341L31.1365 28.0452L29.8322 27.4751L32.642 20.7709L30.903 20.0107L28.0932 26.715L26.7889 26.1449L29.5987 19.4406L27.8597 18.6805L24.8266 25.9176C24.4917 26.7167 24.4371 27.5425 24.6629 28.3949C24.8886 29.2472 25.3351 29.9411 26.0023 30.4765L23.0251 37.5804ZM32.5897 41.7611L35.1982 42.9013L42.6414 25.1416C41.1922 24.5082 39.7433 24.4877 38.2947 25.0803C36.8461 25.6729 35.8116 26.7092 35.1914 28.1891L32.9584 33.517L35.5669 34.6572L32.5897 41.7611Z" fill="#09312A"/>
</svg>
