<svg width="29" height="29" viewBox="0 0 29 29" fill="none" xmlns="http://www.w3.org/2000/svg">
<path d="M21.75 4.83325C22.99 4.83325 24.1826 5.30986 25.0811 6.1645C25.9796 7.01914 26.5153 8.18643 26.5773 9.42492L26.5833 9.66659V19.3333C26.5833 20.5733 26.1067 21.7659 25.252 22.6644C24.3974 23.5629 23.2301 24.0985 21.9916 24.1605L21.75 24.1666H7.24996C6.00992 24.1666 4.81731 23.69 3.91881 22.8353C3.02031 21.9807 2.48467 20.8134 2.42267 19.5749L2.41663 19.3333V9.66659C2.41663 8.42654 2.89324 7.23393 3.74788 6.33544C4.60252 5.43694 5.7698 4.9013 7.00829 4.83929L7.24996 4.83325H21.75ZM15.1126 10.8749L14.883 10.8798C13.7617 10.9426 12.8059 11.5842 12.0833 12.6246C11.4066 11.6519 10.527 11.0272 9.49867 10.8991L9.25942 10.8785L9.06125 10.8749L8.86792 10.881C7.32125 10.9849 6.04163 12.3056 6.04163 13.8958C6.04163 15.3772 7.51821 16.5674 9.00567 16.8525L9.199 16.884L7.604 18.479L7.50371 18.5925C7.3393 18.8045 7.25006 19.065 7.25006 19.3333C7.25006 19.6015 7.3393 19.8621 7.50371 20.074L7.604 20.1875L7.71758 20.2878C7.92949 20.4523 8.19008 20.5415 8.45829 20.5415C8.7265 20.5415 8.98709 20.4523 9.199 20.2878L9.31258 20.1875L12.0833 17.418L14.854 20.1875L14.9676 20.2878C15.2001 20.4681 15.4903 20.5573 15.7839 20.5387C16.0775 20.5202 16.3543 20.3952 16.5623 20.1872C16.7703 19.9792 16.8953 19.7025 16.9138 19.4089C16.9323 19.1153 16.8431 18.825 16.6629 18.5925L16.5626 18.479L14.9676 16.884C16.4526 16.6798 17.9908 15.5427 18.1165 14.0867L18.125 13.8958L18.1189 13.6988C18.0223 12.2621 16.8864 11.0864 15.4908 10.9003L15.2987 10.881L15.1126 10.8749ZM15.0824 13.2916L15.2056 13.3025C15.44 13.3508 15.6491 13.5562 15.6974 13.793L15.7083 13.8958L15.6938 13.9332L15.6527 13.9815C15.4956 14.1447 15.0328 14.4274 14.6425 14.489L14.5 14.4999H13.7725L13.8354 14.3791L13.9417 14.1906C14.268 13.6541 14.6353 13.3496 14.9712 13.2988L15.0824 13.2916ZM9.08421 13.2916L9.18571 13.2976L9.29929 13.3218C9.60621 13.4148 9.93125 13.7085 10.2237 14.1894L10.3324 14.3791L10.3928 14.4999H9.66663L9.53854 14.4903C9.05763 14.4214 8.45829 14.0069 8.45829 13.8958C8.45829 13.6178 8.69271 13.3568 8.96096 13.3025L9.08421 13.2916Z" fill="#FFFFF9"/>
</svg>
