<svg width="20" height="20" viewBox="0 0 20 20" fill="none" xmlns="http://www.w3.org/2000/svg">
<path d="M10.3129 11.0521V11.0601M8.7281 13.4294V13.4373M11.8978 13.4294V13.4373M6.74707 7.09006H13.8788L13.6561 5.30872C13.6082 4.92535 13.4219 4.57269 13.1323 4.31703C12.8426 4.06137 12.4695 3.92033 12.0832 3.92041H8.54268C8.15619 3.92013 7.78293 4.06109 7.4931 4.31677C7.20328 4.57245 7.01687 4.92522 6.96895 5.30872L6.74707 7.09006Z" stroke="#09332C" stroke-width="1.64822" stroke-linecap="round" stroke-linejoin="round"/>
<path d="M6.74623 7.08997L5.46886 14.7534C5.43099 14.9805 5.44304 15.213 5.50417 15.435C5.56531 15.6569 5.67405 15.8629 5.82285 16.0385C5.97164 16.2141 6.15692 16.3553 6.36578 16.452C6.57465 16.5488 6.80209 16.5989 7.03229 16.5989H13.5919C13.8221 16.5989 14.0495 16.5488 14.2584 16.452C14.4672 16.3553 14.6525 16.2141 14.8013 16.0385C14.9501 15.8629 15.0589 15.6569 15.12 15.435C15.1811 15.213 15.1932 14.9805 15.1553 14.7534L13.8779 7.08997" stroke="#09332C" stroke-width="1.64822" stroke-linecap="round" stroke-linejoin="round"/>
</svg>
