<svg width="70" height="30" viewBox="0 0 70 30" fill="none" xmlns="http://www.w3.org/2000/svg">
<mask id="path-1-outside-1_103_160" maskUnits="userSpaceOnUse" x="-1.36569" y="-1.44995" width="73.7906" height="35.0393" fill="black">
<rect fill="white" x="-1.36569" y="-1.44995" width="73.7906" height="35.0393"/>
<path d="M7.39961 15.0143C6.61185 14.8502 5.90962 14.5534 5.29292 14.1239C4.68731 13.6968 4.19358 13.1771 3.81172 12.5651C3.44327 11.9442 3.21975 11.2667 3.14116 10.5326L5.19168 10.1089C5.34331 10.8814 5.65929 11.5318 6.13961 12.0602C6.62225 12.5775 7.21862 12.9102 7.9287 13.0581C8.32813 13.1413 8.68479 13.1519 8.99869 13.09C9.32599 13.0193 9.59043 12.8891 9.79199 12.6996C10.0046 12.5123 10.1433 12.2634 10.2081 11.9527C10.2843 11.5866 10.2358 11.2639 10.0624 10.9847C9.90248 10.6967 9.62001 10.441 9.21504 10.2177L6.99463 8.95637C6.09177 8.4557 5.45865 7.85495 5.09529 7.15411C4.73192 6.45327 4.63461 5.69787 4.80334 4.88793C4.95128 4.17784 5.25385 3.5868 5.71106 3.11479C6.17937 2.6451 6.75539 2.32519 7.43912 2.15506C8.13627 1.97616 8.88981 1.97107 9.69975 2.13981C10.4431 2.29468 11.0977 2.56997 11.6636 2.9657C12.2318 3.35033 12.6892 3.82187 13.0359 4.38032C13.396 4.92999 13.6223 5.53861 13.7148 6.20616L11.6775 6.64997C11.5628 5.97779 11.2961 5.42442 10.8772 4.98986C10.4607 4.54421 9.93067 4.25435 9.28716 4.12029C8.90992 4.0417 8.5632 4.03892 8.24699 4.11196C7.93309 4.17391 7.66866 4.30405 7.45369 4.50237C7.25213 4.69192 7.11899 4.94202 7.05426 5.25268C6.98261 5.59663 7.02999 5.92486 7.19642 6.23737C7.36516 6.53879 7.66195 6.809 8.0868 7.04801L10.2178 8.23865C11.1382 8.76613 11.7836 9.36365 12.1539 10.0312C12.5353 10.7011 12.6393 11.4521 12.4659 12.2842C12.318 12.9943 12.0043 13.583 11.5249 14.0504C11.0455 14.5178 10.4517 14.8398 9.74345 15.0164C9.03521 15.193 8.25393 15.1923 7.39961 15.0143ZM16.2298 16.8539C15.5974 16.7222 15.0702 16.5024 14.6481 16.1945C14.226 15.8866 13.9278 15.5119 13.7535 15.0704C13.5816 14.6178 13.5499 14.1308 13.6585 13.6093C13.7626 13.11 13.966 12.6893 14.2688 12.3472C14.5739 11.994 14.9872 11.7328 15.5087 11.5636C16.0301 11.3944 16.6575 11.3283 17.3907 11.3653L20.4536 11.4998L20.1069 13.1641L17.4704 13.0663C17.0215 13.0538 16.6709 13.1255 16.4185 13.2813C16.166 13.4371 16.0063 13.6759 15.9393 13.9976C15.8746 14.3083 15.9391 14.5822 16.1328 14.8194C16.3399 15.0477 16.6209 15.1989 16.976 15.2729C17.4309 15.3676 17.85 15.3565 18.2332 15.2396C18.6299 15.1138 18.9583 14.8986 19.2186 14.594C19.49 14.2916 19.6684 13.9352 19.7539 13.5247L20.2393 11.1947C20.3202 10.8064 20.2319 10.4523 19.9744 10.1324C19.7303 9.80367 19.3587 9.58732 18.8594 9.4833C18.3934 9.38622 17.9507 9.42713 17.5314 9.60604C17.1255 9.77617 16.7966 10.0492 16.5447 10.425L14.9442 9.18859C15.2211 8.74849 15.584 8.39575 16.0329 8.13039C16.4952 7.85625 17.0079 7.67365 17.571 7.58257C18.134 7.4915 18.7207 7.50953 19.3309 7.63666C20.0743 7.79153 20.7 8.0666 21.2081 8.46186C21.7184 8.84603 22.0781 9.31456 22.2871 9.86747C22.5094 10.4116 22.5536 11.0054 22.4195 11.6489L21.1644 17.6736L19.1007 17.2436L19.4232 15.6959L19.8961 15.7597C19.5822 16.0995 19.2366 16.369 18.8594 16.5682C18.4845 16.7564 18.0767 16.8798 17.6361 16.9385C17.1979 16.9861 16.7291 16.9579 16.2298 16.8539ZM23.5151 21.9836C23.271 21.9327 23.0371 21.8609 22.8133 21.7679C22.5873 21.6861 22.3903 21.5756 22.2225 21.4365L22.6004 19.6224C22.7377 19.6858 22.9028 19.7549 23.0955 19.8298C23.2994 19.907 23.4901 19.9641 23.6676 20.001C24.1669 20.1051 24.5518 20.0637 24.8222 19.8769C25.1015 19.7036 25.3691 19.4467 25.6252 19.1065L26.5156 17.8333L26.1009 19.6571L24.2335 8.86641L26.5801 9.35528L27.8103 17.2869L26.9781 17.1135L31.2567 10.3296L33.62 10.8219L27.5988 19.9691C27.2456 20.4975 26.8598 20.9323 26.4414 21.2735C26.023 21.6147 25.57 21.8444 25.0823 21.9628C24.6033 22.0946 24.0809 22.1015 23.5151 21.9836ZM36.1181 20.9973C35.4191 20.8517 34.8412 20.5692 34.3845 20.1499C33.9388 19.7329 33.6351 19.2182 33.4733 18.6056C33.3226 17.9954 33.3247 17.3186 33.4795 16.5752L34.6341 11.0332L36.8143 11.4874L35.6979 16.8463C35.6193 17.2236 35.622 17.5715 35.7062 17.89C35.8037 18.1997 35.9739 18.4667 36.2166 18.6909C36.4727 18.9063 36.7782 19.051 37.1333 19.125C37.4883 19.199 37.8207 19.1872 38.1305 19.0896C38.4425 18.981 38.7063 18.7986 38.9217 18.5425C39.1371 18.2864 39.2864 17.9586 39.3696 17.5592L40.4757 12.2502L42.6559 12.7044L40.7697 21.758L38.706 21.3281L39.077 19.5473L39.1942 19.9017C38.8678 20.4125 38.4317 20.7557 37.8857 20.9314C37.3508 21.1094 36.7616 21.1314 36.1181 20.9973ZM42.7963 22.1802L44.6825 13.1266L46.7296 13.5531L46.31 15.5668L46.206 15.2326C46.5578 14.5997 46.9834 14.1964 47.4826 14.0225C47.993 13.851 48.5644 13.8311 49.1968 13.9629L49.7294 14.0739L49.3272 16.0044L48.545 15.8414C47.9237 15.712 47.3839 15.8021 46.9258 16.1119C46.47 16.4105 46.1704 16.9038 46.0271 17.5917L44.9765 22.6344L42.7963 22.1802ZM51.7255 24.2488C51.0931 24.1171 50.5659 23.8973 50.1438 23.5894C49.7217 23.2815 49.4235 22.9068 49.2492 22.4653C49.0773 22.0127 49.0456 21.5257 49.1542 21.0042C49.2583 20.5049 49.4617 20.0842 49.7645 19.7421C50.0696 19.389 50.4829 19.1278 51.0043 18.9586C51.5258 18.7894 52.1532 18.7232 52.8864 18.7602L55.9493 18.8948L55.6026 20.559L52.9661 20.4612C52.5172 20.4488 52.1666 20.5204 51.9141 20.6762C51.6617 20.832 51.502 21.0708 51.435 21.3925C51.3703 21.7032 51.4347 21.9771 51.6284 22.2143C51.8356 22.4427 52.1166 22.5938 52.4717 22.6678C52.9266 22.7626 53.3456 22.7515 53.7289 22.6345C54.1255 22.5088 54.454 22.2936 54.7143 21.9889C54.9856 21.6866 55.1641 21.3301 55.2496 20.9196L55.735 18.5896C55.8159 18.2013 55.7276 17.8472 55.4701 17.5273C55.226 17.1986 54.8543 16.9822 54.3551 16.8782C53.8891 16.7811 53.4464 16.8221 53.0271 17.001C52.6212 17.1711 52.2923 17.4441 52.0404 17.8199L50.4399 16.5835C50.7168 16.1434 51.0797 15.7907 51.5286 15.5253C51.9909 15.2512 52.5036 15.0686 53.0666 14.9775C53.6297 14.8864 54.2164 14.9044 54.8266 15.0316C55.57 15.1864 56.1957 15.4615 56.7038 15.8568C57.2141 16.2409 57.5738 16.7095 57.7828 17.2624C58.0051 17.8065 58.0493 18.4003 57.9152 19.0438L56.6601 25.0685L54.5964 24.6386L54.9188 23.0908L55.3918 23.1546C55.0779 23.4944 54.7323 23.7639 54.3551 23.9631C53.9802 24.1513 53.5724 24.2747 53.1318 24.3334C52.6936 24.3811 52.2248 24.3529 51.7255 24.2488ZM58.6751 25.4883L60.5613 16.4347L62.6084 16.8612L62.2374 18.6419L62.1368 18.291C62.4609 17.7913 62.8904 17.4524 63.4252 17.2744C63.9735 17.0877 64.5694 17.0613 65.2129 17.1954C65.8786 17.3341 66.4366 17.6008 66.8869 17.9956C67.3483 18.3927 67.6689 18.8821 67.8487 19.4636C68.0309 20.0341 68.0514 20.6578 67.9104 21.3346L66.6969 27.1595L64.5167 26.7053L65.6228 21.3963C65.706 20.9969 65.7 20.6367 65.6047 20.3159C65.5095 19.9951 65.3394 19.7281 65.0944 19.515C64.8627 19.2931 64.5639 19.144 64.1977 19.0677C63.8427 18.9937 63.5091 19.0111 63.1971 19.1197C62.8874 19.2172 62.6248 19.3941 62.4093 19.6502C62.1939 19.9063 62.0446 20.2341 61.9614 20.6335L60.8553 25.9425L58.6751 25.4883Z"/>
</mask>
<path d="M7.39961 15.0143C6.61185 14.8502 5.90962 14.5534 5.29292 14.1239C4.68731 13.6968 4.19358 13.1771 3.81172 12.5651C3.44327 11.9442 3.21975 11.2667 3.14116 10.5326L5.19168 10.1089C5.34331 10.8814 5.65929 11.5318 6.13961 12.0602C6.62225 12.5775 7.21862 12.9102 7.9287 13.0581C8.32813 13.1413 8.68479 13.1519 8.99869 13.09C9.32599 13.0193 9.59043 12.8891 9.79199 12.6996C10.0046 12.5123 10.1433 12.2634 10.2081 11.9527C10.2843 11.5866 10.2358 11.2639 10.0624 10.9847C9.90248 10.6967 9.62001 10.441 9.21504 10.2177L6.99463 8.95637C6.09177 8.4557 5.45865 7.85495 5.09529 7.15411C4.73192 6.45327 4.63461 5.69787 4.80334 4.88793C4.95128 4.17784 5.25385 3.5868 5.71106 3.11479C6.17937 2.6451 6.75539 2.32519 7.43912 2.15506C8.13627 1.97616 8.88981 1.97107 9.69975 2.13981C10.4431 2.29468 11.0977 2.56997 11.6636 2.9657C12.2318 3.35033 12.6892 3.82187 13.0359 4.38032C13.396 4.92999 13.6223 5.53861 13.7148 6.20616L11.6775 6.64997C11.5628 5.97779 11.2961 5.42442 10.8772 4.98986C10.4607 4.54421 9.93067 4.25435 9.28716 4.12029C8.90992 4.0417 8.5632 4.03892 8.24699 4.11196C7.93309 4.17391 7.66866 4.30405 7.45369 4.50237C7.25213 4.69192 7.11899 4.94202 7.05426 5.25268C6.98261 5.59663 7.02999 5.92486 7.19642 6.23737C7.36516 6.53879 7.66195 6.809 8.0868 7.04801L10.2178 8.23865C11.1382 8.76613 11.7836 9.36365 12.1539 10.0312C12.5353 10.7011 12.6393 11.4521 12.4659 12.2842C12.318 12.9943 12.0043 13.583 11.5249 14.0504C11.0455 14.5178 10.4517 14.8398 9.74345 15.0164C9.03521 15.193 8.25393 15.1923 7.39961 15.0143ZM16.2298 16.8539C15.5974 16.7222 15.0702 16.5024 14.6481 16.1945C14.226 15.8866 13.9278 15.5119 13.7535 15.0704C13.5816 14.6178 13.5499 14.1308 13.6585 13.6093C13.7626 13.11 13.966 12.6893 14.2688 12.3472C14.5739 11.994 14.9872 11.7328 15.5087 11.5636C16.0301 11.3944 16.6575 11.3283 17.3907 11.3653L20.4536 11.4998L20.1069 13.1641L17.4704 13.0663C17.0215 13.0538 16.6709 13.1255 16.4185 13.2813C16.166 13.4371 16.0063 13.6759 15.9393 13.9976C15.8746 14.3083 15.9391 14.5822 16.1328 14.8194C16.3399 15.0477 16.6209 15.1989 16.976 15.2729C17.4309 15.3676 17.85 15.3565 18.2332 15.2396C18.6299 15.1138 18.9583 14.8986 19.2186 14.594C19.49 14.2916 19.6684 13.9352 19.7539 13.5247L20.2393 11.1947C20.3202 10.8064 20.2319 10.4523 19.9744 10.1324C19.7303 9.80367 19.3587 9.58732 18.8594 9.4833C18.3934 9.38622 17.9507 9.42713 17.5314 9.60604C17.1255 9.77617 16.7966 10.0492 16.5447 10.425L14.9442 9.18859C15.2211 8.74849 15.584 8.39575 16.0329 8.13039C16.4952 7.85625 17.0079 7.67365 17.571 7.58257C18.134 7.4915 18.7207 7.50953 19.3309 7.63666C20.0743 7.79153 20.7 8.0666 21.2081 8.46186C21.7184 8.84603 22.0781 9.31456 22.2871 9.86747C22.5094 10.4116 22.5536 11.0054 22.4195 11.6489L21.1644 17.6736L19.1007 17.2436L19.4232 15.6959L19.8961 15.7597C19.5822 16.0995 19.2366 16.369 18.8594 16.5682C18.4845 16.7564 18.0767 16.8798 17.6361 16.9385C17.1979 16.9861 16.7291 16.9579 16.2298 16.8539ZM23.5151 21.9836C23.271 21.9327 23.0371 21.8609 22.8133 21.7679C22.5873 21.6861 22.3903 21.5756 22.2225 21.4365L22.6004 19.6224C22.7377 19.6858 22.9028 19.7549 23.0955 19.8298C23.2994 19.907 23.4901 19.9641 23.6676 20.001C24.1669 20.1051 24.5518 20.0637 24.8222 19.8769C25.1015 19.7036 25.3691 19.4467 25.6252 19.1065L26.5156 17.8333L26.1009 19.6571L24.2335 8.86641L26.5801 9.35528L27.8103 17.2869L26.9781 17.1135L31.2567 10.3296L33.62 10.8219L27.5988 19.9691C27.2456 20.4975 26.8598 20.9323 26.4414 21.2735C26.023 21.6147 25.57 21.8444 25.0823 21.9628C24.6033 22.0946 24.0809 22.1015 23.5151 21.9836ZM36.1181 20.9973C35.4191 20.8517 34.8412 20.5692 34.3845 20.1499C33.9388 19.7329 33.6351 19.2182 33.4733 18.6056C33.3226 17.9954 33.3247 17.3186 33.4795 16.5752L34.6341 11.0332L36.8143 11.4874L35.6979 16.8463C35.6193 17.2236 35.622 17.5715 35.7062 17.89C35.8037 18.1997 35.9739 18.4667 36.2166 18.6909C36.4727 18.9063 36.7782 19.051 37.1333 19.125C37.4883 19.199 37.8207 19.1872 38.1305 19.0896C38.4425 18.981 38.7063 18.7986 38.9217 18.5425C39.1371 18.2864 39.2864 17.9586 39.3696 17.5592L40.4757 12.2502L42.6559 12.7044L40.7697 21.758L38.706 21.3281L39.077 19.5473L39.1942 19.9017C38.8678 20.4125 38.4317 20.7557 37.8857 20.9314C37.3508 21.1094 36.7616 21.1314 36.1181 20.9973ZM42.7963 22.1802L44.6825 13.1266L46.7296 13.5531L46.31 15.5668L46.206 15.2326C46.5578 14.5997 46.9834 14.1964 47.4826 14.0225C47.993 13.851 48.5644 13.8311 49.1968 13.9629L49.7294 14.0739L49.3272 16.0044L48.545 15.8414C47.9237 15.712 47.3839 15.8021 46.9258 16.1119C46.47 16.4105 46.1704 16.9038 46.0271 17.5917L44.9765 22.6344L42.7963 22.1802ZM51.7255 24.2488C51.0931 24.1171 50.5659 23.8973 50.1438 23.5894C49.7217 23.2815 49.4235 22.9068 49.2492 22.4653C49.0773 22.0127 49.0456 21.5257 49.1542 21.0042C49.2583 20.5049 49.4617 20.0842 49.7645 19.7421C50.0696 19.389 50.4829 19.1278 51.0043 18.9586C51.5258 18.7894 52.1532 18.7232 52.8864 18.7602L55.9493 18.8948L55.6026 20.559L52.9661 20.4612C52.5172 20.4488 52.1666 20.5204 51.9141 20.6762C51.6617 20.832 51.502 21.0708 51.435 21.3925C51.3703 21.7032 51.4347 21.9771 51.6284 22.2143C51.8356 22.4427 52.1166 22.5938 52.4717 22.6678C52.9266 22.7626 53.3456 22.7515 53.7289 22.6345C54.1255 22.5088 54.454 22.2936 54.7143 21.9889C54.9856 21.6866 55.1641 21.3301 55.2496 20.9196L55.735 18.5896C55.8159 18.2013 55.7276 17.8472 55.4701 17.5273C55.226 17.1986 54.8543 16.9822 54.3551 16.8782C53.8891 16.7811 53.4464 16.8221 53.0271 17.001C52.6212 17.1711 52.2923 17.4441 52.0404 17.8199L50.4399 16.5835C50.7168 16.1434 51.0797 15.7907 51.5286 15.5253C51.9909 15.2512 52.5036 15.0686 53.0666 14.9775C53.6297 14.8864 54.2164 14.9044 54.8266 15.0316C55.57 15.1864 56.1957 15.4615 56.7038 15.8568C57.2141 16.2409 57.5738 16.7095 57.7828 17.2624C58.0051 17.8065 58.0493 18.4003 57.9152 19.0438L56.6601 25.0685L54.5964 24.6386L54.9188 23.0908L55.3918 23.1546C55.0779 23.4944 54.7323 23.7639 54.3551 23.9631C53.9802 24.1513 53.5724 24.2747 53.1318 24.3334C52.6936 24.3811 52.2248 24.3529 51.7255 24.2488ZM58.6751 25.4883L60.5613 16.4347L62.6084 16.8612L62.2374 18.6419L62.1368 18.291C62.4609 17.7913 62.8904 17.4524 63.4252 17.2744C63.9735 17.0877 64.5694 17.0613 65.2129 17.1954C65.8786 17.3341 66.4366 17.6008 66.8869 17.9956C67.3483 18.3927 67.6689 18.8821 67.8487 19.4636C68.0309 20.0341 68.0514 20.6578 67.9104 21.3346L66.6969 27.1595L64.5167 26.7053L65.6228 21.3963C65.706 20.9969 65.7 20.6367 65.6047 20.3159C65.5095 19.9951 65.3394 19.7281 65.0944 19.515C64.8627 19.2931 64.5639 19.144 64.1977 19.0677C63.8427 18.9937 63.5091 19.0111 63.1971 19.1197C62.8874 19.2172 62.6248 19.3941 62.4093 19.6502C62.1939 19.9063 62.0446 20.2341 61.9614 20.6335L60.8553 25.9425L58.6751 25.4883Z" fill="#09312A"/>
<path d="M5.29292 14.1239L4.14012 15.7583L4.14996 15.7652L5.29292 14.1239ZM3.81172 12.5651L2.09178 13.5857L2.10311 13.6048L2.11486 13.6237L3.81172 12.5651ZM3.14116 10.5326L2.73645 8.57394L0.959365 8.94114L1.15252 10.7455L3.14116 10.5326ZM5.19168 10.1089L7.15422 9.72364L6.76515 7.7415L4.78697 8.15025L5.19168 10.1089ZM6.13961 12.0602L4.65968 13.4055L4.6684 13.4151L4.67724 13.4246L6.13961 12.0602ZM8.99869 13.09L9.38592 15.0521L9.40356 15.0487L9.42114 15.0449L8.99869 13.09ZM9.79199 12.6996L8.47036 11.1985L8.44576 11.2201L8.42188 11.2426L9.79199 12.6996ZM10.0624 10.9847L8.31398 11.9557L8.33761 11.9983L8.36328 12.0396L10.0624 10.9847ZM9.21504 10.2177L8.22715 11.9567L8.23822 11.963L8.24936 11.9692L9.21504 10.2177ZM6.99463 8.95637L7.98252 7.21738L7.97356 7.21229L7.96455 7.20729L6.99463 8.95637ZM5.09529 7.15411L6.87083 6.23354L6.87083 6.23354L5.09529 7.15411ZM5.71106 3.11479L4.29476 1.70267L4.28456 1.7129L4.27451 1.72327L5.71106 3.11479ZM7.43912 2.15506L7.92204 4.09589L7.92916 4.09411L7.93628 4.09229L7.43912 2.15506ZM11.6636 2.9657L10.5174 4.60467L10.5298 4.61337L10.5424 4.62188L11.6636 2.9657ZM13.0359 4.38032L11.3368 5.43526L11.3496 5.45598L11.363 5.47638L13.0359 4.38032ZM13.7148 6.20616L14.1405 8.16034L15.95 7.76617L15.6959 5.93177L13.7148 6.20616ZM11.6775 6.64997L9.70593 6.98624L10.0579 9.04967L12.1031 8.60414L11.6775 6.64997ZM10.8772 4.98986L9.41607 6.35553L9.42655 6.36674L9.43721 6.37779L10.8772 4.98986ZM8.24699 4.11196L8.63422 6.07412L8.66578 6.06789L8.69712 6.06065L8.24699 4.11196ZM7.45369 4.50237L6.09752 3.0324L6.09052 3.03886L6.08358 3.04539L7.45369 4.50237ZM7.19642 6.23737L5.43114 7.17746L5.44101 7.19601L5.45127 7.21433L7.19642 6.23737ZM8.0868 7.04801L7.10619 8.79112L7.11128 8.79396L8.0868 7.04801ZM10.2178 8.23865L11.2122 6.5034L11.2028 6.498L11.1933 6.4927L10.2178 8.23865ZM12.1539 10.0312L10.4049 11.0014L10.4103 11.0111L10.4158 11.0208L12.1539 10.0312ZM11.5249 14.0504L12.9211 15.4825L12.9211 15.4825L11.5249 14.0504ZM9.74345 15.0164L10.2273 16.957L9.74345 15.0164ZM7.3996 15.0143L7.80751 13.0563C7.26471 12.9433 6.81609 12.7475 6.43588 12.4827L5.29292 14.1239L4.14996 15.7652C5.00315 16.3593 5.95899 16.7571 6.9917 16.9723L7.3996 15.0143ZM5.29292 14.1239L6.4457 12.4896C6.05194 12.2118 5.74539 11.886 5.50858 11.5064L3.81172 12.5651L2.11486 13.6237C2.64177 14.4682 3.32268 15.1817 4.14014 15.7583L5.29292 14.1239ZM3.81172 12.5651L5.53166 11.5444C5.31309 11.1761 5.17854 10.775 5.1298 10.3197L3.14116 10.5326L1.15252 10.7455C1.26096 11.7584 1.57345 12.7123 2.09178 13.5857L3.81172 12.5651ZM3.14116 10.5326L3.54587 12.4912L5.59638 12.0675L5.19168 10.1089L4.78697 8.15025L2.73645 8.57394L3.14116 10.5326ZM5.19168 10.1089L3.22913 10.4941C3.44362 11.5868 3.90923 12.5799 4.65968 13.4055L6.13961 12.0602L7.61955 10.7149C7.40935 10.4837 7.243 10.1759 7.15422 9.72364L5.19168 10.1089ZM6.13961 12.0602L4.67724 13.4246C5.44914 14.2519 6.41725 14.7861 7.5208 15.0161L7.9287 13.0581L8.33661 11.1001C8.01998 11.0342 7.79537 10.9031 7.60199 10.6959L6.13961 12.0602ZM7.9287 13.0581L7.5208 15.0161C8.11303 15.1394 8.74785 15.1781 9.38592 15.0521L8.99869 13.09L8.61146 11.1278C8.62172 11.1258 8.54322 11.1432 8.33661 11.1001L7.9287 13.0581ZM8.99869 13.09L9.42114 15.0449C10.0288 14.9135 10.645 14.6428 11.1621 14.1566L9.79199 12.6996L8.42188 11.2426C8.47492 11.1927 8.52503 11.1618 8.55938 11.1449C8.59187 11.1289 8.60159 11.1296 8.57623 11.1351L8.99869 13.09ZM9.79199 12.6996L11.1136 14.2007C11.6897 13.6934 12.0242 13.0416 12.166 12.3606L10.2081 11.9527L8.25009 11.5448C8.25436 11.5243 8.26874 11.4702 8.30833 11.3991C8.34911 11.3259 8.40484 11.2562 8.47036 11.1985L9.79199 12.6996ZM10.2081 11.9527L12.166 12.3606C12.3314 11.5666 12.2436 10.7062 11.7616 9.92975L10.0624 10.9847L8.36328 12.0396C8.30766 11.95 8.26757 11.8431 8.25111 11.7336C8.23536 11.6289 8.24685 11.5604 8.25009 11.5448L10.2081 11.9527ZM10.0624 10.9847L11.8109 10.0136C11.409 9.28996 10.7877 8.80099 10.1807 8.46632L9.21504 10.2177L8.24936 11.9692C8.29571 11.9947 8.32934 12.0161 8.35251 12.0323C8.37566 12.0484 8.3866 12.058 8.38854 12.0598C8.39211 12.063 8.35568 12.0308 8.31398 11.9557L10.0624 10.9847ZM9.21504 10.2177L10.2029 8.47875L7.98252 7.21738L6.99463 8.95637L6.00674 10.6954L8.22715 11.9567L9.21504 10.2177ZM6.99463 8.95637L7.96455 7.20729C7.30142 6.83957 7.00491 6.49215 6.87083 6.23354L5.09529 7.15411L3.31974 8.07467C3.91239 9.21775 4.88211 10.0718 6.02471 10.7054L6.99463 8.95637ZM5.09529 7.15411L6.87083 6.23354C6.73007 5.96205 6.68158 5.67854 6.7613 5.29584L4.80334 4.88793L2.84538 4.48002C2.58764 5.71721 2.73377 6.94448 3.31974 8.07467L5.09529 7.15411ZM4.80334 4.88793L6.7613 5.29584C6.84032 4.91656 6.98072 4.6786 7.14761 4.50631L5.71106 3.11479L4.27451 1.72327C3.52698 2.49499 3.06224 3.43913 2.84538 4.48002L4.80334 4.88793ZM5.71106 3.11479L7.12736 4.52691C7.3223 4.3314 7.56884 4.18377 7.92204 4.09589L7.43912 2.15506L6.95621 0.214241C5.94193 0.466611 5.03643 0.958802 4.29476 1.70267L5.71106 3.11479ZM7.43912 2.15506L7.93628 4.09229C8.29593 3.99999 8.7364 3.98205 9.29185 4.09777L9.69975 2.13981L10.1077 0.181847C9.04322 -0.0399106 7.97661 -0.0476809 6.94197 0.21784L7.43912 2.15506ZM9.69975 2.13981L9.29185 4.09777C9.79665 4.20293 10.1947 4.37901 10.5174 4.60467L11.6636 2.9657L12.8098 1.32673C12.0008 0.760936 11.0896 0.386418 10.1077 0.181847L9.69975 2.13981ZM11.6636 2.9657L10.5424 4.62188C10.8882 4.85599 11.1448 5.12607 11.3368 5.43526L13.0359 4.38032L14.7351 3.32539C14.2336 2.51767 13.5753 1.84467 12.7848 1.30952L11.6636 2.9657ZM13.0359 4.38032L11.363 5.47638C11.5566 5.77191 11.6808 6.09859 11.7337 6.48055L13.7148 6.20616L15.6959 5.93177C15.5639 4.97862 15.2355 4.08808 14.7088 3.28427L13.0359 4.38032ZM13.7148 6.20616L13.2891 4.25199L11.2518 4.6958L11.6775 6.64997L12.1031 8.60414L14.1405 8.16034L13.7148 6.20616ZM11.6775 6.64997L13.649 6.3137C13.4759 5.29879 13.0501 4.3623 12.3172 3.60193L10.8772 4.98986L9.43721 6.37779C9.54202 6.48654 9.64974 6.65679 9.70593 6.98624L11.6775 6.64997ZM10.8772 4.98986L12.3384 3.6242C11.618 2.85351 10.7093 2.37363 9.69506 2.16232L9.28716 4.12029L8.87925 6.07825C9.15203 6.13507 9.30334 6.23491 9.41607 6.35553L10.8772 4.98986ZM9.28716 4.12029L9.69506 2.16232C9.08693 2.03563 8.44293 2.01404 7.79685 2.16328L8.24699 4.11196L8.69712 6.06065C8.68347 6.0638 8.73291 6.04776 8.87925 6.07825L9.28716 4.12029ZM8.24699 4.11196L7.85976 2.14981C7.21884 2.27629 6.60906 2.56047 6.09752 3.0324L7.45369 4.50237L8.80985 5.97234C8.77497 6.00452 8.73526 6.03135 8.69636 6.05049C8.67798 6.05954 8.66254 6.06551 8.65125 6.06926C8.64005 6.07298 8.63399 6.07416 8.63422 6.07412L8.24699 4.11196ZM7.45369 4.50237L6.08358 3.04539C5.54066 3.55593 5.232 4.19345 5.0963 4.84477L7.05426 5.25268L9.01223 5.66059C9.0105 5.66886 9.00052 5.71101 8.96809 5.77193C8.93452 5.835 8.88598 5.90088 8.82379 5.95936L7.45369 4.50237ZM7.05426 5.25268L5.0963 4.84477C4.92841 5.65065 5.04666 6.45551 5.43114 7.17746L7.19642 6.23737L8.9617 5.29728C8.97978 5.33123 9.00402 5.39125 9.01554 5.47104C9.02709 5.55106 9.02109 5.61802 9.01223 5.66059L7.05426 5.25268ZM7.19642 6.23737L5.45127 7.21433C5.85886 7.9424 6.48635 8.44241 7.10619 8.79111L8.0868 7.04801L9.06742 5.30491C8.95954 5.24422 8.90805 5.20182 8.892 5.1872C8.87743 5.17394 8.90544 5.19587 8.94157 5.26041L7.19642 6.23737ZM8.0868 7.04801L7.11128 8.79396L9.24223 9.9846L10.2178 8.23865L11.1933 6.4927L9.06233 5.30206L8.0868 7.04801ZM10.2178 8.23865L9.22332 9.9739C9.94519 10.3876 10.2677 10.7539 10.4049 11.0014L12.1539 10.0312L13.9028 9.06105C13.2995 7.97339 12.3312 7.14467 11.2122 6.5034L10.2178 8.23865ZM12.1539 10.0312L10.4158 11.0208C10.5307 11.2225 10.5929 11.4684 10.5079 11.8763L12.4659 12.2842L14.4239 12.6921C14.6856 11.4357 14.5398 10.1796 13.8919 9.04164L12.1539 10.0312ZM12.4659 12.2842L10.5079 11.8763C10.4341 12.2307 10.2992 12.4521 10.1288 12.6184L11.5249 14.0504L12.9211 15.4825C13.7094 14.7139 14.2018 13.7579 14.4239 12.6921L12.4659 12.2842ZM11.5249 14.0504L10.1288 12.6184C9.92563 12.8164 9.656 12.9769 9.25957 13.0758L9.74345 15.0164L10.2273 16.957C11.2474 16.7026 12.1654 16.2192 12.9211 15.4825L11.5249 14.0504ZM9.74345 15.0164L9.25957 13.0758C8.89516 13.1667 8.42404 13.1848 7.80751 13.0563L7.3996 15.0143L6.9917 16.9723C8.08382 17.1998 9.17526 17.2193 10.2273 16.957L9.74345 15.0164ZM14.6481 16.1945L13.4694 17.8102L14.6481 16.1945ZM13.7535 15.0704L11.884 15.7808L11.8885 15.7928L11.8933 15.8048L13.7535 15.0704ZM14.2688 12.3472L15.7664 13.6728L15.7744 13.6638L15.7822 13.6547L14.2688 12.3472ZM15.5087 11.5636L16.1259 13.466L16.1259 13.466L15.5087 11.5636ZM17.3907 11.3653L17.2899 13.3628L17.3029 13.3634L17.3907 11.3653ZM20.4536 11.4998L22.4116 11.9077L22.8913 9.60498L20.5414 9.50177L20.4536 11.4998ZM20.1069 13.1641L20.0328 15.1627L21.7204 15.2253L22.0648 13.572L20.1069 13.1641ZM17.4704 13.0663L17.5445 11.0677L17.5353 11.0674L17.526 11.0671L17.4704 13.0663ZM16.4185 13.2813L15.368 11.5794L15.368 11.5794L16.4185 13.2813ZM16.1328 14.8194L14.5838 16.0845L14.6165 16.1246L14.6513 16.1629L16.1328 14.8194ZM18.2332 15.2396L18.817 17.1525L18.8273 17.1493L18.8376 17.1461L18.2332 15.2396ZM19.2186 14.594L17.7302 13.2581L17.7138 13.2763L17.698 13.2949L19.2186 14.594ZM19.9744 10.1324L18.3688 11.3248L18.392 11.3561L18.4164 11.3864L19.9744 10.1324ZM17.5314 9.60604L18.3046 11.4506L18.3163 11.4456L17.5314 9.60604ZM16.5447 10.425L15.322 12.0077L17.0148 13.3155L18.2059 11.5386L16.5447 10.425ZM14.9442 9.18859L13.2514 8.12348L12.2841 9.66087L13.7215 10.7713L14.9442 9.18859ZM16.0329 8.13039L17.0507 9.85207L17.053 9.85067L16.0329 8.13039ZM17.571 7.58257L17.2516 5.60823L17.571 7.58257ZM21.2081 8.46186L19.98 10.0404L19.9926 10.0502L20.0053 10.0598L21.2081 8.46186ZM22.2871 9.86747L20.4162 10.5745L20.4256 10.5994L20.4357 10.6241L22.2871 9.86747ZM21.1644 17.6736L20.7565 19.6315L22.7144 20.0394L23.1224 18.0815L21.1644 17.6736ZM19.1007 17.2436L17.1427 16.8357L16.7348 18.7937L18.6928 19.2016L19.1007 17.2436ZM19.4232 15.6959L19.6905 13.7138L17.845 13.4649L17.4652 15.288L19.4232 15.6959ZM19.8961 15.7597L21.3652 17.1168L23.9749 14.2918L20.1635 13.7776L19.8961 15.7597ZM18.8594 16.5682L19.7565 18.3558L19.7751 18.3464L19.7935 18.3367L18.8594 16.5682ZM17.6361 16.9385L17.8522 18.9268L17.8763 18.9242L17.9003 18.921L17.6361 16.9385ZM16.2298 16.8539L16.6377 14.896C16.2195 14.8088 15.9716 14.6843 15.8267 14.5787L14.6481 16.1945L13.4694 17.8102C14.1688 18.3204 14.9753 18.6355 15.8219 18.8119L16.2298 16.8539ZM14.6481 16.1945L15.8267 14.5787C15.6789 14.4708 15.6352 14.39 15.6138 14.336L13.7535 15.0704L11.8933 15.8048C12.2205 16.6337 12.7732 17.3023 13.4694 17.8102L14.6481 16.1945ZM13.7535 15.0704L15.6231 14.36C15.6001 14.2994 15.5776 14.2039 15.6165 14.0172L13.6585 13.6093L11.7006 13.2014C11.5222 14.0576 11.563 14.9362 11.884 15.7808L13.7535 15.0704ZM13.6585 13.6093L15.6165 14.0172C15.658 13.8182 15.7202 13.725 15.7664 13.6728L14.2688 12.3472L12.7712 11.0216C12.2117 11.6537 11.8672 12.4019 11.7006 13.2014L13.6585 13.6093ZM14.2688 12.3472L15.7822 13.6547C15.8096 13.623 15.8905 13.5424 16.1259 13.466L15.5087 11.5636L14.8914 9.66127C14.0839 9.92329 13.3382 10.3651 12.7553 11.0398L14.2688 12.3472ZM15.5087 11.5636L16.1259 13.466C16.352 13.3926 16.7223 13.3341 17.2899 13.3628L17.3907 11.3653L17.4914 9.36785C16.5926 9.32251 15.7082 9.39623 14.8914 9.66127L15.5087 11.5636ZM17.3907 11.3653L17.3029 13.3634L20.3659 13.4979L20.4536 11.4998L20.5414 9.50177L17.4784 9.36724L17.3907 11.3653ZM20.4536 11.4998L18.4956 11.0919L18.1489 12.7562L20.1069 13.1641L22.0648 13.572L22.4116 11.9077L20.4536 11.4998ZM20.1069 13.1641L20.181 11.1655L17.5445 11.0677L17.4704 13.0663L17.3963 15.065L20.0328 15.1627L20.1069 13.1641ZM17.4704 13.0663L17.526 11.0671C16.8743 11.049 16.0819 11.1387 15.368 11.5794L16.4185 13.2813L17.4689 14.9832C17.3587 15.0512 17.2798 15.0685 17.2712 15.0702C17.2662 15.0712 17.2748 15.0691 17.2998 15.0673C17.3246 15.0655 17.3624 15.0641 17.4148 15.0656L17.4704 13.0663ZM16.4185 13.2813L15.368 11.5794C14.5952 12.0564 14.147 12.7946 13.9813 13.5897L15.9393 13.9976L17.8972 14.4055C17.8859 14.4602 17.8538 14.5666 17.7717 14.6892C17.687 14.8159 17.5784 14.9156 17.4689 14.9832L16.4185 13.2813ZM15.9393 13.9976L13.9813 13.5897C13.7987 14.4664 13.9925 15.3606 14.5838 16.0845L16.1328 14.8194L17.6817 13.5542C17.7598 13.6498 17.8425 13.7936 17.8859 13.9777C17.9287 14.1596 17.9169 14.3114 17.8972 14.4055L15.9393 13.9976ZM16.1328 14.8194L14.6513 16.1629C15.1899 16.7569 15.8745 17.0863 16.5681 17.2308L16.976 15.2729L17.3839 13.3149C17.3695 13.3119 17.3961 13.3156 17.4462 13.3426C17.4991 13.371 17.5595 13.4154 17.6143 13.4758L16.1328 14.8194ZM16.976 15.2729L16.5681 17.2308C17.2992 17.3831 18.0642 17.3822 18.817 17.1525L18.2332 15.2396L17.6494 13.3267C17.6357 13.3309 17.5626 13.3521 17.3839 13.3149L16.976 15.2729ZM18.2332 15.2396L18.8376 17.1461C19.576 16.912 20.2266 16.4931 20.7392 15.8931L19.2186 14.594L17.698 13.2949C17.6884 13.3061 17.6835 13.3093 17.681 13.311C17.6781 13.3129 17.6637 13.322 17.6288 13.3331L18.2332 15.2396ZM19.2186 14.594L20.707 15.9299C21.2218 15.3564 21.5568 14.6768 21.7119 13.9326L19.7539 13.5247L17.796 13.1168C17.78 13.1936 17.7581 13.2269 17.7302 13.2581L19.2186 14.594ZM19.7539 13.5247L21.7119 13.9326L22.1973 11.6026L20.2393 11.1947L18.2814 10.7868L17.796 13.1168L19.7539 13.5247ZM20.2393 11.1947L22.1973 11.6026C22.4052 10.6049 22.1499 9.64546 21.5324 8.87831L19.9744 10.1324L18.4164 11.3864C18.3862 11.3488 18.3275 11.2595 18.2932 11.1218C18.2583 10.9819 18.2658 10.8614 18.2814 10.7868L20.2393 11.1947ZM19.9744 10.1324L21.5801 8.93997C20.9772 8.12804 20.1237 7.70376 19.2673 7.52534L18.8594 9.4833L18.4515 11.4413C18.5287 11.4574 18.5372 11.47 18.5065 11.4521C18.4908 11.4429 18.4679 11.4276 18.4419 11.4045C18.4156 11.3813 18.3906 11.3542 18.3688 11.3248L19.9744 10.1324ZM18.8594 9.4833L19.2673 7.52534C18.4197 7.34876 17.5592 7.41973 16.7465 7.7665L17.5314 9.60604L18.3163 11.4456C18.3422 11.4345 18.3671 11.4237 18.4515 11.4413L18.8594 9.4833ZM17.5314 9.60604L16.7583 7.76151C15.9806 8.08749 15.3469 8.61987 14.8834 9.31136L16.5447 10.425L18.2059 11.5386C18.2463 11.4784 18.2705 11.4648 18.3045 11.4506L17.5314 9.60604ZM16.5447 10.425L17.7674 8.84228L16.1669 7.60587L14.9442 9.18859L13.7215 10.7713L15.322 12.0077L16.5447 10.425ZM14.9442 9.18859L16.637 10.2537C16.7438 10.0839 16.875 9.9559 17.0507 9.85207L16.0329 8.13039L15.0151 6.40872C14.293 6.83561 13.6984 7.41312 13.2514 8.12348L14.9442 9.18859ZM16.0329 8.13039L17.053 9.85067C17.2867 9.71207 17.5593 9.61044 17.8903 9.55691L17.571 7.58257L17.2516 5.60823C16.4564 5.73685 15.7036 6.00043 15.0128 6.41012L16.0329 8.13039ZM17.571 7.58257L17.8903 9.55692C18.1905 9.50835 18.5299 9.51272 18.923 9.59462L19.3309 7.63666L19.7388 5.6787C18.9115 5.50634 18.0775 5.47464 17.2516 5.60823L17.571 7.58257ZM19.3309 7.63666L18.923 9.59462C19.4209 9.69836 19.7524 9.86333 19.98 10.0404L21.2081 8.46186L22.4362 6.88331C21.6476 6.26986 20.7276 5.8847 19.7388 5.6787L19.3309 7.63666ZM21.2081 8.46186L20.0053 10.0598C20.2386 10.2354 20.352 10.4045 20.4162 10.5745L22.2871 9.86747L24.1579 9.16042C23.8043 8.22466 23.1983 7.45669 22.4109 6.86394L21.2081 8.46186ZM22.2871 9.86747L20.4357 10.6241C20.4898 10.7565 20.5243 10.9397 20.4616 11.241L22.4195 11.6489L24.3775 12.0568C24.5828 11.0711 24.5291 10.0667 24.1384 9.11088L22.2871 9.86747ZM22.4195 11.6489L20.4616 11.241L19.2064 17.2657L21.1644 17.6736L23.1224 18.0815L24.3775 12.0568L22.4195 11.6489ZM21.1644 17.6736L21.5723 15.7156L19.5086 15.2857L19.1007 17.2436L18.6928 19.2016L20.7565 19.6315L21.1644 17.6736ZM19.1007 17.2436L21.0587 17.6515L21.3811 16.1038L19.4232 15.6959L17.4652 15.288L17.1427 16.8357L19.1007 17.2436ZM19.4232 15.6959L19.1558 17.6779L19.6287 17.7417L19.8961 15.7597L20.1635 13.7776L19.6905 13.7138L19.4232 15.6959ZM19.8961 15.7597L18.427 14.4025C18.2539 14.5899 18.086 14.7149 17.9253 14.7998L18.8594 16.5682L19.7935 18.3367C20.3873 18.0231 20.9105 17.609 21.3652 17.1168L19.8961 15.7597ZM18.8594 16.5682L17.9623 14.7807C17.7976 14.8634 17.6054 14.9249 17.372 14.9561L17.6361 16.9385L17.9003 18.921C18.548 18.8347 19.1713 18.6494 19.7565 18.3558L18.8594 16.5682ZM17.6361 16.9385L17.4201 14.9502C17.2199 14.972 16.9634 14.9638 16.6377 14.896L16.2298 16.8539L15.8219 18.8119C16.4948 18.9521 17.1759 19.0003 17.8522 18.9268L17.6361 16.9385ZM22.8133 21.7679L23.5804 19.9209L23.5376 19.9031L23.494 19.8873L22.8133 21.7679ZM22.2225 21.4365L20.2645 21.0286L20.0189 22.2074L20.9459 22.976L22.2225 21.4365ZM22.6004 19.6224L23.4382 17.8063L21.1552 16.7533L20.6425 19.2145L22.6004 19.6224ZM23.0955 19.8298L22.3713 21.694L22.3793 21.6971L22.3873 21.7001L23.0955 19.8298ZM24.8222 19.8769L23.7673 18.1778L23.7258 18.2035L23.6857 18.2312L24.8222 19.8769ZM25.6252 19.1065L27.2231 20.3093L27.2442 20.2813L27.2642 20.2527L25.6252 19.1065ZM26.5156 17.8333L28.4658 18.2768L24.8766 16.6871L26.5156 17.8333ZM26.1009 19.6571L24.1302 19.9981L28.0512 20.1005L26.1009 19.6571ZM24.2335 8.86641L24.6414 6.90844L21.7611 6.30838L22.2628 9.20746L24.2335 8.86641ZM26.5801 9.35528L28.5565 9.04875L28.3442 7.67985L26.988 7.39732L26.5801 9.35528ZM27.8103 17.2869L27.4024 19.2449L30.2292 19.8338L29.7866 16.9804L27.8103 17.2869ZM26.9781 17.1135L25.2865 16.0466L23.7494 18.4838L26.5702 19.0715L26.9781 17.1135ZM31.2567 10.3296L31.6646 8.37161L30.3056 8.08848L29.565 9.26267L31.2567 10.3296ZM33.62 10.8219L35.2905 11.9216L36.9082 9.46402L34.0279 8.86395L33.62 10.8219ZM27.5988 19.9691L29.2616 21.0806L29.2693 21.0688L27.5988 19.9691ZM25.0823 21.9628L24.6106 20.0192L24.5811 20.0264L24.5518 20.0344L25.0823 21.9628ZM23.5151 21.9836L23.923 20.0256C23.7983 19.9997 23.6848 19.9643 23.5804 19.9209L22.8133 21.7679L22.0463 23.615C22.3893 23.7575 22.7437 23.8658 23.1072 23.9416L23.5151 21.9836ZM22.8133 21.7679L23.494 19.8873C23.4773 19.8813 23.4718 19.8779 23.4746 19.8795C23.4777 19.8812 23.4868 19.8867 23.4991 19.8969L22.2225 21.4365L20.9459 22.976C21.3085 23.2767 21.712 23.4963 22.1326 23.6485L22.8133 21.7679ZM22.2225 21.4365L24.1805 21.8444L24.5584 20.0303L22.6004 19.6224L20.6425 19.2145L20.2645 21.0286L22.2225 21.4365ZM22.6004 19.6224L21.7627 21.4385C21.948 21.524 22.153 21.6092 22.3713 21.694L23.0955 19.8298L23.8198 17.9655C23.6525 17.9005 23.5274 17.8475 23.4382 17.8063L22.6004 19.6224ZM23.0955 19.8298L22.3873 21.7001C22.67 21.8072 22.962 21.897 23.2597 21.959L23.6676 20.001L24.0755 18.0431C24.0183 18.0312 23.9289 18.0067 23.8038 17.9594L23.0955 19.8298ZM23.6676 20.001L23.2597 21.959C24.0045 22.1142 25.0414 22.1561 25.9587 21.5226L24.8222 19.8769L23.6857 18.2312C23.8697 18.1042 24.037 18.0681 24.117 18.0595C24.186 18.0521 24.1818 18.0652 24.0755 18.0431L23.6676 20.001ZM24.8222 19.8769L25.8772 21.5761C26.4185 21.24 26.8601 20.7915 27.2231 20.3093L25.6252 19.1065L24.0273 17.9037C23.8781 18.102 23.7844 18.1671 23.7673 18.1778L24.8222 19.8769ZM25.6252 19.1065L27.2642 20.2527L28.1546 18.9795L26.5156 17.8333L24.8766 16.6871L23.9863 17.9603L25.6252 19.1065ZM26.5156 17.8333L24.5654 17.3899L24.1507 19.2137L26.1009 19.6571L28.0512 20.1005L28.4658 18.2768L26.5156 17.8333ZM26.1009 19.6571L28.0716 19.316L26.2042 8.52535L24.2335 8.86641L22.2628 9.20746L24.1302 19.9981L26.1009 19.6571ZM24.2335 8.86641L23.8256 10.8244L26.1722 11.3132L26.5801 9.35528L26.988 7.39732L24.6414 6.90844L24.2335 8.86641ZM26.5801 9.35528L24.6037 9.66181L25.8339 17.5934L27.8103 17.2869L29.7866 16.9804L28.5565 9.04875L26.5801 9.35528ZM27.8103 17.2869L28.2182 15.3289L27.386 15.1556L26.9781 17.1135L26.5702 19.0715L27.4024 19.2449L27.8103 17.2869ZM26.9781 17.1135L28.6698 18.1804L32.9484 11.3965L31.2567 10.3296L29.565 9.26267L25.2865 16.0466L26.9781 17.1135ZM31.2567 10.3296L30.8488 12.2875L33.212 12.7799L33.62 10.8219L34.0279 8.86395L31.6646 8.37161L31.2567 10.3296ZM33.62 10.8219L31.9494 9.72227L25.9282 18.8695L27.5988 19.9691L29.2693 21.0688L35.2905 11.9216L33.62 10.8219ZM27.5988 19.9691L25.936 18.8577C25.6742 19.2494 25.4174 19.5279 25.1775 19.7235L26.4414 21.2735L27.7054 22.8235C28.3022 22.3368 28.817 21.7457 29.2615 21.0806L27.5988 19.9691ZM26.4414 21.2735L25.1775 19.7235C24.9727 19.8906 24.7866 19.9765 24.6106 20.0192L25.0823 21.9628L25.5539 23.9064C26.3534 23.7124 27.0734 23.3388 27.7054 22.8235L26.4414 21.2735ZM25.0823 21.9628L24.5518 20.0344C24.4253 20.0692 24.229 20.0894 23.923 20.0256L23.5151 21.9836L23.1072 23.9416C23.9329 24.1136 24.7813 24.1199 25.6128 23.8912L25.0823 21.9628ZM34.3845 20.1499L33.018 21.6103L33.0249 21.6168L33.032 21.6232L34.3845 20.1499ZM33.4733 18.6056L31.5316 19.0851L31.5355 19.1008L31.5396 19.1164L33.4733 18.6056ZM34.6341 11.0332L35.042 9.07524L33.0841 8.66733L32.6762 10.6253L34.6341 11.0332ZM36.8143 11.4874L38.7723 11.8953L39.1802 9.93735L37.2222 9.52944L36.8143 11.4874ZM35.7062 17.89L33.7725 18.4008L33.7845 18.4461L33.7985 18.4907L35.7062 17.89ZM36.2166 18.6909L34.8594 20.16L34.8936 20.1915L34.9291 20.2214L36.2166 18.6909ZM38.1305 19.0896L38.7312 20.9973L38.7598 20.9883L38.788 20.9784L38.1305 19.0896ZM38.9217 18.5425L40.4522 19.8299L38.9217 18.5425ZM40.4757 12.2502L40.8836 10.2922L38.9256 9.88432L38.5177 11.8423L40.4757 12.2502ZM42.6559 12.7044L44.6138 13.1123L45.0217 11.1543L43.0638 10.7464L42.6559 12.7044ZM40.7697 21.758L40.3618 23.716L42.3198 24.1239L42.7277 22.1659L40.7697 21.758ZM38.706 21.3281L36.7481 20.9202L36.3402 22.8781L38.2981 23.286L38.706 21.3281ZM39.077 19.5473L40.9759 18.9193L38.6377 11.8496L37.1191 19.1394L39.077 19.5473ZM39.1942 19.9017L40.8796 20.9785L41.3918 20.1768L41.0931 19.2737L39.1942 19.9017ZM37.8857 20.9314L37.2731 19.0275L37.2636 19.0306L37.2542 19.0337L37.8857 20.9314ZM36.1181 20.9973L36.526 19.0393C36.1254 18.9559 35.8902 18.8172 35.737 18.6766L34.3845 20.1499L33.032 21.6232C33.7923 22.3212 34.7128 22.7475 35.7102 22.9553L36.1181 20.9973ZM34.3845 20.1499L35.7509 18.6895C35.5907 18.5395 35.4766 18.3584 35.407 18.0948L33.4733 18.6056L31.5396 19.1164C31.7936 20.0779 32.287 20.9263 33.018 21.6103L34.3845 20.1499ZM33.4733 18.6056L35.415 18.1261C35.3495 17.8609 35.3312 17.4933 35.4375 16.9831L33.4795 16.5752L31.5216 16.1673C31.3181 17.1439 31.2957 18.1298 31.5316 19.0851L33.4733 18.6056ZM33.4795 16.5752L35.4375 16.9831L36.5921 11.4411L34.6341 11.0332L32.6762 10.6253L31.5216 16.1673L33.4795 16.5752ZM34.6341 11.0332L34.2262 12.9912L36.4064 13.4454L36.8143 11.4874L37.2222 9.52944L35.042 9.07524L34.6341 11.0332ZM36.8143 11.4874L34.8563 11.0795L33.7399 16.4384L35.6979 16.8463L37.6558 17.2542L38.7723 11.8953L36.8143 11.4874ZM35.6979 16.8463L33.7399 16.4384C33.6087 17.0682 33.5967 17.7351 33.7725 18.4008L35.7062 17.89L37.6399 17.3792C37.6428 17.3902 37.6411 17.3904 37.6409 17.3742C37.6408 17.357 37.6425 17.3182 37.6558 17.2542L35.6979 16.8463ZM35.7062 17.89L33.7985 18.4907C34.0027 19.139 34.3654 19.7036 34.8594 20.16L36.2166 18.6909L37.5737 17.2218C37.5731 17.2213 37.5823 17.2299 37.5936 17.2477C37.605 17.2657 37.6114 17.2814 37.6138 17.2892L35.7062 17.89ZM36.2166 18.6909L34.9291 20.2214C35.4594 20.6675 36.0741 20.9473 36.7254 21.083L37.1333 19.125L37.5412 17.167C37.5239 17.1634 37.512 17.16 37.5047 17.1576C37.4975 17.1552 37.4942 17.1536 37.4938 17.1534C37.4934 17.1532 37.4949 17.1539 37.4974 17.1556C37.5 17.1572 37.5023 17.1589 37.504 17.1604L36.2166 18.6909ZM37.1333 19.125L36.7254 21.083C37.3755 21.2184 38.0583 21.2092 38.7312 20.9973L38.1305 19.0896L37.5297 17.182C37.5393 17.179 37.549 17.1767 37.5582 17.1751C37.5674 17.1735 37.5742 17.173 37.578 17.1729C37.5817 17.1728 37.5811 17.173 37.5755 17.1725C37.5698 17.172 37.5585 17.1707 37.5412 17.167L37.1333 19.125ZM38.1305 19.0896L38.788 20.9784C39.4444 20.7499 40.0083 20.3576 40.4522 19.8299L38.9217 18.5425L37.3911 17.2551C37.3929 17.253 37.4041 17.2407 37.4248 17.2264C37.4457 17.2119 37.4639 17.204 37.4729 17.2008L38.1305 19.0896ZM38.9217 18.5425L40.4522 19.8299C40.9226 19.2707 41.1915 18.6202 41.3276 17.9671L39.3696 17.5592L37.4117 17.1513C37.3964 17.2247 37.381 17.2629 37.3752 17.2754C37.3701 17.2867 37.3735 17.2761 37.3911 17.2551L38.9217 18.5425ZM39.3696 17.5592L41.3276 17.9671L42.4337 12.6581L40.4757 12.2502L38.5177 11.8423L37.4117 17.1513L39.3696 17.5592ZM40.4757 12.2502L40.0678 14.2082L42.248 14.6624L42.6559 12.7044L43.0638 10.7464L40.8836 10.2922L40.4757 12.2502ZM42.6559 12.7044L40.6979 12.2965L38.8118 21.3501L40.7697 21.758L42.7277 22.1659L44.6138 13.1123L42.6559 12.7044ZM40.7697 21.758L41.1776 19.8L39.1139 19.3701L38.706 21.3281L38.2981 23.286L40.3618 23.716L40.7697 21.758ZM38.706 21.3281L40.664 21.736L41.035 19.9552L39.077 19.5473L37.1191 19.1394L36.7481 20.9202L38.706 21.3281ZM39.077 19.5473L37.1782 20.1753L37.2954 20.5297L39.1942 19.9017L41.0931 19.2737L40.9759 18.9193L39.077 19.5473ZM39.1942 19.9017L37.5088 18.8248C37.4175 18.9677 37.3496 19.0029 37.2731 19.0275L37.8857 20.9314L38.4983 22.8353C39.5137 22.5086 40.3181 21.8573 40.8796 20.9785L39.1942 19.9017ZM37.8857 20.9314L37.2542 19.0337C37.1065 19.0829 36.8818 19.1135 36.526 19.0393L36.1181 20.9973L35.7102 22.9553C36.6414 23.1493 37.5951 23.1359 38.5171 22.8291L37.8857 20.9314ZM42.7963 22.1802L40.8384 21.7723L40.4305 23.7303L42.3884 24.1382L42.7963 22.1802ZM44.6825 13.1266L45.0904 11.1686L43.1325 10.7607L42.7246 12.7187L44.6825 13.1266ZM46.7296 13.5531L48.6875 13.961L49.0954 12.003L47.1375 11.5951L46.7296 13.5531ZM46.31 15.5668L44.4004 16.1611L46.6938 23.5308L48.268 15.9747L46.31 15.5668ZM46.206 15.2326L44.4579 14.2609L44.0419 15.0093L44.2963 15.8269L46.206 15.2326ZM47.4826 14.0225L46.8456 12.1267L46.8353 12.1302L46.8251 12.1337L47.4826 14.0225ZM49.7294 14.0739L51.6874 14.4818L52.0953 12.5238L50.1373 12.1159L49.7294 14.0739ZM49.3272 16.0044L48.9193 17.9624L50.8773 18.3703L51.2852 16.4123L49.3272 16.0044ZM46.9258 16.1119L48.0219 17.7848L48.034 17.7769L48.046 17.7687L46.9258 16.1119ZM44.9765 22.6344L44.5686 24.5924L46.5266 25.0003L46.9345 23.0423L44.9765 22.6344ZM42.7963 22.1802L44.7543 22.5881L46.6405 13.5345L44.6825 13.1266L42.7246 12.7187L40.8384 21.7723L42.7963 22.1802ZM44.6825 13.1266L44.2746 15.0846L46.3217 15.511L46.7296 13.5531L47.1375 11.5951L45.0904 11.1686L44.6825 13.1266ZM46.7296 13.5531L44.7716 13.1452L44.3521 15.1589L46.31 15.5668L48.268 15.9747L48.6875 13.961L46.7296 13.5531ZM46.31 15.5668L48.2197 14.9725L48.1157 14.6383L46.206 15.2326L44.2963 15.8269L44.4004 16.1611L46.31 15.5668ZM46.206 15.2326L47.9541 16.2043C48.0533 16.0258 48.1298 15.9402 48.1649 15.907C48.1945 15.8789 48.1862 15.8953 48.1402 15.9113L47.4826 14.0225L46.8251 12.1337C45.7145 12.5204 44.9596 13.3584 44.4579 14.2609L46.206 15.2326ZM47.4826 14.0225L48.1197 15.9184C48.2319 15.8807 48.4346 15.847 48.7889 15.9209L49.1968 13.9629L49.6047 12.0049C48.6943 11.8153 47.7541 11.8214 46.8456 12.1267L47.4826 14.0225ZM49.1968 13.9629L48.7889 15.9209L49.3215 16.0318L49.7294 14.0739L50.1373 12.1159L49.6047 12.0049L49.1968 13.9629ZM49.7294 14.0739L47.7714 13.6659L47.3692 15.5965L49.3272 16.0044L51.2852 16.4123L51.6874 14.4818L49.7294 14.0739ZM49.3272 16.0044L49.7351 14.0464L48.9529 13.8835L48.545 15.8414L48.1371 17.7994L48.9193 17.9624L49.3272 16.0044ZM48.545 15.8414L48.9529 13.8835C47.8876 13.6615 46.7788 13.7971 45.8056 14.455L46.9258 16.1119L48.046 17.7687C48.0463 17.7685 48.0448 17.7696 48.0415 17.7713C48.0382 17.7731 48.0339 17.7752 48.0287 17.7772C48.0174 17.7817 48.0081 17.7839 48.0037 17.7846C47.9932 17.7864 48.031 17.7773 48.1371 17.7994L48.545 15.8414ZM46.9258 16.1119L45.8298 14.439C44.812 15.1058 44.2879 16.1337 44.0691 17.1838L46.0271 17.5917L47.9851 17.9996C48.0201 17.8315 48.0595 17.7591 48.0687 17.744C48.0728 17.7372 48.0708 17.742 48.0604 17.7528C48.0498 17.7639 48.0363 17.7754 48.0219 17.7848L46.9258 16.1119ZM46.0271 17.5917L44.0691 17.1838L43.0186 22.2265L44.9765 22.6344L46.9345 23.0423L47.9851 17.9996L46.0271 17.5917ZM44.9765 22.6344L45.3844 20.6765L43.2043 20.2223L42.7963 22.1802L42.3884 24.1382L44.5686 24.5924L44.9765 22.6344ZM50.1438 23.5894L48.9651 25.2052L50.1438 23.5894ZM49.2492 22.4653L47.3797 23.1757L47.3842 23.1877L47.3889 23.1997L49.2492 22.4653ZM49.7645 19.7421L51.2621 21.0677L51.2701 21.0587L51.2779 21.0496L49.7645 19.7421ZM51.0043 18.9586L51.6216 20.8609L51.6216 20.8609L51.0043 18.9586ZM52.8864 18.7602L52.7856 20.7577L52.7986 20.7583L52.8864 18.7602ZM55.9493 18.8948L57.9073 19.3027L58.387 16.9999L56.0371 16.8967L55.9493 18.8948ZM55.6026 20.559L55.5285 22.5576L57.2161 22.6202L57.5605 20.9669L55.6026 20.559ZM52.9661 20.4612L53.0402 18.4626L53.031 18.4623L53.0217 18.462L52.9661 20.4612ZM51.9141 20.6762L50.8637 18.9743L50.8637 18.9743L51.9141 20.6762ZM51.6284 22.2143L50.0795 23.4794L50.1122 23.5195L50.1469 23.5578L51.6284 22.2143ZM53.7289 22.6345L54.3127 24.5474L54.323 24.5443L54.3333 24.541L53.7289 22.6345ZM54.7143 21.9889L53.2259 20.653L53.2095 20.6712L53.1936 20.6898L54.7143 21.9889ZM55.4701 17.5273L53.8645 18.7197L53.8877 18.751L53.9121 18.7813L55.4701 17.5273ZM53.0271 17.001L53.8002 18.8455L53.812 18.8405L53.0271 17.001ZM52.0404 17.8199L50.8177 19.4026L52.5105 20.7104L53.7016 18.9336L52.0404 17.8199ZM50.4399 16.5835L48.7471 15.5184L47.7798 17.0558L49.2172 18.1662L50.4399 16.5835ZM51.5286 15.5253L52.5463 17.247L52.5487 17.2456L51.5286 15.5253ZM53.0666 14.9775L52.7473 13.0031L53.0666 14.9775ZM56.7038 15.8568L55.4757 17.4353L55.4883 17.4451L55.501 17.4547L56.7038 15.8568ZM57.7828 17.2624L55.9119 17.9694L55.9213 17.9943L55.9314 18.019L57.7828 17.2624ZM56.6601 25.0685L56.2522 27.0265L58.2101 27.4344L58.618 25.4764L56.6601 25.0685ZM54.5964 24.6386L52.6384 24.2306L52.2305 26.1886L54.1885 26.5965L54.5964 24.6386ZM54.9188 23.0908L55.1862 21.1087L53.3407 20.8598L52.9609 22.6829L54.9188 23.0908ZM55.3918 23.1546L56.8608 24.5117L59.4706 21.6867L55.6591 21.1725L55.3918 23.1546ZM54.3551 23.9631L55.2521 25.7507L55.2707 25.7413L55.2892 25.7316L54.3551 23.9631ZM53.1318 24.3334L53.3479 26.3217L53.372 26.3191L53.396 26.3159L53.1318 24.3334ZM51.7255 24.2488L52.1334 22.2909C51.7152 22.2038 51.4672 22.0792 51.3224 21.9736L50.1438 23.5894L48.9651 25.2052C49.6645 25.7153 50.471 26.0304 51.3176 26.2068L51.7255 24.2488ZM50.1438 23.5894L51.3224 21.9736C51.1746 21.8657 51.1309 21.7849 51.1095 21.7309L49.2492 22.4653L47.3889 23.1997C47.7162 24.0287 48.2689 24.6973 48.9651 25.2052L50.1438 23.5894ZM49.2492 22.4653L51.1188 21.7549C51.0958 21.6943 51.0733 21.5988 51.1122 21.4121L49.1542 21.0042L47.1963 20.5963C47.0179 21.4525 47.0587 22.3311 47.3797 23.1757L49.2492 22.4653ZM49.1542 21.0042L51.1122 21.4121C51.1537 21.2131 51.2159 21.1199 51.2621 21.0677L49.7645 19.7421L48.2669 18.4166C47.7074 19.0486 47.3628 19.7968 47.1963 20.5963L49.1542 21.0042ZM49.7645 19.7421L51.2779 21.0496C51.3053 21.0179 51.3862 20.9373 51.6216 20.8609L51.0043 18.9586L50.3871 17.0562C49.5796 17.3182 48.8339 17.76 48.251 18.4347L49.7645 19.7421ZM51.0043 18.9586L51.6216 20.8609C51.8477 20.7876 52.218 20.7291 52.7856 20.7577L52.8864 18.7602L52.9871 16.7628C52.0883 16.7174 51.2039 16.7911 50.3871 17.0562L51.0043 18.9586ZM52.8864 18.7602L52.7986 20.7583L55.8615 20.8928L55.9493 18.8948L56.0371 16.8967L52.9741 16.7622L52.8864 18.7602ZM55.9493 18.8948L53.9913 18.4868L53.6446 20.1511L55.6026 20.559L57.5605 20.9669L57.9073 19.3027L55.9493 18.8948ZM55.6026 20.559L55.6767 18.5604L53.0402 18.4626L52.9661 20.4612L52.892 22.4599L55.5285 22.5576L55.6026 20.559ZM52.9661 20.4612L53.0217 18.462C52.37 18.4439 51.5776 18.5337 50.8637 18.9743L51.9141 20.6762L52.9646 22.3781C52.8544 22.4461 52.7755 22.4634 52.7669 22.4651C52.7619 22.4662 52.7705 22.4641 52.7955 22.4622C52.8203 22.4604 52.8581 22.459 52.9105 22.4605L52.9661 20.4612ZM51.9141 20.6762L50.8637 18.9743C50.0909 19.4513 49.6427 20.1895 49.477 20.9846L51.435 21.3925L53.3929 21.8005C53.3815 21.8552 53.3495 21.9615 53.2674 22.0841C53.1827 22.2108 53.0741 22.3105 52.9646 22.3781L51.9141 20.6762ZM51.435 21.3925L49.477 20.9846C49.2944 21.8613 49.4882 22.7556 50.0795 23.4794L51.6284 22.2143L53.1774 20.9491C53.2555 21.0447 53.3382 21.1885 53.3816 21.3726C53.4244 21.5545 53.4125 21.7063 53.3929 21.8005L51.435 21.3925ZM51.6284 22.2143L50.1469 23.5578C50.6856 24.1518 51.3702 24.4812 52.0638 24.6257L52.4717 22.6678L52.8796 20.7098C52.8652 20.7068 52.8918 20.7106 52.9419 20.7375C52.9948 20.766 53.0552 20.8103 53.11 20.8707L51.6284 22.2143ZM52.4717 22.6678L52.0638 24.6257C52.7949 24.7781 53.5599 24.7771 54.3127 24.5474L53.7289 22.6345L53.1451 20.7216C53.1314 20.7258 53.0583 20.7471 52.8796 20.7098L52.4717 22.6678ZM53.7289 22.6345L54.3333 24.541C55.0717 24.3069 55.7223 23.888 56.2349 23.288L54.7143 21.9889L53.1936 20.6898C53.1841 20.701 53.1791 20.7043 53.1767 20.7059C53.1737 20.7078 53.1594 20.7169 53.1245 20.728L53.7289 22.6345ZM54.7143 21.9889L56.2027 23.3248C56.7175 22.7513 57.0525 22.0718 57.2076 21.3275L55.2496 20.9196L53.2917 20.5117C53.2757 20.5885 53.2538 20.6219 53.2259 20.653L54.7143 21.9889ZM55.2496 20.9196L57.2076 21.3275L57.693 18.9975L55.735 18.5896L53.7771 18.1817L53.2917 20.5117L55.2496 20.9196ZM55.735 18.5896L57.693 18.9975C57.9008 17.9998 57.6456 17.0404 57.0281 16.2732L55.4701 17.5273L53.9121 18.7813C53.8819 18.7437 53.8232 18.6544 53.7889 18.5167C53.754 18.3768 53.7615 18.2563 53.7771 18.1817L55.735 18.5896ZM55.4701 17.5273L57.0758 16.3349C56.4729 15.523 55.6194 15.0987 54.763 14.9203L54.3551 16.8782L53.9472 18.8362C54.0244 18.8523 54.0329 18.8649 54.0022 18.847C53.9865 18.8379 53.9636 18.8225 53.9376 18.7994C53.9113 18.7762 53.8863 18.7491 53.8645 18.7197L55.4701 17.5273ZM54.3551 16.8782L54.763 14.9203C53.9154 14.7437 53.0549 14.8147 52.2422 15.1614L53.0271 17.001L53.812 18.8405C53.8379 18.8295 53.8628 18.8186 53.9472 18.8362L54.3551 16.8782ZM53.0271 17.001L52.254 15.1564C51.4763 15.4824 50.8426 16.0148 50.3791 16.7063L52.0404 17.8199L53.7016 18.9336C53.742 18.8734 53.7662 18.8598 53.8002 18.8455L53.0271 17.001ZM52.0404 17.8199L53.263 16.2372L51.6626 15.0008L50.4399 16.5835L49.2172 18.1662L50.8177 19.4026L52.0404 17.8199ZM50.4399 16.5835L52.1327 17.6486C52.2395 17.4788 52.3707 17.3508 52.5463 17.247L51.5286 15.5253L50.5108 13.8036C49.7887 14.2305 49.1941 14.808 48.7471 15.5184L50.4399 16.5835ZM51.5286 15.5253L52.5487 17.2456C52.7824 17.107 53.055 17.0054 53.386 16.9518L53.0666 14.9775L52.7473 13.0031C51.9521 13.1318 51.1993 13.3953 50.5085 13.805L51.5286 15.5253ZM53.0666 14.9775L53.386 16.9518C53.6862 16.9033 54.0256 16.9076 54.4187 16.9895L54.8266 15.0316L55.2345 13.0736C54.4072 12.9013 53.5732 12.8696 52.7473 13.0031L53.0666 14.9775ZM54.8266 15.0316L54.4187 16.9895C54.9166 17.0933 55.2481 17.2582 55.4757 17.4353L56.7038 15.8568L57.9318 14.2782C57.1433 13.6648 56.2233 13.2796 55.2345 13.0736L54.8266 15.0316ZM56.7038 15.8568L55.501 17.4547C55.7343 17.6303 55.8476 17.7994 55.9119 17.9694L57.7828 17.2624L59.6536 16.5553C59.3 15.6196 58.694 14.8516 57.9065 14.2589L56.7038 15.8568ZM57.7828 17.2624L55.9314 18.019C55.9855 18.1514 56.02 18.3346 55.9573 18.6359L57.9152 19.0438L59.8732 19.4518C60.0785 18.466 60.0247 17.4616 59.6341 16.5058L57.7828 17.2624ZM57.9152 19.0438L55.9573 18.6359L54.7021 24.6606L56.6601 25.0685L58.618 25.4764L59.8732 19.4518L57.9152 19.0438ZM56.6601 25.0685L57.068 23.1105L55.0043 22.6806L54.5964 24.6386L54.1885 26.5965L56.2522 27.0265L56.6601 25.0685ZM54.5964 24.6386L56.5544 25.0465L56.8768 23.4987L54.9188 23.0908L52.9609 22.6829L52.6384 24.2306L54.5964 24.6386ZM54.9188 23.0908L54.6515 25.0728L55.1244 25.1366L55.3918 23.1546L55.6591 21.1725L55.1862 21.1087L54.9188 23.0908ZM55.3918 23.1546L53.9227 21.7974C53.7496 21.9848 53.5817 22.1098 53.421 22.1947L54.3551 23.9631L55.2892 25.7316C55.883 25.418 56.4062 25.0039 56.8608 24.5117L55.3918 23.1546ZM54.3551 23.9631L53.458 22.1756C53.2933 22.2583 53.1011 22.3199 52.8676 22.351L53.1318 24.3334L53.396 26.3159C54.0437 26.2296 54.667 26.0443 55.2521 25.7507L54.3551 23.9631ZM53.1318 24.3334L52.9158 22.3451C52.7156 22.3669 52.4591 22.3587 52.1334 22.2909L51.7255 24.2488L51.3176 26.2068C51.9905 26.347 52.6716 26.3952 53.3479 26.3217L53.1318 24.3334ZM58.6751 25.4883L56.7172 25.0804L56.3093 27.0383L58.2672 27.4463L58.6751 25.4883ZM60.5613 16.4347L60.9692 14.4767L59.0113 14.0688L58.6033 16.0268L60.5613 16.4347ZM62.6084 16.8612L64.5663 17.2691L64.9742 15.3111L63.0163 14.9032L62.6084 16.8612ZM62.2374 18.6419L60.3147 19.1929L64.1953 19.0498L62.2374 18.6419ZM62.1368 18.291L60.4588 17.2029L59.9634 17.9668L60.2142 18.842L62.1368 18.291ZM63.4252 17.2744L64.0567 19.1721L64.0634 19.1699L64.0701 19.1676L63.4252 17.2744ZM66.8869 17.9956L65.5684 19.4994L65.5753 19.5055L65.5822 19.5115L66.8869 17.9956ZM67.8487 19.4636L65.938 20.0545L65.9407 20.0632L65.9435 20.072L67.8487 19.4636ZM66.6969 27.1595L66.289 29.1175L68.247 29.5254L68.6549 27.5674L66.6969 27.1595ZM64.5167 26.7053L62.5588 26.2974L62.1509 28.2553L64.1088 28.6632L64.5167 26.7053ZM65.6047 20.3159L67.522 19.7468L67.522 19.7468L65.6047 20.3159ZM65.0944 19.515L63.7107 20.9591L63.7455 20.9924L63.7818 21.024L65.0944 19.515ZM63.1971 19.1197L63.7979 21.0273L63.8264 21.0183L63.8547 21.0085L63.1971 19.1197ZM62.4093 19.6502L63.9399 20.9376L62.4093 19.6502ZM60.8553 25.9425L60.4474 27.9005L62.4054 28.3084L62.8133 26.3504L60.8553 25.9425ZM58.6751 25.4883L60.6331 25.8962L62.5193 16.8426L60.5613 16.4347L58.6033 16.0268L56.7172 25.0804L58.6751 25.4883ZM60.5613 16.4347L60.1534 18.3926L62.2004 18.8191L62.6084 16.8612L63.0163 14.9032L60.9692 14.4767L60.5613 16.4347ZM62.6084 16.8612L60.6504 16.4532L60.2794 18.234L62.2374 18.6419L64.1953 19.0498L64.5663 17.2691L62.6084 16.8612ZM62.2374 18.6419L64.16 18.091L64.0594 17.7401L62.1368 18.291L60.2142 18.842L60.3147 19.1929L62.2374 18.6419ZM62.1368 18.291L63.8149 19.3792C63.9071 19.237 63.9779 19.1983 64.0567 19.1721L63.4252 17.2744L62.7938 15.3767C61.8028 15.7065 61.0147 16.3455 60.4588 17.2029L62.1368 18.291ZM63.4252 17.2744L64.0701 19.1676C64.2358 19.1112 64.4637 19.0822 64.805 19.1534L65.2129 17.1954L65.6208 15.2374C64.6751 15.0404 63.7112 15.0642 62.7803 15.3813L63.4252 17.2744ZM65.2129 17.1954L64.805 19.1534C65.1796 19.2314 65.4109 19.3614 65.5684 19.4994L66.8869 17.9956L68.2054 16.4918C67.4624 15.8403 66.5777 15.4368 65.6208 15.2374L65.2129 17.1954ZM66.8869 17.9956L65.5822 19.5115C65.7586 19.6633 65.8692 19.8321 65.938 20.0545L67.8487 19.4636L69.7595 18.8728C69.4686 17.9321 68.9379 17.1222 68.1916 16.4798L66.8869 17.9956ZM67.8487 19.4636L65.9435 20.072C66.0055 20.2662 66.0341 20.5348 65.9525 20.9267L67.9104 21.3346L69.8684 21.7425C70.0688 20.7808 70.0562 19.8021 69.754 18.8553L67.8487 19.4636ZM67.9104 21.3346L65.9525 20.9267L64.739 26.7516L66.6969 27.1595L68.6549 27.5674L69.8684 21.7425L67.9104 21.3346ZM66.6969 27.1595L67.1048 25.2015L64.9246 24.7473L64.5167 26.7053L64.1088 28.6632L66.289 29.1175L66.6969 27.1595ZM64.5167 26.7053L66.4747 27.1132L67.5807 21.8042L65.6228 21.3963L63.6648 20.9884L62.5588 26.2974L64.5167 26.7053ZM65.6228 21.3963L67.5807 21.8042C67.7168 21.151 67.73 20.4473 67.522 19.7468L65.6047 20.3159L63.6874 20.885C63.6796 20.8587 63.6807 20.8477 63.6809 20.86C63.6812 20.8738 63.6801 20.9149 63.6648 20.9884L65.6228 21.3963ZM65.6047 20.3159L67.522 19.7468C67.3221 19.0733 66.9479 18.4765 66.4069 18.0059L65.0944 19.515L63.7818 21.024C63.7632 21.0078 63.7398 20.9825 63.7191 20.9498C63.6985 20.9176 63.6897 20.8929 63.6874 20.885L65.6047 20.3159ZM65.0944 19.515L66.478 18.0708C65.9334 17.549 65.2768 17.2495 64.6056 17.1097L64.1977 19.0677L63.7898 21.0257C63.8245 21.0329 63.8251 21.0371 63.8037 21.0264C63.7806 21.0149 63.7462 20.9931 63.7107 20.9591L65.0944 19.515ZM64.1977 19.0677L64.6056 17.1097C63.9314 16.9693 63.2268 16.9916 62.5395 17.2309L63.1971 19.1197L63.8547 21.0085C63.8435 21.0124 63.8311 21.0158 63.8182 21.0183C63.8053 21.0208 63.794 21.0221 63.7851 21.0225C63.7663 21.0235 63.7662 21.0207 63.7898 21.0257L64.1977 19.0677ZM63.1971 19.1197L62.5963 17.2121C61.9125 17.4274 61.331 17.8251 60.8788 18.3628L62.4093 19.6502L63.9399 20.9376C63.9346 20.9439 63.9167 20.963 63.885 20.9844C63.8529 21.006 63.8214 21.0199 63.7979 21.0273L63.1971 19.1197ZM62.4093 19.6502L60.8788 18.3628C60.4084 18.922 60.1395 19.5724 60.0034 20.2256L61.9614 20.6335L63.9193 21.0414C63.9346 20.968 63.9501 20.9298 63.9558 20.9172C63.9609 20.906 63.9575 20.9166 63.9399 20.9376L62.4093 19.6502ZM61.9614 20.6335L60.0034 20.2256L58.8974 25.5346L60.8553 25.9425L62.8133 26.3504L63.9193 21.0414L61.9614 20.6335ZM60.8553 25.9425L61.2632 23.9845L59.0831 23.5303L58.6751 25.4883L58.2672 27.4463L60.4474 27.9005L60.8553 25.9425Z" fill="#FFA74F" mask="url(#path-1-outside-1_103_160)"/>
</svg>
