<svg width="116" height="85" viewBox="0 0 116 85" fill="none" xmlns="http://www.w3.org/2000/svg">
<mask id="path-1-outside-1_103_149" maskUnits="userSpaceOnUse" x="0.302057" y="-2.4762" width="116.681" height="87.6126" fill="black">
<rect fill="white" x="0.302057" y="-2.4762" width="116.681" height="87.6126"/>
<path d="M10.5977 81.4048L3.45547 70.9458L5.28053 69.6995L12.8308 72.3455L11.9604 72.9399L12.1596 65.0019L13.9846 63.7556L21.1269 74.2146L19.2036 75.528L13.5473 67.245L14.416 66.9194L14.0572 74.9252L13.8326 75.0786L6.34361 72.4319L6.85073 71.818L12.507 80.101L10.5977 81.4048ZM25.4056 71.5398C24.8721 71.9041 24.3481 72.1315 23.8336 72.2221C23.3191 72.3128 22.8423 72.2678 22.4034 72.0872C21.958 71.8973 21.5851 71.5824 21.2847 71.1425C20.9971 70.7213 20.8351 70.283 20.7986 69.8276C20.7557 69.3629 20.8541 68.884 21.0938 68.3909C21.3335 67.8978 21.7209 67.4 22.2559 66.8974L24.4768 64.7838L25.4355 66.1876L23.5368 68.0195C23.2166 68.3342 23.025 68.6366 22.9623 68.9265C22.8995 69.2164 22.9608 69.497 23.1461 69.7685C23.3251 70.0305 23.5671 70.174 23.8723 70.1989C24.1805 70.208 24.4843 70.1103 24.7838 69.9058C25.1676 69.6438 25.4502 69.3341 25.6316 68.9769C25.8161 68.6039 25.8888 68.218 25.8498 67.8192C25.8201 67.414 25.6871 67.0383 25.4506 66.692L24.1084 64.7266C23.8847 64.399 23.5683 64.217 23.1593 64.1807C22.7532 64.1287 22.3396 64.2465 21.9184 64.5341C21.5253 64.8025 21.2478 65.1498 21.086 65.576C20.9271 65.9864 20.8957 66.4127 20.9918 66.8549L18.9911 67.1506C18.866 66.6459 18.8635 66.1399 18.9836 65.6324C19.1067 65.1092 19.3306 64.6132 19.6554 64.1443C19.9803 63.6755 20.4001 63.2653 20.9148 62.9138C21.5419 62.4856 22.174 62.2255 22.8111 62.1335C23.4418 62.0322 24.0288 62.0979 24.5721 62.3308C25.1183 62.5479 25.5768 62.9278 25.9475 63.4707L29.418 68.5528L27.6772 69.7415L26.7856 68.4359L27.1595 68.1394C27.1866 68.6012 27.1412 69.0371 27.0232 69.447C26.8987 69.8477 26.7049 70.227 26.4417 70.5852C26.1721 70.934 25.8267 71.2522 25.4056 71.5398ZM31.1178 67.392L23.8605 56.7645L25.6996 55.5087L30.4547 62.4719L29.6089 62.7407L30.6336 56.524L32.9219 54.9614L32.1997 59.9629L38.1934 62.5602L36.0875 63.9982L30.8851 61.7457L31.8268 60.7733L31.2117 64.8164L31.0203 63.3002L32.9569 66.1361L31.1178 67.392ZM41.6518 60.4455C41.1183 60.8098 40.5943 61.0373 40.0798 61.1279C39.5652 61.2185 39.0885 61.1735 38.6495 60.9929C38.2042 60.803 37.8313 60.4881 37.5309 60.0482C37.2433 59.627 37.0813 59.1888 37.0448 58.7334C37.0019 58.2686 37.1003 57.7897 37.34 57.2966C37.5796 56.8036 37.967 56.3057 38.5021 55.8031L40.723 53.6895L41.6817 55.0934L39.783 56.9252C39.4628 57.24 39.2712 57.5423 39.2084 57.8322C39.1457 58.1221 39.2069 58.4028 39.3923 58.6742C39.5712 58.9363 39.8133 59.0797 40.1185 59.1046C40.4267 59.1138 40.7305 59.0161 41.03 58.8115C41.4137 58.5495 41.6963 58.2399 41.8778 57.8826C42.0623 57.5096 42.135 57.1238 42.096 56.725C42.0663 56.3198 41.9332 55.944 41.6968 55.5978L40.3546 53.6323C40.1309 53.3047 39.8145 53.1228 39.4055 53.0865C38.9994 53.0344 38.5857 53.1522 38.1646 53.4398C37.7715 53.7082 37.494 54.0555 37.3322 54.4817C37.1733 54.8922 37.1419 55.3184 37.238 55.7606L35.2373 56.0564C35.1122 55.5517 35.1097 55.0456 35.2298 54.5382C35.3528 54.015 35.5768 53.5189 35.9016 53.0501C36.2265 52.5812 36.6463 52.171 37.161 51.8195C37.7881 51.3913 38.4202 51.1312 39.0573 51.0392C39.688 50.9379 40.275 51.0037 40.8183 51.2365C41.3645 51.4536 41.823 51.8336 42.1937 52.3764L45.6642 57.4585L43.9233 58.6473L43.0318 57.3417L43.4057 57.0451C43.4328 57.5069 43.3874 57.9428 43.2694 58.3528C43.1449 58.7534 42.9511 59.1328 42.6879 59.4909C42.4183 59.8397 42.0729 60.1579 41.6518 60.4455ZM47.364 56.2977L42.1487 48.6606L43.8755 47.4814L44.9013 48.9835L44.5787 48.8127C44.4434 48.2326 44.497 47.6882 44.7397 47.1794C44.9853 46.6548 45.3796 46.2072 45.9224 45.8365C46.484 45.453 47.0631 45.236 47.6598 45.1853C48.2658 45.1283 48.8407 45.2366 49.3845 45.5103C49.9218 45.7747 50.3854 46.1923 50.7753 46.7632L54.1307 51.6768L52.2916 52.9327L49.2334 48.4543C49.0033 48.1174 48.7397 47.872 48.4425 47.7181C48.1452 47.5643 47.8349 47.5017 47.5115 47.5304C47.191 47.5434 46.8763 47.6554 46.5674 47.8663C46.2679 48.0708 46.0491 48.3232 45.911 48.6234C45.7665 48.9142 45.7118 49.226 45.747 49.5588C45.7821 49.8916 45.9147 50.2265 46.1448 50.5634L49.2031 55.0418L47.364 56.2977ZM58.1173 49.2015C57.5838 49.5658 57.0598 49.7932 56.5453 49.8838C56.0308 49.9744 55.554 49.9295 55.1151 49.7489C54.6697 49.559 54.2969 49.244 53.9965 48.8042C53.7089 48.383 53.5468 47.9447 53.5103 47.4893C53.4674 47.0246 53.5658 46.5456 53.8055 46.0526C54.0452 45.5595 54.4326 45.0617 54.9677 44.559L57.1886 42.4454L58.1473 43.8493L56.2486 45.6811C55.9283 45.9959 55.7368 46.2983 55.674 46.5882C55.6112 46.8781 55.6725 47.1587 55.8578 47.4301C56.0368 47.6922 56.2789 47.8357 56.5841 47.8606C56.8922 47.8697 57.1961 47.772 57.4956 47.5675C57.8793 47.3055 58.1619 46.9958 58.3434 46.6386C58.5278 46.2656 58.6005 45.8797 58.5615 45.4809C58.5319 45.0757 58.3988 44.7 58.1623 44.3537L56.8201 42.3883C56.5964 42.0607 56.2801 41.8787 55.871 41.8424C55.4649 41.7904 55.0513 41.9081 54.6301 42.1958C54.237 42.4642 53.9596 42.8115 53.7977 43.2377C53.6388 43.6481 53.6074 44.0744 53.7035 44.5166L51.7028 44.8123C51.5777 44.3076 51.5752 43.8015 51.6953 43.2941C51.8184 42.7709 52.0423 42.2749 52.3672 41.806C52.692 41.3372 53.1118 40.927 53.6266 40.5755C54.2536 40.1472 54.8857 39.8872 55.5228 39.7952C56.1536 39.6938 56.7405 39.7596 57.2838 39.9925C57.8301 40.2096 58.2885 40.5895 58.6592 41.1324L62.1297 46.2144L60.3889 47.4032L59.4973 46.0976L59.8712 45.8011C59.8984 46.2629 59.8529 46.6988 59.7349 47.1087C59.6105 47.5093 59.4167 47.8887 59.1535 48.2469C58.8839 48.5957 58.5385 48.9139 58.1173 49.2015ZM63.8295 45.0537L58.6142 37.4165L60.341 36.2373L61.3668 37.7395L61.0443 37.5686C60.9089 36.9886 60.9626 36.4442 61.2052 35.9353C61.4509 35.4108 61.8451 34.9632 62.3879 34.5925C62.9495 34.209 63.5286 33.9919 64.1253 33.9413C64.7314 33.8842 65.3063 33.9925 65.85 34.2663C66.3874 34.5306 66.851 34.9482 67.2408 35.5192L70.5963 40.4328L68.7572 41.6887L65.6989 37.2103C65.4688 36.8733 65.2052 36.6279 64.908 36.4741C64.6108 36.3202 64.3005 36.2576 63.977 36.2864C63.6565 36.2994 63.3418 36.4114 63.033 36.6223C62.7335 36.8268 62.5147 37.0791 62.3766 37.3793C62.2321 37.6701 62.1774 37.9819 62.2125 38.3148C62.2477 38.6476 62.3803 38.9824 62.6104 39.3194L65.6686 43.7978L63.8295 45.0537ZM78.6504 35.1798C77.9859 35.6335 77.2851 35.9337 76.548 36.0802C75.8203 36.2204 75.1035 36.2158 74.3977 36.0665C73.6949 35.9014 73.0517 35.5926 72.4683 35.1402L73.5849 33.369C74.2467 33.7954 74.9344 34.0188 75.6482 34.0391C76.3556 34.0501 77.0088 33.8511 77.6078 33.442C77.9448 33.2119 78.1998 32.9623 78.3728 32.6932C78.5488 32.4083 78.6384 32.1276 78.6416 31.8509C78.6542 31.5678 78.571 31.2953 78.392 31.0332C78.1811 30.7244 77.9149 30.5356 77.5935 30.4669C77.2751 30.3824 76.895 30.4086 76.4533 30.5456L74.0048 31.2707C73.0179 31.5741 72.1461 31.6136 71.3891 31.3895C70.6322 31.1653 70.0204 30.7116 69.5539 30.0283C69.1448 29.4294 68.9288 28.8015 68.9058 28.1448C68.8921 27.4816 69.061 26.8448 69.4126 26.2341C69.7671 25.6078 70.286 25.0613 70.9692 24.5948C71.5963 24.1665 72.2486 23.8858 72.9261 23.7525C73.5972 23.6098 74.2541 23.6072 74.897 23.7447C75.5427 23.8664 76.1382 24.1254 76.6833 24.5216L75.5902 26.2973C75.0264 25.9138 74.4428 25.7223 73.8392 25.7227C73.2293 25.7138 72.6529 25.8947 72.11 26.2654C71.7918 26.4827 71.5494 26.7306 71.3828 27.0091C71.2097 27.2782 71.1201 27.559 71.1139 27.8514C71.1107 28.128 71.1986 28.3974 71.3776 28.6595C71.5757 28.9496 71.8451 29.1431 72.1856 29.2399C72.5198 29.3273 72.9203 29.3008 73.3871 29.1605L75.7227 28.4507C76.741 28.1533 77.6191 28.1027 78.3568 28.2988C79.1039 28.4885 79.7172 28.9343 80.1965 29.6363C80.6056 30.2353 80.8123 30.8695 80.8166 31.539C80.8209 32.2085 80.6411 32.8597 80.2772 33.4924C79.9133 34.1252 79.3711 34.6876 78.6504 35.1798ZM87.4733 29.1547C86.6871 29.6916 85.8778 29.9835 85.0453 30.0305C84.2128 30.0775 83.425 29.9087 82.682 29.5241C81.939 29.1394 81.315 28.5774 80.8101 27.838C80.2861 27.0705 79.9865 26.2801 79.9114 25.4668C79.8393 24.6377 79.9704 23.8551 80.3049 23.119C80.6487 22.3764 81.1762 21.7623 81.8875 21.2765C82.4865 20.8675 83.0778 20.6078 83.6612 20.4976C84.254 20.381 84.8278 20.3871 85.3825 20.5161C85.9372 20.6451 86.4522 20.8767 86.9274 21.2109C87.3963 21.5358 87.8064 21.9556 88.158 22.4703C88.2474 22.6014 88.3308 22.7435 88.4079 22.8966C88.4944 23.0434 88.5541 23.1811 88.587 23.3096L82.6906 27.3361L81.7319 25.9322L86.5894 22.6151L86.1696 23.8693C85.9598 23.3813 85.6744 23.0135 85.3133 22.7661C84.9615 22.5122 84.5734 22.3861 84.1491 22.3877C83.7341 22.3829 83.3254 22.5179 82.9229 22.7927C82.5392 23.0548 82.2647 23.3863 82.0994 23.7874C81.9277 24.1791 81.8902 24.6165 81.9867 25.0995C82.0862 25.5667 82.3337 26.0497 82.729 26.5482C83.0111 27.0417 83.3564 27.4167 83.7648 27.673C84.1761 27.9137 84.608 28.0236 85.0604 28.0028C85.5222 27.9757 85.9637 27.8183 86.3848 27.5307C86.806 27.2431 87.1009 26.9113 87.2697 26.5353C87.4477 26.153 87.5187 25.7545 87.4827 25.34L89.4693 25.0538C89.5688 25.5211 89.5553 26.0038 89.4289 26.5018C89.3024 26.9999 89.0735 27.4787 88.7423 27.9382C88.4204 28.3913 87.9974 28.7968 87.4733 29.1547ZM92.3323 25.5896L85.075 14.9621L86.9141 13.7062L89.9819 18.1987L89.5471 18.1045C89.4117 17.5245 89.4654 16.9801 89.708 16.4712C89.9537 15.9467 90.3479 15.4991 90.8907 15.1284C91.4523 14.7449 92.0314 14.5278 92.6281 14.4772C93.2342 14.4201 93.8091 14.5284 94.3528 14.8022C94.8902 15.0665 95.3538 15.4841 95.7436 16.0551L99.0991 20.9687L97.26 22.2246L94.2017 17.7462C93.9716 17.4092 93.708 17.1638 93.4108 17.01C93.1136 16.8561 92.8033 16.7935 92.4798 16.8223C92.1593 16.8353 91.8446 16.9473 91.5358 17.1582C91.2363 17.3627 91.0175 17.615 90.8794 17.9152C90.7349 18.206 90.6802 18.5178 90.7153 18.8507C90.7505 19.1835 90.8831 19.5183 91.1132 19.8553L94.1714 24.3337L92.3323 25.5896ZM103.086 18.4933C102.552 18.8576 102.028 19.0851 101.514 19.1757C100.999 19.2663 100.522 19.2213 100.083 19.0407C99.6381 18.8508 99.2652 18.5359 98.9648 18.096C98.6772 17.6748 98.5152 17.2366 98.4786 16.7812C98.4357 16.3164 98.5341 15.8375 98.7738 15.3444C99.0135 14.8514 99.4009 14.3535 99.936 13.8509L102.157 11.7373L103.116 13.1412L101.217 14.973C100.897 15.2878 100.705 15.5901 100.642 15.88C100.58 16.1699 100.641 16.4506 100.826 16.722C101.005 16.9841 101.247 17.1275 101.552 17.1524C101.861 17.1616 102.164 17.0639 102.464 16.8593C102.848 16.5973 103.13 16.2877 103.312 15.9304C103.496 15.5574 103.569 15.1715 103.53 14.7728C103.5 14.3676 103.367 13.9918 103.131 13.6455L101.788 11.6801C101.565 11.3525 101.248 11.1706 100.839 11.1343C100.433 11.0822 100.02 11.2 99.5985 11.4876C99.2054 11.756 98.9279 12.1033 98.766 12.5295C98.6072 12.9399 98.5758 13.3662 98.6718 13.8084L96.6712 14.1042C96.5461 13.5995 96.5436 13.0934 96.6637 12.586C96.7867 12.0628 97.0107 11.5667 97.3355 11.0979C97.6604 10.629 98.0802 10.2188 98.5949 9.86731C99.222 9.4391 99.8541 9.179 100.491 9.08703C101.122 8.9857 101.709 9.05145 102.252 9.28431C102.798 9.50141 103.257 9.88138 103.628 10.4242L107.098 15.5063L105.357 16.6951L104.466 15.3895L104.84 15.0929C104.867 15.5547 104.821 15.9906 104.703 16.4006C104.579 16.8012 104.385 17.1806 104.122 17.5387C103.852 17.8875 103.507 18.2057 103.086 18.4933ZM112.2 12.1458C111.339 12.7338 110.51 12.9568 109.713 12.8148C108.919 12.6571 108.228 12.1476 107.64 11.2866L105.339 7.91726L104.02 8.81843L102.898 7.17588L103.038 7.08001C103.413 6.82436 103.636 6.52796 103.707 6.1908C103.779 5.85365 103.687 5.49789 103.431 5.12352L103.029 4.53388L104.868 3.278L106.057 5.01882L107.812 3.82045L108.933 5.463L107.178 6.66137L109.412 9.93243C109.585 10.1851 109.774 10.3716 109.979 10.4919C110.194 10.6059 110.428 10.6457 110.679 10.6115C110.939 10.5708 111.219 10.4483 111.519 10.2437C111.584 10.199 111.656 10.1432 111.734 10.0763C111.821 10.003 111.903 9.93296 111.981 9.86608L113.055 11.4384C112.937 11.5466 112.8 11.6676 112.644 11.8014C112.488 11.9351 112.34 12.05 112.2 12.1458Z"/>
</mask>
<path d="M10.5977 81.4048L3.45547 70.9458L5.28053 69.6995L12.8308 72.3455L11.9604 72.9399L12.1596 65.0019L13.9846 63.7556L21.1269 74.2146L19.2036 75.528L13.5473 67.245L14.416 66.9194L14.0572 74.9252L13.8326 75.0786L6.34361 72.4319L6.85073 71.818L12.507 80.101L10.5977 81.4048ZM25.4056 71.5398C24.8721 71.9041 24.3481 72.1315 23.8336 72.2221C23.3191 72.3128 22.8423 72.2678 22.4034 72.0872C21.958 71.8973 21.5851 71.5824 21.2847 71.1425C20.9971 70.7213 20.8351 70.283 20.7986 69.8276C20.7557 69.3629 20.8541 68.884 21.0938 68.3909C21.3335 67.8978 21.7209 67.4 22.2559 66.8974L24.4768 64.7838L25.4355 66.1876L23.5368 68.0195C23.2166 68.3342 23.025 68.6366 22.9623 68.9265C22.8995 69.2164 22.9608 69.497 23.1461 69.7685C23.3251 70.0305 23.5671 70.174 23.8723 70.1989C24.1805 70.208 24.4843 70.1103 24.7838 69.9058C25.1676 69.6438 25.4502 69.3341 25.6316 68.9769C25.8161 68.6039 25.8888 68.218 25.8498 67.8192C25.8201 67.414 25.6871 67.0383 25.4506 66.692L24.1084 64.7266C23.8847 64.399 23.5683 64.217 23.1593 64.1807C22.7532 64.1287 22.3396 64.2465 21.9184 64.5341C21.5253 64.8025 21.2478 65.1498 21.086 65.576C20.9271 65.9864 20.8957 66.4127 20.9918 66.8549L18.9911 67.1506C18.866 66.6459 18.8635 66.1399 18.9836 65.6324C19.1067 65.1092 19.3306 64.6132 19.6554 64.1443C19.9803 63.6755 20.4001 63.2653 20.9148 62.9138C21.5419 62.4856 22.174 62.2255 22.8111 62.1335C23.4418 62.0322 24.0288 62.0979 24.5721 62.3308C25.1183 62.5479 25.5768 62.9278 25.9475 63.4707L29.418 68.5528L27.6772 69.7415L26.7856 68.4359L27.1595 68.1394C27.1866 68.6012 27.1412 69.0371 27.0232 69.447C26.8987 69.8477 26.7049 70.227 26.4417 70.5852C26.1721 70.934 25.8267 71.2522 25.4056 71.5398ZM31.1178 67.392L23.8605 56.7645L25.6996 55.5087L30.4547 62.4719L29.6089 62.7407L30.6336 56.524L32.9219 54.9614L32.1997 59.9629L38.1934 62.5602L36.0875 63.9982L30.8851 61.7457L31.8268 60.7733L31.2117 64.8164L31.0203 63.3002L32.9569 66.1361L31.1178 67.392ZM41.6518 60.4455C41.1183 60.8098 40.5943 61.0373 40.0798 61.1279C39.5652 61.2185 39.0885 61.1735 38.6495 60.9929C38.2042 60.803 37.8313 60.4881 37.5309 60.0482C37.2433 59.627 37.0813 59.1888 37.0448 58.7334C37.0019 58.2686 37.1003 57.7897 37.34 57.2966C37.5796 56.8036 37.967 56.3057 38.5021 55.8031L40.723 53.6895L41.6817 55.0934L39.783 56.9252C39.4628 57.24 39.2712 57.5423 39.2084 57.8322C39.1457 58.1221 39.2069 58.4028 39.3923 58.6742C39.5712 58.9363 39.8133 59.0797 40.1185 59.1046C40.4267 59.1138 40.7305 59.0161 41.03 58.8115C41.4137 58.5495 41.6963 58.2399 41.8778 57.8826C42.0623 57.5096 42.135 57.1238 42.096 56.725C42.0663 56.3198 41.9332 55.944 41.6968 55.5978L40.3546 53.6323C40.1309 53.3047 39.8145 53.1228 39.4055 53.0865C38.9994 53.0344 38.5857 53.1522 38.1646 53.4398C37.7715 53.7082 37.494 54.0555 37.3322 54.4817C37.1733 54.8922 37.1419 55.3184 37.238 55.7606L35.2373 56.0564C35.1122 55.5517 35.1097 55.0456 35.2298 54.5382C35.3528 54.015 35.5768 53.5189 35.9016 53.0501C36.2265 52.5812 36.6463 52.171 37.161 51.8195C37.7881 51.3913 38.4202 51.1312 39.0573 51.0392C39.688 50.9379 40.275 51.0037 40.8183 51.2365C41.3645 51.4536 41.823 51.8336 42.1937 52.3764L45.6642 57.4585L43.9233 58.6473L43.0318 57.3417L43.4057 57.0451C43.4328 57.5069 43.3874 57.9428 43.2694 58.3528C43.1449 58.7534 42.9511 59.1328 42.6879 59.4909C42.4183 59.8397 42.0729 60.1579 41.6518 60.4455ZM47.364 56.2977L42.1487 48.6606L43.8755 47.4814L44.9013 48.9835L44.5787 48.8127C44.4434 48.2326 44.497 47.6882 44.7397 47.1794C44.9853 46.6548 45.3796 46.2072 45.9224 45.8365C46.484 45.453 47.0631 45.236 47.6598 45.1853C48.2658 45.1283 48.8407 45.2366 49.3845 45.5103C49.9218 45.7747 50.3854 46.1923 50.7753 46.7632L54.1307 51.6768L52.2916 52.9327L49.2334 48.4543C49.0033 48.1174 48.7397 47.872 48.4425 47.7181C48.1452 47.5643 47.8349 47.5017 47.5115 47.5304C47.191 47.5434 46.8763 47.6554 46.5674 47.8663C46.2679 48.0708 46.0491 48.3232 45.911 48.6234C45.7665 48.9142 45.7118 49.226 45.747 49.5588C45.7821 49.8916 45.9147 50.2265 46.1448 50.5634L49.2031 55.0418L47.364 56.2977ZM58.1173 49.2015C57.5838 49.5658 57.0598 49.7932 56.5453 49.8838C56.0308 49.9744 55.554 49.9295 55.1151 49.7489C54.6697 49.559 54.2969 49.244 53.9965 48.8042C53.7089 48.383 53.5468 47.9447 53.5103 47.4893C53.4674 47.0246 53.5658 46.5456 53.8055 46.0526C54.0452 45.5595 54.4326 45.0617 54.9677 44.559L57.1886 42.4454L58.1473 43.8493L56.2486 45.6811C55.9283 45.9959 55.7368 46.2983 55.674 46.5882C55.6112 46.8781 55.6725 47.1587 55.8578 47.4301C56.0368 47.6922 56.2789 47.8357 56.5841 47.8606C56.8922 47.8697 57.1961 47.772 57.4956 47.5675C57.8793 47.3055 58.1619 46.9958 58.3434 46.6386C58.5278 46.2656 58.6005 45.8797 58.5615 45.4809C58.5319 45.0757 58.3988 44.7 58.1623 44.3537L56.8201 42.3883C56.5964 42.0607 56.2801 41.8787 55.871 41.8424C55.4649 41.7904 55.0513 41.9081 54.6301 42.1958C54.237 42.4642 53.9596 42.8115 53.7977 43.2377C53.6388 43.6481 53.6074 44.0744 53.7035 44.5166L51.7028 44.8123C51.5777 44.3076 51.5752 43.8015 51.6953 43.2941C51.8184 42.7709 52.0423 42.2749 52.3672 41.806C52.692 41.3372 53.1118 40.927 53.6266 40.5755C54.2536 40.1472 54.8857 39.8872 55.5228 39.7952C56.1536 39.6938 56.7405 39.7596 57.2838 39.9925C57.8301 40.2096 58.2885 40.5895 58.6592 41.1324L62.1297 46.2144L60.3889 47.4032L59.4973 46.0976L59.8712 45.8011C59.8984 46.2629 59.8529 46.6988 59.7349 47.1087C59.6105 47.5093 59.4167 47.8887 59.1535 48.2469C58.8839 48.5957 58.5385 48.9139 58.1173 49.2015ZM63.8295 45.0537L58.6142 37.4165L60.341 36.2373L61.3668 37.7395L61.0443 37.5686C60.9089 36.9886 60.9626 36.4442 61.2052 35.9353C61.4509 35.4108 61.8451 34.9632 62.3879 34.5925C62.9495 34.209 63.5286 33.9919 64.1253 33.9413C64.7314 33.8842 65.3063 33.9925 65.85 34.2663C66.3874 34.5306 66.851 34.9482 67.2408 35.5192L70.5963 40.4328L68.7572 41.6887L65.6989 37.2103C65.4688 36.8733 65.2052 36.6279 64.908 36.4741C64.6108 36.3202 64.3005 36.2576 63.977 36.2864C63.6565 36.2994 63.3418 36.4114 63.033 36.6223C62.7335 36.8268 62.5147 37.0791 62.3766 37.3793C62.2321 37.6701 62.1774 37.9819 62.2125 38.3148C62.2477 38.6476 62.3803 38.9824 62.6104 39.3194L65.6686 43.7978L63.8295 45.0537ZM78.6504 35.1798C77.9859 35.6335 77.2851 35.9337 76.548 36.0802C75.8203 36.2204 75.1035 36.2158 74.3977 36.0665C73.6949 35.9014 73.0517 35.5926 72.4683 35.1402L73.5849 33.369C74.2467 33.7954 74.9344 34.0188 75.6482 34.0391C76.3556 34.0501 77.0088 33.8511 77.6078 33.442C77.9448 33.2119 78.1998 32.9623 78.3728 32.6932C78.5488 32.4083 78.6384 32.1276 78.6416 31.8509C78.6542 31.5678 78.571 31.2953 78.392 31.0332C78.1811 30.7244 77.9149 30.5356 77.5935 30.4669C77.2751 30.3824 76.895 30.4086 76.4533 30.5456L74.0048 31.2707C73.0179 31.5741 72.1461 31.6136 71.3891 31.3895C70.6322 31.1653 70.0204 30.7116 69.5539 30.0283C69.1448 29.4294 68.9288 28.8015 68.9058 28.1448C68.8921 27.4816 69.061 26.8448 69.4126 26.2341C69.7671 25.6078 70.286 25.0613 70.9692 24.5948C71.5963 24.1665 72.2486 23.8858 72.9261 23.7525C73.5972 23.6098 74.2541 23.6072 74.897 23.7447C75.5427 23.8664 76.1382 24.1254 76.6833 24.5216L75.5902 26.2973C75.0264 25.9138 74.4428 25.7223 73.8392 25.7227C73.2293 25.7138 72.6529 25.8947 72.11 26.2654C71.7918 26.4827 71.5494 26.7306 71.3828 27.0091C71.2097 27.2782 71.1201 27.559 71.1139 27.8514C71.1107 28.128 71.1986 28.3974 71.3776 28.6595C71.5757 28.9496 71.8451 29.1431 72.1856 29.2399C72.5198 29.3273 72.9203 29.3008 73.3871 29.1605L75.7227 28.4507C76.741 28.1533 77.6191 28.1027 78.3568 28.2988C79.1039 28.4885 79.7172 28.9343 80.1965 29.6363C80.6056 30.2353 80.8123 30.8695 80.8166 31.539C80.8209 32.2085 80.6411 32.8597 80.2772 33.4924C79.9133 34.1252 79.3711 34.6876 78.6504 35.1798ZM87.4733 29.1547C86.6871 29.6916 85.8778 29.9835 85.0453 30.0305C84.2128 30.0775 83.425 29.9087 82.682 29.5241C81.939 29.1394 81.315 28.5774 80.8101 27.838C80.2861 27.0705 79.9865 26.2801 79.9114 25.4668C79.8393 24.6377 79.9704 23.8551 80.3049 23.119C80.6487 22.3764 81.1762 21.7623 81.8875 21.2765C82.4865 20.8675 83.0778 20.6078 83.6612 20.4976C84.254 20.381 84.8278 20.3871 85.3825 20.5161C85.9372 20.6451 86.4522 20.8767 86.9274 21.2109C87.3963 21.5358 87.8064 21.9556 88.158 22.4703C88.2474 22.6014 88.3308 22.7435 88.4079 22.8966C88.4944 23.0434 88.5541 23.1811 88.587 23.3096L82.6906 27.3361L81.7319 25.9322L86.5894 22.6151L86.1696 23.8693C85.9598 23.3813 85.6744 23.0135 85.3133 22.7661C84.9615 22.5122 84.5734 22.3861 84.1491 22.3877C83.7341 22.3829 83.3254 22.5179 82.9229 22.7927C82.5392 23.0548 82.2647 23.3863 82.0994 23.7874C81.9277 24.1791 81.8902 24.6165 81.9867 25.0995C82.0862 25.5667 82.3337 26.0497 82.729 26.5482C83.0111 27.0417 83.3564 27.4167 83.7648 27.673C84.1761 27.9137 84.608 28.0236 85.0604 28.0028C85.5222 27.9757 85.9637 27.8183 86.3848 27.5307C86.806 27.2431 87.1009 26.9113 87.2697 26.5353C87.4477 26.153 87.5187 25.7545 87.4827 25.34L89.4693 25.0538C89.5688 25.5211 89.5553 26.0038 89.4289 26.5018C89.3024 26.9999 89.0735 27.4787 88.7423 27.9382C88.4204 28.3913 87.9974 28.7968 87.4733 29.1547ZM92.3323 25.5896L85.075 14.9621L86.9141 13.7062L89.9819 18.1987L89.5471 18.1045C89.4117 17.5245 89.4654 16.9801 89.708 16.4712C89.9537 15.9467 90.3479 15.4991 90.8907 15.1284C91.4523 14.7449 92.0314 14.5278 92.6281 14.4772C93.2342 14.4201 93.8091 14.5284 94.3528 14.8022C94.8902 15.0665 95.3538 15.4841 95.7436 16.0551L99.0991 20.9687L97.26 22.2246L94.2017 17.7462C93.9716 17.4092 93.708 17.1638 93.4108 17.01C93.1136 16.8561 92.8033 16.7935 92.4798 16.8223C92.1593 16.8353 91.8446 16.9473 91.5358 17.1582C91.2363 17.3627 91.0175 17.615 90.8794 17.9152C90.7349 18.206 90.6802 18.5178 90.7153 18.8507C90.7505 19.1835 90.8831 19.5183 91.1132 19.8553L94.1714 24.3337L92.3323 25.5896ZM103.086 18.4933C102.552 18.8576 102.028 19.0851 101.514 19.1757C100.999 19.2663 100.522 19.2213 100.083 19.0407C99.6381 18.8508 99.2652 18.5359 98.9648 18.096C98.6772 17.6748 98.5152 17.2366 98.4786 16.7812C98.4357 16.3164 98.5341 15.8375 98.7738 15.3444C99.0135 14.8514 99.4009 14.3535 99.936 13.8509L102.157 11.7373L103.116 13.1412L101.217 14.973C100.897 15.2878 100.705 15.5901 100.642 15.88C100.58 16.1699 100.641 16.4506 100.826 16.722C101.005 16.9841 101.247 17.1275 101.552 17.1524C101.861 17.1616 102.164 17.0639 102.464 16.8593C102.848 16.5973 103.13 16.2877 103.312 15.9304C103.496 15.5574 103.569 15.1715 103.53 14.7728C103.5 14.3676 103.367 13.9918 103.131 13.6455L101.788 11.6801C101.565 11.3525 101.248 11.1706 100.839 11.1343C100.433 11.0822 100.02 11.2 99.5985 11.4876C99.2054 11.756 98.9279 12.1033 98.766 12.5295C98.6072 12.9399 98.5758 13.3662 98.6718 13.8084L96.6712 14.1042C96.5461 13.5995 96.5436 13.0934 96.6637 12.586C96.7867 12.0628 97.0107 11.5667 97.3355 11.0979C97.6604 10.629 98.0802 10.2188 98.5949 9.86731C99.222 9.4391 99.8541 9.179 100.491 9.08703C101.122 8.9857 101.709 9.05145 102.252 9.28431C102.798 9.50141 103.257 9.88138 103.628 10.4242L107.098 15.5063L105.357 16.6951L104.466 15.3895L104.84 15.0929C104.867 15.5547 104.821 15.9906 104.703 16.4006C104.579 16.8012 104.385 17.1806 104.122 17.5387C103.852 17.8875 103.507 18.2057 103.086 18.4933ZM112.2 12.1458C111.339 12.7338 110.51 12.9568 109.713 12.8148C108.919 12.6571 108.228 12.1476 107.64 11.2866L105.339 7.91726L104.02 8.81843L102.898 7.17588L103.038 7.08001C103.413 6.82436 103.636 6.52796 103.707 6.1908C103.779 5.85365 103.687 5.49789 103.431 5.12352L103.029 4.53388L104.868 3.278L106.057 5.01882L107.812 3.82045L108.933 5.463L107.178 6.66137L109.412 9.93243C109.585 10.1851 109.774 10.3716 109.979 10.4919C110.194 10.6059 110.428 10.6457 110.679 10.6115C110.939 10.5708 111.219 10.4483 111.519 10.2437C111.584 10.199 111.656 10.1432 111.734 10.0763C111.821 10.003 111.903 9.93296 111.981 9.86608L113.055 11.4384C112.937 11.5466 112.8 11.6676 112.644 11.8014C112.488 11.9351 112.34 12.05 112.2 12.1458Z" fill="#09312A"/>
<path d="M10.5977 81.4048L8.9461 82.5327L10.074 84.1843L11.7256 83.0564L10.5977 81.4048ZM3.45547 70.9458L2.32759 69.2942L0.675959 70.4221L1.80383 72.0737L3.45547 70.9458ZM5.28053 69.6995L5.94198 67.8121L4.9877 67.4776L4.15265 68.0479L5.28053 69.6995ZM12.8308 72.3455L13.9587 73.9971L17.2254 71.7663L13.4923 70.458L12.8308 72.3455ZM11.9604 72.9399L9.96104 72.8897L9.86308 76.794L13.0883 74.5915L11.9604 72.9399ZM12.1596 65.0019L11.0317 63.3503L10.1859 63.9279L10.1602 64.9517L12.1596 65.0019ZM13.9846 63.7556L15.6363 62.6277L14.5084 60.9761L12.8568 62.104L13.9846 63.7556ZM21.1269 74.2146L22.2548 75.8662L23.9064 74.7383L22.7785 73.0867L21.1269 74.2146ZM19.2036 75.528L17.5519 76.6559L18.6798 78.3075L20.3315 77.1796L19.2036 75.528ZM13.5473 67.245L12.8453 65.3723L10.4577 66.2672L11.8957 68.3729L13.5473 67.245ZM14.416 66.9194L16.414 67.009L16.5495 63.9839L13.714 65.0467L14.416 66.9194ZM14.0572 74.9252L15.1851 76.5769L16.0105 76.0132L16.0552 75.0147L14.0572 74.9252ZM13.8326 75.0786L13.1662 76.9643L14.1227 77.3023L14.9605 76.7302L13.8326 75.0786ZM6.34361 72.4319L4.80165 71.1582L2.97941 73.3642L5.67719 74.3176L6.34361 72.4319ZM6.85073 71.818L8.50237 70.6901L7.00254 68.4938L5.30877 70.5443L6.85073 71.818ZM12.507 80.101L13.6349 81.7526L15.2865 80.6247L14.1587 78.9731L12.507 80.101ZM10.5977 81.4048L12.2494 80.2769L5.1071 69.8179L3.45547 70.9458L1.80383 72.0737L8.9461 82.5327L10.5977 81.4048ZM3.45547 70.9458L4.58334 72.5974L6.4084 71.3511L5.28053 69.6995L4.15265 68.0479L2.32759 69.2942L3.45547 70.9458ZM5.28053 69.6995L4.61907 71.587L12.1694 74.2329L12.8308 72.3455L13.4923 70.458L5.94198 67.8121L5.28053 69.6995ZM12.8308 72.3455L11.703 70.6939L10.8325 71.2883L11.9604 72.9399L13.0883 74.5915L13.9587 73.9971L12.8308 72.3455ZM11.9604 72.9399L13.9598 72.9901L14.159 65.0521L12.1596 65.0019L10.1602 64.9517L9.96104 72.8897L11.9604 72.9399ZM12.1596 65.0019L13.2875 66.6535L15.1125 65.4072L13.9846 63.7556L12.8568 62.104L11.0317 63.3503L12.1596 65.0019ZM13.9846 63.7556L12.333 64.8835L19.4753 75.3425L21.1269 74.2146L22.7785 73.0867L15.6363 62.6277L13.9846 63.7556ZM21.1269 74.2146L19.999 72.563L18.0757 73.8764L19.2036 75.528L20.3315 77.1796L22.2548 75.8662L21.1269 74.2146ZM19.2036 75.528L20.8552 74.4001L15.1989 66.1172L13.5473 67.245L11.8957 68.3729L17.5519 76.6559L19.2036 75.528ZM13.5473 67.245L14.2492 69.1178L15.1179 68.7922L14.416 66.9194L13.714 65.0467L12.8453 65.3723L13.5473 67.245ZM14.416 66.9194L12.418 66.8299L12.0593 74.8357L14.0572 74.9252L16.0552 75.0147L16.414 67.009L14.416 66.9194ZM14.0572 74.9252L12.9294 73.2736L12.7048 73.427L13.8326 75.0786L14.9605 76.7302L15.1851 76.5769L14.0572 74.9252ZM13.8326 75.0786L14.499 73.1929L7.01004 70.5462L6.34361 72.4319L5.67719 74.3176L13.1662 76.9643L13.8326 75.0786ZM6.34361 72.4319L7.88557 73.7057L8.39269 73.0917L6.85073 71.818L5.30877 70.5443L4.80165 71.1582L6.34361 72.4319ZM6.85073 71.818L5.1991 72.9459L10.8554 81.2288L12.507 80.101L14.1587 78.9731L8.50237 70.6901L6.85073 71.818ZM12.507 80.101L11.3792 78.4493L9.46986 79.7532L10.5977 81.4048L11.7256 83.0564L13.6349 81.7526L12.507 80.101ZM23.8336 72.2221L24.1804 74.1918L23.8336 72.2221ZM22.4034 72.0872L21.6188 73.9269L21.6306 73.9319L21.6425 73.9368L22.4034 72.0872ZM20.7986 69.8276L22.7922 69.6678L22.7912 69.6558L22.7901 69.6438L20.7986 69.8276ZM21.0938 68.3909L22.8925 69.2653L22.8925 69.2653L21.0938 68.3909ZM22.2559 66.8974L23.6253 68.3551L23.6347 68.3461L22.2559 66.8974ZM24.4768 64.7838L26.1285 63.6559L24.802 61.7134L23.0981 63.335L24.4768 64.7838ZM25.4355 66.1876L26.8242 67.627L28.0395 66.4544L27.0872 65.0598L25.4355 66.1876ZM23.5368 68.0195L22.1482 66.5801L22.1415 66.5866L22.1349 66.5931L23.5368 68.0195ZM22.9623 68.9265L21.0076 68.5032L21.0076 68.5032L22.9623 68.9265ZM23.8723 70.1989L23.7098 72.1923L23.7613 72.1965L23.813 72.198L23.8723 70.1989ZM25.6316 68.9769L27.4147 69.8827L27.4196 69.8731L27.4244 69.8635L25.6316 68.9769ZM25.8498 67.8192L23.8551 67.9652L23.8569 67.9896L23.8593 68.014L25.8498 67.8192ZM23.1593 64.1807L22.905 66.1645L22.9436 66.1695L22.9825 66.1729L23.1593 64.1807ZM21.086 65.576L22.9511 66.298L22.9557 66.2861L21.086 65.576ZM20.9918 66.8549L21.2843 68.8334L23.4004 68.5205L22.9462 66.4301L20.9918 66.8549ZM18.9911 67.1506L17.0498 67.6317L17.4867 69.3948L19.2836 69.1291L18.9911 67.1506ZM18.9836 65.6324L20.9299 66.093L20.9305 66.0903L18.9836 65.6324ZM19.6554 64.1443L18.0115 63.0053L19.6554 64.1443ZM22.8111 62.1335L23.0969 64.113L23.1126 64.1107L23.1284 64.1082L22.8111 62.1335ZM24.5721 62.3308L23.7842 64.169L23.8087 64.1795L23.8334 64.1894L24.5721 62.3308ZM29.418 68.5528L30.5459 70.2044L32.1975 69.0765L31.0696 67.4249L29.418 68.5528ZM27.6772 69.7415L26.0255 70.8694L27.1534 72.521L28.805 71.3932L27.6772 69.7415ZM26.7856 68.4359L25.5429 66.8688L24.0837 68.0259L25.1339 69.5638L26.7856 68.4359ZM27.1595 68.1394L29.156 68.022L28.9303 64.1826L25.9168 66.5723L27.1595 68.1394ZM27.0232 69.447L28.9332 70.0402L28.9393 70.0204L28.9451 70.0004L27.0232 69.447ZM26.4417 70.5852L28.0241 71.8083L28.039 71.7891L28.0533 71.7696L26.4417 70.5852ZM25.4056 71.5398L24.2777 69.8881C23.9249 70.1291 23.6632 70.2214 23.4867 70.2525L23.8336 72.2221L24.1804 74.1918C25.033 74.0417 25.8193 73.6791 26.5335 73.1914L25.4056 71.5398ZM23.8336 72.2221L23.4867 70.2525C23.3064 70.2842 23.2179 70.2597 23.1642 70.2376L22.4034 72.0872L21.6425 73.9368C22.4667 74.2759 23.3317 74.3413 24.1804 74.1918L23.8336 72.2221ZM22.4034 72.0872L23.1879 70.2475C23.1284 70.2221 23.0439 70.1721 22.9364 70.0146L21.2847 71.1425L19.6331 72.2703C20.1263 72.9926 20.7877 73.5724 21.6188 73.9269L22.4034 72.0872ZM21.2847 71.1425L22.9364 70.0146C22.8217 69.8467 22.7977 69.7372 22.7922 69.6678L20.7986 69.8276L18.805 69.9874C18.8724 70.8288 19.1726 71.5959 19.6331 72.2703L21.2847 71.1425ZM20.7986 69.8276L22.7901 69.6438C22.7863 69.6021 22.7843 69.4879 22.8925 69.2653L21.0938 68.3909L19.2951 67.5165C18.9239 68.28 18.7251 69.1236 18.807 70.0115L20.7986 69.8276ZM21.0938 68.3909L22.8925 69.2653C22.9964 69.0516 23.2111 68.7442 23.6253 68.3551L22.2559 66.8974L20.8866 65.4396C20.2306 66.0558 19.6705 66.7441 19.2951 67.5165L21.0938 68.3909ZM22.2559 66.8974L23.6347 68.3461L25.8556 66.2325L24.4768 64.7838L23.0981 63.335L20.8771 65.4486L22.2559 66.8974ZM24.4768 64.7838L22.8252 65.9116L23.7839 67.3155L25.4355 66.1876L27.0872 65.0598L26.1285 63.6559L24.4768 64.7838ZM25.4355 66.1876L24.0469 64.7483L22.1482 66.5801L23.5368 68.0195L24.9255 69.4588L26.8242 67.627L25.4355 66.1876ZM23.5368 68.0195L22.1349 66.5931C21.6699 67.05 21.1851 67.6832 21.0076 68.5032L22.9623 68.9265L24.9169 69.3498C24.8895 69.4763 24.8472 69.5451 24.8425 69.5526C24.8398 69.5569 24.8443 69.5492 24.8602 69.5299C24.8761 69.5108 24.9014 69.4826 24.9388 69.4459L23.5368 68.0195ZM22.9623 68.9265L21.0076 68.5032C20.8154 69.3907 21.0364 70.2256 21.4945 70.8963L23.1461 69.7685L24.7977 68.6406C24.8292 68.6867 24.8836 68.7836 24.9151 68.9277C24.9476 69.0766 24.9442 69.224 24.9169 69.3498L22.9623 68.9265ZM23.1461 69.7685L21.4945 70.8963C21.9995 71.6358 22.7782 72.1163 23.7098 72.1923L23.8723 70.1989L24.0349 68.2055C24.1579 68.2155 24.3189 68.2557 24.4816 68.3521C24.6423 68.4473 24.7435 68.5612 24.7977 68.6406L23.1461 69.7685ZM23.8723 70.1989L23.813 72.198C24.6145 72.2218 25.3266 71.957 25.9117 71.5574L24.7838 69.9058L23.6559 68.2542C23.6438 68.2625 23.6649 68.2459 23.7191 68.2285C23.7763 68.2101 23.8501 68.1973 23.9316 68.1998L23.8723 70.1989ZM24.7838 69.9058L25.9117 71.5574C26.5284 71.1363 27.0583 70.5844 27.4147 69.8827L25.6316 68.9769L23.8486 68.071C23.8421 68.0838 23.8067 68.1512 23.6559 68.2542L24.7838 69.9058ZM25.6316 68.9769L27.4244 69.8635C27.7678 69.1691 27.9171 68.4098 27.8403 67.6244L25.8498 67.8192L23.8593 68.014C23.8607 68.0287 23.8597 68.0345 23.8591 68.0374C23.8585 68.0408 23.8551 68.0575 23.8389 68.0903L25.6316 68.9769ZM25.8498 67.8192L27.8445 67.6732C27.7882 66.9046 27.5309 66.1919 27.1022 65.5641L25.4506 66.692L23.7989 67.8199C23.8432 67.8847 23.8521 67.9235 23.8551 67.9652L25.8498 67.8192ZM25.4506 66.692L27.1022 65.5641L25.76 63.5987L24.1084 64.7266L22.4568 65.8544L23.7989 67.8199L25.4506 66.692ZM24.1084 64.7266L25.76 63.5987C25.1853 62.7571 24.317 62.2756 23.3361 62.1886L23.1593 64.1807L22.9825 66.1729C22.9344 66.1686 22.8294 66.1489 22.7063 66.0782C22.5814 66.0063 22.4997 65.9174 22.4568 65.8544L24.1084 64.7266ZM23.1593 64.1807L23.4136 62.197C22.4105 62.0684 21.5129 62.3891 20.7905 62.8824L21.9184 64.5341L23.0463 66.1857C23.1114 66.1412 23.1264 66.1438 23.0922 66.1536C23.0747 66.1585 23.0478 66.1644 23.0131 66.1671C22.9782 66.1699 22.9414 66.1692 22.905 66.1645L23.1593 64.1807ZM21.9184 64.5341L20.7905 62.8824C20.0755 63.3707 19.53 64.0399 19.2163 64.8659L21.086 65.576L22.9557 66.2861C22.9657 66.2597 22.9751 66.2343 23.0463 66.1857L21.9184 64.5341ZM21.086 65.576L19.2209 64.8539C18.9164 65.6404 18.8606 66.4661 19.0374 67.2796L20.9918 66.8549L22.9462 66.4301C22.9308 66.3593 22.9378 66.3324 22.9511 66.298L21.086 65.576ZM20.9918 66.8549L20.6993 64.8764L18.6986 65.1721L18.9911 67.1506L19.2836 69.1291L21.2843 68.8334L20.9918 66.8549ZM18.9911 67.1506L20.9324 66.6696C20.8841 66.4748 20.8829 66.2915 20.9298 66.093L18.9836 65.6324L17.0374 65.1718C16.8442 65.9882 16.8479 66.8171 17.0498 67.6317L18.9911 67.1506ZM18.9836 65.6324L20.9305 66.0903C20.9927 65.8258 21.1085 65.5589 21.2994 65.2834L19.6554 64.1443L18.0115 63.0053C17.5527 63.6675 17.2206 64.3926 17.0367 65.1745L18.9836 65.6324ZM19.6554 64.1443L21.2994 65.2834C21.4726 65.0334 21.7111 64.7919 22.0427 64.5654L20.9148 62.9138L19.787 61.2621C19.0891 61.7387 18.4879 62.3176 18.0115 63.0053L19.6554 64.1443ZM20.9148 62.9138L22.0427 64.5654C22.4628 64.2786 22.8114 64.1542 23.0969 64.113L22.8111 62.1335L22.5253 60.154C21.5366 60.2968 20.6211 60.6925 19.787 61.2621L20.9148 62.9138ZM22.8111 62.1335L23.1284 64.1082C23.4166 64.0619 23.6171 64.0974 23.7842 64.169L24.5721 62.3308L25.36 60.4925C24.4405 60.0984 23.467 60.0025 22.4939 60.1588L22.8111 62.1335ZM24.5721 62.3308L23.8334 64.1894C23.9663 64.2422 24.1223 64.3444 24.2959 64.5985L25.9475 63.4707L27.5991 62.3428C27.0313 61.5113 26.2703 60.8535 25.3108 60.4722L24.5721 62.3308ZM25.9475 63.4707L24.2959 64.5985L27.7663 69.6806L29.418 68.5528L31.0696 67.4249L27.5991 62.3428L25.9475 63.4707ZM29.418 68.5528L28.2901 66.9011L26.5493 68.0899L27.6772 69.7415L28.805 71.3932L30.5459 70.2044L29.418 68.5528ZM27.6772 69.7415L29.3288 68.6137L28.4372 67.308L26.7856 68.4359L25.1339 69.5638L26.0255 70.8694L27.6772 69.7415ZM26.7856 68.4359L28.0283 70.003L28.4022 69.7065L27.1595 68.1394L25.9168 66.5723L25.5429 66.8688L26.7856 68.4359ZM27.1595 68.1394L25.1629 68.2568C25.1779 68.5115 25.1515 68.7191 25.1012 68.8937L27.0232 69.447L28.9451 70.0004C29.1309 69.355 29.1954 68.6909 29.156 68.022L27.1595 68.1394ZM27.0232 69.447L25.1132 68.8539C25.0585 69.0298 24.9696 69.211 24.8301 69.4008L26.4417 70.5852L28.0533 71.7696C28.4403 71.243 28.739 70.6655 28.9332 70.0402L27.0232 69.447ZM26.4417 70.5852L24.8593 69.3621C24.7362 69.5214 24.5524 69.7005 24.2777 69.8881L25.4056 71.5398L26.5335 73.1914C27.1011 72.8038 27.6081 72.3465 28.0241 71.8083L26.4417 70.5852ZM31.1178 67.392L29.4661 68.5199L30.594 70.1715L32.2457 69.0436L31.1178 67.392ZM23.8605 56.7645L22.7326 55.1129L21.081 56.2408L22.2088 57.8924L23.8605 56.7645ZM25.6996 55.5087L27.3512 54.3808L26.2233 52.7291L24.5717 53.857L25.6996 55.5087ZM30.4547 62.4719L31.0604 64.378L33.6222 63.5639L32.1063 61.3441L30.4547 62.4719ZM29.6089 62.7407L27.6356 62.4154L27.1049 65.635L30.2146 64.6468L29.6089 62.7407ZM30.6336 56.524L29.5057 54.8724L28.7993 55.3548L28.6602 56.1988L30.6336 56.524ZM32.9219 54.9614L34.9014 55.2472L35.5518 50.7436L31.7941 53.3097L32.9219 54.9614ZM32.1997 59.9629L30.2202 59.677L30.0017 61.1901L31.4044 61.798L32.1997 59.9629ZM38.1934 62.5602L39.3213 64.2118L42.3158 62.1669L38.9886 60.7251L38.1934 62.5602ZM36.0875 63.9982L35.2929 65.8336L36.3048 66.2717L37.2154 65.6498L36.0875 63.9982ZM30.8851 61.7457L29.4484 60.3544L27.4365 62.432L30.0905 63.5811L30.8851 61.7457ZM31.8268 60.7733L33.804 61.0741L34.7457 54.884L30.39 59.382L31.8268 60.7733ZM31.2117 64.8164L29.2274 65.0669L33.1889 65.1172L31.2117 64.8164ZM31.0203 63.3002L32.6719 62.1724L29.0361 63.5507L31.0203 63.3002ZM32.9569 66.1361L34.0847 67.7877L35.7364 66.6599L34.6085 65.0082L32.9569 66.1361ZM31.1178 67.392L32.7694 66.2641L25.5121 55.6367L23.8605 56.7645L22.2088 57.8924L29.4661 68.5199L31.1178 67.392ZM23.8605 56.7645L24.9883 58.4162L26.8274 57.1603L25.6996 55.5087L24.5717 53.857L22.7326 55.1129L23.8605 56.7645ZM25.6996 55.5087L24.0479 56.6365L28.803 63.5998L30.4547 62.4719L32.1063 61.3441L27.3512 54.3808L25.6996 55.5087ZM30.4547 62.4719L29.849 60.5659L29.0032 60.8346L29.6089 62.7407L30.2146 64.6468L31.0604 64.378L30.4547 62.4719ZM29.6089 62.7407L31.5823 63.066L32.607 56.8493L30.6336 56.524L28.6602 56.1988L27.6356 62.4154L29.6089 62.7407ZM30.6336 56.524L31.7615 58.1757L34.0498 56.613L32.9219 54.9614L31.7941 53.3097L29.5057 54.8724L30.6336 56.524ZM32.9219 54.9614L30.9425 54.6755L30.2202 59.677L32.1997 59.9629L34.1791 60.2487L34.9014 55.2472L32.9219 54.9614ZM32.1997 59.9629L31.4044 61.798L37.3982 64.3953L38.1934 62.5602L38.9886 60.7251L32.9949 58.1277L32.1997 59.9629ZM38.1934 62.5602L37.0655 60.9085L34.9597 62.3466L36.0875 63.9982L37.2154 65.6498L39.3213 64.2118L38.1934 62.5602ZM36.0875 63.9982L36.8822 62.1629L31.6798 59.9104L30.8851 61.7457L30.0905 63.5811L35.2929 65.8336L36.0875 63.9982ZM30.8851 61.7457L32.3219 63.137L33.2635 62.1646L31.8268 60.7733L30.39 59.382L29.4484 60.3544L30.8851 61.7457ZM31.8268 60.7733L29.8495 60.4725L29.2344 64.5156L31.2117 64.8164L33.1889 65.1172L33.804 61.0741L31.8268 60.7733ZM31.2117 64.8164L33.1959 64.566L33.0046 63.0498L31.0203 63.3002L29.0361 63.5507L29.2274 65.0669L31.2117 64.8164ZM31.0203 63.3002L29.3687 64.4281L31.3052 67.264L32.9569 66.1361L34.6085 65.0082L32.6719 62.1724L31.0203 63.3002ZM32.9569 66.1361L31.829 64.4845L29.9899 65.7404L31.1178 67.392L32.2457 69.0436L34.0847 67.7877L32.9569 66.1361ZM40.0798 61.1279L40.4266 63.0976L40.0798 61.1279ZM38.6495 60.9929L37.865 62.8326L37.8768 62.8377L37.8887 62.8426L38.6495 60.9929ZM37.0448 58.7334L39.0384 58.5735L39.0374 58.5615L39.0363 58.5495L37.0448 58.7334ZM37.34 57.2966L39.1387 58.1711L39.1387 58.1711L37.34 57.2966ZM38.5021 55.8031L39.8715 57.2609L39.8809 57.2519L38.5021 55.8031ZM40.723 53.6895L42.3747 52.5616L41.0482 50.6191L39.3442 52.2407L40.723 53.6895ZM41.6817 55.0934L43.0704 56.5327L44.2857 55.3602L43.3334 53.9655L41.6817 55.0934ZM39.783 56.9252L38.3944 55.4859L38.3877 55.4923L38.3811 55.4988L39.783 56.9252ZM39.2084 57.8322L37.2538 57.4089L37.2538 57.4089L39.2084 57.8322ZM40.1185 59.1046L39.9559 61.098L40.0075 61.1022L40.0592 61.1037L40.1185 59.1046ZM41.8778 57.8826L43.6609 58.7885L43.6658 58.7789L43.6706 58.7692L41.8778 57.8826ZM42.096 56.725L40.1013 56.871L40.1031 56.8954L40.1055 56.9197L42.096 56.725ZM39.4055 53.0865L39.1512 55.0703L39.1898 55.0752L39.2286 55.0787L39.4055 53.0865ZM37.3322 54.4817L39.1973 55.2038L39.2019 55.1918L37.3322 54.4817ZM37.238 55.7606L37.5305 57.7391L39.6466 57.4263L39.1923 55.3359L37.238 55.7606ZM35.2373 56.0564L33.296 56.5375L33.7329 58.3005L35.5298 58.0349L35.2373 56.0564ZM35.2298 54.5382L37.176 54.9987L37.1767 54.9961L35.2298 54.5382ZM35.9016 53.0501L34.2577 51.9111L35.9016 53.0501ZM39.0573 51.0392L39.3431 53.0187L39.3588 53.0164L39.3746 53.0139L39.0573 51.0392ZM40.8183 51.2365L40.0304 53.0748L40.0549 53.0853L40.0796 53.0951L40.8183 51.2365ZM45.6642 57.4585L46.792 59.1101L48.4437 57.9823L47.3158 56.3306L45.6642 57.4585ZM43.9233 58.6473L42.2717 59.7752L43.3996 61.4268L45.0512 60.2989L43.9233 58.6473ZM43.0318 57.3417L41.7891 55.7746L40.3299 56.9317L41.3801 58.4695L43.0318 57.3417ZM43.4057 57.0451L45.4022 56.9278L45.1765 53.0884L42.163 55.4781L43.4057 57.0451ZM43.2694 58.3528L45.1794 58.946L45.1855 58.9261L45.1913 58.9061L43.2694 58.3528ZM42.6879 59.4909L44.2703 60.714L44.2851 60.6949L44.2995 60.6753L42.6879 59.4909ZM41.6518 60.4455L40.5239 58.7939C40.1711 59.0348 39.9094 59.1271 39.7329 59.1582L40.0798 61.1279L40.4266 63.0976C41.2792 62.9475 42.0655 62.5849 42.7796 62.0972L41.6518 60.4455ZM40.0798 61.1279L39.7329 59.1582C39.5526 59.1899 39.4641 59.1654 39.4104 59.1433L38.6495 60.9929L37.8887 62.8426C38.7129 63.1816 39.5779 63.2471 40.4266 63.0976L40.0798 61.1279ZM38.6495 60.9929L39.4341 59.1533C39.3745 59.1279 39.2901 59.0778 39.1826 58.9203L37.5309 60.0482L35.8793 61.1761C36.3725 61.8984 37.0338 62.4782 37.865 62.8326L38.6495 60.9929ZM37.5309 60.0482L39.1826 58.9203C39.0679 58.7524 39.0439 58.643 39.0384 58.5735L37.0448 58.7334L35.0512 58.8932C35.1186 59.7346 35.4187 60.5017 35.8793 61.1761L37.5309 60.0482ZM37.0448 58.7334L39.0363 58.5495C39.0324 58.5078 39.0305 58.3937 39.1387 58.1711L37.34 57.2966L35.5412 56.4222C35.1701 57.1857 34.9713 58.0294 35.0532 58.9172L37.0448 58.7334ZM37.34 57.2966L39.1387 58.1711C39.2426 57.9573 39.4572 57.6499 39.8714 57.2608L38.5021 55.8031L37.1328 54.3454C36.4768 54.9616 35.9167 55.6499 35.5412 56.4222L37.34 57.2966ZM38.5021 55.8031L39.8809 57.2519L42.1018 55.1383L40.723 53.6895L39.3442 52.2407L37.1233 54.3543L38.5021 55.8031ZM40.723 53.6895L39.0714 54.8174L40.0301 56.2213L41.6817 55.0934L43.3334 53.9655L42.3747 52.5616L40.723 53.6895ZM41.6817 55.0934L40.2931 53.6541L38.3944 55.4859L39.783 56.9252L41.1717 58.3645L43.0704 56.5327L41.6817 55.0934ZM39.783 56.9252L38.3811 55.4988C37.9161 55.9558 37.4313 56.589 37.2538 57.4089L39.2084 57.8322L41.1631 58.2555C41.1357 58.3821 41.0934 58.4509 41.0887 58.4583C41.086 58.4626 41.0905 58.4549 41.1064 58.4357C41.1223 58.4165 41.1476 58.3883 41.1849 58.3516L39.783 56.9252ZM39.2084 57.8322L37.2538 57.4089C37.0615 58.2965 37.2826 59.1313 37.7407 59.8021L39.3923 58.6742L41.0439 57.5463C41.0754 57.5925 41.1298 57.6893 41.1613 57.8335C41.1938 57.9824 41.1904 58.1297 41.1631 58.2555L39.2084 57.8322ZM39.3923 58.6742L37.7407 59.8021C38.2456 60.5416 39.0244 61.022 39.9559 61.098L40.1185 59.1046L40.2811 57.1112C40.4041 57.1213 40.5651 57.1614 40.7278 57.2578C40.8885 57.3531 40.9897 57.4669 41.0439 57.5463L39.3923 58.6742ZM40.1185 59.1046L40.0592 61.1037C40.8607 61.1275 41.5728 60.8627 42.1579 60.4632L41.03 58.8115L39.9021 57.1599C39.89 57.1682 39.9111 57.1516 39.9653 57.1342C40.0225 57.1158 40.0963 57.1031 40.1778 57.1055L40.1185 59.1046ZM41.03 58.8115L42.1579 60.4632C42.7746 60.042 43.3044 59.4902 43.6609 58.7885L41.8778 57.8826L40.0947 56.9768C40.0882 56.9895 40.0529 57.057 39.9021 57.1599L41.03 58.8115ZM41.8778 57.8826L43.6706 58.7692C44.014 58.0748 44.1633 57.3156 44.0865 56.5302L42.096 56.725L40.1055 56.9197C40.1069 56.9344 40.1058 56.9402 40.1053 56.9431C40.1046 56.9466 40.1013 56.9632 40.0851 56.9961L41.8778 57.8826ZM42.096 56.725L44.0906 56.5789C44.0344 55.8103 43.7771 55.0977 43.3484 54.4699L41.6968 55.5978L40.0451 56.7256C40.0894 56.7904 40.0983 56.8293 40.1013 56.871L42.096 56.725ZM41.6968 55.5978L43.3484 54.4699L42.0062 52.5044L40.3546 53.6323L38.703 54.7602L40.0451 56.7256L41.6968 55.5978ZM40.3546 53.6323L42.0062 52.5044C41.4315 51.6628 40.5632 51.1814 39.5823 51.0943L39.4055 53.0865L39.2286 55.0787C39.1806 55.0744 39.0755 55.0547 38.9525 54.9839C38.8276 54.9121 38.7459 54.8231 38.703 54.7602L40.3546 53.6323ZM39.4055 53.0865L39.6598 51.1027C38.6567 50.9741 37.7591 51.2949 37.0367 51.7882L38.1646 53.4398L39.2924 55.0914C39.3576 55.047 39.3726 55.0496 39.3384 55.0593C39.3209 55.0643 39.294 55.0701 39.2593 55.0729C39.2244 55.0757 39.1876 55.0749 39.1512 55.0703L39.4055 53.0865ZM38.1646 53.4398L37.0367 51.7882C36.3217 52.2764 35.7762 52.9456 35.4625 53.7716L37.3322 54.4817L39.2019 55.1918C39.2119 55.1655 39.2213 55.1401 39.2924 55.0914L38.1646 53.4398ZM37.3322 54.4817L35.467 53.7597C35.1626 54.5461 35.1068 55.3718 35.2836 56.1853L37.238 55.7606L39.1923 55.3359C39.177 55.2651 39.1839 55.2382 39.1973 55.2038L37.3322 54.4817ZM37.238 55.7606L36.9455 53.7821L34.9448 54.0779L35.2373 56.0564L35.5298 58.0349L37.5305 57.7391L37.238 55.7606ZM35.2373 56.0564L37.1786 55.5753C37.1303 55.3805 37.129 55.1973 37.176 54.9987L35.2298 54.5382L33.2835 54.0776C33.0904 54.8939 33.0941 55.7228 33.296 56.5375L35.2373 56.0564ZM35.2298 54.5382L37.1767 54.9961C37.2389 54.7316 37.3547 54.4647 37.5456 54.1891L35.9016 53.0501L34.2577 51.9111C33.7989 52.5732 33.4668 53.2984 33.2829 54.0803L35.2298 54.5382ZM35.9016 53.0501L37.5456 54.1891C37.7188 53.9391 37.9573 53.6976 38.2889 53.4712L37.161 51.8195L36.0332 50.1679C35.3353 50.6445 34.7341 51.2234 34.2577 51.9111L35.9016 53.0501ZM37.161 51.8195L38.2889 53.4712C38.7089 53.1843 39.0576 53.0599 39.3431 53.0187L39.0573 51.0392L38.7715 49.0598C37.7828 49.2025 36.8673 49.5983 36.0332 50.1679L37.161 51.8195ZM39.0573 51.0392L39.3746 53.0139C39.6628 52.9676 39.8633 53.0032 40.0304 53.0748L40.8183 51.2365L41.6062 49.3982C40.6867 49.0042 39.7132 48.9082 38.74 49.0646L39.0573 51.0392ZM40.8183 51.2365L40.0796 53.0951C40.2125 53.1479 40.3685 53.2501 40.5421 53.5043L42.1937 52.3764L43.8453 51.2485C43.2775 50.417 42.5165 49.7593 41.557 49.3779L40.8183 51.2365ZM42.1937 52.3764L40.5421 53.5043L44.0125 58.5864L45.6642 57.4585L47.3158 56.3306L43.8453 51.2485L42.1937 52.3764ZM45.6642 57.4585L44.5363 55.8069L42.7955 56.9956L43.9233 58.6473L45.0512 60.2989L46.792 59.1101L45.6642 57.4585ZM43.9233 58.6473L45.575 57.5194L44.6834 56.2138L43.0318 57.3417L41.3801 58.4695L42.2717 59.7752L43.9233 58.6473ZM43.0318 57.3417L44.2744 58.9087L44.6484 58.6122L43.4057 57.0451L42.163 55.4781L41.7891 55.7746L43.0318 57.3417ZM43.4057 57.0451L41.4091 57.1625C41.4241 57.4172 41.3977 57.6249 41.3474 57.7995L43.2694 58.3528L45.1913 58.9061C45.3771 58.2608 45.4415 57.5967 45.4022 56.9278L43.4057 57.0451ZM43.2694 58.3528L41.3593 57.7596C41.3047 57.9356 41.2158 58.1168 41.0763 58.3066L42.6879 59.4909L44.2995 60.6753C44.6865 60.1488 44.9852 59.5712 45.1794 58.946L43.2694 58.3528ZM42.6879 59.4909L41.1055 58.2678C40.9823 58.4272 40.7986 58.6063 40.5239 58.7939L41.6518 60.4455L42.7796 62.0972C43.3473 61.7095 43.8543 61.2523 44.2703 60.714L42.6879 59.4909ZM47.364 56.2977L45.7123 57.4256L46.8402 59.0772L48.4918 57.9494L47.364 56.2977ZM42.1487 48.6606L41.0208 47.0089L39.3692 48.1368L40.497 49.7884L42.1487 48.6606ZM43.8755 47.4814L45.5271 46.3535L44.3992 44.7019L42.7476 45.8297L43.8755 47.4814ZM44.9013 48.9835L43.965 50.7509L46.5529 47.8557L44.9013 48.9835ZM44.5787 48.8127L42.631 49.2671L42.8379 50.1538L43.6425 50.58L44.5787 48.8127ZM44.7397 47.1794L46.5449 48.0404L46.5479 48.034L46.5509 48.0276L44.7397 47.1794ZM47.6598 45.1853L47.829 47.1781L47.8381 47.1774L47.8472 47.1765L47.6598 45.1853ZM49.3845 45.5103L48.4852 47.2967L48.4934 47.3009L48.5016 47.3049L49.3845 45.5103ZM54.1307 51.6768L55.2586 53.3285L56.9102 52.2006L55.7823 50.549L54.1307 51.6768ZM52.2916 52.9327L50.64 54.0606L51.7679 55.7122L53.4195 54.5844L52.2916 52.9327ZM48.4424 47.7181L49.3619 45.942L49.3619 45.942L48.4424 47.7181ZM47.5115 47.5304L47.5925 49.5288L47.6406 49.5269L47.6885 49.5226L47.5115 47.5304ZM45.911 48.6234L47.7021 49.5133L47.7154 49.4865L47.7279 49.4593L45.911 48.6234ZM45.747 49.5588L47.7359 49.3488L45.747 49.5588ZM49.2031 55.0418L50.3309 56.6935L51.9826 55.5656L50.8547 53.914L49.2031 55.0418ZM47.364 56.2977L49.0156 55.1699L43.8003 47.5327L42.1487 48.6606L40.497 49.7884L45.7123 57.4256L47.364 56.2977ZM42.1487 48.6606L43.2765 50.3122L45.0033 49.133L43.8755 47.4814L42.7476 45.8297L41.0208 47.0089L42.1487 48.6606ZM43.8755 47.4814L42.2238 48.6093L43.2496 50.1114L44.9013 48.9835L46.5529 47.8557L45.5271 46.3535L43.8755 47.4814ZM44.9013 48.9835L45.8375 47.2162L45.515 47.0453L44.5787 48.8127L43.6425 50.58L43.965 50.7509L44.9013 48.9835ZM44.5787 48.8127L46.5264 48.3582C46.4879 48.1932 46.5092 48.1153 46.5449 48.0404L44.7397 47.1794L42.9345 46.3184C42.4849 47.2611 42.3988 48.2721 42.631 49.2671L44.5787 48.8127ZM44.7397 47.1794L46.5509 48.0276C46.6252 47.869 46.7624 47.6848 47.0503 47.4882L45.9224 45.8365L44.7945 44.1849C43.9968 44.7297 43.3455 45.4407 42.9284 46.3312L44.7397 47.1794ZM45.9224 45.8365L47.0503 47.4882C47.3662 47.2724 47.6203 47.1959 47.829 47.1781L47.6598 45.1853L47.4906 43.1925C46.5059 43.2761 45.6017 43.6337 44.7945 44.1849L45.9224 45.8365ZM47.6598 45.1853L47.8472 47.1765C48.079 47.1547 48.2773 47.1921 48.4852 47.2967L49.3845 45.5103L50.2838 43.7239C49.4042 43.2811 48.4527 43.1018 47.4724 43.1941L47.6598 45.1853ZM49.3845 45.5103L48.5016 47.3049C48.6845 47.3949 48.8979 47.5605 49.1236 47.8911L50.7753 46.7632L52.4269 45.6353C51.8729 44.8241 51.1591 44.1544 50.2673 43.7157L49.3845 45.5103ZM50.7753 46.7632L49.1236 47.8911L52.4791 52.8047L54.1307 51.6768L55.7823 50.549L52.4269 45.6353L50.7753 46.7632ZM54.1307 51.6768L53.0028 50.0252L51.1637 51.2811L52.2916 52.9327L53.4195 54.5844L55.2586 53.3285L54.1307 51.6768ZM52.2916 52.9327L53.9433 51.8048L50.885 47.3264L49.2334 48.4543L47.5818 49.5822L50.64 54.0606L52.2916 52.9327ZM49.2334 48.4543L50.885 47.3264C50.5088 46.7755 50.0108 46.278 49.3619 45.942L48.4424 47.7181L47.523 49.4942C47.4986 49.4816 47.4914 49.4731 47.5004 49.4815C47.5106 49.491 47.5395 49.5202 47.5818 49.5822L49.2334 48.4543ZM48.4424 47.7181L49.3619 45.942C48.7381 45.619 48.0485 45.4748 47.3344 45.5383L47.5115 47.5304L47.6885 49.5226C47.664 49.5248 47.6295 49.524 47.5916 49.5164C47.5541 49.5088 47.5302 49.498 47.523 49.4942L48.4424 47.7181ZM47.5115 47.5304L47.4304 45.5321C46.6768 45.5627 46.0057 45.8281 45.4396 46.2147L46.5674 47.8663L47.6953 49.518C47.7246 49.498 47.728 49.5005 47.7055 49.5085C47.6811 49.5171 47.6415 49.5268 47.5925 49.5288L47.5115 47.5304ZM46.5674 47.8663L45.4396 46.2147C44.8708 46.6031 44.3983 47.1263 44.0941 47.7874L45.911 48.6234L47.7279 49.4593C47.723 49.4701 47.7168 49.4814 47.7097 49.4924C47.7026 49.5034 47.6956 49.5124 47.6898 49.5192C47.6775 49.5334 47.6754 49.5316 47.6953 49.518L46.5674 47.8663ZM45.911 48.6234L44.1199 47.7334C43.8009 48.3754 43.6843 49.0702 43.758 49.7688L45.747 49.5588L47.7359 49.3488C47.7368 49.3569 47.7382 49.3831 47.7316 49.4208C47.7249 49.4589 47.7131 49.4912 47.7021 49.5133L45.911 48.6234ZM45.747 49.5588L43.758 49.7688C43.8348 50.4955 44.117 51.1404 44.4932 51.6913L46.1448 50.5634L47.7965 49.4356C47.7542 49.3736 47.7374 49.3361 47.7323 49.3232C47.7278 49.3117 47.733 49.3215 47.7359 49.3488L45.747 49.5588ZM46.1448 50.5634L44.4932 51.6913L47.5514 56.1697L49.2031 55.0418L50.8547 53.914L47.7965 49.4356L46.1448 50.5634ZM49.2031 55.0418L48.0752 53.3902L46.2361 54.6461L47.364 56.2977L48.4918 57.9494L50.3309 56.6935L49.2031 55.0418ZM56.5453 49.8838L56.8922 51.8535L56.5453 49.8838ZM55.1151 49.7489L54.3305 51.5886L54.3423 51.5936L54.3542 51.5985L55.1151 49.7489ZM53.5103 47.4893L55.5039 47.3295L55.5029 47.3175L55.5018 47.3055L53.5103 47.4893ZM53.8055 46.0526L55.6042 46.927L55.6042 46.927L53.8055 46.0526ZM54.9677 44.559L56.337 46.0168L56.3464 46.0078L54.9677 44.559ZM57.1886 42.4454L58.8402 41.3176L57.5137 39.3751L55.8098 40.9967L57.1886 42.4454ZM58.1473 43.8493L59.5359 45.2887L60.7513 44.1161L59.7989 42.7215L58.1473 43.8493ZM56.2486 45.6811L54.8599 44.2418L54.8533 44.2482L54.8466 44.2547L56.2486 45.6811ZM55.674 46.5882L53.7193 46.1648L53.7193 46.1648L55.674 46.5882ZM56.5841 47.8606L56.4215 49.8539L56.4731 49.8582L56.5248 49.8597L56.5841 47.8606ZM58.3434 46.6386L60.1265 47.5444L60.1314 47.5348L60.1361 47.5251L58.3434 46.6386ZM58.5615 45.4809L56.5669 45.6269L56.5686 45.6513L56.571 45.6757L58.5615 45.4809ZM55.871 41.8424L55.6167 43.8262L55.6554 43.8312L55.6942 43.8346L55.871 41.8424ZM53.7977 43.2377L55.6629 43.9597L55.6674 43.9478L53.7977 43.2377ZM53.7035 44.5166L53.996 46.4951L56.1122 46.1822L55.6579 44.0918L53.7035 44.5166ZM51.7028 44.8123L49.7615 45.2934L50.1985 47.0565L51.9953 46.7908L51.7028 44.8123ZM51.6953 43.2941L53.6416 43.7547L53.6422 43.752L51.6953 43.2941ZM52.3672 41.806L50.7232 40.667L52.3672 41.806ZM55.5228 39.7952L55.8086 41.7747L55.8244 41.7724L55.8401 41.7699L55.5228 39.7952ZM57.2838 39.9925L56.4959 41.8307L56.5204 41.8412L56.5451 41.851L57.2838 39.9925ZM62.1297 46.2144L63.2576 47.8661L64.9092 46.7382L63.7813 45.0866L62.1297 46.2144ZM60.3889 47.4032L58.7372 48.5311L59.8651 50.1827L61.5168 49.0549L60.3889 47.4032ZM59.4973 46.0976L58.2546 44.5305L56.7955 45.6876L57.8457 47.2255L59.4973 46.0976ZM59.8712 45.8011L61.8678 45.6837L61.642 41.8443L58.6285 44.234L59.8712 45.8011ZM59.7349 47.1087L61.6449 47.7019L61.6511 47.6821L61.6568 47.6621L59.7349 47.1087ZM59.1535 48.2469L60.7359 49.47L60.7507 49.4508L60.7651 49.4313L59.1535 48.2469ZM58.1173 49.2015L56.9894 47.5498C56.6366 47.7908 56.375 47.8831 56.1984 47.9141L56.5453 49.8838L56.8922 51.8535C57.7447 51.7034 58.531 51.3408 59.2452 50.8531L58.1173 49.2015ZM56.5453 49.8838L56.1984 47.9141C56.0182 47.9459 55.9297 47.9214 55.876 47.8993L55.1151 49.7489L54.3542 51.5985C55.1784 51.9376 56.0434 52.003 56.8922 51.8535L56.5453 49.8838ZM55.1151 49.7489L55.8997 47.9092C55.8401 47.8838 55.7557 47.8338 55.6481 47.6763L53.9965 48.8042L52.3448 49.932C52.8381 50.6543 53.4994 51.2341 54.3305 51.5886L55.1151 49.7489ZM53.9965 48.8042L55.6481 47.6763C55.5335 47.5084 55.5095 47.3989 55.5039 47.3295L53.5103 47.4893L51.5167 47.6491C51.5841 48.4905 51.8843 49.2576 52.3448 49.932L53.9965 48.8042ZM53.5103 47.4893L55.5018 47.3055C55.498 47.2638 55.496 47.1496 55.6042 46.927L53.8055 46.0526L52.0068 45.1781C51.6356 45.9417 51.4368 46.7853 51.5188 47.6731L53.5103 47.4893ZM53.8055 46.0526L55.6042 46.927C55.7081 46.7133 55.9228 46.4058 56.337 46.0168L54.9677 44.559L53.5983 43.1013C52.9424 43.7175 52.3823 44.4058 52.0068 45.1782L53.8055 46.0526ZM54.9677 44.559L56.3464 46.0078L58.5673 43.8942L57.1886 42.4454L55.8098 40.9967L53.5889 43.1103L54.9677 44.559ZM57.1886 42.4454L55.5369 43.5733L56.4956 44.9772L58.1473 43.8493L59.7989 42.7215L58.8402 41.3176L57.1886 42.4454ZM58.1473 43.8493L56.7586 42.41L54.8599 44.2418L56.2486 45.6811L57.6372 47.1205L59.5359 45.2887L58.1473 43.8493ZM56.2486 45.6811L54.8466 44.2547C54.3817 44.7117 53.8969 45.3449 53.7193 46.1648L55.674 46.5882L57.6287 47.0115C57.6013 47.138 57.559 47.2068 57.5542 47.2143C57.5515 47.2186 57.556 47.2109 57.572 47.1916C57.5879 47.1724 57.6131 47.1443 57.6505 47.1076L56.2486 45.6811ZM55.674 46.5882L53.7193 46.1648C53.5271 47.0524 53.7481 47.8873 54.2062 48.558L55.8578 47.4301L57.5095 46.3023C57.541 46.3484 57.5953 46.4453 57.6268 46.5894C57.6593 46.7383 57.6559 46.8857 57.6287 47.0115L55.674 46.5882ZM55.8578 47.4301L54.2062 48.558C54.7112 49.2975 55.4899 49.778 56.4215 49.8539L56.5841 47.8606L56.7466 45.8672C56.8696 45.8772 57.0306 45.9173 57.1933 46.0138C57.354 46.109 57.4553 46.2229 57.5095 46.3023L55.8578 47.4301ZM56.5841 47.8606L56.5248 49.8597C57.3263 49.8835 58.0383 49.6187 58.6234 49.2191L57.4956 47.5675L56.3677 45.9159C56.3555 45.9242 56.3767 45.9076 56.4309 45.8902C56.488 45.8718 56.5618 45.859 56.6434 45.8614L56.5841 47.8606ZM57.4956 47.5675L58.6234 49.2191C59.2401 48.798 59.77 48.2461 60.1265 47.5444L58.3434 46.6386L56.5603 45.7327C56.5538 45.7455 56.5184 45.8129 56.3677 45.9159L57.4956 47.5675ZM58.3434 46.6386L60.1361 47.5251C60.4795 46.8308 60.6289 46.0715 60.552 45.2861L58.5615 45.4809L56.571 45.6757C56.5725 45.6904 56.5714 45.6962 56.5708 45.6991C56.5702 45.7025 56.5669 45.7192 56.5506 45.752L58.3434 46.6386ZM58.5615 45.4809L60.5562 45.3349C60.4999 44.5662 60.2427 43.8536 59.8139 43.2258L58.1623 44.3537L56.5107 45.4816C56.5549 45.5464 56.5638 45.5852 56.5669 45.6269L58.5615 45.4809ZM58.1623 44.3537L59.8139 43.2258L58.4718 41.2604L56.8201 42.3883L55.1685 43.5161L56.5107 45.4816L58.1623 44.3537ZM56.8201 42.3883L58.4718 41.2604C57.897 40.4188 57.0288 39.9373 56.0478 39.8503L55.871 41.8424L55.6942 43.8346C55.6461 43.8303 55.5411 43.8106 55.418 43.7399C55.2931 43.668 55.2115 43.579 55.1685 43.5161L56.8201 42.3883ZM55.871 41.8424L56.1253 39.8587C55.1222 39.7301 54.2247 40.0508 53.5022 40.5441L54.6301 42.1958L55.758 43.8474C55.8231 43.8029 55.8382 43.8055 55.8039 43.8153C55.7865 43.8202 55.7595 43.8261 55.7249 43.8288C55.6899 43.8316 55.6531 43.8309 55.6167 43.8262L55.871 41.8424ZM54.6301 42.1958L53.5022 40.5441C52.7873 41.0324 52.2417 41.7016 51.928 42.5276L53.7977 43.2377L55.6674 43.9478C55.6774 43.9214 55.6868 43.896 55.758 43.8474L54.6301 42.1958ZM53.7977 43.2377L51.9326 42.5156C51.6281 43.3021 51.5723 44.1278 51.7491 44.9413L53.7035 44.5166L55.6579 44.0918C55.6425 44.021 55.6495 43.9941 55.6628 43.9597L53.7977 43.2377ZM53.7035 44.5166L53.411 42.5381L51.4103 42.8338L51.7028 44.8123L51.9953 46.7908L53.996 46.4951L53.7035 44.5166ZM51.7028 44.8123L53.6441 44.3312C53.5958 44.1365 53.5946 43.9532 53.6416 43.7547L51.6953 43.2941L49.7491 42.8335C49.5559 43.6499 49.5597 44.4788 49.7615 45.2934L51.7028 44.8123ZM51.6953 43.2941L53.6422 43.752C53.7044 43.4875 53.8202 43.2206 54.0111 42.945L52.3672 41.806L50.7232 40.667C50.2644 41.3292 49.9323 42.0543 49.7485 42.8362L51.6953 43.2941ZM52.3672 41.806L54.0111 42.945C54.1844 42.695 54.4228 42.4536 54.7545 42.2271L53.6266 40.5755L52.4987 38.9238C51.8008 39.4004 51.1997 39.9793 50.7232 40.667L52.3672 41.806ZM53.6266 40.5755L54.7545 42.2271C55.1745 41.9403 55.5232 41.8159 55.8086 41.7747L55.5228 39.7952L55.2371 37.8157C54.2483 37.9584 53.3328 38.3542 52.4987 38.9238L53.6266 40.5755ZM55.5228 39.7952L55.8401 41.7699C56.1284 41.7235 56.3288 41.7591 56.4959 41.8307L57.2838 39.9925L58.0717 38.1542C57.1523 37.7601 56.1787 37.6642 55.2056 37.8205L55.5228 39.7952ZM57.2838 39.9925L56.5451 41.851C56.6781 41.9039 56.834 42.0061 57.0076 42.2602L58.6592 41.1324L60.3109 40.0045C59.743 39.173 58.9821 38.5152 58.0225 38.1339L57.2838 39.9925ZM58.6592 41.1324L57.0076 42.2602L60.4781 47.3423L62.1297 46.2144L63.7813 45.0866L60.3109 40.0045L58.6592 41.1324ZM62.1297 46.2144L61.0018 44.5628L59.261 45.7516L60.3889 47.4032L61.5168 49.0549L63.2576 47.8661L62.1297 46.2144ZM60.3889 47.4032L62.0405 46.2754L61.1489 44.9697L59.4973 46.0976L57.8457 47.2255L58.7372 48.5311L60.3889 47.4032ZM59.4973 46.0976L60.74 47.6647L61.1139 47.3682L59.8712 45.8011L58.6285 44.234L58.2546 44.5305L59.4973 46.0976ZM59.8712 45.8011L57.8747 45.9185C57.8896 46.1732 57.8632 46.3808 57.813 46.5554L59.7349 47.1087L61.6568 47.6621C61.8426 47.0167 61.9071 46.3526 61.8678 45.6837L59.8712 45.8011ZM59.7349 47.1087L57.8249 46.5155C57.7702 46.6915 57.6813 46.8727 57.5419 47.0625L59.1535 48.2469L60.7651 49.4313C61.152 48.9047 61.4507 48.3272 61.6449 47.7019L59.7349 47.1087ZM59.1535 48.2469L57.5711 47.0238C57.4479 47.1831 57.2642 47.3622 56.9894 47.5498L58.1173 49.2015L59.2452 50.8531C59.8128 50.4655 60.3198 50.0082 60.7359 49.47L59.1535 48.2469ZM63.8295 45.0537L62.1779 46.1816L63.3057 47.8332L64.9574 46.7053L63.8295 45.0537ZM58.6142 37.4165L57.4863 35.7649L55.8347 36.8928L56.9626 38.5444L58.6142 37.4165ZM60.341 36.2373L61.9926 35.1095L60.8648 33.4578L59.2131 34.5857L60.341 36.2373ZM61.3668 37.7395L60.4305 39.5068L63.0184 36.6116L61.3668 37.7395ZM61.0443 37.5686L59.0966 38.0231L59.3035 38.9097L60.108 39.3359L61.0443 37.5686ZM61.2052 35.9353L63.0104 36.7963L63.0135 36.7899L63.0165 36.7835L61.2052 35.9353ZM64.1253 33.9413L64.2945 35.9341L64.3036 35.9333L64.3128 35.9325L64.1253 33.9413ZM65.85 34.2663L64.9507 36.0527L64.9589 36.0568L64.9671 36.0608L65.85 34.2663ZM70.5963 40.4328L71.7241 42.0844L73.3758 40.9565L72.2479 39.3049L70.5963 40.4328ZM68.7572 41.6887L67.1055 42.8165L68.2334 44.4682L69.885 43.3403L68.7572 41.6887ZM64.908 36.4741L65.8275 34.698L65.8275 34.698L64.908 36.4741ZM63.977 36.2864L64.0581 38.2847L64.1062 38.2828L64.1541 38.2785L63.977 36.2864ZM62.3766 37.3793L64.1676 38.2693L64.181 38.2425L64.1935 38.2153L62.3766 37.3793ZM62.2125 38.3148L64.2015 38.1047L62.2125 38.3148ZM65.6686 43.7978L66.7965 45.4494L68.4481 44.3216L67.3202 42.6699L65.6686 43.7978ZM63.8295 45.0537L65.4811 43.9258L60.2659 36.2886L58.6142 37.4165L56.9626 38.5444L62.1779 46.1816L63.8295 45.0537ZM58.6142 37.4165L59.7421 39.0682L61.4689 37.889L60.341 36.2373L59.2131 34.5857L57.4863 35.7649L58.6142 37.4165ZM60.341 36.2373L58.6894 37.3652L59.7152 38.8674L61.3668 37.7395L63.0184 36.6116L61.9926 35.1095L60.341 36.2373ZM61.3668 37.7395L62.3031 35.9722L61.9805 35.8013L61.0443 37.5686L60.108 39.3359L60.4305 39.5068L61.3668 37.7395ZM61.0443 37.5686L62.9919 37.1141C62.9534 36.9491 62.9747 36.8712 63.0104 36.7963L61.2052 35.9353L59.4 35.0744C58.9504 36.0171 58.8644 37.028 59.0966 38.0231L61.0443 37.5686ZM61.2052 35.9353L63.0165 36.7835C63.0907 36.625 63.2279 36.4407 63.5158 36.2441L62.3879 34.5925L61.2601 32.9408C60.4623 33.4856 59.811 34.1966 59.394 35.0872L61.2052 35.9353ZM62.3879 34.5925L63.5158 36.2441C63.8318 36.0283 64.0859 35.9518 64.2945 35.9341L64.1253 33.9413L63.9561 31.9484C62.9714 32.032 62.0672 32.3896 61.2601 32.9408L62.3879 34.5925ZM64.1253 33.9413L64.3128 35.9325C64.5445 35.9106 64.7428 35.948 64.9507 36.0527L65.85 34.2663L66.7493 32.4798C65.8698 32.0371 64.9182 31.8578 63.9379 31.9501L64.1253 33.9413ZM65.85 34.2663L64.9671 36.0608C65.1501 36.1508 65.3634 36.3165 65.5892 36.647L67.2408 35.5192L68.8925 34.3913C68.3385 33.58 67.6247 32.9104 66.7329 32.4717L65.85 34.2663ZM67.2408 35.5192L65.5892 36.647L68.9446 41.5606L70.5963 40.4328L72.2479 39.3049L68.8925 34.3913L67.2408 35.5192ZM70.5963 40.4328L69.4684 38.7811L67.6293 40.037L68.7572 41.6887L69.885 43.3403L71.7241 42.0844L70.5963 40.4328ZM68.7572 41.6887L70.4088 40.5608L67.3506 36.0824L65.6989 37.2103L64.0473 38.3381L67.1055 42.8165L68.7572 41.6887ZM65.6989 37.2103L67.3506 36.0824C66.9743 35.5314 66.4764 35.0339 65.8275 34.698L64.908 36.4741L63.9885 38.2502C63.9641 38.2375 63.957 38.2291 63.966 38.2375C63.9761 38.2469 64.005 38.2762 64.0473 38.3381L65.6989 37.2103ZM64.908 36.4741L65.8275 34.698C65.2036 34.375 64.514 34.2308 63.7999 34.2943L63.977 36.2864L64.1541 38.2785C64.1295 38.2807 64.0951 38.28 64.0571 38.2723C64.0197 38.2648 63.9958 38.2539 63.9885 38.2502L64.908 36.4741ZM63.977 36.2864L63.8959 34.288C63.1423 34.3186 62.4712 34.584 61.9051 34.9706L63.033 36.6223L64.1609 38.2739C64.1901 38.2539 64.1935 38.2564 64.171 38.2644C64.1467 38.2731 64.1071 38.2828 64.0581 38.2847L63.977 36.2864ZM63.033 36.6223L61.9051 34.9706C61.3364 35.359 60.8639 35.8822 60.5597 36.5433L62.3766 37.3793L64.1935 38.2153C64.1885 38.2261 64.1824 38.2373 64.1752 38.2484C64.1681 38.2594 64.1612 38.2684 64.1553 38.2751C64.143 38.2893 64.1409 38.2875 64.1609 38.2739L63.033 36.6223ZM62.3766 37.3793L60.5855 36.4893C60.2665 37.1314 60.1498 37.8261 60.2236 38.5248L62.2125 38.3148L64.2015 38.1047C64.2023 38.1129 64.2037 38.1391 64.1971 38.1767C64.1904 38.2148 64.1786 38.2472 64.1676 38.2693L62.3766 37.3793ZM62.2125 38.3148L60.2236 38.5248C60.3003 39.2514 60.5825 39.8963 60.9587 40.4473L62.6104 39.3194L64.262 38.1915C64.2197 38.1296 64.2029 38.092 64.1978 38.0791C64.1933 38.0677 64.1986 38.0774 64.2015 38.1047L62.2125 38.3148ZM62.6104 39.3194L60.9587 40.4473L64.017 44.9257L65.6686 43.7978L67.3202 42.6699L64.262 38.1915L62.6104 39.3194ZM65.6686 43.7978L64.5407 42.1462L62.7016 43.402L63.8295 45.0537L64.9574 46.7053L66.7965 45.4494L65.6686 43.7978ZM76.548 36.0802L76.9262 38.0442L76.938 38.0418L76.548 36.0802ZM74.3977 36.0665L73.9405 38.0135L73.9621 38.0186L73.9838 38.0232L74.3977 36.0665ZM72.4683 35.1402L70.7764 34.0736L69.8087 35.6086L71.2427 36.7207L72.4683 35.1402ZM73.5849 33.369L74.6683 31.6878L72.9703 30.5936L71.8931 32.3024L73.5849 33.369ZM75.6482 34.0391L75.5913 36.0383L75.6042 36.0387L75.6172 36.0389L75.6482 34.0391ZM78.3728 32.6932L80.0551 33.7748L80.0648 33.7597L80.0742 33.7444L78.3728 32.6932ZM78.6416 31.8509L76.6436 31.7622L76.6421 31.795L76.6417 31.8277L78.6416 31.8509ZM77.5935 30.4669L77.0807 32.4L77.1278 32.4125L77.1754 32.4227L77.5935 30.4669ZM76.4533 30.5456L77.0212 32.4633L77.0334 32.4596L77.0456 32.4559L76.4533 30.5456ZM74.0048 31.2707L73.4368 29.353L73.427 29.356L73.4171 29.359L74.0048 31.2707ZM71.3891 31.3895L71.9571 29.4718L71.3891 31.3895ZM68.9058 28.1448L66.9062 28.186L66.9065 28.2004L66.907 28.2149L68.9058 28.1448ZM69.4126 26.2341L71.1458 27.2321L71.1495 27.2257L71.1531 27.2193L69.4126 26.2341ZM72.9261 23.7525L73.3121 25.7149L73.327 25.7119L73.3419 25.7088L72.9261 23.7525ZM74.897 23.7447L74.4788 25.7005L74.5026 25.7056L74.5266 25.7101L74.897 23.7447ZM76.6833 24.5216L78.3865 25.57L79.3572 23.993L77.8593 22.904L76.6833 24.5216ZM75.5902 26.2973L74.4654 27.951L76.1962 29.1283L77.2934 27.3457L75.5902 26.2973ZM73.8392 25.7227L73.81 27.7225L73.8253 27.7227L73.8407 27.7227L73.8392 25.7227ZM71.3827 27.0091L73.065 28.0907L73.0824 28.0636L73.0989 28.036L71.3827 27.0091ZM71.1139 27.8514L69.1144 27.8092L69.1142 27.8187L69.1141 27.8282L71.1139 27.8514ZM72.1856 29.2399L71.6389 31.1637L71.6591 31.1694L71.6794 31.1747L72.1856 29.2399ZM73.3871 29.1605L73.9631 31.0758L73.9686 31.0741L73.3871 29.1605ZM75.7227 28.4507L75.162 26.5309L75.1516 26.534L75.1412 26.5371L75.7227 28.4507ZM78.3568 28.2988L77.843 30.2317L77.8538 30.2345L77.8646 30.2373L78.3568 28.2988ZM80.8166 31.539L82.8165 31.5261L82.8165 31.5261L80.8166 31.539ZM80.2772 33.4924L82.011 34.4895L80.2772 33.4924ZM78.6504 35.1798L77.5225 33.5281C77.0647 33.8408 76.6125 34.0283 76.1581 34.1186L76.548 36.0802L76.938 38.0418C77.9577 37.8391 78.9071 37.4263 79.7783 36.8314L78.6504 35.1798ZM76.548 36.0802L76.1698 34.1163C75.6967 34.2074 75.2493 34.2024 74.8116 34.1098L74.3977 36.0665L73.9838 38.0232C74.9577 38.2292 75.9439 38.2333 76.9262 38.0441L76.548 36.0802ZM74.3977 36.0665L74.855 34.1194C74.438 34.0215 74.0558 33.8404 73.6939 33.5597L72.4683 35.1402L71.2427 36.7207C72.0477 37.3449 72.9517 37.7813 73.9405 38.0135L74.3977 36.0665ZM72.4683 35.1402L74.1601 36.2068L75.2768 34.4356L73.5849 33.369L71.8931 32.3024L70.7764 34.0736L72.4683 35.1402ZM73.5849 33.369L72.5016 35.0501C73.4376 35.6533 74.4761 36.0065 75.5913 36.0383L75.6482 34.0391L75.7052 32.0399C75.3928 32.031 75.0557 31.9374 74.6683 31.6878L73.5849 33.369ZM75.6482 34.0391L75.6172 36.0389C76.7486 36.0564 77.8048 35.7293 78.7357 35.0937L77.6078 33.442L76.48 31.7904C76.2129 31.9728 75.9627 32.0438 75.6793 32.0394L75.6482 34.0391ZM77.6078 33.442L78.7357 35.0937C79.2353 34.7525 79.7033 34.3219 80.0551 33.7748L78.3728 32.6932L76.6905 31.6116C76.6962 31.6028 76.6542 31.6714 76.48 31.7904L77.6078 33.442ZM78.3728 32.6932L80.0742 33.7444C80.401 33.2155 80.6333 32.5838 80.6415 31.8741L78.6416 31.8509L76.6417 31.8277C76.6426 31.7549 76.655 31.6974 76.6667 31.6609C76.6777 31.6264 76.685 31.6199 76.6713 31.642L78.3728 32.6932ZM78.6416 31.8509L80.6396 31.9396C80.6737 31.1727 80.4359 30.4797 80.0436 29.9053L78.392 31.0332L76.7404 32.1611C76.7286 32.1438 76.6995 32.0959 76.6758 32.0181C76.6513 31.9379 76.6397 31.8494 76.6436 31.7622L78.6416 31.8509ZM78.392 31.0332L80.0436 29.9053C79.5863 29.2355 78.9054 28.7022 78.0117 28.5111L77.5935 30.4669L77.1754 32.4227C77.0722 32.4006 76.9674 32.3553 76.8771 32.2913C76.7908 32.23 76.7493 32.1742 76.7404 32.1611L78.392 31.0332ZM77.5935 30.4669L78.1063 28.5337C77.3062 28.3215 76.5231 28.43 75.8611 28.6353L76.4533 30.5456L77.0456 32.4559C77.0962 32.4402 77.1349 32.4308 77.1626 32.4253C77.1903 32.4198 77.2048 32.4186 77.2074 32.4184C77.2122 32.4181 77.1637 32.422 77.0807 32.4L77.5935 30.4669ZM76.4533 30.5456L75.8854 28.6279L73.4368 29.353L74.0048 31.2707L74.5727 33.1884L77.0212 32.4633L76.4533 30.5456ZM74.0048 31.2707L73.4171 29.359C72.6923 29.5818 72.2364 29.5545 71.9571 29.4718L71.3891 31.3895L70.8212 33.3071C72.0557 33.6728 73.3436 33.5663 74.5924 33.1824L74.0048 31.2707ZM71.3891 31.3895L71.9571 29.4718C71.6639 29.385 71.426 29.2233 71.2055 28.9005L69.5539 30.0283L67.9022 31.1562C68.6149 32.1998 69.6005 32.9456 70.8212 33.3071L71.3891 31.3895ZM69.5539 30.0283L71.2055 28.9005C70.987 28.5805 70.9129 28.3144 70.9045 28.0746L68.9058 28.1448L66.907 28.2149C66.9447 29.2886 67.3026 30.2782 67.9022 31.1562L69.5539 30.0283ZM68.9058 28.1448L70.9053 28.1035C70.8996 27.8275 70.9642 27.5475 71.1458 27.2321L69.4126 26.2341L67.6793 25.2362C67.1578 26.142 66.8845 27.1358 66.9062 28.186L68.9058 28.1448ZM69.4126 26.2341L71.1531 27.2193C71.336 26.8962 71.6285 26.5664 72.0971 26.2464L70.9692 24.5948L69.8413 22.9431C68.9434 23.5563 68.1982 24.3194 67.672 25.249L69.4126 26.2341ZM70.9692 24.5948L72.0971 26.2464C72.5229 25.9556 72.9258 25.7909 73.3121 25.7149L72.9261 23.7525L72.54 21.7901C71.5713 21.9807 70.6696 22.3775 69.8413 22.9431L70.9692 24.5948ZM72.9261 23.7525L73.3419 25.7088C73.7504 25.622 74.1229 25.6244 74.4788 25.7005L74.897 23.7447L75.3151 21.7889C74.3854 21.5901 73.444 21.5977 72.5102 21.7962L72.9261 23.7525ZM74.897 23.7447L74.5266 25.7101C74.8738 25.7755 75.1953 25.9126 75.5072 26.1393L76.6833 24.5216L77.8593 22.904C77.081 22.3381 76.2117 21.9572 75.2673 21.7793L74.897 23.7447ZM76.6833 24.5216L74.9801 23.4733L73.8871 25.2489L75.5902 26.2973L77.2934 27.3457L78.3865 25.57L76.6833 24.5216ZM75.5902 26.2973L76.7151 24.6436C75.8638 24.0646 74.8938 23.722 73.8378 23.7227L73.8392 25.7227L73.8407 27.7227C73.9917 27.7226 74.1891 27.7631 74.4654 27.951L75.5902 26.2973ZM73.8392 25.7227L73.8684 23.7229C72.8137 23.7075 71.8377 24.0295 70.9822 24.6137L72.11 26.2654L73.2379 27.917C73.468 27.7599 73.6449 27.7201 73.81 27.7225L73.8392 25.7227ZM72.11 26.2654L70.9822 24.6137C70.4692 24.9641 70.007 25.4131 69.6666 25.9821L71.3827 27.0091L73.0989 28.036C73.0918 28.0481 73.1145 28.0013 73.2379 27.917L72.11 26.2654ZM71.3827 27.0091L69.7005 25.9274C69.3472 26.4769 69.1291 27.1133 69.1144 27.8092L71.1139 27.8514L73.1135 27.8936C73.1125 27.941 73.1043 27.9882 73.0911 28.0295C73.0849 28.0491 73.0785 28.0643 73.0733 28.0751C73.0683 28.0857 73.0649 28.0909 73.065 28.0907L71.3827 27.0091ZM71.1139 27.8514L69.1141 27.8282C69.1054 28.5734 69.3507 29.2379 69.7259 29.7873L71.3776 28.6595L73.0292 27.5316C73.034 27.5386 73.0574 27.575 73.0788 27.6406C73.101 27.7085 73.1148 27.7892 73.1138 27.8745L71.1139 27.8514ZM71.3776 28.6595L69.7259 29.7873C70.1902 30.4671 70.8521 30.9401 71.6389 31.1637L72.1856 29.2399L72.7324 27.3161C72.7694 27.3266 72.8294 27.3507 72.8949 27.3978C72.9606 27.4449 73.0047 27.4957 73.0292 27.5316L71.3776 28.6595ZM72.1856 29.2399L71.6794 31.1747C72.4866 31.3859 73.282 31.2805 73.9631 31.0757L73.3871 29.1605L72.8112 27.2452C72.6927 27.2808 72.6264 27.2885 72.6048 27.2899C72.5851 27.2912 72.6203 27.2863 72.6919 27.305L72.1856 29.2399ZM73.3871 29.1605L73.9686 31.0741L76.3042 30.3643L75.7227 28.4507L75.1412 26.5371L72.8056 27.2469L73.3871 29.1605ZM75.7227 28.4507L76.2834 30.3705C77.082 30.1373 77.5696 30.159 77.843 30.2317L78.3568 28.2988L78.8706 26.3659C77.6686 26.0464 76.4 26.1694 75.162 26.5309L75.7227 28.4507ZM78.3568 28.2988L77.8646 30.2373C78.0896 30.2944 78.3099 30.4201 78.5449 30.7641L80.1965 29.6363L81.8482 28.5084C81.1244 27.4485 80.1183 26.6826 78.8491 26.3603L78.3568 28.2988ZM80.1965 29.6363L78.5449 30.7641C78.7491 31.0631 78.8151 31.3138 78.8166 31.5519L80.8166 31.539L82.8165 31.5261C82.8094 30.4252 82.4621 29.4074 81.8482 28.5084L80.1965 29.6363ZM80.8166 31.539L78.8166 31.5519C78.8184 31.8356 78.7471 32.1412 78.5435 32.4954L80.2772 33.4924L82.011 34.4895C82.5351 33.5781 82.8233 32.5815 82.8165 31.5261L80.8166 31.539ZM80.2772 33.4924L78.5435 32.4954C78.3562 32.821 78.0426 33.173 77.5225 33.5281L78.6504 35.1798L79.7783 36.8314C80.6995 36.2023 81.4704 35.4294 82.011 34.4895L80.2772 33.4924ZM85.0453 30.0305L85.158 32.0274L85.0453 30.0305ZM82.682 29.5241L83.6015 27.748L82.682 29.5241ZM79.9114 25.4668L77.9189 25.6401L77.9199 25.6507L79.9114 25.4668ZM80.3049 23.119L78.49 22.2787L78.487 22.2852L78.484 22.2917L80.3049 23.119ZM83.6612 20.4976L84.0325 22.4628L84.0399 22.4614L84.0473 22.46L83.6612 20.4976ZM85.3825 20.5161L84.9295 22.4642L84.9295 22.4642L85.3825 20.5161ZM86.9274 21.2109L85.7769 22.847L85.7884 22.8549L86.9274 21.2109ZM88.4079 22.8966L86.6217 23.7963L86.6514 23.8553L86.6849 23.9121L88.4079 22.8966ZM88.587 23.3096L89.7149 24.9612L90.8717 24.1712L90.5246 22.814L88.587 23.3096ZM82.6906 27.3361L81.039 28.464L82.1669 30.1156L83.8185 28.9877L82.6906 27.3361ZM81.7319 25.9322L80.6041 24.2806L78.9524 25.4084L80.0803 27.0601L81.7319 25.9322ZM86.5894 22.6151L88.486 23.25L90.3743 17.6086L85.4615 20.9635L86.5894 22.6151ZM86.1696 23.8693L84.3321 24.6591L86.4022 29.4753L88.0662 24.5042L86.1696 23.8693ZM85.3133 22.7661L84.1429 24.3879L84.1626 24.4021L84.1827 24.4159L85.3133 22.7661ZM84.1491 22.3877L84.1259 24.3876L84.1412 24.3877L84.1566 24.3877L84.1491 22.3877ZM82.0994 23.7874L83.9312 24.5902L83.9401 24.5699L83.9486 24.5494L82.0994 23.7874ZM81.9867 25.0995L80.0255 25.4915L80.028 25.5038L80.0306 25.5161L81.9867 25.0995ZM82.729 26.5482L84.4653 25.5556L84.3902 25.4242L84.2961 25.3055L82.729 26.5482ZM83.7648 27.673L82.7014 29.3669L82.7279 29.3836L82.7549 29.3994L83.7648 27.673ZM85.0604 28.0028L85.1521 30.0007L85.1649 30.0001L85.1778 29.9994L85.0604 28.0028ZM87.2697 26.5353L85.4566 25.691L85.4507 25.7037L85.4449 25.7165L87.2697 26.5353ZM87.4827 25.34L87.1975 23.3604L85.3264 23.63L85.4902 25.5133L87.4827 25.34ZM89.4693 25.0538L91.4254 24.6372L91.0358 22.8075L89.1841 23.0742L89.4693 25.0538ZM89.4289 26.5018L91.3673 26.9941L89.4289 26.5018ZM88.7423 27.9382L87.1199 26.7687L87.1118 26.78L88.7423 27.9382ZM87.4733 29.1547L86.3454 27.5031C85.8164 27.8643 85.3524 28.01 84.9326 28.0337L85.0453 30.0305L85.158 32.0274C86.4032 31.9571 87.5578 31.5189 88.6012 30.8064L87.4733 29.1547ZM85.0453 30.0305L84.9326 28.0337C84.459 28.0605 84.0276 27.9685 83.6015 27.748L82.682 29.5241L81.7625 31.3002C82.8225 31.8489 83.9666 32.0946 85.158 32.0274L85.0453 30.0305ZM82.682 29.5241L83.6015 27.748C83.1729 27.5261 82.7935 27.1959 82.4618 26.7101L80.8101 27.838L79.1585 28.9659C79.8366 29.9589 80.7051 30.7527 81.7625 31.3002L82.682 29.5241ZM80.8101 27.838L82.4618 26.7101C82.1026 26.1841 81.9427 25.7135 81.9029 25.283L79.9114 25.4668L77.9199 25.6507C78.0303 26.8468 78.4695 27.9569 79.1585 28.9659L80.8101 27.838ZM79.9114 25.4668L81.9039 25.2935C81.8607 24.7967 81.9379 24.3597 82.1258 23.9462L80.3049 23.119L78.484 22.2917C78.003 23.3505 77.8179 24.4788 77.9189 25.6401L79.9114 25.4668ZM80.3049 23.119L82.1198 23.9592C82.3039 23.5617 82.5858 23.2215 83.0154 22.9282L81.8875 21.2765L80.7597 19.6249C79.7667 20.303 78.9935 21.1911 78.49 22.2787L80.3049 23.119ZM81.8875 21.2765L83.0154 22.9282C83.4358 22.6411 83.7732 22.5118 84.0325 22.4628L83.6612 20.4976L83.2899 18.5324C82.3823 18.7038 81.5373 19.0939 80.7597 19.6249L81.8875 21.2765ZM83.6612 20.4976L84.0473 22.46C84.3798 22.3946 84.6669 22.4031 84.9295 22.4642L85.3825 20.5161L85.8355 18.5681C84.9887 18.3712 84.1283 18.3674 83.2752 18.5352L83.6612 20.4976ZM85.3825 20.5161L84.9295 22.4642C85.2287 22.5337 85.5076 22.6575 85.777 22.8469L86.9274 21.2109L88.0779 19.5749C87.3967 19.0959 86.6457 18.7565 85.8355 18.5681L85.3825 20.5161ZM86.9274 21.2109L85.7884 22.8549C86.0384 23.0281 86.2799 23.2666 86.5063 23.5982L88.158 22.4703L89.8096 21.3424C89.333 20.6445 88.7541 20.0434 88.0664 19.5669L86.9274 21.2109ZM88.158 22.4703L86.5063 23.5982C86.5422 23.6506 86.5812 23.7158 86.6217 23.7963L88.4079 22.8966L90.1941 21.9969C90.0804 21.7711 89.9528 21.5521 89.8096 21.3424L88.158 22.4703ZM88.4079 22.8966L86.6849 23.9121C86.6919 23.9239 86.6896 23.9216 86.6827 23.9056C86.6757 23.8896 86.6623 23.8557 86.6493 23.8051L88.587 23.3096L90.5246 22.814C90.434 22.4597 90.2874 22.1467 90.1309 21.8811L88.4079 22.8966ZM88.587 23.3096L87.4591 21.6579L81.5628 25.6845L82.6906 27.3361L83.8185 28.9877L89.7149 24.9612L88.587 23.3096ZM82.6906 27.3361L84.3423 26.2082L83.3836 24.8043L81.7319 25.9322L80.0803 27.0601L81.039 28.464L82.6906 27.3361ZM81.7319 25.9322L82.8598 27.5838L87.7173 24.2668L86.5894 22.6151L85.4615 20.9635L80.6041 24.2806L81.7319 25.9322ZM86.5894 22.6151L84.6928 21.9803L84.273 23.2345L86.1696 23.8693L88.0662 24.5042L88.486 23.25L86.5894 22.6151ZM86.1696 23.8693L88.0071 23.0796C87.6799 22.3184 87.1781 21.6195 86.4438 21.1163L85.3133 22.7661L84.1827 24.4159C84.1834 24.4163 84.1862 24.4183 84.1913 24.4231C84.1965 24.4281 84.2057 24.4376 84.2182 24.4538C84.2435 24.4864 84.285 24.5494 84.3321 24.6591L86.1696 23.8693ZM85.3133 22.7661L86.4836 21.1443C85.7973 20.649 84.9987 20.3845 84.1416 20.3877L84.1491 22.3877L84.1566 24.3877C84.1621 24.3877 84.162 24.388 84.1575 24.3874C84.1529 24.3866 84.1467 24.3853 84.1402 24.3831C84.1336 24.381 84.1297 24.3791 84.1289 24.3787C84.1282 24.3784 84.1329 24.3807 84.1429 24.3879L85.3133 22.7661ZM84.1491 22.3877L84.1722 20.3878C83.2792 20.3775 82.4757 20.6763 81.795 21.1411L82.9229 22.7927L84.0508 24.4444C84.1176 24.3987 84.1535 24.3861 84.1586 24.3844C84.1613 24.3835 84.1586 24.3846 84.1513 24.3858C84.1438 24.3869 84.135 24.3877 84.1259 24.3876L84.1491 22.3877ZM82.9229 22.7927L81.795 21.1411C81.1133 21.6066 80.5748 22.2378 80.2503 23.0254L82.0994 23.7874L83.9486 24.5494C83.9546 24.5348 83.9651 24.5029 84.0508 24.4444L82.9229 22.7927ZM82.0994 23.7874L80.2676 22.9846C79.9073 23.8067 79.8612 24.6694 80.0255 25.4915L81.9867 25.0995L83.9479 24.7075C83.9322 24.629 83.9344 24.5894 83.9351 24.5803C83.9357 24.5737 83.9355 24.5804 83.9312 24.5902L82.0994 23.7874ZM81.9867 25.0995L80.0306 25.5161C80.212 26.368 80.6357 27.1273 81.1619 27.7909L82.729 26.5482L84.2961 25.3055C84.0316 24.972 83.9604 24.7655 83.9429 24.6829L81.9867 25.0995ZM82.729 26.5482L80.9927 27.5408C81.4088 28.2687 81.9685 28.9069 82.7014 29.3669L83.7648 27.673L84.8281 25.9792C84.7443 25.9265 84.6134 25.8147 84.4653 25.5556L82.729 26.5482ZM83.7648 27.673L82.7549 29.3994C83.4813 29.8242 84.2933 30.0401 85.1521 30.0007L85.0604 28.0028L84.9687 26.0049C84.9226 26.007 84.8709 26.0031 84.7746 25.9467L83.7648 27.673ZM85.0604 28.0028L85.1778 29.9994C86.0378 29.9488 86.8238 29.6528 87.5127 29.1823L86.3848 27.5307L85.257 25.879C85.1036 25.9838 85.0066 26.0025 84.943 26.0063L85.0604 28.0028ZM86.3848 27.5307L87.5127 29.1823C88.1664 28.7359 88.7425 28.1383 89.0944 27.3541L87.2697 26.5353L85.4449 25.7165C85.4594 25.6843 85.4456 25.7502 85.257 25.879L86.3848 27.5307ZM87.2697 26.5353L89.0827 27.3797C89.4066 26.6842 89.542 25.9353 89.4751 25.1667L87.4827 25.34L85.4902 25.5133C85.4954 25.5738 85.4889 25.6217 85.4566 25.691L87.2697 26.5353ZM87.4827 25.34L87.7678 27.3196L89.7545 27.0334L89.4693 25.0538L89.1841 23.0742L87.1975 23.3604L87.4827 25.34ZM89.4693 25.0538L87.5132 25.4704C87.544 25.615 87.5471 25.7861 87.4904 26.0096L89.4289 26.5018L91.3673 26.9941C91.5635 26.2214 91.5937 25.4271 91.4254 24.6372L89.4693 25.0538ZM89.4289 26.5018L87.4904 26.0096C87.4318 26.2403 87.3192 26.4922 87.1199 26.7687L88.7423 27.9382L90.3647 29.1077C90.8279 28.4652 91.173 27.7595 91.3673 26.9941L89.4289 26.5018ZM88.7423 27.9382L87.1118 26.78C86.9449 27.0149 86.7015 27.2599 86.3454 27.5031L87.4733 29.1547L88.6012 30.8064C89.2933 30.3337 89.8959 29.7678 90.3728 29.0965L88.7423 27.9382ZM92.3323 25.5896L90.6807 26.7175L91.8086 28.3691L93.4602 27.2412L92.3323 25.5896ZM85.075 14.9621L83.9471 13.3105L82.2955 14.4384L83.4234 16.09L85.075 14.9621ZM86.9141 13.7062L88.5657 12.5784L87.4379 10.9267L85.7862 12.0546L86.9141 13.7062ZM89.9819 18.1987L89.5586 20.1534L94.464 21.2157L91.6335 17.0708L89.9819 18.1987ZM89.5471 18.1045L87.5994 18.559L87.8869 19.7914L89.1237 20.0592L89.5471 18.1045ZM89.708 16.4712L91.5132 17.3322L91.5163 17.3258L91.5193 17.3194L89.708 16.4712ZM92.6281 14.4772L92.7973 16.47L92.8064 16.4692L92.8156 16.4684L92.6281 14.4772ZM94.3528 14.8022L93.4535 16.5886L93.4617 16.5927L93.4699 16.5967L94.3528 14.8022ZM99.0991 20.9687L100.227 22.6203L101.879 21.4924L100.751 19.8408L99.0991 20.9687ZM97.26 22.2246L95.6083 23.3524L96.7362 25.0041L98.3878 23.8762L97.26 22.2246ZM93.4108 17.01L94.3303 15.2339L94.3303 15.2339L93.4108 17.01ZM92.4798 16.8223L92.5609 18.8206L92.609 18.8187L92.6569 18.8144L92.4798 16.8223ZM90.8794 17.9152L92.6704 18.8052L92.6838 18.7784L92.6963 18.7512L90.8794 17.9152ZM90.7153 18.8507L92.7043 18.6406L90.7153 18.8507ZM94.1714 24.3337L95.2993 25.9853L96.9509 24.8575L95.823 23.2058L94.1714 24.3337ZM92.3323 25.5896L93.9839 24.4617L86.7266 13.8343L85.075 14.9621L83.4234 16.09L90.6807 26.7175L92.3323 25.5896ZM85.075 14.9621L86.2029 16.6138L88.042 15.3579L86.9141 13.7062L85.7862 12.0546L83.9471 13.3105L85.075 14.9621ZM86.9141 13.7062L85.2625 14.8341L88.3303 19.3266L89.9819 18.1987L91.6335 17.0708L88.5657 12.5784L86.9141 13.7062ZM89.9819 18.1987L90.4052 16.244L89.9704 16.1498L89.5471 18.1045L89.1237 20.0592L89.5586 20.1534L89.9819 18.1987ZM89.5471 18.1045L91.4947 17.65C91.4562 17.485 91.4775 17.4071 91.5132 17.3322L89.708 16.4712L87.9028 15.6103C87.4532 16.553 87.3672 17.5639 87.5994 18.559L89.5471 18.1045ZM89.708 16.4712L91.5193 17.3194C91.5935 17.1609 91.7307 16.9766 92.0186 16.78L90.8907 15.1284L89.7629 13.4767C88.9651 14.0215 88.3138 14.7325 87.8968 15.6231L89.708 16.4712ZM90.8907 15.1284L92.0186 16.78C92.3346 16.5642 92.5887 16.4877 92.7973 16.47L92.6281 14.4772L92.4589 12.4843C91.4742 12.5679 90.57 12.9255 89.7629 13.4767L90.8907 15.1284ZM92.6281 14.4772L92.8156 16.4684C93.0473 16.4465 93.2456 16.4839 93.4535 16.5886L94.3528 14.8022L95.2521 13.0157C94.3726 12.573 93.421 12.3937 92.4407 12.486L92.6281 14.4772ZM94.3528 14.8022L93.4699 16.5967C93.6529 16.6867 93.8662 16.8524 94.092 17.1829L95.7436 16.0551L97.3953 14.9272C96.8413 14.1159 96.1275 13.4463 95.2357 13.0076L94.3528 14.8022ZM95.7436 16.0551L94.092 17.1829L97.4474 22.0965L99.0991 20.9687L100.751 19.8408L97.3953 14.9272L95.7436 16.0551ZM99.0991 20.9687L97.9712 19.317L96.1321 20.5729L97.26 22.2246L98.3878 23.8762L100.227 22.6203L99.0991 20.9687ZM97.26 22.2246L98.9116 21.0967L95.8534 16.6183L94.2017 17.7462L92.5501 18.874L95.6083 23.3524L97.26 22.2246ZM94.2017 17.7462L95.8534 16.6183C95.4771 16.0673 94.9792 15.5698 94.3303 15.2339L93.4108 17.01L92.4913 18.7861C92.4669 18.7734 92.4598 18.765 92.4688 18.7734C92.4789 18.7828 92.5078 18.8121 92.5501 18.874L94.2017 17.7462ZM93.4108 17.01L94.3303 15.2339C93.7064 14.9109 93.0168 14.7667 92.3027 14.8302L92.4798 16.8223L92.6569 18.8144C92.6323 18.8166 92.5979 18.8159 92.5599 18.8082C92.5225 18.8007 92.4986 18.7898 92.4913 18.7861L93.4108 17.01ZM92.4798 16.8223L92.3987 14.8239C91.6451 14.8545 90.974 15.1199 90.4079 15.5065L91.5358 17.1582L92.6637 18.8098C92.6929 18.7898 92.6963 18.7923 92.6738 18.8003C92.6495 18.809 92.6099 18.8187 92.5609 18.8206L92.4798 16.8223ZM91.5358 17.1582L90.4079 15.5065C89.8392 15.8949 89.3667 16.4181 89.0625 17.0792L90.8794 17.9152L92.6963 18.7512C92.6913 18.762 92.6852 18.7732 92.678 18.7843C92.6709 18.7953 92.664 18.8043 92.6581 18.811C92.6458 18.8252 92.6437 18.8234 92.6637 18.8098L91.5358 17.1582ZM90.8794 17.9152L89.0883 17.0252C88.7693 17.6673 88.6526 18.362 88.7264 19.0607L90.7153 18.8507L92.7043 18.6406C92.7051 18.6488 92.7065 18.675 92.6999 18.7126C92.6932 18.7507 92.6814 18.7831 92.6704 18.8052L90.8794 17.9152ZM90.7153 18.8507L88.7264 19.0607C88.8031 19.7873 89.0853 20.4322 89.4615 20.9832L91.1132 19.8553L92.7648 18.7274C92.7225 18.6655 92.7057 18.6279 92.7006 18.615C92.6961 18.6036 92.7014 18.6133 92.7043 18.6406L90.7153 18.8507ZM91.1132 19.8553L89.4615 20.9832L92.5198 25.4616L94.1714 24.3337L95.823 23.2058L92.7648 18.7274L91.1132 19.8553ZM94.1714 24.3337L93.0435 22.6821L91.2044 23.9379L92.3323 25.5896L93.4602 27.2412L95.2993 25.9853L94.1714 24.3337ZM101.514 19.1757L101.861 21.1454L101.514 19.1757ZM100.083 19.0407L99.2988 20.8804L99.3107 20.8855L99.3226 20.8904L100.083 19.0407ZM98.4786 16.7812L100.472 16.6213L100.471 16.6093L100.47 16.5973L98.4786 16.7812ZM98.7738 15.3444L100.573 16.2189L100.573 16.2189L98.7738 15.3444ZM99.936 13.8509L101.305 15.3086L101.315 15.2997L99.936 13.8509ZM102.157 11.7373L103.809 10.6094L102.482 8.66692L100.778 10.2885L102.157 11.7373ZM103.116 13.1412L104.504 14.5805L105.72 13.408L104.767 12.0133L103.116 13.1412ZM101.217 14.973L99.8283 13.5337L99.8216 13.5401L99.815 13.5466L101.217 14.973ZM100.642 15.88L98.6876 15.4567L98.6876 15.4567L100.642 15.88ZM101.552 17.1524L101.39 19.1458L101.441 19.15L101.493 19.1515L101.552 17.1524ZM103.312 15.9304L105.095 16.8363L105.1 16.8267L105.104 16.817L103.312 15.9304ZM103.53 14.7728L101.535 14.9188L101.537 14.9432L101.539 14.9675L103.53 14.7728ZM100.839 11.1343L100.585 13.118L100.624 13.123L100.663 13.1264L100.839 11.1343ZM98.766 12.5295L100.631 13.2516L100.636 13.2396L98.766 12.5295ZM98.6718 13.8084L98.9643 15.7869L101.08 15.474L100.626 13.3837L98.6718 13.8084ZM96.6712 14.1042L94.7299 14.5853L95.1668 16.3483L96.9637 16.0827L96.6712 14.1042ZM96.6637 12.586L98.6099 13.0465L98.6106 13.0439L96.6637 12.586ZM97.3355 11.0979L95.6915 9.95887L97.3355 11.0979ZM100.491 9.08703L100.777 11.0665L100.793 11.0642L100.808 11.0617L100.491 9.08703ZM102.252 9.28431L101.464 11.1226L101.489 11.1331L101.513 11.1429L102.252 9.28431ZM107.098 15.5063L108.226 17.1579L109.878 16.0301L108.75 14.3784L107.098 15.5063ZM105.357 16.6951L103.706 17.8229L104.833 19.4746L106.485 18.3467L105.357 16.6951ZM104.466 15.3895L103.223 13.8224L101.764 14.9795L102.814 16.5173L104.466 15.3895ZM104.84 15.0929L106.836 14.9756L106.61 11.1362L103.597 13.5259L104.84 15.0929ZM104.703 16.4006L106.613 16.9938L106.619 16.9739L106.625 16.9539L104.703 16.4006ZM104.122 17.5387L105.704 18.7618L105.719 18.7427L105.733 18.7231L104.122 17.5387ZM103.086 18.4933L101.958 16.8417C101.605 17.0826 101.343 17.1749 101.167 17.206L101.514 19.1757L101.861 21.1454C102.713 20.9952 103.499 20.6327 104.214 20.145L103.086 18.4933ZM101.514 19.1757L101.167 17.206C100.987 17.2377 100.898 17.2132 100.844 17.1911L100.083 19.0407L99.3226 20.8904C100.147 21.2294 101.012 21.2948 101.861 21.1454L101.514 19.1757ZM100.083 19.0407L100.868 17.2011C100.808 17.1756 100.724 17.1256 100.616 16.9681L98.9648 18.096L97.3132 19.2239C97.8064 19.9462 98.4677 20.526 99.2988 20.8804L100.083 19.0407ZM98.9648 18.096L100.616 16.9681C100.502 16.8002 100.478 16.6908 100.472 16.6213L98.4786 16.7812L96.485 16.941C96.5525 17.7824 96.8526 18.5495 97.3132 19.2239L98.9648 18.096ZM98.4786 16.7812L100.47 16.5973C100.466 16.5556 100.464 16.4415 100.573 16.2189L98.7738 15.3444L96.9751 14.47C96.6039 15.2335 96.4052 16.0772 96.4871 16.965L98.4786 16.7812ZM98.7738 15.3444L100.573 16.2189C100.676 16.0051 100.891 15.6977 101.305 15.3086L99.936 13.8509L98.5667 12.3932C97.9107 13.0094 97.3506 13.6977 96.9751 14.47L98.7738 15.3444ZM99.936 13.8509L101.315 15.2997L103.536 13.1861L102.157 11.7373L100.778 10.2885L98.5572 12.4021L99.936 13.8509ZM102.157 11.7373L100.505 12.8652L101.464 14.2691L103.116 13.1412L104.767 12.0133L103.809 10.6094L102.157 11.7373ZM103.116 13.1412L101.727 11.7018L99.8283 13.5337L101.217 14.973L102.606 16.4123L104.504 14.5805L103.116 13.1412ZM101.217 14.973L99.815 13.5466C99.35 14.0036 98.8652 14.6368 98.6876 15.4567L100.642 15.88L102.597 16.3033C102.57 16.4299 102.527 16.4987 102.523 16.5061C102.52 16.5104 102.524 16.5027 102.54 16.4835C102.556 16.4643 102.581 16.4361 102.619 16.3994L101.217 14.973ZM100.642 15.88L98.6876 15.4567C98.4954 16.3443 98.7165 17.1791 99.1745 17.8499L100.826 16.722L102.478 15.5941C102.509 15.6403 102.564 15.7371 102.595 15.8813C102.628 16.0302 102.624 16.1775 102.597 16.3033L100.642 15.88ZM100.826 16.722L99.1745 17.8499C99.6795 18.5894 100.458 19.0698 101.39 19.1458L101.552 17.1524L101.715 15.159C101.838 15.1691 101.999 15.2092 102.162 15.3056C102.322 15.4009 102.424 15.5147 102.478 15.5941L100.826 16.722ZM101.552 17.1524L101.493 19.1515C102.295 19.1753 103.007 18.9105 103.592 18.511L102.464 16.8593L101.336 15.2077C101.324 15.216 101.345 15.1994 101.399 15.182C101.456 15.1636 101.53 15.1509 101.612 15.1533L101.552 17.1524ZM102.464 16.8593L103.592 18.511C104.208 18.0898 104.738 17.538 105.095 16.8363L103.312 15.9304L101.529 15.0246C101.522 15.0373 101.487 15.1048 101.336 15.2077L102.464 16.8593ZM103.312 15.9304L105.104 16.817C105.448 16.1226 105.597 15.3634 105.52 14.578L103.53 14.7728L101.539 14.9675C101.541 14.9822 101.54 14.988 101.539 14.9909C101.539 14.9944 101.535 15.011 101.519 15.0439L103.312 15.9304ZM103.53 14.7728L105.525 14.6267C105.468 13.8581 105.211 13.1455 104.782 12.5177L103.131 13.6455L101.479 14.7734C101.523 14.8382 101.532 14.8771 101.535 14.9188L103.53 14.7728ZM103.131 13.6455L104.782 12.5177L103.44 10.5522L101.788 11.6801L100.137 12.808L101.479 14.7734L103.131 13.6455ZM101.788 11.6801L103.44 10.5522C102.865 9.7106 101.997 9.22918 101.016 9.14211L100.839 11.1343L100.663 13.1264C100.614 13.1222 100.509 13.1025 100.386 13.0317C100.261 12.9599 100.18 12.8709 100.137 12.808L101.788 11.6801ZM100.839 11.1343L101.094 9.15051C100.091 9.02192 99.193 9.34265 98.4706 9.83597L99.5985 11.4876L100.726 13.1392C100.791 13.0948 100.807 13.0974 100.772 13.1071C100.755 13.1121 100.728 13.1179 100.693 13.1207C100.658 13.1235 100.621 13.1227 100.585 13.118L100.839 11.1343ZM99.5985 11.4876L98.4706 9.83597C97.7556 10.3242 97.2101 10.9934 96.8963 11.8194L98.766 12.5295L100.636 13.2396C100.646 13.2133 100.655 13.1879 100.726 13.1392L99.5985 11.4876ZM98.766 12.5295L96.9009 11.8075C96.5965 12.5939 96.5407 13.4196 96.7175 14.2331L98.6718 13.8084L100.626 13.3837C100.611 13.3129 100.618 13.286 100.631 13.2516L98.766 12.5295ZM98.6718 13.8084L98.3793 11.8299L96.3787 12.1257L96.6712 14.1042L96.9637 16.0827L98.9643 15.7869L98.6718 13.8084ZM96.6712 14.1042L98.6124 13.6231C98.5642 13.4283 98.5629 13.2451 98.6099 13.0465L96.6637 12.586L94.7174 12.1254C94.5242 12.9417 94.528 13.7706 94.7299 14.5853L96.6712 14.1042ZM96.6637 12.586L98.6106 13.0439C98.6728 12.7793 98.7886 12.5125 98.9795 12.2369L97.3355 11.0979L95.6915 9.95887C95.2328 10.621 94.9007 11.3462 94.7168 12.1281L96.6637 12.586ZM97.3355 11.0979L98.9795 12.2369C99.1527 11.9869 99.3912 11.7454 99.7228 11.5189L98.5949 9.86731L97.467 8.21568C96.7691 8.69227 96.168 9.27115 95.6915 9.95887L97.3355 11.0979ZM98.5949 9.86731L99.7228 11.5189C100.143 11.2321 100.492 11.1077 100.777 11.0665L100.491 9.08703L100.205 7.10755C99.2166 7.25029 98.3012 7.64608 97.467 8.21568L98.5949 9.86731ZM100.491 9.08703L100.808 11.0617C101.097 11.0154 101.297 11.051 101.464 11.1226L102.252 9.28431L103.04 7.44604C102.121 7.05195 101.147 6.956 100.174 7.11235L100.491 9.08703ZM102.252 9.28431L101.513 11.1429C101.646 11.1957 101.802 11.2979 101.976 11.5521L103.628 10.4242L105.279 9.29634C104.711 8.46482 103.95 7.80708 102.991 7.42572L102.252 9.28431ZM103.628 10.4242L101.976 11.5521L105.446 16.6342L107.098 15.5063L108.75 14.3784L105.279 9.29634L103.628 10.4242ZM107.098 15.5063L105.97 13.8547L104.229 15.0434L105.357 16.6951L106.485 18.3467L108.226 17.1579L107.098 15.5063ZM105.357 16.6951L107.009 15.5672L106.117 14.2616L104.466 15.3895L102.814 16.5173L103.706 17.8229L105.357 16.6951ZM104.466 15.3895L105.708 16.9565L106.082 16.66L104.84 15.0929L103.597 13.5259L103.223 13.8224L104.466 15.3895ZM104.84 15.0929L102.843 15.2103C102.858 15.465 102.832 15.6727 102.781 15.8473L104.703 16.4006L106.625 16.9539C106.811 16.3086 106.875 15.6445 106.836 14.9756L104.84 15.0929ZM104.703 16.4006L102.793 15.8074C102.739 15.9834 102.65 16.1646 102.51 16.3543L104.122 17.5387L105.733 18.7231C106.12 18.1966 106.419 17.619 106.613 16.9938L104.703 16.4006ZM104.122 17.5387L102.539 16.3156C102.416 16.475 102.233 16.6541 101.958 16.8417L103.086 18.4933L104.214 20.145C104.781 19.7573 105.288 19.3001 105.704 18.7618L104.122 17.5387ZM109.713 12.8148L109.323 14.7765L109.343 14.7803L109.362 14.7838L109.713 12.8148ZM105.339 7.91726L106.991 6.78938L105.863 5.13775L104.211 6.26562L105.339 7.91726ZM104.02 8.81843L102.368 9.94631L103.496 11.5979L105.147 10.4701L104.02 8.81843ZM102.898 7.17588L101.77 5.52424L100.118 6.65212L101.246 8.30375L102.898 7.17588ZM103.707 6.1908L105.664 6.60675L105.664 6.60675L103.707 6.1908ZM103.029 4.53388L101.901 2.88225L100.249 4.01012L101.377 5.66176L103.029 4.53388ZM104.868 3.278L106.52 2.15012L105.392 0.498487L103.74 1.62636L104.868 3.278ZM106.057 5.01882L104.405 6.14669L105.533 7.79833L107.185 6.67046L106.057 5.01882ZM107.812 3.82045L109.463 2.69258L108.335 1.04094L106.684 2.16882L107.812 3.82045ZM108.933 5.463L110.061 7.11464L111.713 5.98677L110.585 4.33513L108.933 5.463ZM107.178 6.66137L106.05 5.00974L104.399 6.13761L105.527 7.78925L107.178 6.66137ZM109.979 10.4919L108.97 12.2183L109.006 12.2395L109.043 12.2593L109.979 10.4919ZM110.679 10.6115L110.949 12.5931L110.968 12.5905L110.987 12.5876L110.679 10.6115ZM111.734 10.0763L110.447 8.5451L110.439 8.55217L110.43 8.55933L111.734 10.0763ZM111.981 9.86608L113.633 8.73821L112.373 6.89289L110.678 8.3491L111.981 9.86608ZM113.055 11.4384L114.405 12.914L115.685 11.743L114.707 10.3106L113.055 11.4384ZM112.644 11.8014L113.947 13.3184L112.644 11.8014ZM112.2 12.1458L111.072 10.4942C110.514 10.8756 110.209 10.8717 110.064 10.8458L109.713 12.8148L109.362 14.7838C110.811 15.042 112.164 14.592 113.328 13.7975L112.2 12.1458ZM109.713 12.8148L110.103 10.8532C109.958 10.8245 109.673 10.7173 109.292 10.1587L107.64 11.2866L105.989 12.4145C106.783 13.578 107.88 14.4896 109.323 14.7765L109.713 12.8148ZM107.64 11.2866L109.292 10.1587L106.991 6.78938L105.339 7.91726L103.688 9.04513L105.989 12.4145L107.64 11.2866ZM105.339 7.91726L104.211 6.26562L102.892 7.1668L104.02 8.81843L105.147 10.4701L106.467 9.56889L105.339 7.91726ZM104.02 8.81843L105.671 7.69056L104.55 6.048L102.898 7.17588L101.246 8.30375L102.368 9.94631L104.02 8.81843ZM102.898 7.17588L104.026 8.82751L104.166 8.73165L103.038 7.08001L101.91 5.42838L101.77 5.52424L102.898 7.17588ZM103.038 7.08001L104.166 8.73165C104.827 8.28018 105.455 7.58963 105.664 6.60675L103.707 6.1908L101.751 5.77485C101.78 5.63699 101.838 5.53017 101.888 5.46346C101.933 5.40352 101.956 5.39725 101.91 5.42838L103.038 7.08001ZM103.707 6.1908L105.664 6.60675C105.882 5.58121 105.545 4.6726 105.083 3.99564L103.431 5.12352L101.78 6.25139C101.807 6.29056 101.78 6.26327 101.756 6.17176C101.73 6.07006 101.718 5.92908 101.751 5.77485L103.707 6.1908ZM103.431 5.12352L105.083 3.99564L104.68 3.40601L103.029 4.53388L101.377 5.66176L101.78 6.25139L103.431 5.12352ZM103.029 4.53388L104.157 6.18552L105.996 4.92963L104.868 3.278L103.74 1.62636L101.901 2.88225L103.029 4.53388ZM104.868 3.278L103.216 4.40587L104.405 6.14669L106.057 5.01882L107.708 3.89095L106.52 2.15012L104.868 3.278ZM106.057 5.01882L107.185 6.67046L108.939 5.47209L107.812 3.82045L106.684 2.16882L104.929 3.36719L106.057 5.01882ZM107.812 3.82045L106.16 4.94833L107.282 6.59088L108.933 5.463L110.585 4.33513L109.463 2.69258L107.812 3.82045ZM108.933 5.463L107.805 3.81137L106.05 5.00974L107.178 6.66137L108.306 8.31301L110.061 7.11464L108.933 5.463ZM107.178 6.66137L105.527 7.78925L107.76 11.0603L109.412 9.93243L111.064 8.80456L108.83 5.5335L107.178 6.66137ZM109.412 9.93243L107.76 11.0603C108.054 11.4905 108.446 11.9123 108.97 12.2183L109.979 10.4919L110.989 8.76559C111.045 8.79839 111.077 8.82745 111.088 8.83781C111.098 8.84751 111.088 8.84014 111.064 8.80456L109.412 9.93243ZM109.979 10.4919L109.043 12.2593C109.644 12.5776 110.301 12.6814 110.949 12.5931L110.679 10.6115L110.408 8.62979C110.47 8.62138 110.554 8.61909 110.653 8.63585C110.751 8.65276 110.841 8.6851 110.916 8.72462L109.979 10.4919ZM110.679 10.6115L110.987 12.5876C111.63 12.4872 112.188 12.2083 112.646 11.8954L111.519 10.2437L110.391 8.59211C110.359 8.614 110.333 8.6295 110.315 8.64008C110.296 8.65067 110.285 8.65563 110.282 8.65695C110.275 8.65988 110.306 8.6454 110.37 8.63535L110.679 10.6115ZM111.519 10.2437L112.646 11.8954C112.788 11.799 112.918 11.6951 113.037 11.5933L111.734 10.0763L110.43 8.55933C110.413 8.57445 110.4 8.58445 110.393 8.59026C110.385 8.59618 110.385 8.59628 110.391 8.59211L111.519 10.2437ZM111.734 10.0763L113.02 11.6075C113.112 11.53 113.201 11.4552 113.285 11.3831L111.981 9.86608L110.678 8.3491C110.606 8.41072 110.529 8.47604 110.447 8.5451L111.734 10.0763ZM111.981 9.86608L110.33 10.994L111.403 12.5663L113.055 11.4384L114.707 10.3106L113.633 8.73821L111.981 9.86608ZM113.055 11.4384L111.705 9.96291C111.605 10.0538 111.485 10.1607 111.341 10.2844L112.644 11.8014L113.947 13.3184C114.115 13.1746 114.268 13.0395 114.405 12.914L113.055 11.4384ZM112.644 11.8014L111.341 10.2844C111.23 10.3796 111.141 10.4474 111.072 10.4942L112.2 12.1458L113.328 13.7975C113.54 13.6525 113.747 13.4907 113.947 13.3184L112.644 11.8014Z" fill="#CDFF0F" mask="url(#path-1-outside-1_103_149)"/>
</svg>
