<svg width="45" height="52" viewBox="0 0 45 52" fill="none" xmlns="http://www.w3.org/2000/svg">
<path d="M1.69564 40.3079C1.82919 30.2793 -0.553891 5.64922 14.5191 1.9695C23.2076 -0.151581 23.3026 10.0314 22.565 16.2419C22.2296 19.0654 21.6467 21.7823 21.0531 24.5797C20.8493 25.54 19.6781 27.9748 20.5177 27.4664C21.7978 26.6913 23.136 24.3102 24.4273 23.2433C26.2135 21.7673 28.114 20.6873 30.2214 19.9701C34.0127 18.6798 41.9295 17.2172 43.1234 22.5245C44.6622 29.3646 33.5382 37.8671 28.3001 40.7349C23.8649 43.1631 18.7156 45.3821 13.9717 46.5402C13.4075 46.6779 9.24545 48.094 11.534 46.5585C13.4137 45.2973 15.6376 43.7213 16.9981 41.8063C18.3284 39.9337 13.1825 44.1597 11.2424 45.2623C7.41094 47.44 13.2929 48.5471 14.9898 49.7526" stroke="#CDFF0F" stroke-width="3" stroke-linecap="round"/>
</svg>
