<svg width="65" height="44" viewBox="0 0 65 44" fill="none" xmlns="http://www.w3.org/2000/svg">
<mask id="path-1-outside-1_103_170" maskUnits="userSpaceOnUse" x="0.379852" y="-4.51788" width="65.6465" height="52.0166" fill="black">
<rect fill="white" x="0.379852" y="-4.51788" width="65.6465" height="52.0166"/>
<path d="M5.29104 20.5438L2.99093 8.08945L7.62162 7.23424C8.46863 7.07781 9.24415 7.09593 9.94819 7.28861C10.6613 7.46809 11.2563 7.8192 11.7332 8.34196C12.208 8.85357 12.5226 9.5273 12.6769 10.3632C12.8354 11.2213 12.7641 11.9894 12.4628 12.6674C12.1728 13.3433 11.709 13.8899 11.0715 14.3073L14.8533 18.7778L12.2789 19.2533L8.21002 14.3517L9.84169 14.9493L6.71556 15.5267L7.56459 20.1239L5.29104 20.5438ZM6.34507 13.5206L8.73564 13.0791C9.148 13.003 9.49023 12.8591 9.76233 12.6475C10.0324 12.4247 10.2242 12.153 10.3379 11.8324C10.4515 11.5118 10.4734 11.162 10.4034 10.7831C10.3313 10.393 10.186 10.0741 9.96738 9.82633C9.7467 9.56743 9.47149 9.38776 9.14176 9.28731C8.80998 9.17571 8.4379 9.15798 8.02554 9.23414L5.63497 9.67564L6.34507 13.5206ZM20.0035 18.0341C19.0674 18.207 18.2091 18.1466 17.4288 17.8527C16.6484 17.5589 15.9963 17.0858 15.4725 16.4334C14.9486 15.781 14.6054 15.0146 14.4428 14.1342C14.274 13.2203 14.3198 12.3763 14.5802 11.6021C14.8497 10.8147 15.2863 10.1521 15.89 9.61419C16.5048 9.07422 17.2357 8.72602 18.0827 8.56959C18.796 8.43786 19.4417 8.43962 20.0199 8.57487C20.6092 8.70806 21.1314 8.94584 21.5865 9.28822C22.0416 9.6306 22.4188 10.0507 22.7182 10.5486C23.0156 11.0354 23.2208 11.5853 23.334 12.1982C23.3629 12.3543 23.3816 12.5179 23.3901 12.6892C23.4099 12.8584 23.4088 13.0085 23.3868 13.1393L16.3656 14.436L16.0568 12.7643L21.841 11.696L20.9496 12.6732C20.9553 12.142 20.843 11.6902 20.6129 11.3178C20.3939 10.9433 20.0901 10.671 19.7013 10.5007C19.3238 10.3285 18.8954 10.2866 18.4161 10.3751C17.9592 10.4595 17.574 10.6516 17.2606 10.9515C16.9452 11.2403 16.7338 11.625 16.6267 12.1058C16.5287 12.5734 16.5596 13.1151 16.7194 13.731C16.7777 14.2965 16.9418 14.7791 17.2115 15.1787C17.4903 15.5652 17.8408 15.8404 18.263 16.0045C18.6963 16.1665 19.1637 16.2012 19.6652 16.1086C20.1667 16.0159 20.5707 15.8319 20.877 15.5563C21.1946 15.2787 21.4207 14.943 21.5555 14.5493L23.488 15.0914C23.39 15.559 23.1824 15.9949 22.8652 16.3992C22.548 16.8036 22.145 17.1488 21.6562 17.435C21.1785 17.7192 20.6276 17.9189 20.0035 18.0341ZM29.387 16.3012C28.4174 16.4802 27.5282 16.4082 26.7194 16.0851C25.9197 15.7487 25.313 15.2096 24.8994 14.4677L26.3926 13.3794C26.7213 13.8488 27.1186 14.1904 27.5845 14.404C28.0615 14.6155 28.5564 14.674 29.069 14.5793C29.4702 14.5052 29.7714 14.3574 29.9725 14.1358C30.1736 13.9143 30.2474 13.6586 30.1939 13.3689C30.161 13.1906 30.0841 13.0549 29.9632 12.962C29.8514 12.8559 29.7047 12.7793 29.5231 12.7321C29.3506 12.6718 29.1645 12.6312 28.9647 12.6105L27.3997 12.4673C26.5895 12.3865 25.9417 12.1546 25.4561 11.7718C24.9816 11.3869 24.6867 10.8824 24.5715 10.2582C24.4686 9.701 24.5183 9.19047 24.7208 8.72665C24.9324 8.24963 25.2673 7.84779 25.7256 7.52113C26.195 7.1924 26.7585 6.96732 27.4161 6.84589C28.2742 6.6874 29.0701 6.75362 29.8038 7.04454C30.5375 7.33547 31.1127 7.82855 31.5292 8.5238L30.0026 9.61825C29.7704 9.23471 29.4478 8.9543 29.0347 8.77704C28.6216 8.59978 28.1866 8.55334 27.7297 8.63773C27.3619 8.70565 27.0876 8.84275 26.9067 9.04903C26.7258 9.25531 26.6601 9.49219 26.7095 9.75967C26.7404 9.92684 26.8117 10.0635 26.9235 10.1696C27.0353 10.2757 27.1764 10.3534 27.3468 10.4026C27.5284 10.4497 27.7313 10.4872 27.9554 10.515L29.49 10.681C30.2779 10.766 30.9136 10.9943 31.3972 11.366C31.8919 11.7357 32.1989 12.2437 32.3183 12.8901C32.4191 13.4362 32.3638 13.9478 32.1522 14.4248C31.9386 14.8907 31.5971 15.288 31.1277 15.6167C30.6582 15.9454 30.078 16.1736 29.387 16.3012ZM38.8268 14.5578C37.8906 14.7307 37.0324 14.6702 36.252 14.3764C35.4717 14.0826 34.8196 13.6095 34.2957 12.9571C33.7719 12.3047 33.4287 11.5383 33.2661 10.6579C33.0973 9.74397 33.1431 8.89995 33.4035 8.12579C33.673 7.33842 34.1096 6.67578 34.7132 6.13786C35.3281 5.59789 36.059 5.24969 36.906 5.09326C37.6193 4.96153 38.265 4.96329 38.8432 5.09854C39.4325 5.23173 39.9547 5.46951 40.4098 5.81189C40.8649 6.15427 41.2421 6.57441 41.5415 7.07231C41.8388 7.55907 42.0441 8.10894 42.1573 8.7219C42.1861 8.87793 42.2048 9.04159 42.2134 9.21288C42.2332 9.38211 42.232 9.53214 42.2101 9.66297L35.1888 10.9597L34.8801 9.28794L40.6643 8.21971L39.7729 9.19684C39.7785 8.66565 39.6663 8.21385 39.4362 7.84146C39.2172 7.467 38.9133 7.19465 38.5246 7.02441C38.1471 6.85212 37.7187 6.81023 37.2394 6.89873C36.7825 6.98312 36.3973 7.17527 36.0839 7.47517C35.7684 7.76394 35.5571 8.14871 35.45 8.62949C35.352 9.09708 35.3829 9.63881 35.5427 10.2547C35.601 10.8202 35.7651 11.3027 36.0348 11.7024C36.3136 12.0888 36.6641 12.3641 37.0863 12.5282C37.5195 12.6902 37.987 12.7249 38.4885 12.6322C38.99 12.5396 39.3939 12.3555 39.7003 12.08C40.0179 11.8023 40.244 11.4667 40.3787 11.073L42.3113 11.6151C42.2133 12.0826 42.0057 12.5186 41.6885 12.9229C41.3713 13.3272 40.9683 13.6725 40.4795 13.9587C40.0018 14.2428 39.4509 14.4426 38.8268 14.5578ZM45.3303 16.6068L43.0332 4.16912L45.0895 3.78937L45.4229 5.59484L45.1389 5.18052C45.3604 4.63251 45.7139 4.17537 46.1995 3.8091C46.683 3.43168 47.2758 3.17814 47.9779 3.04847C48.8361 2.88998 49.6498 2.95869 50.419 3.25458C51.1882 3.55047 51.8392 4.018 52.3722 4.65718C52.9163 5.29429 53.2706 6.05865 53.4353 6.95024C53.5979 7.83068 53.5455 8.67016 53.2781 9.46867C53.0106 10.2672 52.5705 10.942 51.9578 11.4931C51.3429 12.0331 50.5953 12.3844 49.7149 12.547C49.0573 12.6684 48.4262 12.6524 47.8217 12.499C47.2262 12.3324 46.7215 12.0337 46.3078 11.603L46.5786 11.1036L47.5202 16.2023L45.3303 16.6068ZM49.0936 10.5872C49.5951 10.4946 50.0193 10.2952 50.3662 9.98916C50.713 9.68308 50.9542 9.30431 51.0898 8.85284C51.2366 8.39931 51.2605 7.90507 51.1617 7.37012C51.0629 6.83517 50.8651 6.38767 50.5681 6.02762C50.2801 5.65436 49.9195 5.38673 49.4863 5.22473C49.0509 5.05158 48.5825 5.01132 48.0809 5.10394C47.6017 5.19245 47.1887 5.38974 46.8418 5.69582C46.5061 5.99985 46.2659 6.38419 46.1213 6.84886C45.9857 7.30033 45.9662 7.78797 46.063 8.31178C46.1618 8.84673 46.3551 9.30083 46.643 9.67409C46.9421 10.0453 47.3027 10.3129 47.7248 10.477C48.1581 10.639 48.6144 10.6757 49.0936 10.5872ZM9.10487 41.1946L6.80477 28.7402L12.054 27.7708C12.8787 27.6185 13.6076 27.6337 14.2406 27.8164C14.8828 27.986 15.4082 28.3038 15.817 28.77C16.2349 29.223 16.5118 29.8172 16.6476 30.5528C16.7526 31.1212 16.6954 31.6849 16.4759 32.2441C16.2656 32.79 15.8559 33.2864 15.2469 33.7331L15.0524 32.6799C15.7086 32.8007 16.2469 33.0009 16.6674 33.2806C17.0878 33.5602 17.4096 33.8984 17.6327 34.2951C17.8558 34.6919 18.0105 35.1243 18.097 35.5924C18.3172 36.7849 18.0945 37.7941 17.4287 38.6201C16.7721 39.4329 15.7472 39.9679 14.3541 40.2252L9.10487 41.1946ZM11.0079 38.7686L14.2177 38.1759C14.8083 38.0668 15.2466 37.8187 15.5324 37.4317C15.8273 37.0315 15.9243 36.5584 15.8234 36.0123C15.7226 35.4662 15.463 35.0589 15.0446 34.7904C14.6373 34.5199 14.1384 34.4391 13.5477 34.5482L10.338 35.141L11.0079 38.7686ZM9.97058 33.1516L13.0633 32.5805C13.5314 32.494 13.88 32.2913 14.1092 31.9724C14.3364 31.6423 14.4098 31.26 14.3296 30.8253C14.2493 30.3907 14.0462 30.0709 13.7202 29.866C13.3943 29.6611 12.9972 29.6019 12.5292 29.6884L9.43646 30.2595L9.97058 33.1516ZM24.8295 38.498C23.8934 38.6709 23.0351 38.6104 22.2548 38.3166C21.4744 38.0227 20.8223 37.5496 20.2985 36.8973C19.7746 36.2449 19.4314 35.4785 19.2688 34.598C19.1 33.6842 19.1458 32.8401 19.4062 32.066C19.6757 31.2786 20.1123 30.616 20.716 30.078C21.3308 29.5381 22.0617 29.1899 22.9087 29.0334C23.622 28.9017 24.2677 28.9035 24.8459 29.0387C25.4352 29.1719 25.9574 29.4097 26.4125 29.7521C26.8676 30.0944 27.2448 30.5146 27.5442 31.0125C27.8416 31.4992 28.0469 32.0491 28.1601 32.6621C28.1889 32.8181 28.2076 32.9818 28.2162 33.1531C28.2359 33.3223 28.2348 33.4723 28.2128 33.6031L21.1916 34.8998L20.8828 33.2281L26.667 32.1599L25.7757 33.137C25.7813 32.6058 25.669 32.154 25.4389 31.7816C25.2199 31.4072 24.9161 31.1348 24.5274 30.9646C24.1498 30.7923 23.7214 30.7504 23.2422 30.8389C22.7852 30.9233 22.4 31.1154 22.0866 31.4153C21.7712 31.7041 21.5599 32.0889 21.4527 32.5697C21.3547 33.0373 21.3856 33.579 21.5454 34.1949C21.6038 34.7603 21.7678 35.2429 22.0375 35.6426C22.3164 36.029 22.6668 36.3043 23.089 36.4683C23.5223 36.6303 23.9897 36.665 24.4912 36.5724C24.9927 36.4798 25.3967 36.2957 25.7031 36.0201C26.0206 35.7425 26.2467 35.4069 26.3815 35.0132L28.314 35.5552C28.216 36.0228 28.0084 36.4588 27.6912 36.8631C27.374 37.2674 26.971 37.6127 26.4822 37.8989C26.0045 38.183 25.4537 38.3827 24.8295 38.498ZM30.7155 37.2035L29.036 28.1093L31.0922 27.7295L31.4658 29.7523L31.243 29.4823C31.3292 28.7634 31.5705 28.229 31.9669 27.8792C32.3745 27.5273 32.8959 27.2927 33.5311 27.1754L34.0661 27.0766L34.4242 29.0158L33.6385 29.1609C33.0144 29.2762 32.5489 29.5638 32.242 30.0239C31.933 30.4728 31.8424 31.0427 31.97 31.7337L32.9055 36.7991L30.7155 37.2035ZM42.0608 38.9115C41.3809 39.037 40.7307 39.0419 40.11 38.926C39.4893 38.8101 38.9301 38.5907 38.4325 38.2677C37.9481 37.9538 37.5618 37.5469 37.2735 37.0469L39.171 35.9012C39.383 36.3 39.7076 36.5916 40.1451 36.7759C40.5957 36.9693 41.1107 37.0124 41.6903 36.9054C42.1361 36.8231 42.5107 36.6675 42.8142 36.4385C43.1288 36.2076 43.351 35.913 43.4808 35.5548C43.6126 35.2077 43.6373 34.8113 43.555 34.3655L43.1722 32.2926L43.6827 32.7169C43.4715 33.3206 43.1297 33.8102 42.6574 34.1855C42.185 34.5609 41.6145 34.8103 40.9458 34.9338C40.0988 35.0902 39.3049 35.0352 38.5642 34.7686C37.8235 34.502 37.2009 34.0638 36.6964 33.454C36.1919 32.8441 35.8615 32.1157 35.705 31.2687C35.5466 30.4105 35.595 29.6121 35.8505 28.8734C36.1059 28.1347 36.5274 27.5152 37.115 27.0149C37.7005 26.5034 38.4111 26.1704 39.247 26.016C39.9268 25.8905 40.5499 25.9253 41.116 26.1203C41.6913 26.3022 42.2011 26.6287 42.6454 27.0999L42.4463 27.7071L42.0758 25.7011L44.1488 25.3182L45.745 33.9611C45.8911 34.7523 45.8268 35.4961 45.552 36.1922C45.2883 36.8863 44.8551 37.4734 44.2522 37.9536C43.6605 38.4316 42.9301 38.7509 42.0608 38.9115ZM40.8397 32.8616C41.3078 32.7752 41.6961 32.5998 42.0045 32.3353C42.322 32.0577 42.5472 31.7165 42.6798 31.3117C42.8125 30.9068 42.8346 30.4648 42.7461 29.9856C42.6597 29.5175 42.4766 29.1191 42.1969 28.7904C41.9263 28.4486 41.5932 28.2047 41.1974 28.0588C40.8128 27.9108 40.3921 27.8791 39.9351 27.9635C39.4782 28.0478 39.0854 28.2299 38.7567 28.5096C38.428 28.7892 38.1928 29.1381 38.051 29.5561C37.9184 29.9609 37.8952 30.3974 37.9817 30.8655C38.0681 31.3336 38.2456 31.733 38.5141 32.0637C38.7938 32.3924 39.1315 32.6297 39.5273 32.7756C39.9342 32.9194 40.3716 32.9481 40.8397 32.8616ZM47.8736 34.0347L46.194 24.9405L48.384 24.536L50.0636 33.6303L47.8736 34.0347ZM46.0057 23.9207L45.5735 21.5803L47.7634 21.1759L48.1957 23.5163L46.0057 23.9207ZM51.2999 33.4019L50.9726 31.6299L55.1253 24.5358L55.5985 25.2263L50.2156 26.2204L49.8544 24.2645L57.1765 22.9122L57.5069 24.701L53.4545 31.7766L52.9812 31.0861L58.5314 30.0611L58.8895 32.0003L51.2999 33.4019ZM60.134 31.7704L58.4545 22.6762L60.6445 22.2718L62.324 31.366L60.134 31.7704ZM58.2662 21.6565L57.8339 19.316L60.0239 18.9116L60.4561 21.252L58.2662 21.6565Z"/>
</mask>
<path d="M5.29104 20.5438L2.99093 8.08945L7.62162 7.23424C8.46863 7.07781 9.24415 7.09593 9.94819 7.28861C10.6613 7.46809 11.2563 7.8192 11.7332 8.34196C12.208 8.85357 12.5226 9.5273 12.6769 10.3632C12.8354 11.2213 12.7641 11.9894 12.4628 12.6674C12.1728 13.3433 11.709 13.8899 11.0715 14.3073L14.8533 18.7778L12.2789 19.2533L8.21002 14.3517L9.84169 14.9493L6.71556 15.5267L7.56459 20.1239L5.29104 20.5438ZM6.34507 13.5206L8.73564 13.0791C9.148 13.003 9.49023 12.8591 9.76233 12.6475C10.0324 12.4247 10.2242 12.153 10.3379 11.8324C10.4515 11.5118 10.4734 11.162 10.4034 10.7831C10.3313 10.393 10.186 10.0741 9.96738 9.82633C9.7467 9.56743 9.47149 9.38776 9.14176 9.28731C8.80998 9.17571 8.4379 9.15798 8.02554 9.23414L5.63497 9.67564L6.34507 13.5206ZM20.0035 18.0341C19.0674 18.207 18.2091 18.1466 17.4288 17.8527C16.6484 17.5589 15.9963 17.0858 15.4725 16.4334C14.9486 15.781 14.6054 15.0146 14.4428 14.1342C14.274 13.2203 14.3198 12.3763 14.5802 11.6021C14.8497 10.8147 15.2863 10.1521 15.89 9.61419C16.5048 9.07422 17.2357 8.72602 18.0827 8.56959C18.796 8.43786 19.4417 8.43962 20.0199 8.57487C20.6092 8.70806 21.1314 8.94584 21.5865 9.28822C22.0416 9.6306 22.4188 10.0507 22.7182 10.5486C23.0156 11.0354 23.2208 11.5853 23.334 12.1982C23.3629 12.3543 23.3816 12.5179 23.3901 12.6892C23.4099 12.8584 23.4088 13.0085 23.3868 13.1393L16.3656 14.436L16.0568 12.7643L21.841 11.696L20.9496 12.6732C20.9553 12.142 20.843 11.6902 20.6129 11.3178C20.3939 10.9433 20.0901 10.671 19.7013 10.5007C19.3238 10.3285 18.8954 10.2866 18.4161 10.3751C17.9592 10.4595 17.574 10.6516 17.2606 10.9515C16.9452 11.2403 16.7338 11.625 16.6267 12.1058C16.5287 12.5734 16.5596 13.1151 16.7194 13.731C16.7777 14.2965 16.9418 14.7791 17.2115 15.1787C17.4903 15.5652 17.8408 15.8404 18.263 16.0045C18.6963 16.1665 19.1637 16.2012 19.6652 16.1086C20.1667 16.0159 20.5707 15.8319 20.877 15.5563C21.1946 15.2787 21.4207 14.943 21.5555 14.5493L23.488 15.0914C23.39 15.559 23.1824 15.9949 22.8652 16.3992C22.548 16.8036 22.145 17.1488 21.6562 17.435C21.1785 17.7192 20.6276 17.9189 20.0035 18.0341ZM29.387 16.3012C28.4174 16.4802 27.5282 16.4082 26.7194 16.0851C25.9197 15.7487 25.313 15.2096 24.8994 14.4677L26.3926 13.3794C26.7213 13.8488 27.1186 14.1904 27.5845 14.404C28.0615 14.6155 28.5564 14.674 29.069 14.5793C29.4702 14.5052 29.7714 14.3574 29.9725 14.1358C30.1736 13.9143 30.2474 13.6586 30.1939 13.3689C30.161 13.1906 30.0841 13.0549 29.9632 12.962C29.8514 12.8559 29.7047 12.7793 29.5231 12.7321C29.3506 12.6718 29.1645 12.6312 28.9647 12.6105L27.3997 12.4673C26.5895 12.3865 25.9417 12.1546 25.4561 11.7718C24.9816 11.3869 24.6867 10.8824 24.5715 10.2582C24.4686 9.701 24.5183 9.19047 24.7208 8.72665C24.9324 8.24963 25.2673 7.84779 25.7256 7.52113C26.195 7.1924 26.7585 6.96732 27.4161 6.84589C28.2742 6.6874 29.0701 6.75362 29.8038 7.04454C30.5375 7.33547 31.1127 7.82855 31.5292 8.5238L30.0026 9.61825C29.7704 9.23471 29.4478 8.9543 29.0347 8.77704C28.6216 8.59978 28.1866 8.55334 27.7297 8.63773C27.3619 8.70565 27.0876 8.84275 26.9067 9.04903C26.7258 9.25531 26.6601 9.49219 26.7095 9.75967C26.7404 9.92684 26.8117 10.0635 26.9235 10.1696C27.0353 10.2757 27.1764 10.3534 27.3468 10.4026C27.5284 10.4497 27.7313 10.4872 27.9554 10.515L29.49 10.681C30.2779 10.766 30.9136 10.9943 31.3972 11.366C31.8919 11.7357 32.1989 12.2437 32.3183 12.8901C32.4191 13.4362 32.3638 13.9478 32.1522 14.4248C31.9386 14.8907 31.5971 15.288 31.1277 15.6167C30.6582 15.9454 30.078 16.1736 29.387 16.3012ZM38.8268 14.5578C37.8906 14.7307 37.0324 14.6702 36.252 14.3764C35.4717 14.0826 34.8196 13.6095 34.2957 12.9571C33.7719 12.3047 33.4287 11.5383 33.2661 10.6579C33.0973 9.74397 33.1431 8.89995 33.4035 8.12579C33.673 7.33842 34.1096 6.67578 34.7132 6.13786C35.3281 5.59789 36.059 5.24969 36.906 5.09326C37.6193 4.96153 38.265 4.96329 38.8432 5.09854C39.4325 5.23173 39.9547 5.46951 40.4098 5.81189C40.8649 6.15427 41.2421 6.57441 41.5415 7.07231C41.8388 7.55907 42.0441 8.10894 42.1573 8.7219C42.1861 8.87793 42.2048 9.04159 42.2134 9.21288C42.2332 9.38211 42.232 9.53214 42.2101 9.66297L35.1888 10.9597L34.8801 9.28794L40.6643 8.21971L39.7729 9.19684C39.7785 8.66565 39.6663 8.21385 39.4362 7.84146C39.2172 7.467 38.9133 7.19465 38.5246 7.02441C38.1471 6.85212 37.7187 6.81023 37.2394 6.89873C36.7825 6.98312 36.3973 7.17527 36.0839 7.47517C35.7684 7.76394 35.5571 8.14871 35.45 8.62949C35.352 9.09708 35.3829 9.63881 35.5427 10.2547C35.601 10.8202 35.7651 11.3027 36.0348 11.7024C36.3136 12.0888 36.6641 12.3641 37.0863 12.5282C37.5195 12.6902 37.987 12.7249 38.4885 12.6322C38.99 12.5396 39.3939 12.3555 39.7003 12.08C40.0179 11.8023 40.244 11.4667 40.3787 11.073L42.3113 11.6151C42.2133 12.0826 42.0057 12.5186 41.6885 12.9229C41.3713 13.3272 40.9683 13.6725 40.4795 13.9587C40.0018 14.2428 39.4509 14.4426 38.8268 14.5578ZM45.3303 16.6068L43.0332 4.16912L45.0895 3.78937L45.4229 5.59484L45.1389 5.18052C45.3604 4.63251 45.7139 4.17537 46.1995 3.8091C46.683 3.43168 47.2758 3.17814 47.9779 3.04847C48.8361 2.88998 49.6498 2.95869 50.419 3.25458C51.1882 3.55047 51.8392 4.018 52.3722 4.65718C52.9163 5.29429 53.2706 6.05865 53.4353 6.95024C53.5979 7.83068 53.5455 8.67016 53.2781 9.46867C53.0106 10.2672 52.5705 10.942 51.9578 11.4931C51.3429 12.0331 50.5953 12.3844 49.7149 12.547C49.0573 12.6684 48.4262 12.6524 47.8217 12.499C47.2262 12.3324 46.7215 12.0337 46.3078 11.603L46.5786 11.1036L47.5202 16.2023L45.3303 16.6068ZM49.0936 10.5872C49.5951 10.4946 50.0193 10.2952 50.3662 9.98916C50.713 9.68308 50.9542 9.30431 51.0898 8.85284C51.2366 8.39931 51.2605 7.90507 51.1617 7.37012C51.0629 6.83517 50.8651 6.38767 50.5681 6.02762C50.2801 5.65436 49.9195 5.38673 49.4863 5.22473C49.0509 5.05158 48.5825 5.01132 48.0809 5.10394C47.6017 5.19245 47.1887 5.38974 46.8418 5.69582C46.5061 5.99985 46.2659 6.38419 46.1213 6.84886C45.9857 7.30033 45.9662 7.78797 46.063 8.31178C46.1618 8.84673 46.3551 9.30083 46.643 9.67409C46.9421 10.0453 47.3027 10.3129 47.7248 10.477C48.1581 10.639 48.6144 10.6757 49.0936 10.5872ZM9.10487 41.1946L6.80477 28.7402L12.054 27.7708C12.8787 27.6185 13.6076 27.6337 14.2406 27.8164C14.8828 27.986 15.4082 28.3038 15.817 28.77C16.2349 29.223 16.5118 29.8172 16.6476 30.5528C16.7526 31.1212 16.6954 31.6849 16.4759 32.2441C16.2656 32.79 15.8559 33.2864 15.2469 33.7331L15.0524 32.6799C15.7086 32.8007 16.2469 33.0009 16.6674 33.2806C17.0878 33.5602 17.4096 33.8984 17.6327 34.2951C17.8558 34.6919 18.0105 35.1243 18.097 35.5924C18.3172 36.7849 18.0945 37.7941 17.4287 38.6201C16.7721 39.4329 15.7472 39.9679 14.3541 40.2252L9.10487 41.1946ZM11.0079 38.7686L14.2177 38.1759C14.8083 38.0668 15.2466 37.8187 15.5324 37.4317C15.8273 37.0315 15.9243 36.5584 15.8234 36.0123C15.7226 35.4662 15.463 35.0589 15.0446 34.7904C14.6373 34.5199 14.1384 34.4391 13.5477 34.5482L10.338 35.141L11.0079 38.7686ZM9.97058 33.1516L13.0633 32.5805C13.5314 32.494 13.88 32.2913 14.1092 31.9724C14.3364 31.6423 14.4098 31.26 14.3296 30.8253C14.2493 30.3907 14.0462 30.0709 13.7202 29.866C13.3943 29.6611 12.9972 29.6019 12.5292 29.6884L9.43646 30.2595L9.97058 33.1516ZM24.8295 38.498C23.8934 38.6709 23.0351 38.6104 22.2548 38.3166C21.4744 38.0227 20.8223 37.5496 20.2985 36.8973C19.7746 36.2449 19.4314 35.4785 19.2688 34.598C19.1 33.6842 19.1458 32.8401 19.4062 32.066C19.6757 31.2786 20.1123 30.616 20.716 30.078C21.3308 29.5381 22.0617 29.1899 22.9087 29.0334C23.622 28.9017 24.2677 28.9035 24.8459 29.0387C25.4352 29.1719 25.9574 29.4097 26.4125 29.7521C26.8676 30.0944 27.2448 30.5146 27.5442 31.0125C27.8416 31.4992 28.0469 32.0491 28.1601 32.6621C28.1889 32.8181 28.2076 32.9818 28.2162 33.1531C28.2359 33.3223 28.2348 33.4723 28.2128 33.6031L21.1916 34.8998L20.8828 33.2281L26.667 32.1599L25.7757 33.137C25.7813 32.6058 25.669 32.154 25.4389 31.7816C25.2199 31.4072 24.9161 31.1348 24.5274 30.9646C24.1498 30.7923 23.7214 30.7504 23.2422 30.8389C22.7852 30.9233 22.4 31.1154 22.0866 31.4153C21.7712 31.7041 21.5599 32.0889 21.4527 32.5697C21.3547 33.0373 21.3856 33.579 21.5454 34.1949C21.6038 34.7603 21.7678 35.2429 22.0375 35.6426C22.3164 36.029 22.6668 36.3043 23.089 36.4683C23.5223 36.6303 23.9897 36.665 24.4912 36.5724C24.9927 36.4798 25.3967 36.2957 25.7031 36.0201C26.0206 35.7425 26.2467 35.4069 26.3815 35.0132L28.314 35.5552C28.216 36.0228 28.0084 36.4588 27.6912 36.8631C27.374 37.2674 26.971 37.6127 26.4822 37.8989C26.0045 38.183 25.4537 38.3827 24.8295 38.498ZM30.7155 37.2035L29.036 28.1093L31.0922 27.7295L31.4658 29.7523L31.243 29.4823C31.3292 28.7634 31.5705 28.229 31.9669 27.8792C32.3745 27.5273 32.8959 27.2927 33.5311 27.1754L34.0661 27.0766L34.4242 29.0158L33.6385 29.1609C33.0144 29.2762 32.5489 29.5638 32.242 30.0239C31.933 30.4728 31.8424 31.0427 31.97 31.7337L32.9055 36.7991L30.7155 37.2035ZM42.0608 38.9115C41.3809 39.037 40.7307 39.0419 40.11 38.926C39.4893 38.8101 38.9301 38.5907 38.4325 38.2677C37.9481 37.9538 37.5618 37.5469 37.2735 37.0469L39.171 35.9012C39.383 36.3 39.7076 36.5916 40.1451 36.7759C40.5957 36.9693 41.1107 37.0124 41.6903 36.9054C42.1361 36.8231 42.5107 36.6675 42.8142 36.4385C43.1288 36.2076 43.351 35.913 43.4808 35.5548C43.6126 35.2077 43.6373 34.8113 43.555 34.3655L43.1722 32.2926L43.6827 32.7169C43.4715 33.3206 43.1297 33.8102 42.6574 34.1855C42.185 34.5609 41.6145 34.8103 40.9458 34.9338C40.0988 35.0902 39.3049 35.0352 38.5642 34.7686C37.8235 34.502 37.2009 34.0638 36.6964 33.454C36.1919 32.8441 35.8615 32.1157 35.705 31.2687C35.5466 30.4105 35.595 29.6121 35.8505 28.8734C36.1059 28.1347 36.5274 27.5152 37.115 27.0149C37.7005 26.5034 38.4111 26.1704 39.247 26.016C39.9268 25.8905 40.5499 25.9253 41.116 26.1203C41.6913 26.3022 42.2011 26.6287 42.6454 27.0999L42.4463 27.7071L42.0758 25.7011L44.1488 25.3182L45.745 33.9611C45.8911 34.7523 45.8268 35.4961 45.552 36.1922C45.2883 36.8863 44.8551 37.4734 44.2522 37.9536C43.6605 38.4316 42.9301 38.7509 42.0608 38.9115ZM40.8397 32.8616C41.3078 32.7752 41.6961 32.5998 42.0045 32.3353C42.322 32.0577 42.5472 31.7165 42.6798 31.3117C42.8125 30.9068 42.8346 30.4648 42.7461 29.9856C42.6597 29.5175 42.4766 29.1191 42.1969 28.7904C41.9263 28.4486 41.5932 28.2047 41.1974 28.0588C40.8128 27.9108 40.3921 27.8791 39.9351 27.9635C39.4782 28.0478 39.0854 28.2299 38.7567 28.5096C38.428 28.7892 38.1928 29.1381 38.051 29.5561C37.9184 29.9609 37.8952 30.3974 37.9817 30.8655C38.0681 31.3336 38.2456 31.733 38.5141 32.0637C38.7938 32.3924 39.1315 32.6297 39.5273 32.7756C39.9342 32.9194 40.3716 32.9481 40.8397 32.8616ZM47.8736 34.0347L46.194 24.9405L48.384 24.536L50.0636 33.6303L47.8736 34.0347ZM46.0057 23.9207L45.5735 21.5803L47.7634 21.1759L48.1957 23.5163L46.0057 23.9207ZM51.2999 33.4019L50.9726 31.6299L55.1253 24.5358L55.5985 25.2263L50.2156 26.2204L49.8544 24.2645L57.1765 22.9122L57.5069 24.701L53.4545 31.7766L52.9812 31.0861L58.5314 30.0611L58.8895 32.0003L51.2999 33.4019ZM60.134 31.7704L58.4545 22.6762L60.6445 22.2718L62.324 31.366L60.134 31.7704ZM58.2662 21.6565L57.8339 19.316L60.0239 18.9116L60.4561 21.252L58.2662 21.6565Z" fill="#FFFFF9"/>
<path d="M5.29104 20.5438L3.3243 20.9071L3.68752 22.8738L5.65426 22.5106L5.29104 20.5438ZM2.99093 8.08945L2.62771 6.1227L0.660967 6.48593L1.02419 8.45267L2.99093 8.08945ZM9.94819 7.28861L9.42025 9.21767L9.4401 9.22311L9.46006 9.22813L9.94819 7.28861ZM11.7332 8.34196L10.2556 9.68983L10.2614 9.69617L10.2672 9.70246L11.7332 8.34196ZM12.4628 12.6674L10.6351 11.8553L10.63 11.867L10.6249 11.8786L12.4628 12.6674ZM11.0715 14.3073L9.97599 12.6341L8.08424 13.8727L9.54461 15.599L11.0715 14.3073ZM14.8533 18.7778L15.2166 20.7446L18.607 20.1184L16.3803 17.4862L14.8533 18.7778ZM12.2789 19.2533L10.74 20.5307L11.489 21.433L12.6421 21.22L12.2789 19.2533ZM8.21002 14.3517L8.89786 12.4737L1.93476 9.92346L6.67115 15.6292L8.21002 14.3517ZM9.84169 14.9493L10.2049 16.9161L17.3992 15.5874L10.5295 13.0713L9.84169 14.9493ZM6.71556 15.5267L6.35233 13.5599L4.38559 13.9232L4.74882 15.8899L6.71556 15.5267ZM7.56459 20.1239L7.92781 22.0907L9.89455 21.7275L9.53133 19.7607L7.56459 20.1239ZM6.34507 13.5206L4.37833 13.8838L4.74155 15.8506L6.70829 15.4874L6.34507 13.5206ZM9.76233 12.6475L10.9901 14.2263L11.0128 14.2086L11.035 14.1903L9.76233 12.6475ZM10.3379 11.8324L8.4528 11.1642L8.4528 11.1642L10.3379 11.8324ZM9.96738 9.82633L8.44533 11.1238L8.45645 11.1368L8.46779 11.1497L9.96738 9.82633ZM9.14176 9.28731L8.50414 11.1829L8.53139 11.1921L8.55889 11.2005L9.14176 9.28731ZM5.63497 9.67564L5.27175 7.7089L3.30501 8.07212L3.66823 10.0389L5.63497 9.67564ZM5.29104 20.5438L7.25778 20.1806L4.95767 7.72622L2.99093 8.08945L1.02419 8.45267L3.3243 20.9071L5.29104 20.5438ZM2.99093 8.08945L3.35415 10.0562L7.98484 9.20098L7.62162 7.23424L7.2584 5.2675L2.62771 6.1227L2.99093 8.08945ZM7.62162 7.23424L7.98484 9.20098C8.58866 9.08947 9.05442 9.11756 9.42025 9.21767L9.94819 7.28861L10.4761 5.35955C9.43388 5.07431 8.34861 5.06615 7.2584 5.2675L7.62162 7.23424ZM9.94819 7.28861L9.46006 9.22813C9.80824 9.31576 10.0541 9.46894 10.2556 9.68983L11.7332 8.34196L13.2107 6.99408C12.4585 6.16946 11.5144 5.62041 10.4363 5.34909L9.94819 7.28861ZM11.7332 8.34196L10.2672 9.70246C10.4326 9.8807 10.6097 10.182 10.7102 10.7264L12.6769 10.3632L14.6437 9.99995C14.4355 8.87257 13.9833 7.82643 13.1991 6.98145L11.7332 8.34196ZM12.6769 10.3632L10.7102 10.7264C10.8086 11.2594 10.7452 11.6075 10.6351 11.8553L12.4628 12.6674L14.2906 13.4794C14.7829 12.3713 14.8622 11.1833 14.6437 9.99995L12.6769 10.3632ZM12.4628 12.6674L10.6249 11.8786C10.4958 12.1796 10.2969 12.4239 9.97599 12.6341L11.0715 14.3073L12.1671 15.9806C13.1211 15.3559 13.8498 14.5069 14.3008 13.4561L12.4628 12.6674ZM11.0715 14.3073L9.54461 15.599L13.3264 20.0695L14.8533 18.7778L16.3803 17.4862L12.5985 13.0156L11.0715 14.3073ZM14.8533 18.7778L14.4901 16.8111L11.9156 17.2866L12.2789 19.2533L12.6421 21.22L15.2166 20.7446L14.8533 18.7778ZM12.2789 19.2533L13.8177 17.9759L9.7489 13.0743L8.21002 14.3517L6.67115 15.6292L10.74 20.5307L12.2789 19.2533ZM8.21002 14.3517L7.52219 16.2297L9.15386 16.8273L9.84169 14.9493L10.5295 13.0713L8.89786 12.4737L8.21002 14.3517ZM9.84169 14.9493L9.47847 12.9826L6.35233 13.5599L6.71556 15.5267L7.07878 17.4934L10.2049 16.9161L9.84169 14.9493ZM6.71556 15.5267L4.74882 15.8899L5.59785 20.4872L7.56459 20.1239L9.53133 19.7607L8.6823 15.1635L6.71556 15.5267ZM7.56459 20.1239L7.20137 18.1572L4.92781 18.5771L5.29104 20.5438L5.65426 22.5106L7.92781 22.0907L7.56459 20.1239ZM6.34507 13.5206L6.70829 15.4874L9.09887 15.0459L8.73564 13.0791L8.37242 11.1124L5.98185 11.5539L6.34507 13.5206ZM8.73564 13.0791L9.09887 15.0459C9.7589 14.924 10.416 14.6727 10.9901 14.2263L9.76233 12.6475L8.53455 11.0687C8.56448 11.0454 8.5371 11.082 8.37242 11.1124L8.73564 13.0791ZM9.76233 12.6475L11.035 14.1903C11.5761 13.7439 11.9845 13.1732 12.2229 12.5006L10.3379 11.8324L8.4528 11.1642C8.45572 11.1559 8.46291 11.1401 8.47499 11.123C8.48684 11.1062 8.49476 11.1004 8.48968 11.1046L9.76233 12.6475ZM10.3379 11.8324L12.2229 12.5006C12.4687 11.8073 12.4952 11.0971 12.3701 10.4198L10.4034 10.7831L8.43665 11.1463C8.44485 11.1907 8.44316 11.2085 8.44338 11.205C8.44348 11.2034 8.44392 11.1982 8.44553 11.1903C8.44716 11.1822 8.44957 11.1733 8.4528 11.1642L10.3379 11.8324ZM10.4034 10.7831L12.3701 10.4198C12.2455 9.74508 11.9695 9.07248 11.467 8.50299L9.96738 9.82633L8.46779 11.1497C8.45405 11.1341 8.44311 11.1192 8.43483 11.1063C8.42661 11.0935 8.42214 11.0844 8.42043 11.0807C8.41707 11.0733 8.42649 11.0913 8.43665 11.1463L10.4034 10.7831ZM9.96738 9.82633L11.4894 8.52888C11.0175 7.97521 10.4147 7.58435 9.72463 7.37412L9.14176 9.28731L8.55889 11.2005C8.55202 11.1984 8.53011 11.1904 8.50211 11.1721C8.47395 11.1537 8.45473 11.1348 8.44533 11.1238L9.96738 9.82633ZM9.14176 9.28731L9.77938 7.39167C9.06728 7.15214 8.34288 7.14171 7.66232 7.2674L8.02554 9.23414L8.38877 11.2009C8.46244 11.1873 8.50395 11.1873 8.51871 11.188C8.5319 11.1887 8.52436 11.1897 8.50414 11.1829L9.14176 9.28731ZM8.02554 9.23414L7.66232 7.2674L5.27175 7.7089L5.63497 9.67564L5.99819 11.6424L8.38877 11.2009L8.02554 9.23414ZM5.63497 9.67564L3.66823 10.0389L4.37833 13.8838L6.34507 13.5206L8.31181 13.1574L7.60171 9.31241L5.63497 9.67564ZM17.4288 17.8527L16.724 19.7244L17.4288 17.8527ZM15.4725 16.4334L17.0319 15.1812L15.4725 16.4334ZM14.5802 11.6021L12.6879 10.9545L12.6846 10.9645L14.5802 11.6021ZM15.89 9.61419L14.5702 8.11146L14.5648 8.1162L14.5594 8.12098L15.89 9.61419ZM20.0199 8.57487L19.5643 10.5223L19.5717 10.524L19.579 10.5257L20.0199 8.57487ZM21.5865 9.28822L20.3841 10.8864L20.3841 10.8864L21.5865 9.28822ZM22.7182 10.5486L21.0042 11.5793L21.0115 11.5912L22.7182 10.5486ZM23.3901 12.6892L21.3926 12.7893L21.396 12.8552L21.4036 12.9208L23.3901 12.6892ZM23.3868 13.1393L23.75 15.106L25.1276 14.8516L25.3593 13.4701L23.3868 13.1393ZM16.3656 14.436L14.3988 14.7992L14.762 16.766L16.7288 16.4027L16.3656 14.436ZM16.0568 12.7643L15.6936 10.7975L13.7269 11.1608L14.0901 13.1275L16.0568 12.7643ZM21.841 11.696L23.3186 13.0439L27.3278 8.64889L21.4778 9.7293L21.841 11.696ZM20.9496 12.6732L18.9498 12.652L18.8943 17.8939L22.4272 14.021L20.9496 12.6732ZM20.6129 11.3178L18.8864 12.3274L18.8987 12.3484L18.9115 12.3691L20.6129 11.3178ZM19.7013 10.5007L18.8711 12.3203L18.885 12.3266L18.899 12.3328L19.7013 10.5007ZM17.2606 10.9515L18.611 12.4268L18.6273 12.4118L18.6434 12.3965L17.2606 10.9515ZM16.6267 12.1058L14.6746 11.6708L14.6719 11.6831L14.6693 11.6954L16.6267 12.1058ZM16.7194 13.731L18.7089 13.5258L18.6933 13.3752L18.6553 13.2286L16.7194 13.731ZM17.2115 15.1787L15.5537 16.2976L15.5713 16.3235L15.5896 16.3489L17.2115 15.1787ZM18.263 16.0045L17.5385 17.8687L17.5505 17.8733L17.5625 17.8778L18.263 16.0045ZM20.877 15.5563L19.5606 14.0506L19.5501 14.0599L19.5396 14.0693L20.877 15.5563ZM21.5555 14.5493L22.0956 12.6237L20.2754 12.1131L19.6632 13.9017L21.5555 14.5493ZM23.488 15.0914L25.4455 15.5018L25.8294 13.6709L24.0281 13.1657L23.488 15.0914ZM22.8652 16.3992L24.4388 17.6337L22.8652 16.3992ZM21.6562 17.435L20.6456 15.7091L20.6337 15.7162L21.6562 17.435ZM20.0035 18.0341L19.6403 16.0674C19.0104 16.1837 18.5271 16.1292 18.1335 15.981L17.4288 17.8527L16.724 19.7244C17.8911 20.1639 19.1243 20.2303 20.3667 20.0009L20.0035 18.0341ZM17.4288 17.8527L18.1335 15.981C17.6896 15.8139 17.3323 15.5553 17.0319 15.1812L15.4725 16.4334L13.913 17.6857C14.6603 18.6163 15.6072 19.3039 16.724 19.7244L17.4288 17.8527ZM15.4725 16.4334L17.0319 15.1812C16.7297 14.8049 16.5163 14.3494 16.4095 13.771L14.4428 14.1342L12.476 14.4974C12.6944 15.6798 13.1675 16.7572 13.913 17.6857L15.4725 16.4334ZM14.4428 14.1342L16.4095 13.771C16.2938 13.1446 16.338 12.6496 16.4758 12.2397L14.5802 11.6021L12.6846 10.9645C12.3016 12.103 12.2541 13.296 12.476 14.4974L14.4428 14.1342ZM14.5802 11.6021L16.4724 12.2498C16.6339 11.7779 16.8814 11.4096 17.2205 11.1074L15.89 9.61419L14.5594 8.12098C13.6912 8.89464 13.0655 9.85157 12.688 10.9545L14.5802 11.6021ZM15.89 9.61419L17.2097 11.1169C17.5389 10.8278 17.9343 10.6308 18.4459 10.5363L18.0827 8.56959L17.7195 6.60285C16.5371 6.82122 15.4707 7.32062 14.5702 8.11146L15.89 9.61419ZM18.0827 8.56959L18.4459 10.5363C18.9465 10.4439 19.3074 10.4622 19.5643 10.5223L20.0199 8.57487L20.4754 6.62744C19.576 6.41705 18.6454 6.43185 17.7195 6.60285L18.0827 8.56959ZM20.0199 8.57487L19.579 10.5257C19.9095 10.6004 20.1687 10.7243 20.3841 10.8864L21.5865 9.28822L22.7889 7.69002C22.0941 7.16733 21.3089 6.81574 20.4608 6.62407L20.0199 8.57487ZM21.5865 9.28822L20.3841 10.8864C20.6296 11.0711 20.8346 11.2971 21.0042 11.5793L22.7182 10.5486L24.4322 9.51798C24.0031 8.80433 23.4536 8.1901 22.7889 7.69002L21.5865 9.28822ZM22.7182 10.5486L21.0115 11.5912C21.17 11.8508 21.2944 12.1666 21.3673 12.5615L23.334 12.1982L25.3008 11.835C25.1473 11.004 24.8611 10.22 24.425 9.50605L22.7182 10.5486ZM23.334 12.1982L21.3673 12.5615C21.3788 12.6239 21.3881 12.6993 21.3926 12.7893L23.3901 12.6892L25.3876 12.5891C25.375 12.3365 25.3469 12.0846 25.3008 11.835L23.334 12.1982ZM23.3901 12.6892L21.4036 12.9208C21.4052 12.9344 21.404 12.9314 21.4042 12.9139C21.4043 12.8965 21.4057 12.8601 21.4144 12.8085L23.3868 13.1393L25.3593 13.4701C25.4198 13.1093 25.4124 12.7638 25.3767 12.4576L23.3901 12.6892ZM23.3868 13.1393L23.0236 11.1726L16.0023 12.4693L16.3656 14.436L16.7288 16.4027L23.75 15.106L23.3868 13.1393ZM16.3656 14.436L18.3323 14.0728L18.0236 12.4011L16.0568 12.7643L14.0901 13.1275L14.3988 14.7992L16.3656 14.436ZM16.0568 12.7643L16.42 14.731L22.2042 13.6628L21.841 11.696L21.4778 9.7293L15.6936 10.7975L16.0568 12.7643ZM21.841 11.696L20.3634 10.3482L19.4721 11.3253L20.9496 12.6732L22.4272 14.021L23.3186 13.0439L21.841 11.696ZM20.9496 12.6732L22.9495 12.6943C22.9583 11.8659 22.7822 11.0237 22.3143 10.2664L20.6129 11.3178L18.9115 12.3691C18.912 12.3698 18.9137 12.3727 18.9164 12.3792C18.9192 12.3858 18.9237 12.3983 18.9287 12.4182C18.9386 12.4582 18.951 12.5327 18.9498 12.652L20.9496 12.6732ZM20.6129 11.3178L22.3393 10.3082C21.9121 9.5775 21.2887 9.01254 20.5037 8.66873L19.7013 10.5007L18.899 12.3328C18.9041 12.335 18.9038 12.3353 18.9 12.3328C18.8961 12.3303 18.891 12.3266 18.8859 12.322C18.8807 12.3174 18.8779 12.314 18.8773 12.3134C18.8769 12.3128 18.8802 12.3168 18.8864 12.3274L20.6129 11.3178ZM19.7013 10.5007L20.5316 8.68123C19.7191 8.31045 18.8635 8.25863 18.0529 8.40832L18.4161 10.3751L18.7794 12.3418C18.8589 12.3271 18.8969 12.3301 18.9022 12.3306C18.9051 12.3309 18.9021 12.3308 18.895 12.3289C18.8877 12.3269 18.8793 12.324 18.8711 12.3203L19.7013 10.5007ZM18.4161 10.3751L18.0529 8.40832C17.2411 8.55824 16.4933 8.9176 15.8779 9.5065L17.2606 10.9515L18.6434 12.3965C18.6548 12.3856 18.6773 12.3607 18.7794 12.3418L18.4161 10.3751ZM17.2606 10.9515L15.9102 9.47622C15.2481 10.0823 14.8569 10.8525 14.6746 11.6708L16.6267 12.1058L18.5788 12.5408C18.5962 12.4627 18.6142 12.4273 18.6186 12.4194C18.6218 12.4136 18.6189 12.4196 18.611 12.4268L17.2606 10.9515ZM16.6267 12.1058L14.6693 11.6954C14.4905 12.5479 14.5708 13.4137 14.7835 14.2334L16.7194 13.731L18.6553 13.2286C18.5483 12.8166 18.5668 12.5989 18.5841 12.5163L16.6267 12.1058ZM16.7194 13.731L14.73 13.9362C14.816 14.7703 15.0697 15.5803 15.5537 16.2976L17.2115 15.1787L18.8693 14.0599C18.8139 13.9778 18.7395 13.8227 18.7089 13.5258L16.7194 13.731ZM17.2115 15.1787L15.5896 16.3489C16.0819 17.0313 16.7372 17.5573 17.5385 17.8687L18.263 16.0045L18.9874 14.1403C18.9444 14.1236 18.8988 14.0991 18.8334 14.0085L17.2115 15.1787ZM18.263 16.0045L17.5625 17.8778C18.3695 18.1796 19.2081 18.2268 20.0284 18.0753L19.6652 16.1086L19.302 14.1418C19.1193 14.1756 19.023 14.1534 18.9634 14.1312L18.263 16.0045ZM19.6652 16.1086L20.0284 18.0753C20.8068 17.9316 21.5754 17.6181 22.2145 17.0433L20.877 15.5563L19.5396 14.0693C19.5659 14.0456 19.5266 14.1003 19.302 14.1418L19.6652 16.1086ZM20.877 15.5563L22.1935 17.062C22.771 16.557 23.1979 15.9269 23.4477 15.197L21.5555 14.5493L19.6632 13.9017C19.6435 13.9592 19.6181 14.0003 19.5606 14.0506L20.877 15.5563ZM21.5555 14.5493L21.0153 16.475L22.9479 17.0171L23.488 15.0914L24.0281 13.1657L22.0956 12.6237L21.5555 14.5493ZM23.488 15.0914L21.5306 14.6809C21.5002 14.8257 21.4339 14.9834 21.2916 15.1648L22.8652 16.3992L24.4388 17.6337C24.9308 17.0064 25.2797 16.2923 25.4455 15.5018L23.488 15.0914ZM22.8652 16.3992L21.2916 15.1648C21.1447 15.3521 20.9398 15.5369 20.6457 15.7091L21.6562 17.435L22.6667 19.161C23.3503 18.7608 23.9514 18.255 24.4388 17.6337L22.8652 16.3992ZM21.6562 17.435L20.6337 15.7162C20.3861 15.8635 20.0643 15.9891 19.6403 16.0674L20.0035 18.0341L20.3667 20.0009C21.1909 19.8487 21.971 19.5749 22.6787 19.1539L21.6562 17.435ZM26.7194 16.0851L25.944 17.9286L25.9606 17.9356L25.9774 17.9423L26.7194 16.0851ZM24.8994 14.4677L23.7214 12.8514L22.2901 13.8946L23.1525 15.4416L24.8994 14.4677ZM26.3926 13.3794L28.0309 12.2322L26.8618 10.5626L25.2146 11.7631L26.3926 13.3794ZM27.5845 14.404L26.7509 16.222L26.7623 16.2272L26.7737 16.2323L27.5845 14.404ZM29.9725 14.1358L28.4917 12.7916L29.9725 14.1358ZM29.9632 12.962L28.5862 14.4125L28.6617 14.4842L28.7443 14.5477L29.9632 12.962ZM29.5231 12.7321L28.8627 14.6199L28.9406 14.6472L29.0205 14.6679L29.5231 12.7321ZM28.9647 12.6105L29.1712 10.6212L29.1591 10.6199L29.1469 10.6188L28.9647 12.6105ZM27.3997 12.4673L27.201 14.4574L27.2093 14.4583L27.2175 14.459L27.3997 12.4673ZM25.4561 11.7718L24.196 13.3249L24.2069 13.3337L24.2178 13.3424L25.4561 11.7718ZM24.7208 8.72665L22.8925 7.91582L22.8878 7.92652L24.7208 8.72665ZM25.7256 7.52113L24.5784 5.88285L24.5715 5.88765L24.5647 5.8925L25.7256 7.52113ZM29.8038 7.04454L30.541 5.18536L30.541 5.18536L29.8038 7.04454ZM31.5292 8.5238L32.6945 10.1492L34.1915 9.07603L33.2448 7.49594L31.5292 8.5238ZM30.0026 9.61825L28.2916 10.654L29.4111 12.5032L31.1679 11.2437L30.0026 9.61825ZM29.0347 8.77704L28.246 10.6149L28.246 10.6149L29.0347 8.77704ZM26.9067 9.04903L28.4105 10.3676L28.4105 10.3676L26.9067 9.04903ZM27.3468 10.4026L26.7922 12.3241L26.8181 12.3316L26.8443 12.3384L27.3468 10.4026ZM27.9554 10.515L27.7095 12.4998L27.7248 12.5017L27.7402 12.5034L27.9554 10.515ZM29.49 10.681L29.2749 12.6694L29.2755 12.6695L29.49 10.681ZM31.3972 11.366L30.1783 12.9517L30.1891 12.96L30.2 12.9682L31.3972 11.366ZM32.1522 14.4248L33.9702 15.2584L33.9754 15.247L33.9805 15.2356L32.1522 14.4248ZM29.387 16.3012L29.0238 14.3344C28.3752 14.4542 27.8748 14.393 27.4615 14.2278L26.7194 16.0851L25.9774 17.9423C27.1816 18.4234 28.4596 18.5063 29.7502 18.2679L29.387 16.3012ZM26.7194 16.0851L27.4948 14.2415C27.0974 14.0743 26.8373 13.8365 26.6463 13.4938L24.8994 14.4677L23.1525 15.4416C23.7887 16.5827 24.742 17.423 25.944 17.9286L26.7194 16.0851ZM24.8994 14.4677L26.0774 16.084L27.5706 14.9957L26.3926 13.3794L25.2146 11.7631L23.7214 12.8514L24.8994 14.4677ZM26.3926 13.3794L24.7543 14.5266C25.2622 15.2519 25.925 15.8433 26.7509 16.222L27.5845 14.404L28.4181 12.586C28.3122 12.5375 28.1804 12.4458 28.0309 12.2322L26.3926 13.3794ZM27.5845 14.404L26.7737 16.2323C27.6188 16.607 28.5228 16.714 29.4322 16.546L29.069 14.5793L28.7058 12.6126C28.5899 12.634 28.5042 12.624 28.3953 12.5757L27.5845 14.404ZM29.069 14.5793L29.4322 16.546C30.1095 16.4209 30.8673 16.1257 31.4534 15.4801L29.9725 14.1358L28.4917 12.7916C28.6755 12.5891 28.8309 12.5894 28.7058 12.6126L29.069 14.5793ZM29.9725 14.1358L31.4534 15.4801C32.0664 14.8048 32.3296 13.9203 32.1606 13.0057L30.1939 13.3689L28.2272 13.7321C28.2037 13.6049 28.199 13.4246 28.2571 13.2233C28.315 13.023 28.4127 12.8785 28.4917 12.7916L29.9725 14.1358ZM30.1939 13.3689L32.1606 13.0057C32.0559 12.4386 31.7665 11.8256 31.1821 11.3764L29.9632 12.962L28.7443 14.5477C28.588 14.4275 28.4621 14.2793 28.3718 14.12C28.2841 13.9654 28.2447 13.8269 28.2272 13.7321L30.1939 13.3689ZM29.9632 12.962L31.3401 11.5115C30.9346 11.1266 30.4644 10.9102 30.0257 10.7963L29.5231 12.7321L29.0205 14.6679C28.9449 14.6483 28.7681 14.5852 28.5862 14.4125L29.9632 12.962ZM29.5231 12.7321L30.1835 10.8443C29.8505 10.7278 29.5106 10.6564 29.1712 10.6212L28.9647 12.6105L28.7582 14.5998C28.8183 14.606 28.8507 14.6157 28.8627 14.6199L29.5231 12.7321ZM28.9647 12.6105L29.1469 10.6188L27.5819 10.4757L27.3997 12.4673L27.2175 14.459L28.7825 14.6022L28.9647 12.6105ZM27.3997 12.4673L27.5984 10.4772C27.0499 10.4225 26.7994 10.284 26.6943 10.2012L25.4561 11.7718L24.2178 13.3424C25.0839 14.0252 26.1292 14.3504 27.201 14.4574L27.3997 12.4673ZM25.4561 11.7718L26.7161 10.2186C26.6266 10.146 26.5707 10.0708 26.5382 9.89502L24.5715 10.2582L22.6047 10.6215C22.8028 11.6939 23.3366 12.6277 24.196 13.3249L25.4561 11.7718ZM24.5715 10.2582L26.5382 9.89502C26.4988 9.68147 26.5297 9.58191 26.5538 9.52679L24.7208 8.72665L22.8878 7.92652C22.507 8.79903 22.4383 9.72053 22.6047 10.6215L24.5715 10.2582ZM24.7208 8.72665L26.5491 9.53747C26.604 9.41353 26.6961 9.2854 26.8864 9.14975L25.7256 7.52113L24.5647 5.8925C23.8384 6.41018 23.2607 7.08574 22.8925 7.91584L24.7208 8.72665ZM25.7256 7.52113L26.8728 9.1594C27.0715 9.02027 27.3569 8.89063 27.7793 8.81263L27.4161 6.84589L27.0528 4.87915C26.1601 5.04402 25.3186 5.36454 24.5784 5.88285L25.7256 7.52113ZM27.4161 6.84589L27.7793 8.81263C28.3082 8.71495 28.7186 8.76573 29.0667 8.90372L29.8038 7.04454L30.541 5.18536C29.4216 4.74151 28.2402 4.65985 27.0528 4.87915L27.4161 6.84589ZM29.8038 7.04454L29.0666 8.90372C29.38 9.02798 29.6164 9.22261 29.8135 9.55166L31.5292 8.5238L33.2448 7.49594C32.6089 6.4345 31.6951 5.64295 30.541 5.18536L29.8038 7.04454ZM31.5292 8.5238L30.3639 6.89835L28.8373 7.99281L30.0026 9.61825L31.1679 11.2437L32.6945 10.1492L31.5292 8.5238ZM30.0026 9.61825L31.7135 8.58252C31.2645 7.84093 30.619 7.28055 29.8234 6.93913L29.0347 8.77704L28.246 10.6149C28.2601 10.621 28.2679 10.6255 28.2711 10.6275C28.2742 10.6295 28.2749 10.6302 28.2745 10.6298C28.274 10.6294 28.2747 10.6299 28.2767 10.6324C28.2789 10.6349 28.2841 10.6415 28.2916 10.654L30.0026 9.61825ZM29.0347 8.77704L29.8234 6.93913C29.0348 6.60068 28.1978 6.51745 27.3665 6.67099L27.7297 8.63773L28.0929 10.6045C28.1755 10.5892 28.2085 10.5989 28.246 10.6149L29.0347 8.77704ZM27.7297 8.63773L27.3665 6.67099C26.7157 6.79117 25.9719 7.08162 25.4029 7.73044L26.9067 9.04903L28.4105 10.3676C28.2033 10.6039 28.0081 10.6201 28.0929 10.6045L27.7297 8.63773ZM26.9067 9.04903L25.4029 7.73044C24.8226 8.39228 24.5811 9.24743 24.7427 10.1229L26.7095 9.75967L28.6762 9.39644C28.7007 9.52903 28.7055 9.71225 28.6489 9.91624C28.5924 10.1197 28.4951 10.2711 28.4105 10.3676L26.9067 9.04903ZM26.7095 9.75967L24.7427 10.1229C24.8421 10.6608 25.0967 11.1931 25.5466 11.6201L26.9235 10.1696L28.3004 8.71908C28.5267 8.9339 28.6386 9.19287 28.6762 9.39644L26.7095 9.75967ZM26.9235 10.1696L25.5466 11.6201C25.9236 11.9781 26.3605 12.1996 26.7922 12.3241L27.3468 10.4026L27.9015 8.48106C27.9923 8.50726 28.147 8.57344 28.3004 8.71908L26.9235 10.1696ZM27.3468 10.4026L26.8443 12.3384C27.1252 12.4114 27.4156 12.4634 27.7095 12.4998L27.9554 10.515L28.2013 8.53013C28.0469 8.51101 27.9317 8.48813 27.8494 8.46678L27.3468 10.4026ZM27.9554 10.515L27.7402 12.5034L29.2749 12.6694L29.49 10.681L29.7052 8.69261L28.1705 8.52656L27.9554 10.515ZM29.49 10.681L29.2755 12.6695C29.8052 12.7266 30.0612 12.8617 30.1783 12.9517L31.3972 11.366L32.6161 9.78038C31.766 9.12698 30.7506 8.80539 29.7046 8.69254L29.49 10.681ZM31.3972 11.366L30.2 12.9682C30.2638 13.0158 30.3171 13.0671 30.3515 13.2533L32.3183 12.8901L34.285 12.5269C34.0807 11.4203 33.5199 10.4555 32.5943 9.7639L31.3972 11.366ZM32.3183 12.8901L30.3515 13.2533C30.3841 13.4299 30.3614 13.5296 30.324 13.614L32.1522 14.4248L33.9805 15.2356C34.3662 14.366 34.4541 13.4425 34.285 12.5269L32.3183 12.8901ZM32.1522 14.4248L30.3342 13.5912C30.2857 13.697 30.194 13.8289 29.9805 13.9784L31.1277 15.6167L32.2748 17.255C33.0002 16.747 33.5915 16.0843 33.9702 15.2584L32.1522 14.4248ZM31.1277 15.6167L29.9805 13.9784C29.7926 14.1099 29.4952 14.2474 29.0238 14.3344L29.387 16.3012L29.7502 18.2679C30.6608 18.0998 31.5238 17.7809 32.2748 17.255L31.1277 15.6167ZM36.252 14.3764L35.5473 16.2481L36.252 14.3764ZM34.2957 12.9571L35.8552 11.7048L34.2957 12.9571ZM33.4035 8.12579L31.5112 7.47814L31.5079 7.48817L33.4035 8.12579ZM34.7132 6.13786L33.3935 4.63513L33.3881 4.63987L33.3827 4.64465L34.7132 6.13786ZM38.8432 5.09854L38.3876 7.04597L38.3949 7.04768L38.4023 7.04934L38.8432 5.09854ZM40.4098 5.81189L39.2074 7.41009L39.2074 7.41009L40.4098 5.81189ZM41.5415 7.07231L39.8275 8.103L39.8347 8.11491L41.5415 7.07231ZM42.2134 9.21288L40.2159 9.31299L40.2192 9.37891L40.2269 9.44447L42.2134 9.21288ZM42.2101 9.66297L42.5733 11.6297L43.9509 11.3753L44.1826 9.99374L42.2101 9.66297ZM35.1888 10.9597L33.2221 11.3229L33.5853 13.2896L35.5521 12.9264L35.1888 10.9597ZM34.8801 9.28794L34.5169 7.3212L32.5501 7.68443L32.9134 9.65117L34.8801 9.28794ZM40.6643 8.21971L42.1419 9.56759L46.1511 5.17256L40.3011 6.25297L40.6643 8.21971ZM39.7729 9.19684L37.773 9.17566L37.7175 14.4176L41.2505 10.5447L39.7729 9.19684ZM39.4362 7.84146L37.7097 8.85108L37.722 8.8721L37.7348 8.89282L39.4362 7.84146ZM38.5246 7.02442L37.6943 8.84393L37.7083 8.85028L37.7223 8.85643L38.5246 7.02442ZM36.0839 7.47517L37.4343 8.95046L37.4506 8.9355L37.4666 8.92018L36.0839 7.47517ZM35.45 8.62949L33.4979 8.19451L33.4951 8.20676L33.4926 8.21905L35.45 8.62949ZM35.5427 10.2547L37.5321 10.0495L37.5166 9.89883L37.4786 9.75226L35.5427 10.2547ZM36.0348 11.7024L34.377 12.8212L34.3945 12.8472L34.4129 12.8726L36.0348 11.7024ZM37.0863 12.5282L36.3618 14.3923L36.3738 14.397L36.3858 14.4015L37.0863 12.5282ZM39.7003 12.08L38.3839 10.5743L38.3733 10.5835L38.3629 10.5929L39.7003 12.08ZM40.3787 11.073L40.9188 9.14732L39.0987 8.63681L38.4865 10.4254L40.3787 11.073ZM42.3113 11.6151L44.2687 12.0255L44.6527 10.1946L42.8514 9.68936L42.3113 11.6151ZM41.6885 12.9229L43.2621 14.1573L41.6885 12.9229ZM40.4795 13.9587L39.4689 12.2327L39.457 12.2398L40.4795 13.9587ZM38.8268 14.5578L38.4636 12.5911C37.8337 12.7074 37.3503 12.6529 36.9568 12.5047L36.252 14.3764L35.5473 16.2481C36.7144 16.6876 37.9476 16.754 39.19 16.5246L38.8268 14.5578ZM36.252 14.3764L36.9568 12.5047C36.5129 12.3375 36.1556 12.0789 35.8552 11.7048L34.2957 12.9571L32.7363 14.2093C33.4836 15.14 34.4305 15.8276 35.5473 16.2481L36.252 14.3764ZM34.2957 12.9571L35.8552 11.7048C35.553 11.3285 35.3396 10.8731 35.2328 10.2946L33.2661 10.6579L31.2993 11.0211C31.5177 12.2035 31.9907 13.2809 32.7363 14.2093L34.2957 12.9571ZM33.2661 10.6579L35.2328 10.2946C35.1171 9.66829 35.1613 9.17322 35.2991 8.76341L33.4035 8.12579L31.5079 7.48817C31.1249 8.62668 31.0774 9.81966 31.2993 11.0211L33.2661 10.6579ZM33.4035 8.12579L35.2957 8.77343C35.4572 8.3016 35.7047 7.93324 36.0438 7.63107L34.7132 6.13786L33.3827 4.64465C32.5145 5.41831 31.8887 6.37524 31.5113 7.47815L33.4035 8.12579ZM34.7132 6.13786L36.033 7.64059C36.3622 7.35149 36.7576 7.15449 37.2692 7.06L36.906 5.09326L36.5428 3.12652C35.3604 3.34489 34.2939 3.84429 33.3935 4.63513L34.7132 6.13786ZM36.906 5.09326L37.2692 7.06C37.7698 6.96755 38.1307 6.98586 38.3876 7.04597L38.8432 5.09854L39.2987 3.15111C38.3993 2.94072 37.4687 2.95552 36.5428 3.12652L36.906 5.09326ZM38.8432 5.09854L38.4023 7.04934C38.7328 7.12404 38.992 7.24802 39.2074 7.41009L40.4098 5.81189L41.6122 4.21369C40.9174 3.691 40.1322 3.33941 39.284 3.14774L38.8432 5.09854ZM40.4098 5.81189L39.2074 7.41009C39.4528 7.59476 39.6578 7.82082 39.8275 8.10298L41.5415 7.07231L43.2555 6.04165C42.8263 5.328 42.2769 4.71377 41.6122 4.21369L40.4098 5.81189ZM41.5415 7.07231L39.8347 8.11491C39.9933 8.37445 40.1177 8.69025 40.1906 9.08513L42.1573 8.7219L44.1241 8.35868C43.9706 7.52762 43.6844 6.7437 43.2482 6.02972L41.5415 7.07231ZM42.1573 8.7219L40.1906 9.08513C40.2021 9.14758 40.2114 9.22297 40.2159 9.31299L42.2134 9.21288L44.2109 9.11277C44.1983 8.86022 44.1702 8.60829 44.1241 8.35868L42.1573 8.7219ZM42.2134 9.21288L40.2269 9.44447C40.2285 9.45808 40.2273 9.45504 40.2274 9.4376C40.2276 9.42019 40.229 9.38375 40.2377 9.3322L42.2101 9.66297L44.1826 9.99374C44.2431 9.63301 44.2357 9.28745 44.2 8.98129L42.2134 9.21288ZM42.2101 9.66297L41.8469 7.69623L34.8256 8.99293L35.1888 10.9597L35.5521 12.9264L42.5733 11.6297L42.2101 9.66297ZM35.1888 10.9597L37.1556 10.5965L36.8468 8.92472L34.8801 9.28794L32.9134 9.65117L33.2221 11.3229L35.1888 10.9597ZM34.8801 9.28794L35.2433 11.2547L41.0275 10.1864L40.6643 8.21971L40.3011 6.25297L34.5169 7.3212L34.8801 9.28794ZM40.6643 8.21971L39.1867 6.87182L38.2954 7.84896L39.7729 9.19684L41.2505 10.5447L42.1419 9.56759L40.6643 8.21971ZM39.7729 9.19684L41.7728 9.21801C41.7816 8.38956 41.6055 7.54734 41.1375 6.79009L39.4362 7.84146L37.7348 8.89282C37.7352 8.89351 37.737 8.89639 37.7397 8.90289C37.7424 8.90951 37.747 8.92195 37.752 8.94185C37.7619 8.98188 37.7743 9.05632 37.773 9.17566L39.7729 9.19684ZM39.4362 7.84146L41.1626 6.83183C40.7353 6.10117 40.112 5.53621 39.327 5.1924L38.5246 7.02442L37.7223 8.85643C37.7274 8.85864 37.7271 8.85895 37.7233 8.8565C37.7194 8.854 37.7143 8.85027 37.7091 8.84566C37.704 8.84106 37.7012 8.8377 37.7006 8.83703C37.7002 8.83646 37.7035 8.84047 37.7097 8.85108L39.4362 7.84146ZM38.5246 7.02442L39.3549 5.2049C38.5424 4.83412 37.6867 4.7823 36.8762 4.93199L37.2394 6.89873L37.6027 8.86547C37.6822 8.85078 37.7201 8.85375 37.7255 8.85428C37.7283 8.85456 37.7254 8.85446 37.7182 8.85255C37.711 8.85062 37.7026 8.84769 37.6943 8.84393L38.5246 7.02442ZM37.2394 6.89873L36.8762 4.93199C36.0644 5.08191 35.3166 5.44127 34.7012 6.03017L36.0839 7.47517L37.4666 8.92018C37.478 8.90927 37.5006 8.88433 37.6027 8.86547L37.2394 6.89873ZM36.0839 7.47517L34.7335 5.99989C34.0714 6.60598 33.6802 7.37621 33.4979 8.19451L35.45 8.62949L37.4021 9.06448C37.4195 8.98635 37.4375 8.95101 37.4419 8.94303C37.4451 8.93724 37.4422 8.94324 37.4343 8.95046L36.0839 7.47517ZM35.45 8.62949L33.4926 8.21905C33.3138 9.07155 33.3941 9.93737 33.6068 10.7571L35.5427 10.2547L37.4786 9.75226C37.3716 9.34024 37.3901 9.1226 37.4074 9.03994L35.45 8.62949ZM35.5427 10.2547L33.5533 10.4599C33.6393 11.294 33.893 12.104 34.377 12.8212L36.0348 11.7024L37.6926 10.5835C37.6372 10.5015 37.5628 10.3463 37.5321 10.0495L35.5427 10.2547ZM36.0348 11.7024L34.4129 12.8726C34.9052 13.555 35.5605 14.0809 36.3618 14.3923L37.0863 12.5282L37.8107 10.664C37.7677 10.6473 37.722 10.6227 37.6567 10.5322L36.0348 11.7024ZM37.0863 12.5282L36.3858 14.4015C37.1928 14.7032 38.0313 14.7505 38.8517 14.599L38.4885 12.6322L38.1252 10.6655C37.9426 10.6992 37.8463 10.6771 37.7867 10.6548L37.0863 12.5282ZM38.4885 12.6322L38.8517 14.599C39.6301 14.4552 40.3987 14.1418 41.0378 13.567L39.7003 12.08L38.3629 10.5929C38.3892 10.5693 38.3499 10.624 38.1252 10.6655L38.4885 12.6322ZM39.7003 12.08L41.0167 13.5856C41.5943 13.0807 42.0212 12.4506 42.271 11.7207L40.3787 11.073L38.4865 10.4254C38.4668 10.4828 38.4414 10.524 38.3839 10.5743L39.7003 12.08ZM40.3787 11.073L39.8386 12.9987L41.7712 13.5407L42.3113 11.6151L42.8514 9.68936L40.9188 9.14732L40.3787 11.073ZM42.3113 11.6151L40.3539 11.2046C40.3235 11.3493 40.2572 11.5071 40.1149 11.6885L41.6885 12.9229L43.2621 14.1573C43.7541 13.5301 44.103 12.8159 44.2687 12.0255L42.3113 11.6151ZM41.6885 12.9229L40.1149 11.6885C39.968 11.8758 39.7631 12.0606 39.469 12.2328L40.4795 13.9587L41.49 15.6846C42.1735 15.2844 42.7746 14.7787 43.2621 14.1573L41.6885 12.9229ZM40.4795 13.9587L39.457 12.2398C39.2094 12.3871 38.8876 12.5128 38.4636 12.5911L38.8268 14.5578L39.19 16.5246C40.0142 16.3723 40.7943 16.0986 41.502 15.6776L40.4795 13.9587ZM45.3302 16.6068L43.3635 16.97L43.7267 18.9368L45.6935 18.5735L45.3302 16.6068ZM43.0332 4.16912L42.67 2.20238L40.7033 2.5656L41.0665 4.53234L43.0332 4.16912ZM45.0895 3.78937L47.0562 3.42615L46.693 1.45941L44.7262 1.82263L45.0895 3.78937ZM45.4229 5.59484L43.7732 6.72552L47.3896 5.23162L45.4229 5.59484ZM45.1389 5.18052L43.2847 4.43106L42.8825 5.42601L43.4892 6.31121L45.1389 5.18052ZM46.1995 3.8091L47.4039 5.40577L47.4171 5.39582L47.4302 5.38565L46.1995 3.8091ZM50.419 3.25458L49.7009 5.12123L49.7009 5.12123L50.419 3.25458ZM52.3722 4.65718L50.8361 5.93797L50.8436 5.94703L50.8513 5.95599L52.3722 4.65718ZM53.2781 9.46867L51.3816 8.83353L51.3816 8.83353L53.2781 9.46867ZM51.9578 11.4931L53.2775 12.9958L53.2864 12.9881L53.2952 12.9802L51.9578 11.4931ZM47.8217 12.499L47.2828 14.425L47.3062 14.4316L47.3297 14.4376L47.8217 12.499ZM46.3078 11.603L44.5495 10.6498L43.853 11.9347L44.8655 12.9886L46.3078 11.603ZM46.5786 11.1036L48.5453 10.7403L47.5175 5.17526L44.8203 10.1504L46.5786 11.1036ZM47.5202 16.2023L47.8834 18.1691L49.8502 17.8059L49.487 15.8391L47.5202 16.2023ZM50.3662 9.98916L49.0428 8.48957L49.0428 8.48957L50.3662 9.98916ZM51.0898 8.85284L49.187 8.23715L49.1804 8.25728L49.1744 8.27753L51.0898 8.85284ZM50.5681 6.02762L48.9844 7.24914L49.0044 7.27504L49.0252 7.30026L50.5681 6.02762ZM49.4863 5.22473L48.7471 7.08314L48.7664 7.09081L48.7858 7.09807L49.4863 5.22473ZM46.8418 5.69582L45.5185 4.19623L45.5088 4.20475L45.4993 4.21339L46.8418 5.69582ZM46.1213 6.84886L44.2117 6.25428L44.2087 6.26391L44.2058 6.27356L46.1213 6.84886ZM46.643 9.67409L45.0594 10.8956L45.0723 10.9124L45.0856 10.9288L46.643 9.67409ZM47.7248 10.477L47.0003 12.3411L47.0123 12.3458L47.0244 12.3503L47.7248 10.477ZM45.3302 16.6068L47.297 16.2436L45 3.8059L43.0332 4.16912L41.0665 4.53234L43.3635 16.97L45.3302 16.6068ZM43.0332 4.16912L43.3965 6.13586L45.4527 5.75611L45.0895 3.78937L44.7262 1.82263L42.67 2.20238L43.0332 4.16912ZM45.0895 3.78937L43.1227 4.15259L43.4562 5.95806L45.4229 5.59484L47.3896 5.23162L47.0562 3.42615L45.0895 3.78937ZM45.4229 5.59484L47.0726 4.46415L46.7886 4.04983L45.1389 5.18052L43.4892 6.31121L43.7732 6.72552L45.4229 5.59484ZM45.1389 5.18052L46.9932 5.92998C47.0748 5.72813 47.199 5.56039 47.4039 5.40577L46.1995 3.8091L44.9951 2.21243C44.2289 2.79036 43.6461 3.5369 43.2847 4.43106L45.1389 5.18052ZM46.1995 3.8091L47.4302 5.38565C47.6215 5.23632 47.9033 5.09607 48.3412 5.01521L47.9779 3.04847L47.6147 1.08173C46.6483 1.26021 45.7445 1.62705 44.9688 2.23256L46.1995 3.8091ZM47.9779 3.04847L48.3412 5.01521C48.8588 4.9196 49.2966 4.96569 49.7009 5.12123L50.419 3.25458L51.137 1.38793C50.003 0.951681 48.8133 0.860362 47.6147 1.08173L47.9779 3.04847ZM50.419 3.25458L49.7009 5.12123C50.1487 5.29349 50.5192 5.55792 50.8361 5.93797L52.3722 4.65718L53.9083 3.37639C53.1593 2.47809 52.2276 1.80745 51.137 1.38793L50.419 3.25458ZM52.3722 4.65718L50.8513 5.95599C51.1485 6.30405 51.3623 6.73818 51.4686 7.31346L53.4353 6.95024L55.402 6.58701C55.179 5.37911 54.684 4.28454 53.8931 3.35836L52.3722 4.65718ZM53.4353 6.95024L51.4686 7.31346C51.5736 7.88231 51.5345 8.37683 51.3816 8.83353L53.2781 9.46867L55.1745 10.1038C55.5564 8.96349 55.6222 7.77905 55.402 6.58701L53.4353 6.95024ZM53.2781 9.46867L51.3816 8.83353C51.2213 9.31204 50.9705 9.69111 50.6203 10.0061L51.9578 11.4931L53.2952 12.9802C54.1705 12.1929 54.7999 11.2223 55.1745 10.1038L53.2781 9.46867ZM51.9578 11.4931L50.638 9.99039C50.3195 10.2701 49.9117 10.4768 49.3516 10.5802L49.7149 12.547L50.0781 14.5137C51.2789 14.2919 52.3664 13.7961 53.2775 12.9958L51.9578 11.4931ZM49.7149 12.547L49.3516 10.5802C48.9571 10.6531 48.6187 10.6379 48.3136 10.5605L47.8217 12.499L47.3297 14.4376C48.2338 14.667 49.1576 14.6837 50.0781 14.5137L49.7149 12.547ZM47.8217 12.499L48.3606 10.573C48.0963 10.499 47.9073 10.3812 47.75 10.2175L46.3078 11.603L44.8655 12.9886C45.5357 13.6863 46.356 14.1657 47.2828 14.425L47.8217 12.499ZM46.3078 11.603L48.066 12.5563L48.3368 12.0568L46.5786 11.1036L44.8203 10.1504L44.5495 10.6498L46.3078 11.603ZM46.5786 11.1036L44.6118 11.4668L45.5535 16.5656L47.5202 16.2023L49.487 15.8391L48.5453 10.7403L46.5786 11.1036ZM47.5202 16.2023L47.157 14.2356L44.967 14.64L45.3302 16.6068L45.6935 18.5735L47.8834 18.1691L47.5202 16.2023ZM49.0936 10.5872L49.4568 12.554C50.2772 12.4025 51.0435 12.0588 51.6895 11.4888L50.3662 9.98916L49.0428 8.48957C48.9951 8.53169 48.9131 8.58674 48.7304 8.62047L49.0936 10.5872ZM50.3662 9.98916L51.6895 11.4888C52.3216 10.9309 52.7645 10.2297 53.0053 9.42814L51.0898 8.85284L49.1744 8.27753C49.1439 8.37889 49.1044 8.43524 49.0428 8.48957L50.3662 9.98916ZM51.0898 8.85284L52.9927 9.46853C53.2553 8.65684 53.279 7.82178 53.1285 7.0069L51.1617 7.37012L49.195 7.73334C49.2421 7.98837 49.2178 8.14179 49.187 8.23715L51.0898 8.85284ZM51.1617 7.37012L53.1285 7.0069C52.9782 6.19341 52.6576 5.41769 52.1109 4.75497L50.5681 6.02762L49.0252 7.30026C49.0725 7.35764 49.1476 7.47693 49.195 7.73334L51.1617 7.37012ZM50.5681 6.02762L52.1517 4.80609C51.6405 4.14338 50.9764 3.64664 50.1867 3.35139L49.4863 5.22473L48.7858 7.09807C48.8627 7.12683 48.9198 7.16535 48.9844 7.24914L50.5681 6.02762ZM49.4863 5.22473L50.2254 3.36632C49.4093 3.04174 48.5555 2.98248 47.7177 3.1372L48.0809 5.10394L48.4442 7.07068C48.6094 7.04017 48.6925 7.06143 48.7471 7.08314L49.4863 5.22473ZM48.0809 5.10394L47.7177 3.1372C46.9019 3.28787 46.1519 3.63727 45.5185 4.19623L46.8418 5.69582L48.1652 7.19541C48.2255 7.14222 48.3015 7.09703 48.4442 7.07068L48.0809 5.10394ZM46.8418 5.69582L45.4993 4.21339C44.8789 4.77525 44.4544 5.47466 44.2117 6.25428L46.1213 6.84886L48.0308 7.44344C48.0774 7.29372 48.1334 7.22444 48.1844 7.17825L46.8418 5.69582ZM46.1213 6.84886L44.2058 6.27356C43.9675 7.06693 43.9494 7.87973 44.0962 8.675L46.063 8.31178L48.0297 7.94855C47.9831 7.6962 48.0038 7.53373 48.0367 7.42417L46.1213 6.84886ZM46.063 8.31178L44.0962 8.675C44.2438 9.47413 44.5495 10.2345 45.0594 10.8956L46.643 9.67409L48.2267 8.45256C48.1607 8.36712 48.0797 8.21933 48.0297 7.94855L46.063 8.31178ZM46.643 9.67409L45.0856 10.9288C45.5922 11.5577 46.2347 12.0436 47.0003 12.3411L47.7248 10.477L48.4493 8.6128C48.3707 8.58224 48.2919 8.53288 48.2005 8.41934L46.643 9.67409ZM47.7248 10.477L47.0244 12.3503C47.8157 12.6462 48.641 12.7046 49.4568 12.554L49.0936 10.5872L48.7304 8.62047C48.5877 8.64682 48.5006 8.63178 48.4252 8.60363L47.7248 10.477ZM9.10487 41.1946L7.13813 41.5578L7.50136 43.5246L9.4681 43.1614L9.10487 41.1946ZM6.80477 28.7402L6.44154 26.7735L4.4748 27.1367L4.83803 29.1034L6.80477 28.7402ZM14.2406 27.8164L13.686 29.738L13.708 29.7443L13.7301 29.7502L14.2406 27.8164ZM15.817 28.77L14.3133 30.0886L14.3299 30.1076L14.347 30.1261L15.817 28.77ZM16.4759 32.2441L14.6141 31.5134L14.6097 31.525L16.4759 32.2441ZM15.2469 33.7331L13.2802 34.0963L13.8592 37.2313L16.4298 35.3458L15.2469 33.7331ZM15.0524 32.6799L15.4146 30.7129L12.5582 30.1869L13.0857 33.0431L15.0524 32.6799ZM16.6674 33.2806L15.5598 34.9459L16.6674 33.2806ZM17.6327 34.2951L19.376 33.3149L19.376 33.3149L17.6327 34.2951ZM17.4287 38.6201L18.9845 39.877L18.9859 39.8752L17.4287 38.6201ZM11.0079 38.7686L9.0412 39.1319L9.40442 41.0986L11.3712 40.7354L11.0079 38.7686ZM15.5324 37.4317L17.1412 38.6198L17.1425 38.6181L15.5324 37.4317ZM15.0446 34.7904L13.9379 36.4563L13.9511 36.4651L13.9644 36.4736L15.0446 34.7904ZM10.338 35.141L9.97475 33.1743L8.00801 33.5375L8.37123 35.5042L10.338 35.141ZM9.97058 33.1516L8.00383 33.5149L8.36706 35.4816L10.3338 35.1184L9.97058 33.1516ZM14.1092 31.9724L15.7333 33.1396L15.7452 33.1231L15.7568 33.1063L14.1092 31.9724ZM13.7202 29.866L12.6559 31.5593L12.6559 31.5593L13.7202 29.866ZM9.43646 30.2595L9.07323 28.2928L7.10649 28.656L7.46972 30.6228L9.43646 30.2595ZM9.10487 41.1946L11.0716 40.8314L8.77151 28.377L6.80477 28.7402L4.83803 29.1034L7.13813 41.5578L9.10487 41.1946ZM6.80477 28.7402L7.16799 30.707L12.4172 29.7375L12.054 27.7708L11.6908 25.804L6.44154 26.7735L6.80477 28.7402ZM12.054 27.7708L12.4172 29.7375C13.0175 29.6267 13.4213 29.6616 13.686 29.738L14.2406 27.8164L14.7953 25.8949C13.7939 25.6058 12.7399 25.6103 11.6908 25.804L12.054 27.7708ZM14.2406 27.8164L13.7301 29.7502C14.0161 29.8257 14.1859 29.9434 14.3133 30.0886L15.817 28.77L17.3208 27.4514C16.6306 26.6643 15.7495 26.1462 14.7512 25.8827L14.2406 27.8164ZM15.817 28.77L14.347 30.1261C14.459 30.2475 14.5989 30.4719 14.6809 30.916L16.6476 30.5528L18.6144 30.1896C18.4247 29.1626 18.0108 28.1984 17.2871 27.4139L15.817 28.77ZM16.6476 30.5528L14.6809 30.916C14.7153 31.1023 14.7028 31.2877 14.6142 31.5135L16.4759 32.2441L18.3377 32.9747C18.688 32.0822 18.7899 31.1401 18.6144 30.1896L16.6476 30.5528ZM16.4759 32.2441L14.6097 31.525C14.5717 31.6236 14.453 31.835 14.064 32.1204L15.2469 33.7331L16.4298 35.3458C17.2588 34.7377 17.9595 33.9565 18.3422 32.9632L16.4759 32.2441ZM15.2469 33.7331L17.2137 33.3698L17.0191 32.3167L15.0524 32.6799L13.0857 33.0431L13.2802 34.0963L15.2469 33.7331ZM15.0524 32.6799L14.6902 34.6468C15.1614 34.7336 15.4247 34.8561 15.5598 34.9459L16.6674 33.2806L17.7749 31.6153C17.0691 31.1458 16.2558 30.8679 15.4146 30.7129L15.0524 32.6799ZM16.6674 33.2806L15.5598 34.9459C15.7464 35.07 15.8374 35.183 15.8894 35.2754L17.6327 34.2951L19.376 33.3149C18.9817 32.6138 18.4292 32.0504 17.7749 31.6153L16.6674 33.2806ZM17.6327 34.2951L15.8894 35.2754C15.9996 35.4715 16.0819 35.6941 16.1302 35.9556L18.097 35.5924L20.0637 35.2292C19.9391 34.5545 19.7119 33.9123 19.376 33.3149L17.6327 34.2951ZM18.097 35.5924L16.1302 35.9556C16.2615 36.6662 16.1169 37.0607 15.8716 37.365L17.4287 38.6201L18.9859 39.8752C20.0721 38.5276 20.373 36.9036 20.0637 35.2292L18.097 35.5924ZM17.4287 38.6201L15.873 37.3632C15.6086 37.6905 15.0823 38.0569 13.9909 38.2584L14.3541 40.2252L14.7173 42.1919C16.4122 41.8789 17.9356 41.1752 18.9845 39.877L17.4287 38.6201ZM14.3541 40.2252L13.9909 38.2584L8.74165 39.2279L9.10487 41.1946L9.4681 43.1614L14.7173 42.1919L14.3541 40.2252ZM11.0079 38.7686L11.3712 40.7354L14.5809 40.1426L14.2177 38.1759L13.8544 36.2091L10.6447 36.8019L11.0079 38.7686ZM14.2177 38.1759L14.5809 40.1426C15.5408 39.9653 16.4839 39.51 17.1412 38.6198L15.5324 37.4317L13.9235 36.2436C13.9373 36.225 13.9536 36.2073 13.9707 36.1923C13.9875 36.1775 14.0002 36.1698 14.0042 36.1675C14.0116 36.1633 13.9723 36.1874 13.8544 36.2091L14.2177 38.1759ZM15.5324 37.4317L17.1425 38.6181C17.8055 37.7184 17.9784 36.6684 17.7902 35.649L15.8234 36.0123L13.8567 36.3755C13.8673 36.433 13.8567 36.4254 13.8671 36.375C13.872 36.3511 13.8802 36.3248 13.8917 36.2991C13.9032 36.2735 13.9148 36.2554 13.9223 36.2453L15.5324 37.4317ZM15.8234 36.0123L17.7902 35.649C17.6019 34.6297 17.0653 33.7108 16.1247 33.1072L15.0446 34.7904L13.9644 36.4736C13.9539 36.4669 13.9365 36.4541 13.9167 36.4343C13.8967 36.4144 13.8797 36.3928 13.8666 36.3723C13.8389 36.3289 13.8461 36.318 13.8567 36.3755L15.8234 36.0123ZM15.0446 34.7904L16.1513 33.1245C15.2174 32.5041 14.1623 32.4009 13.1845 32.5815L13.5477 34.5482L13.9109 36.515C14.0222 36.4944 14.0604 36.5037 14.0455 36.5013C14.0378 36.5 14.0212 36.4965 13.9991 36.4879C13.9768 36.4792 13.9557 36.4681 13.9379 36.4563L15.0446 34.7904ZM13.5477 34.5482L13.1845 32.5815L9.97475 33.1743L10.338 35.141L10.7012 37.1077L13.9109 36.515L13.5477 34.5482ZM10.338 35.141L8.37123 35.5042L9.0412 39.1319L11.0079 38.7686L12.9747 38.4054L12.3047 34.7778L10.338 35.141ZM9.97058 33.1516L10.3338 35.1184L13.4265 34.5472L13.0633 32.5805L12.7001 30.6137L9.60735 31.1849L9.97058 33.1516ZM13.0633 32.5805L13.4265 34.5472C14.2882 34.3881 15.1412 33.9634 15.7333 33.1396L14.1092 31.9724L12.4852 30.8052C12.5395 30.7296 12.6081 30.6709 12.6706 30.6346C12.7273 30.6016 12.7478 30.6049 12.7001 30.6137L13.0633 32.5805ZM14.1092 31.9724L15.7568 33.1063C16.3171 32.2921 16.462 31.3593 16.2963 30.4621L14.3296 30.8253L12.3628 31.1885C12.3638 31.1938 12.3544 31.1449 12.3706 31.0608C12.3875 30.9726 12.4233 30.8943 12.4617 30.8385L14.1092 31.9724ZM14.3296 30.8253L16.2963 30.4621C16.131 29.5669 15.656 28.7205 14.7845 28.1727L13.7202 29.866L12.6559 31.5593C12.5717 31.5064 12.4892 31.4269 12.4288 31.3319C12.372 31.2425 12.3616 31.1818 12.3628 31.1885L14.3296 30.8253ZM13.7202 29.866L14.7845 28.1727C13.9393 27.6415 13.0053 27.5666 12.1659 27.7216L12.5292 29.6884L12.8924 31.6551C12.9484 31.6448 12.9393 31.6545 12.883 31.6461C12.82 31.6367 12.7369 31.6102 12.6559 31.5593L13.7202 29.866ZM12.5292 29.6884L12.1659 27.7216L9.07323 28.2928L9.43646 30.2595L9.79968 32.2263L12.8924 31.6551L12.5292 29.6884ZM9.43646 30.2595L7.46972 30.6228L8.00383 33.5149L9.97058 33.1516L11.9373 32.7884L11.4032 29.8963L9.43646 30.2595ZM22.2548 38.3166L21.55 40.1883L22.2548 38.3166ZM20.2985 36.8973L21.8579 35.645L20.2985 36.8973ZM19.4062 32.066L17.514 31.4183L17.5106 31.4283L19.4062 32.066ZM20.716 30.078L19.3962 28.5753L19.3908 28.58L19.3854 28.5848L20.716 30.078ZM24.8459 29.0387L24.3904 30.9861L24.3977 30.9879L24.405 30.9895L24.8459 29.0387ZM26.4125 29.7521L25.2101 31.3503L25.2101 31.3503L26.4125 29.7521ZM27.5442 31.0125L25.8302 32.0432L25.8375 32.0551L27.5442 31.0125ZM28.2162 33.1531L26.2187 33.2532L26.222 33.3191L26.2296 33.3847L28.2162 33.1531ZM28.2128 33.6031L28.5761 35.5699L29.9536 35.3155L30.1853 33.9339L28.2128 33.6031ZM21.1916 34.8999L19.2248 35.2631L19.5881 37.2298L21.5548 36.8666L21.1916 34.8999ZM20.8828 33.2281L20.5196 31.2614L18.5529 31.6246L18.9161 33.5913L20.8828 33.2281ZM26.667 32.1599L28.1446 33.5078L32.1539 29.1127L26.3038 30.1931L26.667 32.1599ZM25.7757 33.137L23.7758 33.1158L23.7203 38.3578L27.2532 34.4849L25.7757 33.137ZM25.4389 31.7816L23.7124 32.7913L23.7247 32.8123L23.7375 32.833L25.4389 31.7816ZM24.5274 30.9646L23.6971 32.7841L23.711 32.7905L23.725 32.7966L24.5274 30.9646ZM22.0866 31.4153L23.437 32.8906L23.4534 32.8757L23.4694 32.8604L22.0866 31.4153ZM21.4527 32.5697L19.5006 32.1347L19.4979 32.1469L19.4953 32.1592L21.4527 32.5697ZM21.5454 34.1949L23.5349 33.9896L23.5193 33.839L23.4813 33.6924L21.5454 34.1949ZM22.0375 35.6426L20.3798 36.7614L20.3973 36.7874L20.4156 36.8128L22.0375 35.6426ZM23.089 36.4683L22.3645 38.3325L22.3765 38.3372L22.3886 38.3417L23.089 36.4683ZM25.7031 36.0201L24.3866 34.5145L24.3761 34.5237L24.3656 34.5331L25.7031 36.0201ZM26.3815 35.0132L26.9216 33.0875L25.1014 32.577L24.4892 34.3656L26.3815 35.0132ZM28.314 35.5552L30.2715 35.9657L30.6554 34.1347L28.8541 33.6295L28.314 35.5552ZM27.6912 36.8631L29.2648 38.0975L27.6912 36.8631ZM26.4822 37.8989L25.4717 36.1729L25.4597 36.18L26.4822 37.8989ZM24.8295 38.498L24.4663 36.5312C23.8364 36.6476 23.3531 36.593 22.9596 36.4449L22.2548 38.3166L21.55 40.1883C22.7172 40.6278 23.9503 40.6942 25.1928 40.4647L24.8295 38.498ZM22.2548 38.3166L22.9596 36.4449C22.5156 36.2777 22.1583 36.0191 21.8579 35.645L20.2985 36.8973L18.739 38.1495C19.4864 39.0802 20.4332 39.7678 21.55 40.1883L22.2548 38.3166ZM20.2985 36.8973L21.8579 35.645C21.5558 35.2687 21.3424 34.8133 21.2355 34.2348L19.2688 34.598L17.302 34.9613C17.5204 36.1437 17.9935 37.2211 18.739 38.1495L20.2985 36.8973ZM19.2688 34.598L21.2355 34.2348C21.1199 33.6085 21.164 33.1134 21.3019 32.7036L19.4062 32.066L17.5106 31.4283C17.1276 32.5669 17.0802 33.7598 17.302 34.9613L19.2688 34.598ZM19.4062 32.066L21.2985 32.7136C21.4599 32.2418 21.7074 31.8734 22.0465 31.5712L20.716 30.078L19.3854 28.5848C18.5172 29.3585 17.8915 30.3154 17.514 31.4183L19.4062 32.066ZM20.716 30.078L22.0357 31.5808C22.3649 31.2917 22.7603 31.0947 23.2719 31.0002L22.9087 29.0334L22.5455 27.0667C21.3631 27.2851 20.2967 27.7845 19.3962 28.5753L20.716 30.078ZM22.9087 29.0334L23.2719 31.0002C23.7725 30.9077 24.1334 30.926 24.3904 30.9861L24.8459 29.0387L25.3014 27.0913C24.402 26.8809 23.4714 26.8957 22.5455 27.0667L22.9087 29.0334ZM24.8459 29.0387L24.405 30.9895C24.7355 31.0642 24.9947 31.1882 25.2101 31.3503L26.4125 29.7521L27.6149 28.1539C26.9202 27.6312 26.1349 27.2796 25.2868 27.0879L24.8459 29.0387ZM26.4125 29.7521L25.2101 31.3503C25.4556 31.5349 25.6606 31.761 25.8302 32.0432L27.5442 31.0125L29.2582 29.9818C28.8291 29.2682 28.2796 28.6539 27.6149 28.1539L26.4125 29.7521ZM27.5442 31.0125L25.8375 32.0551C25.996 32.3146 26.1204 32.6304 26.1933 33.0253L28.1601 32.6621L30.1268 32.2989C29.9733 31.4678 29.6871 30.6839 29.251 29.9699L27.5442 31.0125ZM28.1601 32.6621L26.1933 33.0253C26.2048 33.0878 26.2142 33.1631 26.2187 33.2532L28.2162 33.1531L30.2136 33.0529C30.201 32.8004 30.1729 32.5485 30.1268 32.2989L28.1601 32.6621ZM28.2162 33.1531L26.2296 33.3847C26.2312 33.3983 26.23 33.3952 26.2302 33.3778C26.2303 33.3604 26.2317 33.3239 26.2404 33.2724L28.2128 33.6031L30.1853 33.9339C30.2458 33.5732 30.2384 33.2276 30.2027 32.9215L28.2162 33.1531ZM28.2128 33.6031L27.8496 31.6364L20.8284 32.9331L21.1916 34.8999L21.5548 36.8666L28.5761 35.5699L28.2128 33.6031ZM21.1916 34.8999L23.1583 34.5366L22.8496 32.8649L20.8828 33.2281L18.9161 33.5913L19.2248 35.2631L21.1916 34.8999ZM20.8828 33.2281L21.2461 35.1949L27.0302 34.1266L26.667 32.1599L26.3038 30.1931L20.5196 31.2614L20.8828 33.2281ZM26.667 32.1599L25.1895 30.812L24.2981 31.7891L25.7757 33.137L27.2532 34.4849L28.1446 33.5078L26.667 32.1599ZM25.7757 33.137L27.7755 33.1582C27.7843 32.3297 27.6082 31.4875 27.1403 30.7303L25.4389 31.7816L23.7375 32.833C23.738 32.8337 23.7397 32.8366 23.7424 32.8431C23.7452 32.8497 23.7498 32.8621 23.7547 32.882C23.7646 32.9221 23.777 32.9965 23.7758 33.1158L25.7757 33.137ZM25.4389 31.7816L27.1654 30.772C26.7381 30.0413 26.1147 29.4764 25.3297 29.1326L24.5274 30.9646L23.725 32.7966C23.7301 32.7988 23.7298 32.7991 23.726 32.7967C23.7221 32.7942 23.717 32.7904 23.7119 32.7858C23.7068 32.7812 23.7039 32.7779 23.7034 32.7772C23.7029 32.7766 23.7062 32.7807 23.7124 32.7913L25.4389 31.7816ZM24.5274 30.9646L25.3577 29.1451C24.5451 28.7743 23.6895 28.7225 22.8789 28.8722L23.2422 30.8389L23.6054 32.8056C23.6849 32.791 23.7229 32.7939 23.7282 32.7945C23.7311 32.7947 23.7282 32.7946 23.721 32.7927C23.7137 32.7908 23.7053 32.7879 23.6971 32.7841L24.5274 30.9646ZM23.2422 30.8389L22.8789 28.8722C22.0672 29.0221 21.3193 29.3814 20.7039 29.9703L22.0866 31.4153L23.4694 32.8604C23.4808 32.8494 23.5033 32.8245 23.6054 32.8056L23.2422 30.8389ZM22.0866 31.4153L20.7363 29.9401C20.0741 30.5462 19.6829 31.3164 19.5006 32.1347L21.4527 32.5697L23.4049 33.0047C23.4223 32.9265 23.4402 32.8912 23.4446 32.8832C23.4478 32.8774 23.4449 32.8834 23.437 32.8906L22.0866 31.4153ZM21.4527 32.5697L19.4953 32.1592C19.3165 33.0117 19.3968 33.8775 19.6096 34.6973L21.5454 34.1949L23.4813 33.6924C23.3744 33.2804 23.3928 33.0628 23.4102 32.9801L21.4527 32.5697ZM21.5454 34.1949L19.556 34.4001C19.642 35.2342 19.8957 36.0442 20.3798 36.7614L22.0375 35.6426L23.6953 34.5237C23.6399 34.4416 23.5655 34.2865 23.5349 33.9896L21.5454 34.1949ZM22.0375 35.6426L20.4156 36.8128C20.9079 37.4951 21.5633 38.0211 22.3645 38.3325L23.089 36.4683L23.8135 34.6042C23.7704 34.5874 23.7248 34.5629 23.6595 34.4724L22.0375 35.6426ZM23.089 36.4683L22.3886 38.3417C23.1955 38.6434 24.0341 38.6907 24.8544 38.5392L24.4912 36.5724L24.128 34.6057C23.9453 34.6394 23.849 34.6173 23.7894 34.595L23.089 36.4683ZM24.4912 36.5724L24.8544 38.5392C25.6328 38.3954 26.4014 38.082 27.0405 37.5072L25.7031 36.0201L24.3656 34.5331C24.3919 34.5094 24.3527 34.5642 24.128 34.6057L24.4912 36.5724ZM25.7031 36.0201L27.0195 37.5258C27.597 37.0209 28.0239 36.3907 28.2737 35.6608L26.3815 35.0132L24.4892 34.3656C24.4696 34.423 24.4442 34.4642 24.3866 34.5145L25.7031 36.0201ZM26.3815 35.0132L25.8414 36.9389L27.7739 37.4809L28.314 35.5552L28.8541 33.6295L26.9216 33.0875L26.3815 35.0132ZM28.314 35.5552L26.3566 35.1448C26.3263 35.2895 26.2599 35.4472 26.1176 35.6287L27.6912 36.8631L29.2648 38.0975C29.7568 37.4703 30.1057 36.7561 30.2715 35.9657L28.314 35.5552ZM27.6912 36.8631L26.1176 35.6287C25.9707 35.816 25.7658 36.0007 25.4717 36.173L26.4822 37.8989L27.4927 39.6248C28.1763 39.2246 28.7774 38.7189 29.2648 38.0975L27.6912 36.8631ZM26.4822 37.8989L25.4597 36.18C25.2121 36.3273 24.8904 36.4529 24.4663 36.5312L24.8295 38.498L25.1928 40.4647C26.0169 40.3125 26.797 40.0387 27.5047 39.6178L26.4822 37.8989ZM30.7155 37.2035L28.7488 37.5667L29.112 39.5335L31.0787 39.1702L30.7155 37.2035ZM29.036 28.1093L28.6727 26.1426L26.706 26.5058L27.0692 28.4725L29.036 28.1093ZM31.0922 27.7295L33.0589 27.3663L32.6957 25.3996L30.729 25.7628L31.0922 27.7295ZM31.4658 29.7523L29.9229 31.025L34.8342 36.979L33.4325 29.3891L31.4658 29.7523ZM31.243 29.4823L29.2572 29.2442L29.1553 30.0944L29.7002 30.7549L31.243 29.4823ZM31.9669 27.8792L30.6599 26.3653L30.6517 26.3724L30.6436 26.3796L31.9669 27.8792ZM34.0661 27.0766L36.0328 26.7134L35.6696 24.7466L33.7028 25.1099L34.0661 27.0766ZM34.4242 29.0158L34.7874 30.9825L36.7542 30.6193L36.3909 28.6526L34.4242 29.0158ZM32.242 30.0239L33.8895 31.1577L33.8977 31.1458L33.9058 31.1338L32.242 30.0239ZM32.9055 36.7991L33.2687 38.7658L35.2354 38.4026L34.8722 36.4358L32.9055 36.7991ZM30.7155 37.2035L32.6822 36.8403L31.0027 27.7461L29.036 28.1093L27.0692 28.4725L28.7488 37.5667L30.7155 37.2035ZM29.036 28.1093L29.3992 30.076L31.4554 29.6963L31.0922 27.7295L30.729 25.7628L28.6727 26.1426L29.036 28.1093ZM31.0922 27.7295L29.1255 28.0928L29.499 30.1156L31.4658 29.7523L33.4325 29.3891L33.0589 27.3663L31.0922 27.7295ZM31.4658 29.7523L33.0086 28.4797L32.7859 28.2097L31.243 29.4823L29.7002 30.7549L29.9229 31.025L31.4658 29.7523ZM31.243 29.4823L33.2288 29.7204C33.2531 29.5175 33.2916 29.4094 33.3114 29.3654C33.3282 29.3282 33.3267 29.3466 33.2903 29.3788L31.9669 27.8792L30.6436 26.3796C29.7619 27.1577 29.3802 28.219 29.2572 29.2442L31.243 29.4823ZM31.9669 27.8792L33.2739 29.393C33.3635 29.3157 33.5384 29.2079 33.8943 29.1421L33.5311 27.1754L33.1679 25.2087C32.2533 25.3776 31.3854 25.739 30.6599 26.3653L31.9669 27.8792ZM33.5311 27.1754L33.8943 29.1421L34.4293 29.0433L34.0661 27.0766L33.7028 25.1099L33.1679 25.2087L33.5311 27.1754ZM34.0661 27.0766L32.0993 27.4398L32.4575 29.379L34.4242 29.0158L36.3909 28.6526L36.0328 26.7134L34.0661 27.0766ZM34.4242 29.0158L34.061 27.0491L33.2753 27.1942L33.6385 29.1609L34.0017 31.1277L34.7874 30.9825L34.4242 29.0158ZM33.6385 29.1609L33.2753 27.1942C32.2052 27.3918 31.2301 27.9368 30.5782 28.914L32.242 30.0239L33.9058 31.1338C33.906 31.1334 33.905 31.1349 33.9026 31.1378C33.9002 31.1407 33.897 31.1443 33.893 31.1482C33.8843 31.1566 33.8765 31.1621 33.8726 31.1645C33.8636 31.1701 33.8951 31.1473 34.0017 31.1277L33.6385 29.1609ZM32.242 30.0239L30.5945 28.89C29.9046 29.8924 29.8084 31.0421 30.0033 32.0969L31.97 31.7337L33.9367 31.3705C33.9055 31.2016 33.9147 31.1197 33.9174 31.1022C33.9187 31.0944 33.9186 31.0996 33.9131 31.1135C33.9075 31.1279 33.8993 31.1435 33.8895 31.1577L32.242 30.0239ZM31.97 31.7337L30.0033 32.0969L30.9387 37.1623L32.9055 36.7991L34.8722 36.4358L33.9367 31.3705L31.97 31.7337ZM32.9055 36.7991L32.5422 34.8323L30.3523 35.2368L30.7155 37.2035L31.0787 39.1702L33.2687 38.7658L32.9055 36.7991ZM40.11 38.926L40.477 36.96L40.477 36.96L40.11 38.926ZM38.4325 38.2677L39.5214 36.5901L39.5202 36.5893L38.4325 38.2677ZM37.2735 37.0469L36.2398 35.3348L34.5619 36.3478L35.5409 38.0459L37.2735 37.0469ZM39.171 35.9012L40.9371 34.9626L39.9457 33.0972L38.1373 34.1891L39.171 35.9012ZM40.1451 36.7759L40.9338 34.9379L40.9216 34.9328L40.1451 36.7759ZM42.8142 36.4385L41.6306 34.8264L41.6201 34.834L41.6097 34.8419L42.8142 36.4385ZM43.4808 35.5548L41.6111 34.8446L41.6056 34.859L41.6004 34.8735L43.4808 35.5548ZM43.1722 32.2926L44.4505 30.7545L40.2022 27.2236L41.2054 32.6558L43.1722 32.2926ZM43.6827 32.7169L45.5705 33.3773L46.0291 32.0665L44.9611 31.1788L43.6827 32.7169ZM42.6574 34.1855L43.9017 35.7513L42.6574 34.1855ZM38.5642 34.7686L37.887 36.6504L38.5642 34.7686ZM36.6964 33.454L38.2375 32.1792L36.6964 33.454ZM35.8505 28.8734L37.7406 29.527L35.8505 28.8734ZM37.115 27.0149L38.4117 28.5375L38.4213 28.5294L38.4308 28.521L37.115 27.0149ZM41.116 26.1203L40.4645 28.0112L40.4887 28.0196L40.5131 28.0273L41.116 26.1203ZM42.6454 27.0999L44.5459 27.7228L44.9162 26.5929L44.1004 25.7278L42.6454 27.0999ZM42.4463 27.7071L40.4796 28.0704L44.3469 28.33L42.4463 27.7071ZM42.0758 25.7011L41.7126 23.7343L39.7459 24.0975L40.1091 26.0643L42.0758 25.7011ZM44.1488 25.3182L46.1155 24.955L45.7523 22.9883L43.7856 23.3515L44.1488 25.3182ZM45.552 36.1922L43.6917 35.4579L43.6869 35.4699L43.6823 35.482L45.552 36.1922ZM44.2522 37.9536L43.0062 36.3891L42.9953 36.3979L44.2522 37.9536ZM42.0045 32.3353L43.3062 33.8538L43.3136 33.8474L43.3209 33.841L42.0045 32.3353ZM42.6798 31.3117L44.5804 31.9346L42.6798 31.3117ZM42.1969 28.7904L40.6287 30.0317L40.6507 30.0595L40.6737 30.0866L42.1969 28.7904ZM41.1974 28.0588L40.4794 29.9254L40.4925 29.9305L40.5057 29.9353L41.1974 28.0588ZM38.7567 28.5096L37.4606 26.9864L37.4606 26.9864L38.7567 28.5096ZM38.051 29.5561L36.157 28.9138L36.1537 28.9235L36.1505 28.9332L38.051 29.5561ZM38.5141 32.0637L36.9615 33.3244L36.976 33.3423L36.991 33.3598L38.5141 32.0637ZM39.5273 32.7756L38.8355 34.6521L38.8481 34.6567L38.8607 34.6612L39.5273 32.7756ZM42.0608 38.9115L41.6975 36.9447C41.2362 37.03 40.8344 37.0267 40.477 36.96L40.11 38.926L39.7429 40.892C40.6269 41.0571 41.5257 41.0441 42.424 40.8782L42.0608 38.9115ZM40.11 38.926L40.477 36.96C40.0967 36.889 39.7857 36.7617 39.5214 36.5901L38.4325 38.2677L37.3436 39.9453C38.0745 40.4197 38.8818 40.7313 39.7429 40.8921L40.11 38.926ZM38.4325 38.2677L39.5202 36.5893C39.3015 36.4476 39.1362 36.2735 39.0062 36.0479L37.2735 37.0469L35.5409 38.0459C35.9873 38.8202 36.5947 39.46 37.3448 39.9461L38.4325 38.2677ZM37.2735 37.0469L38.3073 38.759L40.2047 37.6134L39.171 35.9012L38.1373 34.1891L36.2398 35.3348L37.2735 37.0469ZM39.171 35.9012L37.4049 36.8398C37.8444 37.6668 38.5304 38.2658 39.3685 38.619L40.1451 36.7759L40.9216 34.9328C40.9047 34.9257 40.8975 34.9212 40.8974 34.9211C40.8972 34.921 40.8985 34.9218 40.9008 34.9235C40.9031 34.9252 40.9062 34.9277 40.9097 34.9309C40.9173 34.9377 40.9244 34.9453 40.9302 34.9528C40.9359 34.9602 40.9379 34.9642 40.9371 34.9626L39.171 35.9012ZM40.1451 36.7759L39.3563 38.6138C40.2376 38.992 41.1652 39.0362 42.0535 38.8721L41.6903 36.9054L41.3271 34.9387C41.0563 34.9887 40.9538 34.9466 40.9338 34.938L40.1451 36.7759ZM41.6903 36.9054L42.0535 38.8721C42.7463 38.7442 43.4239 38.4838 44.0186 38.0352L42.8142 36.4385L41.6097 34.8419C41.5975 34.8511 41.5258 34.902 41.3271 34.9387L41.6903 36.9054ZM42.8142 36.4385L43.9978 38.0507C44.6234 37.5914 45.093 36.9763 45.3611 36.236L43.4808 35.5548L41.6004 34.8735C41.6003 34.8736 41.6007 34.8725 41.6016 34.8705C41.6025 34.8685 41.6039 34.8657 41.6057 34.8623C41.6095 34.8553 41.6144 34.8475 41.6201 34.84C41.6257 34.8325 41.6307 34.8272 41.6336 34.8243C41.6366 34.8214 41.6361 34.8223 41.6306 34.8264L42.8142 36.4385ZM43.4808 35.5548L45.3504 36.265C45.6382 35.5073 45.6559 34.7284 45.5217 34.0023L43.555 34.3655L41.5883 34.7287C41.6038 34.813 41.6029 34.8586 41.6021 34.8725C41.6013 34.8843 41.6009 34.8715 41.6111 34.8446L43.4808 35.5548ZM43.555 34.3655L45.5217 34.0023L45.1389 31.9293L43.1722 32.2926L41.2054 32.6558L41.5883 34.7287L43.555 34.3655ZM43.1722 32.2926L41.8938 33.8307L42.4044 34.255L43.6827 32.7169L44.9611 31.1788L44.4505 30.7545L43.1722 32.2926ZM43.6827 32.7169L41.7949 32.0565C41.7006 32.3261 41.5717 32.4937 41.4131 32.6197L42.6574 34.1855L43.9017 35.7513C44.6878 35.1266 45.2425 34.3151 45.5705 33.3773L43.6827 32.7169ZM42.6574 34.1855L41.4131 32.6197C41.2283 32.7666 40.9707 32.8954 40.5826 32.9671L40.9458 34.9338L41.3091 36.9006C42.2584 36.7252 43.1418 36.3552 43.9017 35.7513L42.6574 34.1855ZM40.9458 34.9338L40.5826 32.9671C40.0501 33.0654 39.6181 33.0223 39.2415 32.8868L38.5642 34.7686L37.887 36.6504C38.9918 37.048 40.1476 37.1151 41.3091 36.9006L40.9458 34.9338ZM38.5642 34.7686L39.2415 32.8868C38.8398 32.7422 38.5149 32.5145 38.2375 32.1792L36.6964 33.454L35.1553 34.7287C35.8869 35.6131 36.8072 36.2619 37.887 36.6504L38.5642 34.7686ZM36.6964 33.454L38.2375 32.1792C37.9691 31.8548 37.7719 31.4477 37.6718 30.9054L35.705 31.2687L33.7383 31.6319C33.951 32.7837 34.4147 33.8334 35.1553 34.7287L36.6964 33.454ZM35.705 31.2687L37.6718 30.9054C37.5686 30.3467 37.6109 29.9023 37.7406 29.527L35.8505 28.8734L33.9603 28.2198C33.5792 29.3219 33.5245 30.4743 33.7383 31.6319L35.705 31.2687ZM35.8505 28.8734L37.7406 29.527C37.8809 29.1213 38.0996 28.8033 38.4117 28.5375L37.115 27.0149L35.8183 25.4922C34.9552 26.2271 34.3308 27.1482 33.9603 28.2198L35.8505 28.8734ZM37.115 27.0149L38.4308 28.521C38.721 28.2675 39.0935 28.0782 39.6102 27.9828L39.247 26.016L38.8838 24.0493C37.7288 24.2626 36.6799 24.7392 35.7991 25.5087L37.115 27.0149ZM39.247 26.016L39.6102 27.9828C40.0039 27.9101 40.2718 27.9448 40.4645 28.0112L41.116 26.1203L41.7676 24.2294C40.8279 23.9057 39.8498 23.8709 38.8838 24.0493L39.247 26.016ZM41.116 26.1203L40.5131 28.0273C40.7397 28.0989 40.9621 28.2301 41.1903 28.472L42.6454 27.0999L44.1004 25.7278C43.44 25.0274 42.6429 24.5055 41.719 24.2134L41.116 26.1203ZM42.6454 27.0999L40.7448 26.477L40.5458 27.0842L42.4463 27.7071L44.3469 28.33L44.5459 27.7228L42.6454 27.0999ZM42.4463 27.7071L44.4131 27.3439L44.0426 25.3378L42.0758 25.7011L40.1091 26.0643L40.4796 28.0704L42.4463 27.7071ZM42.0758 25.7011L42.4391 27.6678L44.512 27.285L44.1488 25.3182L43.7856 23.3515L41.7126 23.7343L42.0758 25.7011ZM44.1488 25.3182L42.1821 25.6814L43.7782 34.3243L45.745 33.9611L47.7117 33.5978L46.1155 24.955L44.1488 25.3182ZM45.745 33.9611L43.7782 34.3243C43.8616 34.7758 43.8185 35.1367 43.6917 35.4579L45.552 36.1922L47.4123 36.9266C47.8351 35.8555 47.9206 34.7289 47.7117 33.5978L45.745 33.9611ZM45.552 36.1922L43.6823 35.482C43.5511 35.8275 43.3394 36.1237 43.0062 36.3891L44.2522 37.9536L45.4982 39.518C46.3707 38.8231 47.0255 37.9451 47.4216 36.9024L45.552 36.1922ZM44.2522 37.9536L42.9953 36.3979C42.7018 36.635 42.2927 36.8348 41.6975 36.9447L42.0608 38.9115L42.424 40.8782C43.5674 40.6671 44.6193 40.2282 45.5092 39.5092L44.2522 37.9536ZM40.8397 32.8616L41.203 34.8284C41.9579 34.689 42.6871 34.3845 43.3062 33.8538L42.0045 32.3353L40.7028 30.8169C40.6996 30.8197 40.6881 30.8293 40.6585 30.8426C40.6274 30.8567 40.5701 30.8776 40.4765 30.8949L40.8397 32.8616ZM42.0045 32.3353L43.3209 33.841C43.9118 33.3244 44.337 32.6772 44.5804 31.9346L42.6798 31.3117L40.7793 30.6888C40.7573 30.7558 40.7323 30.791 40.6881 30.8297L42.0045 32.3353ZM42.6798 31.3117L44.5804 31.9346C44.8314 31.1685 44.8533 30.3828 44.7129 29.6224L42.7461 29.9856L40.7794 30.3488C40.8159 30.5468 40.7936 30.6452 40.7793 30.6888L42.6798 31.3117ZM42.7461 29.9856L44.7129 29.6224C44.5695 28.8462 44.2496 28.1166 43.7201 27.4943L42.1969 28.7904L40.6737 30.0866C40.7036 30.1216 40.7498 30.1888 40.7794 30.3488L42.7461 29.9856ZM42.1969 28.7904L43.7652 27.5492C43.2745 26.9292 42.642 26.4597 41.8892 26.1822L41.1974 28.0588L40.5057 29.9353C40.5444 29.9496 40.5782 29.9679 40.6287 30.0317L42.1969 28.7904ZM41.1974 28.0588L41.9155 26.1921C41.1442 25.8954 40.3441 25.8541 39.5719 25.9967L39.9351 27.9635L40.2983 29.9302C40.3744 29.9162 40.4205 29.9166 40.4428 29.9183C40.4635 29.9199 40.4733 29.9231 40.4794 29.9254L41.1974 28.0588ZM39.9351 27.9635L39.5719 25.9967C38.7978 26.1397 38.0764 26.4624 37.4606 26.9864L38.7567 28.5096L40.0528 30.0327C40.0944 29.9974 40.1586 29.956 40.2983 29.9302L39.9351 27.9635ZM38.7567 28.5096L37.4606 26.9864C36.8502 27.5058 36.4121 28.1617 36.157 28.9138L38.051 29.5561L39.9451 30.1985C39.9736 30.1145 40.0059 30.0727 40.0528 30.0327L38.7567 28.5096ZM38.051 29.5561L36.1505 28.9332C35.9018 29.692 35.875 30.4708 36.0149 31.2287L37.9817 30.8655L39.9484 30.5023C39.9155 30.324 39.9349 30.2299 39.9516 30.179L38.051 29.5561ZM37.9817 30.8655L36.0149 31.2287C36.1549 31.9866 36.4582 32.7045 36.9615 33.3244L38.5141 32.0637L40.0668 30.8031C40.033 30.7615 39.9814 30.6806 39.9484 30.5023L37.9817 30.8655ZM38.5141 32.0637L36.991 33.3598C37.4879 33.9438 38.1096 34.3845 38.8355 34.6521L39.5273 32.7756L40.2191 30.899C40.1534 30.8748 40.0997 30.8409 40.0373 30.7676L38.5141 32.0637ZM39.5273 32.7756L38.8607 34.6612C39.6311 34.9335 40.4268 34.9717 41.203 34.8284L40.8397 32.8616L40.4765 30.8949C40.3165 30.9244 40.2373 30.9052 40.1938 30.8899L39.5273 32.7756ZM47.8736 34.0347L45.9068 34.3979L46.2701 36.3647L48.2368 36.0014L47.8736 34.0347ZM46.194 24.9405L45.8308 22.9738L43.8641 23.337L44.2273 25.3037L46.194 24.9405ZM48.384 24.536L50.3508 24.1728L49.9875 22.2061L48.0208 22.5693L48.384 24.536ZM50.0636 33.6303L50.4268 35.597L52.3935 35.2338L52.0303 33.267L50.0636 33.6303ZM46.0057 23.9207L44.039 24.284L44.4022 26.2507L46.3689 25.8875L46.0057 23.9207ZM45.5735 21.5803L45.2103 19.6136L43.2435 19.9768L43.6067 21.9435L45.5735 21.5803ZM47.7634 21.1759L49.7302 20.8127L49.367 18.8459L47.4002 19.2091L47.7634 21.1759ZM48.1957 23.5163L48.5589 25.483L50.5256 25.1198L50.1624 23.1531L48.1957 23.5163ZM47.8736 34.0347L49.8403 33.6715L48.1608 24.5773L46.194 24.9405L44.2273 25.3037L45.9068 34.3979L47.8736 34.0347ZM46.194 24.9405L46.5573 26.9072L48.7472 26.5028L48.384 24.536L48.0208 22.5693L45.8308 22.9738L46.194 24.9405ZM48.384 24.536L46.4173 24.8993L48.0968 33.9935L50.0636 33.6303L52.0303 33.267L50.3508 24.1728L48.384 24.536ZM50.0636 33.6303L49.7003 31.6635L47.5104 32.068L47.8736 34.0347L48.2368 36.0014L50.4268 35.597L50.0636 33.6303ZM46.0057 23.9207L47.9725 23.5575L47.5402 21.2171L45.5735 21.5803L43.6067 21.9435L44.039 24.284L46.0057 23.9207ZM45.5735 21.5803L45.9367 23.5471L48.1267 23.1426L47.7634 21.1759L47.4002 19.2091L45.2103 19.6136L45.5735 21.5803ZM47.7634 21.1759L45.7967 21.5391L46.2289 23.8795L48.1957 23.5163L50.1624 23.1531L49.7302 20.8127L47.7634 21.1759ZM48.1957 23.5163L47.8325 21.5496L45.6425 21.954L46.0057 23.9207L46.3689 25.8875L48.5589 25.483L48.1957 23.5163ZM51.2999 33.4019L49.3331 33.7652L49.6963 35.7319L51.6631 35.3687L51.2999 33.4019ZM50.9726 31.6299L49.2466 30.6195L48.8707 31.2616L49.0058 31.9931L50.9726 31.6299ZM55.1253 24.5358L56.775 23.4051L54.9923 20.804L53.3992 23.5254L55.1253 24.5358ZM55.5985 25.2263L55.9618 27.193L58.9881 26.6341L57.2483 24.0956L55.5985 25.2263ZM50.2156 26.2204L48.2488 26.5836L48.6121 28.5504L50.5788 28.1872L50.2156 26.2204ZM49.8544 24.2645L49.4911 22.2978L47.5244 22.661L47.8876 24.6277L49.8544 24.2645ZM57.1765 22.9122L59.1433 22.549L58.78 20.5823L56.8133 20.9455L57.1765 22.9122ZM57.5069 24.701L59.2424 25.6949L59.6068 25.0587L59.4736 24.3378L57.5069 24.701ZM53.4545 31.7766L51.8048 32.9073L53.6063 35.5358L55.19 32.7706L53.4545 31.7766ZM52.9812 31.0861L52.618 29.1193L49.5917 29.6782L51.3315 32.2168L52.9812 31.0861ZM58.5314 30.0611L60.4981 29.6978L60.1349 27.7311L58.1681 28.0943L58.5314 30.0611ZM58.8895 32.0003L59.2527 33.967L61.2195 33.6038L60.8562 31.637L58.8895 32.0003ZM51.2999 33.4019L53.2666 33.0387L52.9393 31.2667L50.9726 31.6299L49.0058 31.9931L49.3331 33.7652L51.2999 33.4019ZM50.9726 31.6299L52.6986 32.6403L56.8513 25.5461L55.1253 24.5358L53.3992 23.5254L49.2466 30.6195L50.9726 31.6299ZM55.1253 24.5358L53.4756 25.6664L53.9488 26.357L55.5985 25.2263L57.2483 24.0956L56.775 23.4051L55.1253 24.5358ZM55.5985 25.2263L55.2353 23.2595L49.8524 24.2537L50.2156 26.2204L50.5788 28.1872L55.9618 27.193L55.5985 25.2263ZM50.2156 26.2204L52.1823 25.8572L51.8211 23.9013L49.8544 24.2645L47.8876 24.6277L48.2488 26.5836L50.2156 26.2204ZM49.8544 24.2645L50.2176 26.2312L57.5398 24.879L57.1765 22.9122L56.8133 20.9455L49.4911 22.2978L49.8544 24.2645ZM57.1765 22.9122L55.2098 23.2754L55.5401 25.0642L57.5069 24.701L59.4736 24.3378L59.1433 22.549L57.1765 22.9122ZM57.5069 24.701L55.7714 23.707L51.719 30.7826L53.4545 31.7766L55.19 32.7706L59.2424 25.6949L57.5069 24.701ZM53.4545 31.7766L55.1042 30.6459L54.6309 29.9554L52.9812 31.0861L51.3315 32.2168L51.8048 32.9073L53.4545 31.7766ZM52.9812 31.0861L53.3444 33.0528L58.8946 32.0278L58.5314 30.0611L58.1681 28.0943L52.618 29.1193L52.9812 31.0861ZM58.5314 30.0611L56.5646 30.4243L56.9228 32.3635L58.8895 32.0003L60.8562 31.637L60.4981 29.6978L58.5314 30.0611ZM58.8895 32.0003L58.5263 30.0335L50.9366 31.4352L51.2999 33.4019L51.6631 35.3687L59.2527 33.967L58.8895 32.0003ZM60.134 31.7704L58.1673 32.1336L58.5305 34.1004L60.4972 33.7372L60.134 31.7704ZM58.4545 22.6762L58.0913 20.7095L56.1245 21.0727L56.4877 23.0394L58.4545 22.6762ZM60.6445 22.2718L62.6112 21.9085L62.248 19.9418L60.2812 20.305L60.6445 22.2718ZM62.324 31.366L62.6872 33.3327L64.654 32.9695L64.2907 31.0027L62.324 31.366ZM58.2662 21.6565L56.2994 22.0197L56.6626 23.9864L58.6294 23.6232L58.2662 21.6565ZM57.8339 19.316L57.4707 17.3493L55.504 17.7125L55.8672 19.6793L57.8339 19.316ZM60.0239 18.9116L61.9906 18.5484L61.6274 16.5816L59.6607 16.9448L60.0239 18.9116ZM60.4561 21.252L60.8193 23.2187L62.7861 22.8555L62.4229 20.8888L60.4561 21.252ZM60.134 31.7704L62.1008 31.4072L60.4212 22.313L58.4545 22.6762L56.4877 23.0394L58.1673 32.1336L60.134 31.7704ZM58.4545 22.6762L58.8177 24.643L61.0077 24.2385L60.6445 22.2718L60.2812 20.305L58.0913 20.7095L58.4545 22.6762ZM60.6445 22.2718L58.6777 22.635L60.3573 31.7292L62.324 31.366L64.2907 31.0027L62.6112 21.9085L60.6445 22.2718ZM62.324 31.366L61.9608 29.3992L59.7708 29.8037L60.134 31.7704L60.4972 33.7372L62.6872 33.3327L62.324 31.366ZM58.2662 21.6565L60.2329 21.2932L59.8007 18.9528L57.8339 19.316L55.8672 19.6793L56.2994 22.0197L58.2662 21.6565ZM57.8339 19.316L58.1971 21.2828L60.3871 20.8783L60.0239 18.9116L59.6607 16.9448L57.4707 17.3493L57.8339 19.316ZM60.0239 18.9116L58.0571 19.2748L58.4894 21.6152L60.4561 21.252L62.4229 20.8888L61.9906 18.5484L60.0239 18.9116ZM60.4561 21.252L60.0929 19.2853L57.9029 19.6897L58.2662 21.6565L58.6294 23.6232L60.8193 23.2187L60.4561 21.252Z" fill="#F0531C" mask="url(#path-1-outside-1_103_170)"/>
</svg>
