<svg width="106" height="106" viewBox="0 0 106 106" fill="none" xmlns="http://www.w3.org/2000/svg">
<circle cx="52.9995" cy="53" r="40.8127" transform="rotate(21.6731 52.9995 53)" fill="#F0531C"/>
<circle cx="52.8708" cy="52.8702" r="35.781" transform="rotate(21.6731 52.8708 52.8702)" stroke="#FFFFF9" stroke-width="1.11816"/>
<path d="M45.0331 38.4597L46.2791 35.3238L48.0935 36.0447L49.8363 32.8987L53.7339 34.4473L51.991 37.5934L53.5142 38.1986L55.257 35.0526L59.1546 36.6012L57.4117 39.7472L58.4197 40.1477L57.1737 43.2837L55.7849 42.7319L54.2201 45.4299L55.6088 45.9817L54.3628 49.1177L52.5708 48.4056L50.8636 51.4621L46.9885 49.9223L48.6733 46.857L47.1501 46.2518L45.4429 49.3082L41.5454 47.7596L43.2526 44.7031L42.2222 44.2937L43.4683 41.1578L44.9018 41.7274L46.4667 39.0293L45.0331 38.4597ZM50.3418 40.5691L48.7994 43.276L50.3225 43.8813L51.8874 41.1832L50.3418 40.5691ZM56.7598 53.8049L58.166 50.2657L61.9067 51.7521L64.8082 44.4498L61.0751 44.3152L61.6743 40.196L68.9571 40.4702L71.1971 41.3603L66.3642 53.5232L69.5674 54.796L68.1611 58.3351L56.7598 53.8049Z" fill="white"/>
<path d="M36.2499 60.6183L38.7107 54.425L39.6917 54.8148L38.6082 57.5415L41.4762 58.6811L42.5597 55.9544L43.5323 56.3408L41.0715 62.5341L40.0988 62.1476L41.1294 59.5539L38.2614 58.4144L37.2308 61.008L36.2499 60.6183ZM44.3352 63.9464C43.8863 63.768 43.528 63.507 43.2604 63.1632C43.0004 62.816 42.844 62.4266 42.7909 61.9948C42.7401 61.5575 42.8027 61.1172 42.9789 60.6738C43.1595 60.2194 43.4161 59.8561 43.7488 59.5841C44.0871 59.3142 44.4621 59.1456 44.8739 59.0782C45.2879 59.0052 45.7055 59.0524 46.1267 59.2198C46.4647 59.3541 46.7437 59.5323 46.9634 59.7544C47.1832 59.9765 47.3438 60.2264 47.4452 60.5041C47.5488 60.7763 47.596 61.0614 47.5867 61.3593C47.583 61.6594 47.5227 61.9563 47.406 62.25C47.3774 62.3221 47.3449 62.3958 47.3085 62.4712C47.2722 62.5466 47.2324 62.6142 47.1894 62.6741L43.6065 61.2505L43.9037 60.5023L46.9546 61.7145L46.3703 61.877C46.5336 61.6275 46.61 61.3787 46.5995 61.1306C46.5967 60.8793 46.5253 60.6552 46.3853 60.4584C46.2531 60.2583 46.0623 60.1086 45.8129 60.0095C45.5635 59.9105 45.3165 59.8861 45.0719 59.9365C44.8294 59.9813 44.6093 60.0992 44.4116 60.2902C44.216 60.4755 44.0643 60.7361 43.9565 61.0719C43.8077 61.3657 43.7436 61.6483 43.7641 61.9195C43.7902 62.193 43.8805 62.4342 44.0349 62.6431C44.1949 62.8543 44.4078 63.0127 44.6739 63.1184C44.9454 63.2263 45.1996 63.2567 45.4365 63.2097C45.6789 63.1648 45.8941 63.0674 46.082 62.9175L46.6982 63.5955C46.5258 63.7708 46.3113 63.907 46.0546 64.0039C45.8056 64.0975 45.5311 64.1424 45.231 64.1387C44.9386 64.1316 44.64 64.0675 44.3352 63.9464ZM48.6281 65.6521C48.3233 65.531 48.0754 65.3716 47.8845 65.1738C47.7013 64.9727 47.5834 64.7526 47.5308 64.5135C47.4804 64.2689 47.507 64.0163 47.6105 63.7558C47.7073 63.512 47.847 63.314 48.0294 63.1619C48.2173 63.0119 48.4513 62.9156 48.7313 62.8729C49.0114 62.8302 49.3343 62.8494 49.6999 62.9305L51.3651 63.2937L51.0712 64.0336L49.5954 63.7264C49.3284 63.6716 49.1136 63.6793 48.9509 63.7494C48.7905 63.814 48.6751 63.935 48.6046 64.1124C48.5363 64.2842 48.5439 64.4508 48.6273 64.6123C48.7185 64.7704 48.8666 64.8903 49.0717 64.9717C49.3266 65.073 49.5703 65.1057 49.8028 65.0697C50.0408 65.0359 50.2488 64.9485 50.4268 64.8075C50.6069 64.6609 50.7422 64.474 50.8324 64.2468L51.2916 63.0913C51.3797 62.8696 51.3681 62.6564 51.2569 62.4518C51.1534 62.2439 50.9659 62.0859 50.6944 61.978C50.445 61.8789 50.1996 61.8585 49.9583 61.9166C49.7248 61.9714 49.523 62.0837 49.3528 62.2535L48.7266 61.5523C48.8979 61.3637 49.1107 61.2237 49.3652 61.1323C49.6219 61.0353 49.8937 60.9893 50.1805 60.9942C50.4728 61.0013 50.7604 61.061 51.043 61.1733C51.3977 61.3142 51.6844 61.5051 51.9031 61.746C52.1273 61.9891 52.2669 62.2596 52.3219 62.5573C52.3846 62.8518 52.3543 63.1542 52.231 63.4645L51.0286 66.4905L50.1308 66.1337L50.4545 65.319L50.6358 65.42C50.4578 65.561 50.2593 65.665 50.0402 65.7319C49.8266 65.8011 49.6002 65.8299 49.361 65.8182C49.1273 65.8088 48.883 65.7534 48.6281 65.6521ZM52.127 66.9269L54.6274 60.6339L55.5668 61.0072L53.0663 67.3001L52.127 66.9269ZM56.0901 68.5593C55.619 68.3722 55.3061 68.0938 55.1513 67.7243C54.9965 67.3548 55.0149 66.929 55.2065 66.4468L56.0719 64.2688L55.2822 63.955L55.6191 63.1071L55.7438 63.1566C55.9544 63.2403 56.1421 63.2443 56.3069 63.1686C56.4718 63.0929 56.596 62.9498 56.6797 62.7392L56.8184 62.39L57.7578 62.7633L57.3482 63.7941L58.3707 64.2004L58.0338 65.0483L57.0113 64.642L56.1624 66.7785C56.1007 66.9337 56.0728 67.0766 56.0787 67.2072C56.0867 67.3324 56.134 67.4474 56.2207 67.5524C56.3095 67.6519 56.4426 67.7369 56.6199 67.8073C56.6642 67.8249 56.7152 67.842 56.7728 67.8585C56.8305 67.8749 56.8853 67.8903 56.9374 67.9046L56.617 68.711C56.535 68.6912 56.4447 68.6682 56.3461 68.6418C56.2475 68.6155 56.1621 68.588 56.0901 68.5593ZM57.5337 69.0752L60.0342 62.7822L60.9735 63.1555L59.9099 65.8323L59.8065 65.6564C60.0297 65.4178 60.2918 65.2749 60.5929 65.2277C60.8962 65.175 61.2086 65.2125 61.53 65.3402C61.8626 65.4723 62.1277 65.6611 62.3253 65.9065C62.523 66.1519 62.6433 66.4307 62.6861 66.7428C62.7288 67.055 62.6853 67.3746 62.5554 67.7016L61.3993 70.6112L60.4682 70.2412L61.5219 67.5893C61.6122 67.3621 61.6438 67.1533 61.6168 66.9629C61.5975 66.7691 61.5296 66.601 61.413 66.4584C61.2986 66.3103 61.1444 66.1977 60.9504 66.1206C60.762 66.0457 60.5726 66.0218 60.3822 66.0488C60.1995 66.0725 60.0319 66.1471 59.8794 66.2725C59.7324 66.4002 59.6149 66.5749 59.5268 66.7966L58.4731 69.4485L57.5337 69.0752ZM36.3155 72.4808L40.9543 67.153L42.168 67.6353L41.8852 74.6939L40.8378 74.2777L40.9155 72.7012L38.3967 71.7003L37.3629 72.897L36.3155 72.4808ZM39.0262 70.9398L40.9631 71.7094L41.154 68.0313L41.4283 68.1403L39.0262 70.9398ZM41.8679 76.6122L44.3155 70.4522L45.2133 70.8089L44.8433 71.74L44.8212 71.4809C45.0887 71.292 45.3897 71.1806 45.724 71.1466C46.0584 71.1126 46.4029 71.1661 46.7576 71.307C47.1843 71.4766 47.526 71.7311 47.7826 72.0704C48.0447 72.412 48.2023 72.7987 48.2553 73.2305C48.3139 73.6644 48.2551 74.1031 48.0789 74.5465C47.9028 74.9898 47.6445 75.3492 47.304 75.6246C46.9691 75.9022 46.5908 76.0792 46.1691 76.1555C45.7495 76.2262 45.3236 76.1757 44.8913 76.0039C44.5422 75.8652 44.2521 75.6665 44.0212 75.4079C43.7958 75.1515 43.6595 74.8567 43.6122 74.5235L43.8312 74.4084L42.8072 76.9854L41.8679 76.6122ZM45.1467 75.0947C45.4127 75.2004 45.6736 75.2303 45.9293 75.1843C46.185 75.1383 46.4151 75.0276 46.6195 74.8521C46.8318 74.6733 46.994 74.4426 47.1063 74.16C47.2186 73.8773 47.2579 73.601 47.224 73.3308C47.1957 73.0629 47.1044 72.8245 46.95 72.6155C46.7956 72.4066 46.5853 72.2493 46.3193 72.1436C46.0588 72.0401 45.798 72.0102 45.5367 72.054C45.281 72.1 45.0482 72.2096 44.8382 72.3828C44.6337 72.5583 44.4753 72.7873 44.363 73.07C44.2507 73.3526 44.2076 73.6307 44.2337 73.9041C44.2675 74.1743 44.3617 74.4138 44.5161 74.6227C44.676 74.8339 44.8862 74.9912 45.1467 75.0947ZM47.437 78.825L49.8846 72.665L50.7824 73.0218L50.4124 73.9528L50.3902 73.6937C50.6578 73.5049 50.9588 73.3934 51.2931 73.3594C51.6275 73.3255 51.972 73.3789 52.3267 73.5199C52.7534 73.6894 53.0951 73.9439 53.3517 74.2833C53.6138 74.6249 53.7714 75.0115 53.8244 75.4433C53.883 75.8773 53.8242 76.3159 53.648 76.7593C53.4719 77.2027 53.2136 77.562 52.8731 77.8375C52.5382 78.1151 52.1599 78.292 51.7381 78.3683C51.3186 78.439 50.8927 78.3885 50.4604 78.2167C50.1113 78.078 49.8212 77.8793 49.5903 77.6207C49.3649 77.3643 49.2286 77.0695 49.1813 76.7363L49.4003 76.6212L48.3763 79.1982L47.437 78.825ZM50.7158 77.3075C50.9818 77.4132 51.2427 77.4431 51.4984 77.3971C51.7541 77.3511 51.9842 77.2404 52.1886 77.065C52.4008 76.8862 52.5631 76.6555 52.6754 76.3728C52.7877 76.0902 52.827 75.8138 52.7931 75.5437C52.7648 75.2757 52.6735 75.0373 52.519 74.8284C52.3646 74.6194 52.1544 74.4621 51.8884 74.3564C51.6279 74.2529 51.3671 74.223 51.1058 74.2668C50.8501 74.3128 50.6173 74.4224 50.4073 74.5957C50.2028 74.7711 50.0444 75.0001 49.9321 75.2828C49.8198 75.5654 49.7767 75.8435 49.8028 76.117C49.8366 76.3871 49.9308 76.6266 50.0852 76.8356C50.2451 77.0467 50.4553 77.204 50.7158 77.3075Z" fill="white"/>
</svg>
