<svg width="25" height="25" viewBox="0 0 25 25" fill="none" xmlns="http://www.w3.org/2000/svg">
<path d="M11.9541 10.1376L12.9377 8.09498C13.1985 7.55325 13.6639 7.13733 14.2314 6.93873C14.799 6.74012 15.4221 6.7751 15.9639 7.03597L18.0065 8.01957M8.01965 18.3081L7.03605 20.3507C6.77518 20.8924 6.7402 21.5156 6.9388 22.0831C7.13741 22.6506 7.55332 23.116 8.09506 23.3769L10.1377 24.3605M26.1769 11.954L28.2196 12.9376C28.7613 13.1985 29.1772 13.6638 29.3758 14.2314C29.5744 14.7989 29.5394 15.4221 29.2786 15.9638L28.295 18.0064M18.3081 28.2949L20.3507 29.2785C20.8925 29.5394 21.5157 29.5743 22.0832 29.3757C22.6507 29.1771 23.1161 28.7612 23.377 28.2195L24.3606 26.1769M13.0508 15.6982L23.2638 20.6162" stroke="#FFFFF9" stroke-width="2.2671" stroke-linecap="round" stroke-linejoin="round"/>
</svg>
