<svg width="47" height="48" viewBox="0 0 47 48" fill="none" xmlns="http://www.w3.org/2000/svg">
<g clip-path="url(#clip0_739_635)">
<path d="M36.631 37.5239V26.7954C36.631 25.5872 35.659 24.6151 34.4508 24.6151C33.2426 24.6151 32.2705 25.5872 32.2705 26.7954V40.658C29.6634 42.0206 26.6928 42.7837 23.5497 42.7837C20.4065 42.7837 17.4359 42.0115 14.8288 40.658V26.7954C14.8288 25.5872 13.8567 24.6151 12.6485 24.6151C11.4403 24.6151 10.4683 25.5872 10.4683 26.7954V37.5239C6.88912 34.0809 4.65439 29.2481 4.65439 23.8884C4.65439 13.4506 13.1118 4.99314 23.5497 4.99314C33.9875 4.99314 42.4449 13.4506 42.4449 23.8884C42.4449 29.2481 40.2102 34.0809 36.631 37.5239ZM23.5497 47.1441C29.7175 47.1441 35.6326 44.694 39.9939 40.3327C44.3552 35.9714 46.8054 30.0562 46.8054 23.8884C46.8054 17.7206 44.3552 11.8054 39.9939 7.44413C35.6326 3.08284 29.7175 0.63269 23.5497 0.63269C17.3819 0.63269 11.4667 3.08284 7.10539 7.44413C2.74409 11.8054 0.293945 17.7206 0.293945 23.8884C0.293945 30.0562 2.74409 35.9714 7.10539 40.3327C11.4667 44.694 17.3819 47.1441 23.5497 47.1441ZM14.7924 20.6181C15.7554 20.6181 16.6002 20.9633 17.0998 21.4992C17.7902 22.2351 18.9349 22.2714 19.6707 21.581C20.4065 20.8906 20.4428 19.746 19.7524 19.0102C18.4352 17.6021 16.5548 16.9844 14.7924 16.9844C13.0301 16.9844 11.1496 17.6021 9.83242 19.0102C9.14202 19.746 9.18744 20.8906 9.91418 21.581C10.6409 22.2714 11.7946 22.226 12.485 21.4992C12.9847 20.9724 13.8295 20.6181 14.7924 20.6181ZM29.9268 21.4992C30.4264 20.9724 31.2713 20.6181 32.2342 20.6181C33.1971 20.6181 34.042 20.9633 34.5416 21.4992C35.232 22.2351 36.3766 22.2714 37.1125 21.581C37.8483 20.8906 37.8846 19.746 37.1942 19.0102C35.877 17.6021 33.9966 16.9844 32.2342 16.9844C30.4719 16.9844 28.5914 17.6021 27.2742 19.0102C26.5838 19.746 26.6292 20.8906 27.356 21.581C28.0827 22.2714 29.2364 22.226 29.9268 21.4992ZM19.1892 29.7023V32.6093C19.1892 35.0166 21.1423 36.9697 23.5497 36.9697C25.957 36.9697 27.9101 35.0166 27.9101 32.6093V29.7023C27.9101 27.295 25.957 25.3419 23.5497 25.3419C21.1423 25.3419 19.1892 27.295 19.1892 29.7023Z" fill="#09332C"/>
</g>
<defs>
<clipPath id="clip0_739_635">
<rect width="46.5114" height="46.5114" fill="white" transform="translate(0.293945 0.63269)"/>
</clipPath>
</defs>
</svg>
