<svg width="149" height="45" viewBox="0 0 149 45" fill="none" xmlns="http://www.w3.org/2000/svg">
<g clip-path="url(#clip0_579_111)">
<rect x="-3.05176e-05" y="6" width="34" height="33.5641" rx="16.7821" fill="#FFFFF9"/>
<circle cx="17" cy="31.8397" r="16.66" fill="#DEDEDE"/>
<circle cx="16.9999" cy="39.3197" r="14.62" fill="#B2B2B2"/>
<path d="M12.6336 36.3988C11.8575 35.3142 11.8575 34.0613 11.8575 32.8178C13.419 33.7528 14.9711 34.6878 15.7565 35.7817L16.065 36.3053V34.1735C14.6625 33.332 13.3348 32.4718 12.6336 31.4901C11.8575 30.4055 11.8575 29.1526 11.8575 27.909C13.419 28.844 14.9711 29.779 15.7565 30.873L16.065 31.4153V29.2648C14.6625 28.4233 13.3348 27.5631 12.6336 26.5813C11.8575 25.4967 11.8575 24.2438 11.8575 23.0003C13.419 23.9353 14.9711 24.8703 15.7565 25.9642C15.85 26.0951 15.9341 26.2354 16.0089 26.385C15.85 25.8053 15.7471 25.263 15.7378 24.702C15.7284 23.2901 16.3455 21.8409 16.9626 20.3916C17.6078 21.7754 18.2529 23.1686 18.2623 24.5804C18.2716 25.1695 18.1688 25.7679 18.0005 26.3569C18.0753 26.226 18.1501 26.0951 18.2436 25.9642C19.029 24.8703 20.5811 23.9353 22.1425 23.0003C22.1425 24.2438 22.1425 25.4967 21.3665 26.5813C20.6652 27.5631 19.3375 28.4233 17.935 29.2648V31.4153L18.2436 30.873C19.029 29.779 20.5811 28.844 22.1425 27.909C22.1425 29.1526 22.1425 30.4055 21.3665 31.4901C20.6652 32.4718 19.3375 33.332 17.935 34.1735V36.3053L18.2436 35.7817C19.029 34.6878 20.5811 33.7528 22.1425 32.8178C22.1425 34.0613 22.1425 35.3142 21.3665 36.3988C20.6652 37.3806 19.3375 38.2408 17.935 39.0823V40.7653H16.065V39.0823C14.6625 38.2408 13.3348 37.3806 12.6336 36.3988Z" fill="#385234"/>
</g>
<path d="M50.4416 25.5012C50.9338 25.9078 51.4474 26.2288 51.9823 26.4642C52.5387 26.6996 53.2021 26.8173 53.9725 26.8173C55.2778 26.8173 55.9305 26.4 55.9305 25.5654C55.9305 25.2016 55.7272 24.9128 55.3206 24.6988C54.9354 24.4848 54.4539 24.2815 53.8762 24.0889C53.3198 23.8963 52.7527 23.6609 52.1749 23.3827C51.5971 23.1045 51.105 22.7407 50.6984 22.2914C50.3132 21.8206 50.1206 21.1893 50.1206 20.3975C50.1206 19.5202 50.3346 18.814 50.7626 18.279C51.212 17.7226 51.7897 17.316 52.4959 17.0593C53.2235 16.8025 53.9939 16.6741 54.807 16.6741C55.8128 16.6741 56.6474 16.8346 57.3107 17.1556C57.8671 17.3909 58.2309 17.6798 58.4021 18.0222C58.5733 18.3432 58.5733 18.8033 58.4021 19.4025L58.3058 19.7556C58.2416 19.9267 58.156 20.0123 58.049 20.0123C57.9848 20.0123 57.9313 20.0016 57.8885 19.9802C57.8457 19.9374 57.7815 19.9053 57.6959 19.884C56.6901 19.3918 55.7058 19.1457 54.7428 19.1457C54.3148 19.1457 53.9511 19.2313 53.6515 19.4025C53.3519 19.5737 53.2021 19.8412 53.2021 20.2049C53.2021 20.5687 53.3947 20.8683 53.7799 21.1037C54.1864 21.3177 54.6679 21.521 55.2243 21.7136C55.8021 21.9062 56.3799 22.1416 56.9576 22.4198C57.5354 22.6979 58.0169 23.0617 58.4021 23.5111C58.8087 23.9605 59.012 24.5597 59.012 25.3086C59.012 26.507 58.584 27.4807 57.728 28.2296C56.872 28.9572 55.7379 29.321 54.3255 29.321C53.4268 29.321 52.635 29.1712 51.9502 28.8716C51.2869 28.5506 50.7626 28.1333 50.3774 27.6198C49.9922 27.1062 49.7996 26.5712 49.7996 26.0148C49.7996 25.5868 49.928 25.3728 50.1848 25.3728C50.2704 25.3728 50.356 25.4156 50.4416 25.5012ZM63.7696 24.0568C63.8766 24.9128 64.2511 25.5654 64.8931 26.0148C65.535 26.4642 66.3482 26.6889 67.3326 26.6889C68.1457 26.6889 68.8198 26.6033 69.3548 26.4321C69.8898 26.2609 70.4247 26.0255 70.9597 25.7259C71.1523 25.5975 71.3235 25.5333 71.4733 25.5333C71.7087 25.5333 71.8264 25.6831 71.8264 25.9827C71.8264 26.4321 71.6552 26.9136 71.3128 27.4272C70.9918 27.9407 70.4782 28.3901 69.7721 28.7753C69.0659 29.1391 68.1243 29.321 66.9474 29.321C65.7918 29.321 64.7326 29.0856 63.7696 28.6148C62.828 28.1226 62.0791 27.4058 61.5227 26.4642C60.9663 25.5012 60.6881 24.3243 60.6881 22.9333C60.6881 21.7136 60.9235 20.6329 61.3943 19.6914C61.8865 18.7498 62.5712 18.0115 63.4486 17.4765C64.3474 16.9416 65.3959 16.6741 66.5943 16.6741C67.8782 16.6741 68.9161 16.9416 69.7079 17.4765C70.521 17.9901 71.1095 18.6642 71.4733 19.4988C71.8585 20.3333 72.0511 21.2214 72.0511 22.163C72.0511 22.4839 72.0404 22.7728 72.019 23.0296C72.019 23.265 72.0083 23.4683 71.9869 23.6395C71.9655 23.9177 71.7836 24.0568 71.4412 24.0568H63.7696ZM63.7696 21.842H68.9696C69.0124 21.4782 68.9696 21.1037 68.8412 20.7185C68.7342 20.3119 68.4988 19.9695 68.135 19.6914C67.7712 19.4132 67.2577 19.2741 66.5943 19.2741C65.7811 19.2741 65.1284 19.5095 64.6363 19.9802C64.1655 20.4296 63.8766 21.0502 63.7696 21.842ZM77.5711 18.2148C77.9349 17.7226 78.4056 17.3374 78.9834 17.0593C79.5612 16.7597 80.246 16.6099 81.0377 16.6099C82.4929 16.6099 83.6591 17.07 84.5365 17.9901C85.4353 18.8889 85.8846 20.2156 85.8846 21.9704V28.6469C85.8846 28.8823 85.767 29 85.5316 29H83.1563C82.9209 29 82.8032 28.8823 82.8032 28.6469V22.3556C82.8032 21.307 82.5571 20.5687 82.0649 20.1407C81.5727 19.6914 80.9628 19.4667 80.2353 19.4667C79.4649 19.4667 78.8229 19.6914 78.3093 20.1407C77.8172 20.5901 77.5711 21.3605 77.5711 22.4519V28.6469C77.5711 28.8823 77.4641 29 77.2501 29H74.9069C74.6715 29 74.5538 28.8823 74.5538 28.6469V11.5383C74.5538 11.2815 74.6715 11.1531 74.9069 11.1531H75.0674C75.8805 11.1531 76.5011 11.3671 76.9291 11.7951C77.3571 12.2016 77.5711 12.8864 77.5711 13.8494V18.2148ZM97.6436 27.4914C97.2156 28.0691 96.6699 28.5185 96.0065 28.8395C95.3432 29.1391 94.637 29.2889 93.888 29.2889C92.6897 29.2889 91.6732 29 90.8386 28.4222C90.0255 27.8444 89.4049 27.0741 88.9769 26.1111C88.5703 25.1481 88.367 24.0889 88.367 22.9333C88.367 21.735 88.5917 20.665 89.0411 19.7235C89.4905 18.7605 90.1325 18.0008 90.967 17.4444C91.823 16.8881 92.8181 16.6099 93.9522 16.6099C94.8938 16.6099 95.6856 16.7811 96.3275 17.1235C96.9909 17.4658 97.5152 17.8724 97.9004 18.3432C98.0716 17.851 98.3497 17.4979 98.7349 17.2839C99.1415 17.0486 99.623 16.9309 100.179 16.9309H100.34C100.575 16.9309 100.693 17.0593 100.693 17.316V28.6469C100.693 28.8823 100.575 29 100.34 29H97.9646C97.7506 29 97.6436 28.8823 97.6436 28.6469V27.4914ZM94.5621 26.4C94.9687 26.4 95.4074 26.3144 95.8781 26.1432C96.3703 25.9506 96.7876 25.6082 97.13 25.116C97.4724 24.6239 97.6436 23.8963 97.6436 22.9333C97.6436 21.9704 97.4724 21.2535 97.13 20.7827C96.7876 20.2905 96.381 19.9695 95.9102 19.8198C95.4395 19.6486 95.0008 19.563 94.5942 19.563C94.1662 19.563 93.7061 19.6593 93.2139 19.8519C92.7432 20.0444 92.3366 20.3868 91.9942 20.879C91.6732 21.3712 91.5127 22.056 91.5127 22.9333C91.5127 23.8535 91.6839 24.5704 92.0263 25.084C92.3901 25.5761 92.8074 25.9185 93.2781 26.1111C93.7489 26.3037 94.1769 26.4 94.5621 26.4ZM105.087 19.7235H102.968C102.733 19.7235 102.615 19.5951 102.615 19.3383V17.316C102.615 17.0593 102.733 16.9309 102.968 16.9309H105.087V13.0469C105.087 12.8115 105.194 12.6938 105.408 12.6938H105.568C106.403 12.6938 107.034 12.9078 107.462 13.3358C107.912 13.7638 108.136 14.4486 108.136 15.3901V16.9309H110.736C110.929 16.9309 111.025 17.0593 111.025 17.316V19.3383C111.025 19.5951 110.929 19.7235 110.736 19.7235H108.136V28.6469C108.136 28.8823 108.029 29 107.815 29H105.408C105.194 29 105.087 28.8823 105.087 28.6469V19.7235ZM115.617 24.0568C115.724 24.9128 116.098 25.5654 116.74 26.0148C117.382 26.4642 118.195 26.6889 119.18 26.6889C119.993 26.6889 120.667 26.6033 121.202 26.4321C121.737 26.2609 122.272 26.0255 122.807 25.7259C122.999 25.5975 123.171 25.5333 123.32 25.5333C123.556 25.5333 123.673 25.6831 123.673 25.9827C123.673 26.4321 123.502 26.9136 123.16 27.4272C122.839 27.9407 122.325 28.3901 121.619 28.7753C120.913 29.1391 119.971 29.321 118.794 29.321C117.639 29.321 116.58 29.0856 115.617 28.6148C114.675 28.1226 113.926 27.4058 113.37 26.4642C112.813 25.5012 112.535 24.3243 112.535 22.9333C112.535 21.7136 112.771 20.6329 113.241 19.6914C113.734 18.7498 114.418 18.0115 115.296 17.4765C116.194 16.9416 117.243 16.6741 118.441 16.6741C119.725 16.6741 120.763 16.9416 121.555 17.4765C122.368 17.9901 122.957 18.6642 123.32 19.4988C123.706 20.3333 123.898 21.2214 123.898 22.163C123.898 22.4839 123.887 22.7728 123.866 23.0296C123.866 23.265 123.855 23.4683 123.834 23.6395C123.813 23.9177 123.631 24.0568 123.288 24.0568H115.617ZM115.617 21.842H120.817C120.859 21.4782 120.817 21.1037 120.688 20.7185C120.581 20.3119 120.346 19.9695 119.982 19.6914C119.618 19.4132 119.105 19.2741 118.441 19.2741C117.628 19.2741 116.975 19.5095 116.483 19.9802C116.013 20.4296 115.724 21.0502 115.617 21.842ZM129.322 18.6963C129.686 18.0115 130.124 17.5514 130.638 17.316C131.151 17.0593 131.847 16.9309 132.724 16.9309H133.077C133.291 16.9309 133.398 17.0593 133.398 17.316V19.4988C133.398 19.7556 133.291 19.884 133.077 19.884H132.243C131.066 19.884 130.295 20.1835 129.932 20.7827C129.589 21.3605 129.418 22.2165 129.418 23.3506V28.6469C129.418 28.8823 129.311 29 129.097 29H126.69C126.497 29 126.401 28.8823 126.401 28.6469V17.316C126.401 17.0593 126.497 16.9309 126.69 16.9309H126.85C128.241 16.9309 129.065 17.5193 129.322 18.6963ZM144.256 27.4914C143.828 28.0691 143.282 28.5185 142.619 28.8395C141.955 29.1391 141.249 29.2889 140.5 29.2889C139.302 29.2889 138.285 29 137.451 28.4222C136.638 27.8444 136.017 27.0741 135.589 26.1111C135.183 25.1481 134.979 24.0889 134.979 22.9333C134.979 21.735 135.204 20.665 135.653 19.7235C136.103 18.7605 136.745 18.0008 137.579 17.4444C138.435 16.8881 139.43 16.6099 140.564 16.6099C141.506 16.6099 142.298 16.7811 142.94 17.1235C143.603 17.4658 144.127 17.8724 144.513 18.3432C144.684 17.851 144.962 17.4979 145.347 17.2839C145.754 17.0486 146.235 16.9309 146.792 16.9309H146.952C147.187 16.9309 147.305 17.0593 147.305 17.316V28.6469C147.305 28.8823 147.187 29 146.952 29H144.577C144.363 29 144.256 28.8823 144.256 28.6469V27.4914ZM141.174 26.4C141.581 26.4 142.02 26.3144 142.49 26.1432C142.983 25.9506 143.4 25.6082 143.742 25.116C144.085 24.6239 144.256 23.8963 144.256 22.9333C144.256 21.9704 144.085 21.2535 143.742 20.7827C143.4 20.2905 142.993 19.9695 142.522 19.8198C142.052 19.6486 141.613 19.563 141.206 19.563C140.778 19.563 140.318 19.6593 139.826 19.8519C139.355 20.0444 138.949 20.3868 138.606 20.879C138.285 21.3712 138.125 22.056 138.125 22.9333C138.125 23.8535 138.296 24.5704 138.638 25.084C139.002 25.5761 139.42 25.9185 139.89 26.1111C140.361 26.3037 140.789 26.4 141.174 26.4Z" fill="#FFFFF9"/>
<defs>
<clipPath id="clip0_579_111">
<rect x="-3.05176e-05" y="6" width="34" height="33.5641" rx="16.7821" fill="white"/>
</clipPath>
</defs>
</svg>
