<svg width="53" height="52" viewBox="0 0 53 52" fill="none" xmlns="http://www.w3.org/2000/svg">
<path fill-rule="evenodd" clip-rule="evenodd" d="M44.604 25.8883C44.604 30.6087 42.7288 35.1358 39.391 38.4736C36.0532 41.8115 31.5261 43.6866 26.8057 43.6866C22.0853 43.6866 17.5582 41.8115 14.2204 38.4736C10.8826 35.1358 9.0074 30.6087 9.0074 25.8883C9.0074 21.1679 10.8826 16.6409 14.2204 13.303C17.5582 9.96522 22.0853 8.09004 26.8057 8.09004C31.5261 8.09004 36.0532 9.96522 39.391 13.303C42.7288 16.6409 44.604 21.1679 44.604 25.8883ZM49.4581 25.8883C49.4581 31.8961 47.0715 37.6579 42.8234 41.906C38.5752 46.1541 32.8135 48.5407 26.8057 48.5407C20.7979 48.5407 15.0362 46.1541 10.788 41.906C6.5399 37.6579 4.15332 31.8961 4.15332 25.8883C4.15332 19.8806 6.5399 14.1188 10.788 9.87069C15.0362 5.62255 20.7979 3.23596 26.8057 3.23596C32.8135 3.23596 38.5752 5.62255 42.8234 9.87069C47.0715 14.1188 49.4581 19.8806 49.4581 25.8883ZM22.5018 31.2764C22.196 30.7337 21.6932 30.3293 21.0976 30.147C20.5019 29.9647 19.859 30.0184 19.3019 30.297C18.7447 30.5755 18.316 31.0577 18.1044 31.6436C17.8929 32.2295 17.9147 32.8743 18.1654 33.4445C19.4696 36.0625 22.8642 38.0235 26.8057 38.0235C30.7472 38.0235 34.1418 36.0625 35.446 33.4445C35.6074 33.1581 35.7089 32.8418 35.7444 32.5148C35.7798 32.1879 35.7485 31.8572 35.6522 31.5428C35.556 31.2284 35.3969 30.9368 35.1845 30.6857C34.9722 30.4347 34.711 30.2294 34.4169 30.0823C34.1228 29.9353 33.8018 29.8495 33.4736 29.8302C33.1453 29.811 32.8166 29.8587 32.5073 29.9703C32.198 30.082 31.9146 30.2553 31.6744 30.4798C31.4341 30.7044 31.242 30.9754 31.1097 31.2764C30.7958 31.8945 29.3363 33.1695 26.8057 33.1695C24.2751 33.1695 22.8156 31.8945 22.5018 31.2764ZM33.2778 25.8883C32.6341 25.8883 32.0168 25.6326 31.5616 25.1775C31.1065 24.7223 30.8508 24.105 30.8508 23.4613V20.2252C30.8508 19.5816 31.1065 18.9642 31.5616 18.5091C32.0168 18.0539 32.6341 17.7982 33.2778 17.7982C33.9215 17.7982 34.5388 18.0539 34.994 18.5091C35.4491 18.9642 35.7049 19.5816 35.7049 20.2252V23.4613C35.7049 24.105 35.4491 24.7223 34.994 25.1775C34.5388 25.6326 33.9215 25.8883 33.2778 25.8883ZM17.9066 23.4613C17.9066 24.105 18.1623 24.7223 18.6174 25.1775C19.0726 25.6326 19.6899 25.8883 20.3336 25.8883C20.9773 25.8883 21.5946 25.6326 22.0498 25.1775C22.5049 24.7223 22.7606 24.105 22.7606 23.4613V20.2252C22.7606 19.5816 22.5049 18.9642 22.0498 18.5091C21.5946 18.0539 20.9773 17.7982 20.3336 17.7982C19.6899 17.7982 19.0726 18.0539 18.6174 18.5091C18.1623 18.9642 17.9066 19.5816 17.9066 20.2252V23.4613Z" fill="#09332C"/>
</svg>
