<svg width="23" height="23" viewBox="0 0 23 23" fill="none" xmlns="http://www.w3.org/2000/svg">
<path d="M18.6256 6.69695C19.8199 7.17256 20.7792 8.0988 21.2965 9.27568C21.8138 10.4526 21.8474 11.7857 21.3902 12.9872C20.933 14.1886 20.0216 15.1621 18.8528 15.6974C17.684 16.2327 16.3516 16.2868 15.1432 15.8481C15.9342 16.3598 16.8565 16.6314 17.7986 16.6301C18.4052 16.6301 18.9856 16.5195 19.5219 16.3179C19.4474 17.3135 19.0246 18.2512 18.3277 18.9662C17.6309 19.6813 16.7045 20.1282 15.7111 20.2284C14.7177 20.3286 13.7207 20.0759 12.895 19.5144C12.0694 18.9529 11.4678 18.1187 11.1959 17.158C11.0346 17.1505 10.788 17.1842 10.4392 17.3127C9.97227 17.4833 9.44533 17.7759 8.91463 18.1322C8.09419 18.6902 7.32314 19.3176 6.60996 20.0074L5.94707 20.6712L1.96875 16.6929L2.63165 16.03C3.07045 15.5912 3.71553 14.4736 4.24904 13.219C4.50689 12.6133 4.71972 12.0189 4.85662 11.5182C4.92506 11.2716 4.96726 11.0728 4.99163 10.9219C3.99112 10.1678 3.3179 9.05867 3.11064 7.82305C2.90338 6.58743 3.17785 5.31938 3.87753 4.28007C4.57721 3.24077 5.64881 2.50936 6.87162 2.23649C8.09442 1.96362 9.37531 2.17008 10.4505 2.81333L10.4561 2.80771L10.6905 2.9671C11.2722 3.36106 11.7623 3.87564 12.1275 4.47588C12.4926 5.07612 12.7243 5.74794 12.8067 6.44567L12.8104 6.47192C12.8304 6.26565 12.8404 6.0575 12.8404 5.84747C12.842 4.45659 12.382 3.10451 11.5325 2.00323C12.3001 1.58167 13.1684 1.37791 14.0435 1.41399C14.9185 1.45007 15.7671 1.72461 16.4974 2.20794C17.2278 2.69127 17.8121 3.36501 18.1874 4.15635C18.5626 4.94768 18.7145 5.82652 18.6265 6.69789M11.3206 14.4651C11.3512 14.3795 11.3846 14.2948 11.4209 14.211L10.5892 13.3784L9.26249 14.7052L7.9367 13.3784L9.26249 12.0526L9.01121 11.8014C8.26135 11.9998 7.47262 11.9985 6.72342 11.7976C6.70466 11.872 6.6856 11.9448 6.66622 12.0161C6.47817 12.6763 6.24766 13.3236 5.97613 13.9541C5.58233 14.8814 5.07414 15.8762 4.55377 16.6263L5.97332 18.045C6.57443 17.5145 7.20894 17.0231 7.87294 16.5738C8.46645 16.1772 9.13216 15.7956 9.79506 15.5518C10.1889 15.4074 10.638 15.2921 11.0955 15.2837C11.1428 15.004 11.2182 14.7297 11.3206 14.4651Z" fill="#09312A"/>
</svg>
