<svg width="30" height="30" viewBox="0 0 30 30" fill="none" xmlns="http://www.w3.org/2000/svg">
<path d="M16.2418 3.47285L24.7001 6.64473C25.1609 6.81744 25.5579 7.12668 25.8382 7.53111C26.1185 7.93553 26.2686 8.41588 26.2686 8.90793V15.3882C26.2686 17.4079 25.7062 19.3876 24.6445 21.1056C23.5827 22.8237 22.0635 24.2121 20.2571 25.1153L16.2043 27.1405C15.9526 27.2664 15.675 27.3319 15.3936 27.3319C15.1121 27.3319 14.8345 27.2664 14.5828 27.1405L10.53 25.1141C8.7236 24.2109 7.2044 22.8225 6.14264 21.1044C5.08088 19.3864 4.51851 17.4067 4.51856 15.387L4.51856 8.90914C4.51825 8.41688 4.66827 7.93627 4.94856 7.5316C5.22885 7.12693 5.62603 6.81751 6.08697 6.64473L14.5453 3.47285C15.0922 3.26784 15.6949 3.26784 16.2418 3.47285ZM15.3936 10.4872C15.0976 10.4873 14.8119 10.5959 14.5908 10.7926C14.3696 10.9893 14.2283 11.2603 14.1937 11.5542L14.1852 11.6956V14.1122H11.7686C11.4606 14.1126 11.1643 14.2305 10.9404 14.4419C10.7165 14.6533 10.5817 14.9423 10.5636 15.2497C10.5456 15.5572 10.6456 15.8599 10.8433 16.0961C11.041 16.3323 11.3214 16.4841 11.6272 16.5204L11.7686 16.5289H14.1852V18.9456C14.1856 19.2535 14.3035 19.5498 14.5149 19.7737C14.7263 19.9977 15.0153 20.1324 15.3227 20.1505C15.6302 20.1685 15.9329 20.0685 16.1691 19.8708C16.4053 19.6732 16.5571 19.3928 16.5934 19.0869L16.6019 18.9456V16.5289H19.0186C19.3265 16.5286 19.6228 16.4106 19.8467 16.1992C20.0707 15.9878 20.2054 15.6988 20.2235 15.3914C20.2415 15.0839 20.1415 14.7812 19.9438 14.545C19.7461 14.3088 19.4658 14.1571 19.1599 14.1207L19.0186 14.1122H16.6019V11.6956C16.6019 11.3751 16.4746 11.0677 16.248 10.8411C16.0214 10.6145 15.714 10.4872 15.3936 10.4872Z" fill="#FFFFF9"/>
</svg>
