<svg width="29" height="29" viewBox="0 0 29 29" fill="none" xmlns="http://www.w3.org/2000/svg">
<path d="M11.0043 6.58308C11.7269 4.4685 14.6486 4.40446 15.5053 6.39096L15.5778 6.58429L16.553 9.43596C16.7764 10.0899 17.1376 10.6884 17.612 11.191C18.0864 11.6935 18.6631 12.0885 19.3031 12.3492L19.5653 12.4471L22.417 13.421C24.5316 14.1436 24.5956 17.0654 22.6103 17.9221L22.417 17.9946L19.5653 18.9697C18.9111 19.193 18.3124 19.5541 17.8097 20.0285C17.3069 20.5029 16.9117 21.0797 16.6508 21.7199L16.553 21.9809L15.579 24.8337C14.8565 26.9483 11.9347 27.0124 11.0792 25.0271L11.0043 24.8337L10.0304 21.9821C9.80705 21.3279 9.446 20.7292 8.97157 20.2264C8.49714 19.7236 7.92038 19.3285 7.28021 19.0676L7.01921 18.9697L4.16755 17.9958C2.05175 17.2732 1.98771 14.3515 3.97421 13.496L4.16755 13.421L7.01921 12.4471C7.6732 12.2237 8.27166 11.8625 8.77422 11.3881C9.27679 10.9137 9.67176 10.337 9.9325 9.69696L10.0304 9.43596L11.0043 6.58308ZM22.9583 2.41675C23.1844 2.41675 23.4059 2.48016 23.5977 2.59978C23.7895 2.71939 23.944 2.89042 24.0434 3.09341L24.1014 3.23479L24.5243 4.47454L25.7653 4.89746C25.9918 4.97442 26.1904 5.11691 26.3359 5.30686C26.4814 5.49681 26.5672 5.72567 26.5825 5.96444C26.5977 6.20321 26.5418 6.44114 26.4217 6.64807C26.3016 6.85501 26.1228 7.02163 25.9079 7.12683L25.7653 7.18483L24.5255 7.60775L24.1026 8.84871C24.0255 9.07518 23.8829 9.27367 23.6929 9.41903C23.5029 9.56439 23.274 9.65006 23.0352 9.6652C22.7965 9.68035 22.5586 9.62427 22.3517 9.50408C22.1449 9.38389 21.9783 9.205 21.8733 8.99008L21.8153 8.84871L21.3923 7.60896L20.1514 7.18604C19.9248 7.10908 19.7262 6.96659 19.5808 6.77664C19.4353 6.58669 19.3495 6.35783 19.3342 6.11906C19.3189 5.88029 19.3749 5.64236 19.495 5.43542C19.6151 5.22849 19.7939 5.06186 20.0088 4.95667L20.1514 4.89866L21.3911 4.47575L21.814 3.23479C21.8955 2.99605 22.0497 2.7888 22.2549 2.6421C22.4601 2.4954 22.7061 2.4166 22.9583 2.41675Z" fill="#FFFFF9"/>
</svg>
