<svg width="42" height="42" viewBox="0 0 42 42" fill="none" xmlns="http://www.w3.org/2000/svg">
<path fill-rule="evenodd" clip-rule="evenodd" d="M29.9013 9.04197C30.0466 8.99524 30.2017 8.98738 30.3511 9.01915C30.5004 9.05093 30.6389 9.12124 30.7526 9.22309L37.9583 15.6797C38.0736 15.783 38.1594 15.9149 38.2071 16.0622C38.2547 16.2095 38.2625 16.3667 38.2295 16.518L36.1706 25.9531C36.1365 26.11 36.0598 26.2545 35.949 26.3707C35.8381 26.4869 35.6975 26.5704 35.5424 26.612L26.2779 29.0952C26.1305 29.1347 25.9754 29.135 25.8279 29.096C25.6804 29.057 25.5456 28.9801 25.437 28.873L21.447 24.9355C21.2818 24.7723 21.1881 24.5502 21.1867 24.318C21.1852 24.0858 21.276 23.8626 21.4391 23.6973C21.6023 23.5321 21.8244 23.4385 22.0566 23.437C22.2888 23.4355 22.512 23.5263 22.6773 23.6895L26.3085 27.2752L34.5746 25.0597L36.4113 16.6422L29.959 10.862L21.5975 13.5508L20.7068 16.2721C20.671 16.3813 20.6141 16.4824 20.5393 16.5697C20.4645 16.6569 20.3732 16.7285 20.2707 16.7805C20.1682 16.8324 20.0565 16.8637 19.9419 16.8725C19.8274 16.8813 19.7122 16.8674 19.603 16.8317C19.4937 16.7959 19.3926 16.739 19.3054 16.6642C19.2182 16.5894 19.1465 16.4981 19.0946 16.3956C19.0426 16.2931 19.0113 16.1814 19.0026 16.0668C18.9938 15.9522 19.0077 15.8371 19.0434 15.7278L20.0724 12.5822C20.1156 12.4509 20.1892 12.3318 20.2873 12.2344C20.3854 12.1371 20.5052 12.0644 20.6368 12.0222L29.9013 9.04197Z" fill="#F0531C"/>
<path fill-rule="evenodd" clip-rule="evenodd" d="M28.6319 17.5218C28.8581 17.5734 29.0546 17.7127 29.1782 17.9091C29.3018 18.1055 29.3422 18.3429 29.2907 18.5692L27.1032 28.1942C27.0499 28.4186 26.9101 28.6128 26.7143 28.7347C26.5185 28.8565 26.2826 28.8962 26.0577 28.845C25.8328 28.7938 25.6373 28.6559 25.5135 28.4613C25.3898 28.2666 25.3479 28.031 25.397 27.8057L27.5845 18.1807C27.636 17.9544 27.7753 17.7579 27.9717 17.6344C28.1681 17.5108 28.4056 17.4703 28.6319 17.5218Z" fill="#F0531C"/>
<path fill-rule="evenodd" clip-rule="evenodd" d="M20.7709 12.1213C20.9209 11.9444 21.1351 11.8344 21.3663 11.8153C21.5975 11.7963 21.8267 11.8698 22.0037 12.0198L28.3606 17.4098L34.3325 15.7806C34.5564 15.7195 34.7954 15.7499 34.9969 15.8651C35.1984 15.9803 35.3459 16.1709 35.407 16.3948C35.468 16.6187 35.4376 16.8578 35.3224 17.0593C35.2072 17.2608 35.0167 17.4083 34.7927 17.4693L28.3764 19.2193C28.2393 19.2567 28.0951 19.2602 27.9564 19.2294C27.8176 19.1986 27.6885 19.1345 27.5801 19.0426L20.8724 13.3551C20.7846 13.2807 20.7124 13.1899 20.6599 13.0876C20.6073 12.9854 20.5754 12.8738 20.5659 12.7592C20.5565 12.6446 20.5698 12.5293 20.6049 12.4199C20.6401 12.3104 20.6965 12.209 20.7709 12.1213ZM9.39935 13.3673C9.50964 13.2618 9.64559 13.1871 9.79371 13.1504C9.94183 13.1137 10.097 13.1164 10.2437 13.1582L17.48 15.2241C17.6271 15.2659 17.7607 15.3457 17.8674 15.4553C17.9741 15.5649 18.0502 15.7006 18.0881 15.8488L20.098 23.6993C20.1381 23.8557 20.1341 24.0201 20.0865 24.1744C20.039 24.3287 19.9497 24.4668 19.8285 24.5734L14.2013 29.5312C14.0913 29.6283 13.9587 29.6962 13.8156 29.7286C13.6724 29.761 13.5235 29.7569 13.3823 29.7167L6.14523 27.6499C6.00037 27.6085 5.86868 27.5303 5.7629 27.423C5.65713 27.3157 5.58086 27.1829 5.54148 27.0374L3.53073 19.5999C3.48972 19.448 3.49043 19.2879 3.53278 19.1364C3.57513 18.9849 3.65754 18.8476 3.77135 18.7389L9.39935 13.3673ZM10.2455 14.9791L5.3551 19.6454L7.09985 26.1029L13.4016 27.9019L18.2692 23.6144L16.5166 16.7693L10.2455 14.9791Z" fill="#F0531C"/>
<path fill-rule="evenodd" clip-rule="evenodd" d="M15.5816 17.7118C15.7399 17.8856 15.8288 18.1213 15.8288 18.367C15.8288 18.5264 15.6571 18.8922 15.5876 19.029C15.55 19.1031 15.6372 18.9611 15.5816 19.0222L12.2042 22.729C12.0985 22.8449 11.9667 22.9279 11.8222 22.9696C11.6777 23.0112 11.5258 23.0101 11.3818 22.9663L4.62707 20.9071C4.5192 20.8756 4.4181 20.8209 4.32961 20.7462C4.24112 20.6715 4.167 20.5783 4.11155 20.472C4.0561 20.3656 4.0204 20.2483 4.00654 20.1267C3.99267 20.0051 4.00091 19.8817 4.03077 19.7637C4.06064 19.6456 4.11153 19.5353 4.18052 19.4389C4.2495 19.3426 4.3352 19.2622 4.43267 19.2025C4.53013 19.1428 4.63742 19.1048 4.74833 19.0909C4.85923 19.077 4.97156 19.0873 5.0788 19.1213L11.359 21.0359L14.3877 17.7118C14.546 17.5381 14.7608 17.4405 14.9846 17.4405C15.2085 17.4405 15.4233 17.5381 15.5816 17.7118Z" fill="#F0531C"/>
<path d="M15.5816 17.7118C15.7399 17.8856 15.8288 18.1213 15.8288 18.367C15.8288 18.5264 15.6571 18.8922 15.5876 19.029L18 16.3813L15.8288 16L14.3877 17.7118C14.546 17.5381 14.7608 17.4405 14.9846 17.4405C15.2085 17.4405 15.4233 17.5381 15.5816 17.7118Z" fill="#F0531C"/>
<path fill-rule="evenodd" clip-rule="evenodd" d="M11.5687 21.0238C11.7616 20.9725 11.9658 21.0049 12.1363 21.114C12.3068 21.2232 12.4297 21.4 12.4781 21.6058L13.9788 28.0104C14.0255 28.2158 13.9943 28.4325 13.8919 28.6134C13.7894 28.7943 13.6241 28.9246 13.432 28.976C13.2399 29.0274 13.0365 28.9956 12.8662 28.8876C12.696 28.7796 12.5726 28.6041 12.5231 28.3995L11.0224 21.9949C10.9985 21.8929 10.9937 21.7868 11.0082 21.6828C11.0227 21.5787 11.0562 21.4788 11.107 21.3886C11.1577 21.2984 11.2246 21.2198 11.3038 21.1572C11.383 21.0946 11.473 21.0493 11.5687 21.0238Z" fill="#F0531C"/>
</svg>
