<svg width="40" height="40" viewBox="0 0 40 40" fill="none" xmlns="http://www.w3.org/2000/svg">
<path d="M32.5652 20.984C34.6281 20.1921 34.7195 18.2351 34.304 17.0786L32.4034 12.1275C31.6001 10.0595 29.6545 9.9732 28.498 10.3887L25.6873 11.4771L22.7297 10.1603C20.5601 9.19431 18.7955 9.77698 17.5714 10.8055L10.2438 13.6183L8.21011 18.186L7.04345 18.6244C4.97542 19.4277 4.88911 21.3733 5.30465 22.5298L7.20518 27.4808C7.54728 28.372 8.10791 28.8953 8.73598 29.1749C9.54675 29.5359 10.467 29.4667 11.1106 29.2196L15.5716 27.4977L19.6712 29.323C21.6124 30.1873 23.1334 29.4141 24.0162 28.3841C25.4591 28.616 26.6043 27.9492 27.3169 27.1171C29.2903 27.4483 30.7 26.0646 31.2236 24.8884L32.7489 21.4626L32.0752 21.1626L32.5652 20.984ZM28.9398 23.8716C28.711 24.3854 28.2144 24.9169 27.2894 24.5051L26.1475 23.9966L25.6391 25.1386C25.4103 25.6524 24.9137 26.1839 23.9887 25.7721L22.8468 25.2637L22.3384 26.4056C22.1096 26.9195 21.613 27.4509 20.688 27.0391L15.6521 24.797L10.2389 26.8749C9.73748 27.0484 9.61837 26.7628 9.54868 26.5813L7.6494 21.6581C7.47585 21.1567 7.7615 21.0376 7.94303 20.9679L10.0771 20.1392L12.1108 15.5715L15.4115 14.3045L14.6031 16.1202C13.9879 17.5019 13.9914 19.9527 16.5036 21.0712C19.0159 22.1897 20.8395 20.5524 21.4547 19.1707L29.4482 22.7296L28.9398 23.8716ZM31.6656 18.6405L28.8549 19.7289L20.1876 15.87L19.1708 18.1538C18.942 18.6677 18.4454 19.1992 17.5204 18.7873C16.5955 18.3755 16.6581 17.6509 16.8869 17.137L18.4122 13.7112C18.6461 13.1859 19.6232 11.5138 21.7129 12.4442L25.6069 14.1779L29.3697 12.7335C29.8711 12.5599 29.9903 12.8456 30.0599 13.0271L31.9592 17.9503C32.1328 18.4517 31.8471 18.5708 31.6656 18.6405Z" fill="#09312A"/>
</svg>
