<svg width="20" height="24" viewBox="0 0 20 24" fill="none" xmlns="http://www.w3.org/2000/svg">
<path d="M14.5901 2.73702C11.1566 1.83671 8.56389 2.66033 6.16007 4.71132C5.72401 5.08337 5.65804 5.73296 6.01201 6.18382L7.49869 8.0774C7.85618 8.53272 8.51179 8.62008 8.97588 8.27404C10.4073 7.2067 11.4104 6.63907 13.0935 7.0804C14.4168 7.4274 15.8303 8.70827 15.4939 9.99152C15.2395 10.9616 14.308 11.2498 12.8093 11.6398C11.0615 12.0945 8.76634 12.629 8.06894 15.2886L7.95854 15.7096C7.80903 16.2798 8.15004 16.8632 8.72022 17.0127L11.8376 17.8301C12.4078 17.9796 12.9912 17.6386 13.1407 17.0685L13.2058 16.8201C13.6892 14.9765 19.0979 16.3126 20.4061 11.3236C21.3913 7.56642 18.2413 3.69443 14.5901 2.73702ZM9.94666 18.6886C8.30363 18.2578 6.6164 19.244 6.18557 20.887C5.75475 22.5301 6.74097 24.2173 8.384 24.6481C10.027 25.0789 11.7143 24.0927 12.1451 22.4497C12.5759 20.8066 11.5897 19.1195 9.94666 18.6886Z" fill="#09312A"/>
</svg>
