<svg width="27" height="27" viewBox="0 0 27 27" fill="none" xmlns="http://www.w3.org/2000/svg">
<path d="M11.25 20.25V20.1296C11.25 19.2352 10.692 18.4556 9.99338 17.8976C9.08152 17.1704 8.41826 16.1778 8.09539 15.057C7.77252 13.9363 7.80601 12.7429 8.19123 11.642C8.57645 10.5411 9.29434 9.58724 10.2456 8.91233C11.1968 8.23741 12.3342 7.87487 13.5006 7.87487C14.6669 7.87487 15.8044 8.23741 16.7556 8.91233C17.7068 9.58724 18.4247 10.5411 18.8099 11.642C19.1951 12.7429 19.2286 13.9363 18.9057 15.057C18.5829 16.1778 17.9196 17.1704 17.0078 17.8976C16.308 18.4568 15.75 19.2352 15.75 20.1296V20.25M11.25 20.25V22.5C11.25 22.7984 11.3685 23.0845 11.5795 23.2955C11.7905 23.5065 12.0766 23.625 12.375 23.625H14.625C14.9234 23.625 15.2095 23.5065 15.4205 23.2955C15.6315 23.0845 15.75 22.7984 15.75 22.5V20.25M11.25 20.25H15.75M22.5 13.5H23.625M4.5 13.5H3.375M13.5 4.5V3.375M19.8641 7.13587L20.6595 6.3405M7.137 7.13587L6.3405 6.3405M13.5 16.875V14.625" stroke="#09332C" stroke-width="2.66667" stroke-linecap="round" stroke-linejoin="round"/>
</svg>
