<svg width="25" height="25" viewBox="0 0 25 25" fill="none" xmlns="http://www.w3.org/2000/svg">
<path d="M12.939 2.31384C12.7536 2.15524 12.5175 2.06817 12.2735 2.06836C12.0294 2.06855 11.7935 2.15598 11.6083 2.31486L11.5173 2.39362C11.1507 2.72032 10.7916 3.05522 10.4402 3.39807C9.5462 4.26906 8.69975 5.18755 7.90452 6.14955C6.9819 7.26856 6.03985 8.57679 5.32487 9.95663C4.61399 11.3273 4.09131 12.837 4.09131 14.3426C4.09131 16.5129 4.95343 18.5942 6.48801 20.1288C8.0226 21.6634 10.1039 22.5255 12.2742 22.5255C14.4444 22.5255 16.5257 21.6634 18.0603 20.1288C19.5949 18.5942 20.457 16.5129 20.457 14.3426C20.457 12.837 19.9343 11.3273 19.2235 9.95663C18.5075 8.57577 17.5664 7.26856 16.6438 6.14853C15.6035 4.89042 14.4759 3.70711 13.2694 2.6074L12.94 2.31486L12.939 2.31384ZM6.13702 14.3426C6.13702 13.2911 6.50934 12.1159 7.14045 10.8977C7.76848 9.68864 8.61643 8.50315 9.48279 7.44961C10.3504 6.39999 11.2827 5.40555 12.2742 4.47207C13.2652 5.40492 14.1972 6.39868 15.0645 7.44756C15.9319 8.5011 16.7799 9.68762 17.4069 10.8966C18.039 12.1149 18.4113 13.2901 18.4113 14.3416C18.4113 15.9693 17.7647 17.5303 16.6138 18.6812C15.4628 19.8322 13.9018 20.4788 12.2742 20.4788C10.6465 20.4788 9.08549 19.8322 7.93455 18.6812C6.78361 17.5303 6.13702 15.9693 6.13702 14.3416V14.3426Z" fill="#09312A"/>
<path d="M8.55098 14.3858C8.29098 14.463 8.0723 14.6404 7.94302 14.8788C7.81374 15.1172 7.78444 15.3972 7.86157 15.6572C8.08068 16.39 8.47855 17.0568 9.01937 17.5977C9.5602 18.1385 10.227 18.5364 10.9598 18.7555C11.0889 18.7949 11.2245 18.8083 11.3588 18.7951C11.4931 18.7819 11.6234 18.7422 11.7423 18.6784C11.8612 18.6145 11.9663 18.5278 12.0515 18.4231C12.1367 18.3185 12.2004 18.1981 12.2389 18.0687C12.2773 17.9394 12.2898 17.8037 12.2756 17.6695C12.2614 17.5353 12.2208 17.4052 12.1561 17.2868C12.0914 17.1684 12.0039 17.0639 11.8986 16.9794C11.7934 16.895 11.6725 16.8322 11.5428 16.7947C11.1362 16.6725 10.7661 16.4514 10.4659 16.1512C10.1656 15.8509 9.94452 15.4809 9.82239 15.0742C9.74495 14.8144 9.56755 14.596 9.32915 14.4669C9.09075 14.3378 8.81086 14.3087 8.55098 14.3858Z" fill="#09312A"/>
</svg>
