<svg width="24" height="24" viewBox="0 0 24 24" fill="none" xmlns="http://www.w3.org/2000/svg">
<path d="M13.2378 12.2475C13.2378 12.677 13.1532 13.1022 12.9888 13.4989C12.8245 13.8956 12.5836 14.2561 12.28 14.5598C11.9763 14.8634 11.6159 15.1043 11.2191 15.2686C10.8224 15.433 10.3972 15.5175 9.96775 15.5175C9.53833 15.5175 9.11311 15.433 8.71638 15.2686C8.31964 15.1043 7.95916 14.8634 7.65551 14.5598C7.35187 14.2561 7.111 13.8956 6.94667 13.4989C6.78234 13.1022 6.69775 12.677 6.69775 12.2475C6.69775 11.3803 7.04227 10.5485 7.65551 9.9353C8.26876 9.32206 9.1005 8.97754 9.96775 8.97754C10.835 8.97754 11.6667 9.32206 12.28 9.9353C12.8932 10.5485 13.2378 11.3803 13.2378 12.2475Z" fill="#09332C"/>
<path d="M20.565 4.41L19.17 3.015C18.1942 2.04301 16.8724 1.49811 15.495 1.5C14.115 1.5 12.81 2.04 11.835 3.015L11.7 3.1575C10.9875 3.87 10.035 4.3125 9.02253 4.4025C7.08003 4.5675 5.25753 5.41501 3.88503 6.78751C3.12764 7.54159 2.52696 8.43811 2.11763 9.4254C1.7083 10.4127 1.4984 11.4712 1.50003 12.54C1.4968 13.6592 1.7262 14.767 2.17369 15.7929C2.62119 16.8188 3.277 17.7405 4.09953 18.4995L5.80503 20.205C6.53219 20.9327 7.39563 21.51 8.346 21.9039C9.29637 22.2977 10.315 22.5005 11.3438 22.5005C12.3725 22.5005 13.3912 22.2977 14.3416 21.9039C15.2919 21.51 16.1554 20.9327 16.8825 20.205C18.21 18.8775 19.0275 17.1225 19.185 15.2475C19.2165 14.8755 19.215 14.5065 19.2128 14.1465C19.2068 13.1348 19.2015 12.1935 19.9425 11.4525L20.565 10.83C21.4151 9.97796 21.8924 8.82355 21.8924 7.62C21.8924 6.41646 21.4151 5.26205 20.565 4.41ZM4.66503 17.505C4.47753 17.3175 4.30278 17.1225 4.14078 16.92L4.14678 16.944C3.06417 15.5956 2.51672 13.8954 2.60915 12.1687C2.70158 10.4419 3.42741 8.80987 4.64778 7.58475L4.66503 7.5675C5.85883 6.37283 7.43711 5.63949 9.12003 5.4975C10.3875 5.3925 11.58 4.8375 12.48 3.9375L12.6203 3.79726C12.9955 3.41865 13.442 3.11813 13.934 2.91306C14.426 2.708 14.9538 2.60244 15.4868 2.6025C16.2934 2.59998 17.0825 2.83693 17.7543 3.28333C18.4261 3.72973 18.9503 4.3655 19.2604 5.11008C19.5705 5.85466 19.6526 6.67453 19.4963 7.46583C19.3401 8.25713 18.9524 8.98423 18.3825 9.55501L18.24 9.6975C17.3416 10.5973 16.787 11.7836 16.6725 13.05C16.5305 14.7329 15.7972 16.3112 14.6025 17.505C13.9501 18.1577 13.1755 18.6755 12.323 19.0287C11.4704 19.382 10.5566 19.5638 9.63378 19.5638C8.71094 19.5638 7.79714 19.382 6.94459 19.0287C6.09203 18.6755 5.31743 18.1577 4.66503 17.505Z" fill="#09332C"/>
</svg>
