<svg width="23" height="23" viewBox="0 0 23 23" fill="none" xmlns="http://www.w3.org/2000/svg">
<path fill-rule="evenodd" clip-rule="evenodd" d="M3.37051 16.2916L10.1344 4.99952C10.2769 4.76489 10.4773 4.57091 10.7165 4.43629C10.9557 4.30168 11.2256 4.23096 11.5001 4.23096C11.7745 4.23096 12.0444 4.30168 12.2836 4.43629C12.5228 4.57091 12.7232 4.76489 12.8657 4.99952L19.6296 16.2916C19.769 16.5331 19.8427 16.8069 19.8434 17.0858C19.8441 17.3646 19.7719 17.6388 19.6338 17.8811C19.4957 18.1233 19.2966 18.3252 19.0563 18.4667C18.816 18.6081 18.5428 18.6842 18.264 18.6874H4.73614C4.45718 18.6845 4.18385 18.6086 3.94337 18.4672C3.70289 18.3258 3.50366 18.1239 3.36551 17.8815C3.22737 17.6392 3.15514 17.3648 3.15601 17.0859C3.15689 16.8069 3.23084 16.533 3.37051 16.2916ZM11.5001 8.62489C11.7542 8.62489 11.998 8.72586 12.1777 8.90558C12.3574 9.08531 12.4584 9.32906 12.4584 9.58323V12.4582C12.4584 12.7124 12.3574 12.9561 12.1777 13.1359C11.998 13.3156 11.7542 13.4166 11.5001 13.4166C11.2459 13.4166 11.0021 13.3156 10.8224 13.1359C10.6427 12.9561 10.5417 12.7124 10.5417 12.4582V9.58323C10.5417 9.32906 10.6427 9.08531 10.8224 8.90558C11.0021 8.72586 11.2459 8.62489 11.5001 8.62489ZM10.5417 15.3332C10.5417 15.0791 10.6427 14.8353 10.8224 14.6556C11.0021 14.4759 11.2459 14.3749 11.5001 14.3749H11.5077C11.7619 14.3749 12.0056 14.4759 12.1854 14.6556C12.3651 14.8353 12.4661 15.0791 12.4661 15.3332C12.4661 15.5874 12.3651 15.8312 12.1854 16.0109C12.0056 16.1906 11.7619 16.2916 11.5077 16.2916H11.5001C11.2459 16.2916 11.0021 16.1906 10.8224 16.0109C10.6427 15.8312 10.5417 15.5874 10.5417 15.3332Z" fill="#FF4F4F"/>
</svg>
