<svg width="10" height="10" viewBox="0 0 10 10" fill="none" xmlns="http://www.w3.org/2000/svg">
<path d="M8.75 8.33337V2.50004C8.75 2.04046 8.37625 1.66671 7.91667 1.66671H7.08333V0.833374H6.25V1.66671H3.75V0.833374H2.91667V1.66671H2.08333C1.62375 1.66671 1.25 2.04046 1.25 2.50004V8.33337C1.25 8.79296 1.62375 9.16671 2.08333 9.16671H7.91667C8.37625 9.16671 8.75 8.79296 8.75 8.33337ZM3.75 7.50004H2.91667V6.66671H3.75V7.50004ZM3.75 5.83337H2.91667V5.00004H3.75V5.83337ZM5.41667 7.50004H4.58333V6.66671H5.41667V7.50004ZM5.41667 5.83337H4.58333V5.00004H5.41667V5.83337ZM7.08333 7.50004H6.25V6.66671H7.08333V7.50004ZM7.08333 5.83337H6.25V5.00004H7.08333V5.83337ZM7.91667 3.75004H2.08333V2.91671H7.91667V3.75004Z" fill="white"/>
</svg>
