<svg width="39" height="39" viewBox="0 0 39 39" fill="none" xmlns="http://www.w3.org/2000/svg">
<path d="M19.5 3.25C10.5398 3.25 3.25 10.5398 3.25 19.5C3.25 28.4603 10.5398 35.75 19.5 35.75C28.4603 35.75 35.75 28.4603 35.75 19.5C35.75 10.5398 28.4603 3.25 19.5 3.25ZM13.8125 14.625C14.1327 14.6251 14.4498 14.6883 14.7455 14.8109C15.0413 14.9336 15.3101 15.1132 15.5364 15.3397C15.7628 15.5662 15.9423 15.8351 16.0647 16.131C16.1871 16.4268 16.2501 16.7439 16.25 17.0641C16.2499 17.3843 16.1867 17.7014 16.0641 17.9972C15.9414 18.293 15.7618 18.5617 15.5353 18.788C15.3088 19.0144 15.0399 19.1939 14.744 19.3163C14.4482 19.4388 14.1311 19.5017 13.8109 19.5016C13.1642 19.5014 12.5441 19.2443 12.087 18.7869C11.6298 18.3295 11.3732 17.7092 11.3734 17.0625C11.3736 16.4158 11.6307 15.7957 12.0881 15.3386C12.5455 14.8815 13.1658 14.6248 13.8125 14.625ZM26.3916 26.3965C25.0432 27.7446 23.3291 28.6678 21.4614 29.0518C19.5299 29.4448 17.5248 29.2472 15.7073 28.4846C13.9632 27.7478 12.4714 26.5191 11.414 24.9486L14.1083 23.1335C14.3422 23.478 14.6066 23.7976 14.9012 24.0923C15.494 24.6874 16.1965 25.162 16.9699 25.4897C17.3664 25.6566 17.7721 25.7822 18.187 25.8668C19.0537 26.041 19.9463 26.041 20.813 25.8668C21.2257 25.7812 21.632 25.655 22.0317 25.4881C22.412 25.3256 22.7858 25.1241 23.1351 24.8901C23.4742 24.6583 23.7943 24.3934 24.0955 24.0955C24.3934 23.7987 24.6583 23.478 24.8901 23.1335L27.5844 24.9486C27.2366 25.4686 26.8352 25.9561 26.3916 26.3965ZM21.125 19.5C21.125 19.5 21.9375 16.25 25.1875 16.25C28.4375 16.25 29.25 19.5 29.25 19.5H21.125Z" fill="#F0531C"/>
</svg>
