<svg width="21" height="21" viewBox="0 0 21 21" fill="none" xmlns="http://www.w3.org/2000/svg">
<path fill-rule="evenodd" clip-rule="evenodd" d="M10.5 2.29333L9.89625 2.86733L9.89188 2.87083L9.87788 2.88396C9.8021 2.95692 9.72743 3.03101 9.65388 3.10621C8.75994 4.0108 7.93073 4.97715 7.17238 5.99809C5.84675 7.78484 4.375 10.2821 4.375 12.691C4.375 15.9013 7.19163 18.375 10.5 18.375C13.8084 18.375 16.625 15.9013 16.625 12.6918C16.625 10.283 15.1524 7.78571 13.8285 5.99809C13.0203 4.91085 12.1317 3.88568 11.1703 2.93121L11.1221 2.88396L11.1081 2.87083L11.1046 2.86733L10.5 2.29333ZM8.83575 12.7907C8.76217 12.5724 8.60543 12.3918 8.39956 12.2883C8.19369 12.1849 7.95531 12.1667 7.73617 12.238C7.51703 12.3092 7.33482 12.4639 7.2291 12.6687C7.12338 12.8734 7.10268 13.1116 7.1715 13.3315C7.39988 14.0344 7.84493 14.647 8.44286 15.0814C9.04079 15.5159 9.7609 15.7499 10.5 15.75C10.7321 15.75 10.9546 15.6578 11.1187 15.4937C11.2828 15.3296 11.375 15.107 11.375 14.875C11.375 14.6429 11.2828 14.4203 11.1187 14.2562C10.9546 14.0921 10.7321 14 10.5 14C10.1305 13.9999 9.77039 13.8829 9.47143 13.6657C9.17247 13.4485 8.94994 13.1422 8.83575 12.7907Z" fill="#FFA74F"/>
</svg>
